<svg width="24" height="24" viewBox="0 0 24 24" fill="none" xmlns="http://www.w3.org/2000/svg">
<path d="M5.1487 14.0394L4.34003 17.0583L1.38435 17.1208C0.501031 15.4825 0 13.608 0 11.616C0 9.6898 0.468452 7.87335 1.29881 6.27393H1.29945L3.93084 6.75635L5.08354 9.37195C4.84228 10.0753 4.71079 10.8303 4.71079 11.616C4.71088 12.4687 4.86533 13.2857 5.1487 14.0394Z" fill="white"/>
<path d="M23.0288 9.44604C23.1622 10.1487 23.2317 10.8744 23.2317 11.6161C23.2317 12.4477 23.1443 13.2589 22.9777 14.0414C22.4123 16.7041 20.9347 19.0292 18.8879 20.6746L18.8872 20.674L15.5729 20.5049L15.1038 17.5766C16.462 16.7801 17.5234 15.5336 18.0825 14.0414H11.8711V9.44604H18.1731H23.0288Z" fill="white"/>
<path d="M18.8879 20.6739L18.8885 20.6746C16.8979 22.2746 14.3691 23.232 11.6164 23.232C7.19277 23.232 3.34674 20.7595 1.38477 17.1208L5.14912 14.0394C6.13008 16.6575 8.65561 18.5212 11.6164 18.5212C12.8891 18.5212 14.0813 18.1771 15.1044 17.5765L18.8879 20.6739Z" fill="white"/>
<path d="M19.0305 2.67422L15.2674 5.755C14.2086 5.09316 12.9569 4.71083 11.616 4.71083C8.58819 4.71083 6.01542 6.66001 5.0836 9.37193L1.29946 6.27391H1.29883C3.23208 2.54658 7.12661 0 11.616 0C14.4345 0 17.0187 1.00397 19.0305 2.67422Z" fill="white"/>
</svg>
