<svg width="20" height="24" viewBox="0 0 20 24" fill="none" xmlns="http://www.w3.org/2000/svg">
<path fill-rule="evenodd" clip-rule="evenodd" d="M5 0H15C17.7601 0.00330612 19.9967 2.23995 20 5V19C19.9967 21.7601 17.7601 23.9967 15 24H4C1.79086 24 0 22.2091 0 20V5C0.00330612 2.23995 2.23995 0.00330612 5 0ZM18 16V5C18 3.34315 16.6569 2 15 2H6V16H18ZM4 2.172V16C3.29763 15.9994 2.6076 16.1847 2 16.537V5C2.00018 3.72881 2.80151 2.59573 4 2.172ZM4 22H15C16.6569 22 18 20.6569 18 19V18H4C2.89543 18 2 18.8954 2 20C2 21.1046 2.89543 22 4 22Z" fill="#93C01F"/>
</svg>
