


<svg width="100" height="100" viewBox="0 0 100 100" fill="none" xmlns="http://www.w3.org/2000/svg">
<circle cx="50" cy="50" r="50" ry="52.2483" fill="#FF8D1A" fill-opacity="0.15"/>
<mask id="mask0" mask-type="alpha" maskUnits="userSpaceOnUse" x="27" y="36" width="51" height="41">
<path fill-rule="evenodd" clip-rule="evenodd" d="M27.3 36.6628H77.575V76.033H27.3V36.6628Z" fill="currentColor"/>
</mask>
<g mask="url(#mask0)">
<path fill-rule="evenodd" clip-rule="evenodd" d="M67.1006 36.6628H64.8307C65.0231 38.0353 65.0172 39.4383 64.8028 40.8078H68.98C71.4143 40.8078 73.3847 42.7583 73.3847 45.1649V61.3164C73.3847 63.7215 71.4143 65.6735 68.98 65.6735H35.8948C33.4619 65.6735 31.49 63.7215 31.49 61.3164V45.1649C31.49 42.7583 33.4619 40.8078 35.8948 40.8078H41.038C40.8251 39.4383 40.8207 38.0353 41.013 36.6628H37.7741C31.9922 36.6701 27.307 41.3045 27.2997 47.0239V59.456C27.307 65.1753 31.9922 69.8097 37.7741 69.817H50.3422V71.8895H44.0581C42.9012 71.8895 41.963 72.8175 41.963 73.962C41.963 75.1064 42.9012 76.033 44.0581 76.033H60.8166C61.9736 76.033 62.9103 75.1064 62.9103 73.962C62.9103 72.8175 61.9736 71.8895 60.8166 71.8895H54.5311V69.817H67.1006C72.8825 69.8097 77.5677 65.1753 77.575 59.456V47.0239C77.5677 41.3045 72.8825 36.6701 67.1006 36.6628Z" fill="currentColor"/>
</g>
<mask id="mask1" mask-type="alpha" maskUnits="userSpaceOnUse" x="42" y="30" width="21" height="25">
<path fill-rule="evenodd" clip-rule="evenodd" d="M42.3337 30.3936H62.5546V54.8371H42.3337V30.3936Z" fill="currentColor"/>
</mask>
<g mask="url(#mask1)">
<path fill-rule="evenodd" clip-rule="evenodd" d="M52.4434 32.8374C56.1409 32.8445 59.2942 35.4246 59.9131 38.9494H56.2347C55.5366 38.9494 54.9719 39.4955 54.9719 40.1706C54.9719 40.8458 55.5366 41.3933 56.2347 41.3933H60.0261V43.8372H56.2347C55.5366 43.8372 54.9719 44.3848 54.9719 45.0599C54.9719 45.7351 55.5366 46.2826 56.2347 46.2826H59.9131C59.2194 50.2712 55.3122 52.962 51.1879 52.2896C48.0053 51.7733 45.5105 49.3606 44.9751 46.2826H48.6535C49.3502 46.2826 49.9163 45.7351 49.9163 45.0599C49.9163 44.3848 49.3502 43.8372 48.6535 43.8372H44.8607V41.3933H48.6535C49.3502 41.3933 49.9163 40.8458 49.9163 40.1706C49.9163 39.4955 49.3502 38.9494 48.6535 38.9494H44.9751C45.5941 35.4246 48.7474 32.8445 52.4434 32.8374ZM52.4434 54.8371C58.0255 54.8314 62.5487 50.457 62.5546 45.0599V40.1706C62.5546 34.7707 58.0285 30.3934 52.4434 30.3934C46.8598 30.3934 42.3337 34.7707 42.3337 40.1706V45.0599C42.3395 50.457 46.8627 54.8314 52.4434 54.8371Z" fill="currentColor"/>
</g>
<path fill-rule="evenodd" clip-rule="evenodd" d="M65.9322 45.7201C65.2313 45.7201 64.6643 46.265 64.6643 46.9371C64.657 52.9809 59.5474 57.8785 53.245 57.8855H50.7064C44.4026 57.877 39.2945 52.9809 39.2871 46.9371C39.2871 46.265 38.7202 45.7201 38.0178 45.7201C37.3169 45.7201 36.75 46.265 36.75 46.9371C36.7588 54.3236 43.0023 60.3096 50.7064 60.318H53.245C60.9477 60.3096 67.1912 54.3236 67.2 46.9371C67.2 46.265 66.6331 45.7201 65.9322 45.7201Z" fill="currentColor"/>
</svg>
