<svg width="85" height="85" viewBox="0 0 96 88" fill="none" xmlns="http://www.w3.org/2000/svg">
<g filter="url(#filter0_d)">
<ellipse cx="56" cy="44.1911" rx="40" ry="43.5294" fill="white"/>
<ellipse cx="56" cy="44.1911" rx="40" ry="43.5294" stroke="#FF8D1A" stroke-width="2"/>
</g>
<mask id="mask0" mask-type="alpha" maskUnits="userSpaceOnUse" x="37" y="29" width="39" height="35">
<path fill-rule="evenodd" clip-rule="evenodd" d="M37 29.7802H75.9033V63.4943H37V29.7802Z" fill="white"/>
</mask>
<g mask="url(#mask0)">
<path fill-rule="evenodd" clip-rule="evenodd" d="M67.7981 29.7802H66.0416C66.1904 30.9554 66.1859 32.1569 66.02 33.3297H69.2523C71.136 33.3297 72.6607 34.9999 72.6607 37.0608V50.8919C72.6607 52.9515 71.136 54.623 69.2523 54.623H43.6507C41.7681 54.623 40.2423 52.9515 40.2423 50.8919V37.0608C40.2423 34.9999 41.7681 33.3297 43.6507 33.3297H47.6306C47.4658 32.1569 47.4624 30.9554 47.6112 29.7802H45.1049C40.6308 29.7864 37.0054 33.755 36.9998 38.6527V49.2987C37.0054 54.1964 40.6308 58.1651 45.1049 58.1713H54.8302V59.946H49.9676C49.0723 59.946 48.3463 60.7407 48.3463 61.7208C48.3463 62.7008 49.0723 63.4943 49.9676 63.4943H62.9354C63.8307 63.4943 64.5556 62.7008 64.5556 61.7208C64.5556 60.7407 63.8307 59.946 62.9354 59.946H58.0716V58.1713H67.7981C72.2722 58.1651 75.8976 54.1964 75.9033 49.2987V38.6527C75.8976 33.755 72.2722 29.7864 67.7981 29.7802" fill="#FF8D1A"/>
</g>
<mask id="mask1" mask-type="alpha" maskUnits="userSpaceOnUse" x="48" y="25" width="16" height="21">
<path fill-rule="evenodd" clip-rule="evenodd" d="M48.2542 25.4065H63.6606V45.6025H48.2542V25.4065Z" fill="white"/>
</mask>
<g mask="url(#mask1)">
<path fill-rule="evenodd" clip-rule="evenodd" d="M55.9568 27.4256C58.7739 27.4315 61.1765 29.5633 61.648 32.4755H58.8454C58.3135 32.4755 57.8833 32.9267 57.8833 33.4846C57.8833 34.0424 58.3135 34.4948 58.8454 34.4948H61.7341V36.5141H58.8454C58.3135 36.5141 57.8833 36.9664 57.8833 37.5243C57.8833 38.0821 58.3135 38.5345 58.8454 38.5345H61.648C61.1195 41.83 58.1426 44.0532 55.0003 43.4977C52.5754 43.0711 50.6746 41.0776 50.2667 38.5345H53.0693C53.6001 38.5345 54.0314 38.0821 54.0314 37.5243C54.0314 36.9664 53.6001 36.5141 53.0693 36.5141H50.1795V34.4948H53.0693C53.6001 34.4948 54.0314 34.0424 54.0314 33.4846C54.0314 32.9267 53.6001 32.4755 53.0693 32.4755H50.2667C50.7383 29.5633 53.1408 27.4315 55.9568 27.4256M55.9568 45.6025C60.2099 45.5978 63.6561 41.9835 63.6606 37.5243V33.4846C63.6606 29.023 60.2121 25.4064 55.9568 25.4064C51.7026 25.4064 48.2542 29.023 48.2542 33.4846V37.5243C48.2586 41.9835 51.7049 45.5978 55.9568 45.6025" fill="#FF8D1A"/>
</g>
<path fill-rule="evenodd" clip-rule="evenodd" d="M67.0007 38.2058C66.4483 38.2058 66.0015 38.6527 66.0015 39.2037C65.9956 44.1598 61.9684 48.1759 57.001 48.1817H55.0001C50.0316 48.1747 46.0055 44.1598 45.9997 39.2037C45.9997 38.6527 45.5529 38.2058 44.9993 38.2058C44.4468 38.2058 44 38.6527 44 39.2037C44.007 45.2608 48.9279 50.1695 55.0001 50.1764H57.001C63.0721 50.1695 67.993 45.2608 68 39.2037C68 38.6527 67.5532 38.2058 67.0007 38.2058" fill="#FF8D1A"/>
<defs>
<filter id="filter0_d" x="0" y="-15.3383" width="112" height="119.059" filterUnits="userSpaceOnUse" color-interpolation-filters="sRGB">
<feFlood flood-opacity="0" result="BackgroundImageFix"/>
<feColorMatrix in="SourceAlpha" type="matrix" values="0 0 0 0 0 0 0 0 0 0 0 0 0 0 0 0 0 0 127 0"/>
<feOffset/>
<feGaussianBlur stdDeviation="7.5"/>
<feColorMatrix type="matrix" values="0 0 0 0 0 0 0 0 0 0 0 0 0 0 0 0 0 0 0.05 0"/>
<feBlend mode="normal" in2="BackgroundImageFix" result="effect1_dropShadow"/>
<feBlend mode="normal" in="SourceGraphic" in2="effect1_dropShadow" result="shape"/>
</filter>
</defs>
</svg>
