<svg width="100" height="100" viewBox="0 0 100 100" fill="none" xmlns="http://www.w3.org/2000/svg">
<circle cx="50" cy="50" r="50" fill="#FF8D1A" fill-opacity="0.15"/>
<path fill-rule="evenodd" clip-rule="evenodd" d="M44.7922 53.5381C46.4541 54.4295 48.2767 54.8752 50.0999 54.8752C51.9227 54.875 53.746 54.4295 55.4075 53.5381L67.3916 47.11C69.1293 46.178 70.2051 44.3755 70.1995 42.4061C70.1938 40.4367 69.1075 38.6405 67.3643 37.7185L55.3502 31.3637C52.0626 29.6248 48.1372 29.6248 44.8496 31.3637L32.8354 37.7185C31.0923 38.6406 30.006 40.4368 30.0002 42.4061C29.9946 44.3755 31.0704 46.178 32.8082 47.11L44.7922 53.5381ZM46.318 34.1399C47.502 33.5136 48.8009 33.2004 50.0999 33.2004C51.3988 33.2004 52.6977 33.5136 53.8817 34.1399L65.8962 40.4948C66.622 40.8787 67.0569 41.5967 67.0592 42.4153C67.0616 43.234 66.631 43.9544 65.9073 44.3426L53.9232 50.7706C51.5292 52.0547 48.671 52.0547 46.2769 50.7706L34.2928 44.3426C33.5692 43.9544 33.1386 43.2339 33.141 42.4153C33.1433 41.5968 33.5781 40.8787 34.304 40.4948L46.318 34.1399ZM55.4075 67.7492L69.3715 60.2594C70.1358 59.8495 70.423 58.8976 70.0131 58.1334C69.6032 57.3692 68.6514 57.0819 67.8871 57.4918L53.9231 64.9816C51.5292 66.2657 48.6709 66.2657 46.2707 64.9784L32.3067 57.5671C31.5405 57.1605 30.59 57.452 30.1836 58.218C29.777 58.9841 30.0684 59.9345 30.8345 60.3411L44.7923 67.7491C46.4542 68.6406 48.2768 69.0862 50.0999 69.0862C51.9227 69.0863 53.746 68.6405 55.4075 67.7492ZM69.3715 53.1932L55.4075 60.683C53.746 61.5743 51.9227 62.02 50.0999 62.02C48.2768 62.02 46.4542 61.5743 44.7923 60.6829L30.8345 53.2749C30.0684 52.8683 29.777 51.9178 30.1836 51.1517C30.59 50.3857 31.5405 50.0943 32.3067 50.5009L46.2707 57.9121C48.6709 59.1994 51.5292 59.1996 53.9231 57.9154L67.8871 50.4256C68.6514 50.0157 69.6032 50.3028 70.0131 51.0672C70.423 51.8314 70.1358 52.7833 69.3715 53.1932Z" fill="#FF8D1A"/>
</svg>
