<svg width="100" height="105" viewBox="0 0 100 105" fill="none" xmlns="http://www.w3.org/2000/svg">
<ellipse cx="50" cy="52.7878" rx="50" ry="52.1355" fill="#FF8D1A" fill-opacity="0.15"/>
<path fill-rule="evenodd" clip-rule="evenodd" d="M38.5417 74.6847H62.4583C67.1734 74.6788 70.9944 70.6947 71 65.7782V40.8401C70.9944 35.9236 67.1734 31.9395 62.4583 31.9336H38.5417C33.8266 31.9395 30.0056 35.9236 30 40.8401V65.7782C30.0056 70.6947 33.8266 74.6788 38.5417 74.6847ZM33.4167 40.8401C33.4167 37.8887 35.7112 35.4962 38.5417 35.4962H62.4583C65.2888 35.4962 67.5833 37.8887 67.5833 40.8401V65.7782C67.5833 68.7296 65.2888 71.1221 62.4583 71.1221H38.5417C35.7112 71.1221 33.4167 68.7296 33.4167 65.7782V40.8401ZM45.9592 62.2245C45.2471 62.222 44.5482 62.0236 43.9332 61.6492C42.6962 60.9109 41.9363 59.5353 41.9447 58.0492V48.5691C41.9435 47.0833 42.7019 45.7094 43.9347 44.9642C45.1675 44.219 46.6878 44.2154 47.9238 44.9549L56.9404 49.6486C58.2159 50.3665 59.0177 51.7491 59.0351 53.2603C59.0525 54.7715 58.2827 56.1738 57.0241 56.9234L47.8401 61.7097C47.2673 62.0504 46.6187 62.228 45.9592 62.2245ZM45.6483 48.049C45.7299 47.9999 45.8224 47.9741 45.9165 47.9742C46.0543 47.9784 46.1886 48.0202 46.306 48.0953L55.3158 52.789C55.4976 52.8926 55.6089 53.0932 55.6045 53.3091C55.615 53.4926 55.5383 53.6697 55.3995 53.783L46.2155 58.5711C46.0377 58.6736 45.8212 58.6707 45.646 58.5636C45.4707 58.4565 45.3625 58.261 45.3613 58.0492V48.5691C45.3574 48.3537 45.4678 48.1537 45.6483 48.049Z" fill="currentColor"/>
</svg>
