<svg width="30" height="30" viewBox="0 0 40 40" fill="none" xmlns="http://www.w3.org/2000/svg">
<path fill-rule="evenodd" clip-rule="evenodd" d="M35.1009 10.2562C36.9711 10.55 38.3618 12.3167 38.3657 14.4033C38.3639 14.977 38.2561 15.5443 38.049 16.0704C39.481 18.5319 39.2796 21.74 37.5538 23.9596C37.0665 26.5626 35.5685 28.7978 33.4569 30.0725C35.2916 32.5406 35.7127 36.4282 35.8071 38.1072C35.8275 38.4922 35.7031 38.8695 35.4634 39.1499C35.2236 39.4302 34.8896 39.5888 34.5405 39.5882H32.6082C31.9962 39.5914 31.4683 39.1141 31.3504 38.4507C31.1769 37.4258 30.5145 35.5705 28.0325 34.6568C24.2098 33.2493 23.2991 31.6808 23.1819 29.0644C22.3611 29.0052 21.551 28.8271 20.7722 28.5348C19.39 30.0741 17.4135 30.7691 15.4802 30.3958C13.5468 30.0225 11.901 28.628 11.0735 26.662C8.68673 27.4123 6.11951 26.8816 4.13985 25.2287C2.16019 23.5757 0.997652 20.9922 1.00001 18.251C0.997523 16.4877 1.48374 14.7659 2.39331 13.3168C1.88373 11.2175 2.93986 9.04229 4.80498 8.34982C4.833 6.67099 5.58817 5.10885 6.83557 4.14929C8.08298 3.18973 9.67129 2.94917 11.1065 3.50243C12.3564 1.57311 14.3685 0.423534 16.5163 0.411682C17.8981 0.411714 19.2454 0.8892 20.3694 1.77726C21.1883 0.785008 22.3885 0.287053 23.5962 0.438446C24.804 0.589838 25.8727 1.37219 26.4695 2.5419C26.5245 2.53841 26.58 2.53376 26.6355 2.5291C26.7468 2.51977 26.8582 2.51042 26.966 2.51042C31.0317 2.53525 34.4792 5.81785 35.1009 10.2562ZM36.498 23.1732L36.5126 23.1564L36.5088 23.1557C37.8054 21.5716 38.0972 19.2747 37.2454 17.3576C36.9339 17.7073 36.5695 17.9942 36.1687 18.2055C35.8518 18.3693 35.4747 18.2183 35.3264 17.8683C35.1781 17.5182 35.3148 17.1016 35.6317 16.9378C36.1105 16.691 36.5086 16.2869 36.7716 15.7807C37.3626 14.6276 37.1403 13.1747 36.2392 12.3C35.338 11.4254 34.005 11.3689 33.0458 12.1646C32.766 12.3964 32.3691 12.3338 32.1592 12.0247C31.9493 11.7156 32.006 11.2771 32.2859 11.0453C32.7422 10.6687 33.2699 10.4113 33.8292 10.2925C33.2355 6.6143 30.3483 3.92921 26.966 3.90959H26.909C26.9458 4.14058 26.9649 4.37461 26.966 4.60917C26.966 4.99553 26.6824 5.30874 26.3327 5.30874C25.9829 5.30874 25.6994 4.99553 25.6994 4.60917C25.6994 3.0637 24.5652 1.81085 23.1661 1.81085C21.767 1.81085 20.6328 3.0637 20.6328 4.60917C20.6328 4.99553 20.3493 5.30874 19.9995 5.30874C19.6497 5.30874 19.3662 4.99553 19.3662 4.60917C19.366 4.03754 19.4722 3.47197 19.6784 2.94767C18.76 2.2082 17.6527 1.81012 16.5163 1.81085C14.6149 1.81795 12.8555 2.9232 11.8778 4.7246C11.6249 5.1989 11.4331 5.70985 11.3079 6.24268C11.2654 6.42234 11.1601 6.576 11.0151 6.66982C10.87 6.76364 10.6972 6.78992 10.5346 6.74288C10.3719 6.69602 10.2328 6.57967 10.1479 6.41946C10.063 6.25924 10.0392 6.0683 10.0818 5.88869C10.1777 5.49812 10.3027 5.11696 10.4554 4.74908C10.1605 4.65825 9.85594 4.6112 9.54978 4.60917C7.74997 4.61195 6.24777 6.12735 6.08237 8.10706C7.27519 8.10713 8.39727 8.73219 9.10645 9.79164C9.31632 10.1007 9.25961 10.5392 8.97979 10.771C8.69997 11.0029 8.30301 10.9402 8.09315 10.6311C7.61853 9.92079 6.86577 9.50295 6.06653 9.50621C4.92671 9.50493 3.92646 10.3447 3.62245 11.5582C3.31844 12.7716 3.78554 14.06 4.7638 14.7062C4.95782 14.8348 5.075 15.0679 5.07119 15.3178C5.06739 15.5677 4.94318 15.7964 4.74535 15.9177C4.54752 16.039 4.30614 16.0345 4.11212 15.906C3.69459 15.6248 3.33027 15.2571 3.03928 14.823C2.53014 15.8779 2.26473 17.0554 2.26663 18.2509C2.26783 20.5385 3.23316 22.6949 4.87804 24.0846C6.52292 25.4744 8.6598 25.9388 10.6587 25.3412C10.5545 24.8516 10.5011 24.3505 10.4998 23.8476C10.4998 23.7771 10.5056 23.7066 10.5114 23.6358C10.5152 23.5899 10.519 23.544 10.5213 23.4978H10.4998C8.75176 23.4955 7.33526 21.9308 7.33317 19.9999C7.33242 19.6109 7.61438 19.2932 7.96648 19.2863C8.13312 19.2831 8.29396 19.3539 8.41299 19.4827C8.53203 19.6116 8.59932 19.7878 8.5998 19.9719V19.9999C8.591 20.6016 8.81991 21.1777 9.22681 21.5778C9.6337 21.978 10.1782 22.1625 10.7182 22.0832C10.8625 21.5023 11.0779 20.9459 11.3585 20.4294C11.5388 20.0983 11.928 19.9913 12.2278 20.1905C12.5275 20.3897 12.6243 20.8196 12.444 21.1507C11.7202 22.479 11.5689 24.0941 12.0311 25.558V25.5622C12.5848 27.337 13.9553 28.6493 15.6242 29.0028C17.2932 29.3564 19.0059 28.6973 20.1148 27.2748C20.292 27.0541 20.574 26.9768 20.8241 27.0803C21.9534 27.574 23.1699 27.7764 24.3808 27.6722C25.0054 27.626 25.6232 27.5007 26.2218 27.2986C26.5562 27.1852 26.9105 27.3927 27.0132 27.7621C27.1158 28.1314 26.928 28.5228 26.5936 28.6362C25.9069 28.8681 25.1985 29.0126 24.4821 29.0671H24.4479C24.5398 31.0336 25.1667 32.1257 28.4328 33.3282C31.6456 34.5112 32.4144 37.1235 32.5955 38.1917H34.5405C34.4512 36.5904 34.0446 32.7588 32.246 30.6705C31.7919 30.8485 31.3243 30.9812 30.8489 31.0672C30.8154 31.0734 30.7815 31.0764 30.7475 31.0763C30.4165 31.0772 30.1406 30.7964 30.1145 30.4318C30.0885 30.0672 30.321 29.742 30.6481 29.6855C32.8429 29.2902 34.7314 27.7526 35.7229 25.5538C34.0104 26.5415 31.9701 26.5476 30.2529 25.5699C29.7738 25.3042 29.3306 24.9658 28.9362 24.5646C27.3844 25.3771 25.5294 24.6663 24.7665 22.9668C24.6647 22.7434 24.6785 22.4769 24.8028 22.2678C24.927 22.0586 25.1429 21.9386 25.3689 21.9529C25.595 21.9673 25.797 22.1137 25.8988 22.3372C26.2923 23.2091 27.1771 23.6673 28.0355 23.4437C28.8939 23.22 29.5001 22.3733 29.4993 21.399C29.5005 21.0744 29.4326 20.754 29.301 20.4637C29.1992 20.2403 29.213 19.9738 29.3373 19.7647C29.4616 19.5555 29.6774 19.4355 29.9035 19.4499C30.1296 19.4642 30.3316 19.6106 30.4334 19.8341C31.0084 21.1026 30.8312 22.6293 29.985 23.6965C30.2443 23.9387 30.5275 24.1478 30.8292 24.3198C31.4941 24.7018 32.233 24.8998 32.9825 24.8969C34.3213 24.8924 35.5969 24.2669 36.498 23.1732Z" fill="#FF8D1A"/>
<path d="M38.3657 14.4033L38.7657 14.4046L38.7657 14.4026L38.3657 14.4033ZM35.1009 10.2562L34.7048 10.3117L34.7459 10.6053L35.0389 10.6513L35.1009 10.2562ZM38.049 16.0704L37.6768 15.9239L37.6059 16.1041L37.7033 16.2715L38.049 16.0704ZM37.5538 23.9596L37.238 23.714L37.1785 23.7906L37.1606 23.886L37.5538 23.9596ZM33.4569 30.0725L33.2501 29.73L32.8731 29.9577L33.1358 30.3111L33.4569 30.0725ZM35.8071 38.1072L36.2065 38.086L36.2065 38.0847L35.8071 38.1072ZM35.4634 39.1499L35.7673 39.4099L35.7673 39.4099L35.4634 39.1499ZM34.5405 39.5882L34.5412 39.1882H34.5405V39.5882ZM32.6082 39.5882L32.6082 39.1882L32.6061 39.1882L32.6082 39.5882ZM31.3504 38.4507L30.956 38.5174L30.9566 38.5207L31.3504 38.4507ZM28.0325 34.6568L27.8943 35.0322L27.8943 35.0322L28.0325 34.6568ZM23.1819 29.0644L23.5815 29.0465L23.5656 28.691L23.2107 28.6654L23.1819 29.0644ZM20.7722 28.5348L20.9127 28.1603L20.657 28.0643L20.4745 28.2676L20.7722 28.5348ZM15.4802 30.3958L15.4043 30.7885L15.4043 30.7885L15.4802 30.3958ZM11.0735 26.662L11.4422 26.5069L11.301 26.1712L10.9536 26.2804L11.0735 26.662ZM4.13985 25.2287L4.39622 24.9216L4.39622 24.9216L4.13985 25.2287ZM1.00001 18.251L1.40001 18.2513L1.40001 18.2504L1.00001 18.251ZM2.39331 13.3168L2.73209 13.5295L2.82184 13.3865L2.78202 13.2225L2.39331 13.3168ZM4.80498 8.34982L4.9442 8.72481L5.20036 8.6297L5.20492 8.3565L4.80498 8.34982ZM11.1065 3.50243L10.9626 3.87566L11.2656 3.99247L11.4422 3.71992L11.1065 3.50243ZM16.5163 0.411682L16.5163 0.011676L16.5141 0.0116882L16.5163 0.411682ZM20.3694 1.77726L20.1214 2.09112L20.4286 2.33388L20.6779 2.03187L20.3694 1.77726ZM23.5962 0.438446L23.646 0.0415515L23.646 0.0415515L23.5962 0.438446ZM26.4695 2.5419L26.1132 2.7237L26.2326 2.95775L26.4948 2.9411L26.4695 2.5419ZM26.6355 2.5291L26.6689 2.9277L26.6689 2.9277L26.6355 2.5291ZM26.966 2.51042L26.9684 2.11042H26.966V2.51042ZM36.5126 23.1564L36.8148 23.4185L37.2734 22.8898L36.5851 22.763L36.5126 23.1564ZM36.498 23.1732L36.1958 22.911L36.1893 22.9188L36.498 23.1732ZM36.5088 23.1557L36.1993 22.9023L35.7703 23.4264L36.4363 23.5491L36.5088 23.1557ZM37.2454 17.3576L37.6109 17.1952L37.3591 16.6285L36.9467 17.0915L37.2454 17.3576ZM36.1687 18.2055L36.3524 18.5608L36.3552 18.5593L36.1687 18.2055ZM35.6317 16.9378L35.4484 16.5823L35.448 16.5825L35.6317 16.9378ZM36.7716 15.7807L37.1266 15.9652L37.1276 15.9632L36.7716 15.7807ZM33.0458 12.1646L33.301 12.4726L33.3012 12.4725L33.0458 12.1646ZM32.1592 12.0247L31.8283 12.2494L31.8283 12.2494L32.1592 12.0247ZM32.2859 11.0453L32.0312 10.7368L32.0307 10.7373L32.2859 11.0453ZM33.8292 10.2925L33.9123 10.6838L34.2848 10.6047L34.2241 10.2288L33.8292 10.2925ZM26.966 3.90959L26.9683 3.50959H26.966V3.90959ZM26.909 3.90959V3.50959H26.4401L26.514 3.97259L26.909 3.90959ZM26.966 4.60917L27.366 4.60917L27.366 4.60731L26.966 4.60917ZM19.3662 4.60917L19.7662 4.60917L19.7662 4.60901L19.3662 4.60917ZM19.6784 2.94767L20.0507 3.09404L20.1582 2.82047L19.9293 2.63611L19.6784 2.94767ZM16.5163 1.81085L16.516 1.41085L16.5148 1.41086L16.5163 1.81085ZM11.8778 4.7246L11.5263 4.5338L11.5249 4.53637L11.8778 4.7246ZM11.3079 6.24268L11.6972 6.3346L11.6973 6.33417L11.3079 6.24268ZM11.0151 6.66982L10.7978 6.33396L10.7978 6.33396L11.0151 6.66982ZM10.5346 6.74288L10.6458 6.35864L10.6453 6.35851L10.5346 6.74288ZM10.1479 6.41946L9.79449 6.60681L9.79449 6.60681L10.1479 6.41946ZM10.0818 5.88869L9.69331 5.79323L9.69255 5.79641L10.0818 5.88869ZM10.4554 4.74908L10.8249 4.90243L10.9935 4.49624L10.5731 4.3668L10.4554 4.74908ZM9.54978 4.60917L9.55244 4.20916L9.54916 4.20917L9.54978 4.60917ZM6.08237 8.10706L5.68376 8.07375L5.64756 8.50703L6.08234 8.50706L6.08237 8.10706ZM9.10645 9.79164L8.77405 10.0142L8.77553 10.0163L9.10645 9.79164ZM8.97979 10.771L9.23498 11.0791L9.23498 11.0791L8.97979 10.771ZM8.09315 10.6311L7.76055 10.8534L7.76222 10.8558L8.09315 10.6311ZM6.06653 9.50621L6.06608 9.90622L6.06817 9.90621L6.06653 9.50621ZM3.62245 11.5582L3.23444 11.461L3.23444 11.461L3.62245 11.5582ZM4.7638 14.7062L4.98478 14.3728L4.98427 14.3724L4.7638 14.7062ZM5.07119 15.3178L5.47115 15.3239L5.47115 15.3239L5.07119 15.3178ZM4.74535 15.9177L4.95445 16.2587L4.95445 16.2587L4.74535 15.9177ZM4.11212 15.906L3.88871 16.2378L3.89114 16.2394L4.11212 15.906ZM3.03928 14.823L3.37153 14.6003L2.98262 14.0201L2.67904 14.6491L3.03928 14.823ZM2.26663 18.2509L2.66663 18.2507L2.66663 18.2503L2.26663 18.2509ZM4.87804 24.0846L5.13619 23.7791L5.13619 23.7791L4.87804 24.0846ZM10.6587 25.3412L10.7733 25.7244L11.1268 25.6187L11.0499 25.2579L10.6587 25.3412ZM10.4998 23.8476L10.0998 23.8476L10.0998 23.8487L10.4998 23.8476ZM10.5114 23.6358L10.9101 23.6687L10.9101 23.6687L10.5114 23.6358ZM10.5213 23.4978L10.9208 23.5172L10.9412 23.0978H10.5213V23.4978ZM10.4998 23.4978L10.4992 23.8978H10.4998V23.4978ZM7.33317 19.9999L7.73317 19.9994L7.73317 19.9991L7.33317 19.9999ZM7.96648 19.2863L7.95884 18.8864L7.95867 18.8864L7.96648 19.2863ZM8.41299 19.4827L8.70682 19.2113L8.70682 19.2113L8.41299 19.4827ZM8.5998 19.9719L8.9998 19.9719L8.9998 19.9708L8.5998 19.9719ZM8.5998 19.9999L8.9998 20.0057V19.9999H8.5998ZM9.22681 21.5778L8.94634 21.863L8.94634 21.863L9.22681 21.5778ZM10.7182 22.0832L10.7763 22.479L11.0418 22.44L11.1065 22.1796L10.7182 22.0832ZM11.3585 20.4294L11.0072 20.2381L11.0071 20.2384L11.3585 20.4294ZM12.2278 20.1905L12.0064 20.5237L12.0064 20.5237L12.2278 20.1905ZM12.444 21.1507L12.7953 21.3421L12.7953 21.342L12.444 21.1507ZM12.0311 25.558H12.4311V25.4964L12.4125 25.4376L12.0311 25.558ZM12.0311 25.5622H11.6311V25.6232L11.6493 25.6814L12.0311 25.5622ZM15.6242 29.0028L15.5413 29.3942L15.5413 29.3942L15.6242 29.0028ZM20.1148 27.2748L19.8028 27.0243L19.7993 27.0289L20.1148 27.2748ZM20.8241 27.0803L20.9843 26.7137L20.9771 26.7107L20.8241 27.0803ZM24.3808 27.6722L24.3513 27.2732L24.3465 27.2736L24.3808 27.6722ZM26.2218 27.2986L26.3498 27.6776L26.3503 27.6774L26.2218 27.2986ZM27.0132 27.7621L27.3986 27.6549L27.3986 27.6549L27.0132 27.7621ZM26.5936 28.6362L26.7216 29.0152L26.7221 29.015L26.5936 28.6362ZM24.4821 29.0671V29.4671H24.4973L24.5125 29.466L24.4821 29.0671ZM24.4479 29.0671V28.6671H24.0288L24.0484 29.0858L24.4479 29.0671ZM28.4328 33.3282L28.571 32.9529L28.571 32.9529L28.4328 33.3282ZM32.5955 38.1917L32.2012 38.2586L32.2577 38.5917H32.5955V38.1917ZM34.5405 38.1917V38.5917H34.9634L34.9398 38.1694L34.5405 38.1917ZM32.246 30.6705L32.549 30.4095L32.364 30.1947L32.1 30.2981L32.246 30.6705ZM30.8489 31.0672L30.7777 30.6736L30.7765 30.6738L30.8489 31.0672ZM30.7475 31.0763L30.7487 30.6763L30.7464 30.6763L30.7475 31.0763ZM30.1145 30.4318L29.7156 30.4603L29.7156 30.4603L30.1145 30.4318ZM30.6481 29.6855L30.7162 30.0797L30.719 30.0792L30.6481 29.6855ZM35.7229 25.5538L36.0875 25.7182L36.5972 24.5877L35.523 25.2073L35.7229 25.5538ZM30.2529 25.5699L30.4508 25.2223L30.4469 25.2201L30.2529 25.5699ZM28.9362 24.5646L29.2215 24.2842L29.0135 24.0727L28.7507 24.2103L28.9362 24.5646ZM24.7665 22.9668L25.1314 22.803L25.1305 22.8009L24.7665 22.9668ZM25.8988 22.3372L26.2635 22.1727L26.2628 22.1713L25.8988 22.3372ZM28.0355 23.4437L27.9346 23.0566L27.9346 23.0566L28.0355 23.4437ZM29.4993 21.399L29.0993 21.3975L29.0993 21.3994L29.4993 21.399ZM29.301 20.4637L29.6654 20.2986L29.665 20.2978L29.301 20.4637ZM29.3373 19.7647L28.9934 19.5603L28.9934 19.5603L29.3373 19.7647ZM30.4334 19.8341L30.7977 19.6689L30.7974 19.6682L30.4334 19.8341ZM29.985 23.6965L29.6716 23.4479L29.4424 23.737L29.712 23.9888L29.985 23.6965ZM30.8292 24.3198L31.0285 23.9729L31.0273 23.9723L30.8292 24.3198ZM32.9825 24.8969L32.9811 24.4969L32.981 24.4969L32.9825 24.8969ZM38.7657 14.4026C38.7615 12.1491 37.2555 10.1898 35.163 9.86102L35.0389 10.6513C36.6867 10.9103 37.9622 12.4843 37.9657 14.404L38.7657 14.4026ZM38.4212 16.2169C38.6468 15.6438 38.7637 15.0272 38.7657 14.4046L37.9657 14.402C37.964 14.9267 37.8654 15.4447 37.6768 15.9239L38.4212 16.2169ZM37.8696 24.2051C39.6973 21.8545 39.9075 18.4694 38.3948 15.8692L37.7033 16.2715C39.0546 18.5943 38.862 21.6255 37.238 23.714L37.8696 24.2051ZM33.6636 30.4149C35.8806 29.0766 37.4404 26.739 37.9469 24.0332L37.1606 23.886C36.6925 26.3862 35.2563 28.519 33.2501 29.73L33.6636 30.4149ZM36.2065 38.0847C36.1585 37.2313 36.0276 35.8152 35.6742 34.2952C35.3221 32.7803 34.742 31.1309 33.7779 29.8339L33.1358 30.3111C34.0064 31.4822 34.5543 33.0107 34.895 34.4763C35.2345 35.9368 35.3613 37.304 35.4077 38.1296L36.2065 38.0847ZM35.7673 39.4099C36.0771 39.0477 36.2321 38.5684 36.2065 38.086L35.4077 38.1284C35.4229 38.416 35.3292 38.6913 35.1594 38.8899L35.7673 39.4099ZM34.5397 39.9882C35.0134 39.9891 35.4563 39.7735 35.7673 39.4099L35.1594 38.8899C34.9908 39.087 34.7658 39.1886 34.5412 39.1882L34.5397 39.9882ZM32.6082 39.9882H34.5405V39.1882H32.6082V39.9882ZM30.9566 38.5207C31.1035 39.3473 31.7761 39.9926 32.6103 39.9882L32.6061 39.1882C32.2163 39.1903 31.8332 38.8808 31.7443 38.3807L30.9566 38.5207ZM27.8943 35.0322C30.1992 35.8807 30.7978 37.5826 30.9561 38.5174L31.7448 38.3839C31.5561 37.269 30.8298 35.2603 28.1707 34.2815L27.8943 35.0322ZM22.7823 29.0823C22.8428 30.4329 23.1108 31.5764 23.906 32.5647C24.6927 33.5426 25.9557 34.3184 27.8943 35.0322L28.1707 34.2815C26.2866 33.5877 25.1829 32.8755 24.5293 32.0632C23.8841 31.2613 23.6382 30.3123 23.5815 29.0465L22.7823 29.0823ZM20.6316 28.9093C21.4459 29.2149 22.2937 29.4013 23.1531 29.4634L23.2107 28.6654C22.4286 28.609 21.656 28.4393 20.9127 28.1603L20.6316 28.9093ZM15.4043 30.7885C17.4839 31.1901 19.5996 30.4394 21.0698 28.8021L20.4745 28.2676C19.1804 29.7088 17.3432 30.3482 15.556 30.003L15.4043 30.7885ZM10.7049 26.8172C11.5791 28.8941 13.3274 30.3875 15.4043 30.7885L15.556 30.003C13.7662 29.6574 12.223 28.3618 11.4422 26.5069L10.7049 26.8172ZM3.88348 25.5357C5.96381 27.2727 8.67196 27.8363 11.1935 27.0436L10.9536 26.2804C8.7015 26.9884 6.27521 26.4905 4.39622 24.9216L3.88348 25.5357ZM0.60001 18.2506C0.597557 21.102 1.80635 23.8014 3.88348 25.5357L4.39622 24.9216C2.51402 23.35 1.39775 20.8824 1.40001 18.2513L0.60001 18.2506ZM2.05452 13.1042C1.10358 14.6191 0.59742 16.4153 0.60001 18.2515L1.40001 18.2504C1.39763 16.5601 1.8639 14.9126 2.73209 13.5295L2.05452 13.1042ZM4.66575 7.97483C2.58656 8.74679 1.45347 11.1406 2.00459 13.4112L2.78202 13.2225C2.314 11.2943 3.29315 9.3378 4.9442 8.72481L4.66575 7.97483ZM6.59169 3.83224C5.2405 4.87163 4.43494 6.55188 4.40503 8.34314L5.20492 8.3565C5.23107 6.79011 5.93583 5.34607 7.07946 4.46634L6.59169 3.83224ZM11.2504 3.1292C9.68132 2.52434 7.94656 2.79001 6.59169 3.83224L7.07946 4.46634C8.21939 3.58945 9.66127 3.374 10.9626 3.87566L11.2504 3.1292ZM16.5141 0.0116882C14.2206 0.0243447 12.0879 1.25196 10.7708 3.28494L11.4422 3.71992C12.625 1.89426 14.5165 0.822724 16.5185 0.811676L16.5141 0.0116882ZM20.6173 1.46341C19.4256 0.521757 17.9916 0.0117163 16.5163 0.0116821L16.5163 0.811682C17.8047 0.811712 19.0653 1.25664 20.1214 2.09112L20.6173 1.46341ZM23.646 0.0415515C22.2932 -0.128013 20.961 0.432008 20.0609 1.52266L20.6779 2.03187C21.4156 1.13801 22.4837 0.702119 23.5465 0.83534L23.646 0.0415515ZM26.8258 2.36011C26.1743 1.08334 24.9971 0.210908 23.646 0.0415515L23.5465 0.83534C24.6109 0.968769 25.571 1.66104 26.1132 2.7237L26.8258 2.36011ZM26.6021 2.1305C26.5458 2.13522 26.4944 2.13952 26.4441 2.14271L26.4948 2.9411C26.5545 2.93731 26.6141 2.9323 26.6689 2.9277L26.6021 2.1305ZM26.966 2.11042C26.8386 2.11042 26.7101 2.12144 26.6021 2.1305L26.6689 2.9277C26.7835 2.9181 26.8779 2.91042 26.966 2.91042V2.11042ZM35.4971 10.2007C34.852 5.59578 31.2616 2.13665 26.9684 2.11043L26.9635 2.91042C30.8018 2.93386 34.1064 6.03992 34.7048 10.3117L35.4971 10.2007ZM36.2105 22.8943L36.1959 22.911L36.8002 23.4353L36.8148 23.4185L36.2105 22.8943ZM36.4363 23.5491L36.4401 23.5498L36.5851 22.763L36.5813 22.7623L36.4363 23.5491ZM36.8798 17.52C37.6722 19.3034 37.3972 21.4388 36.1993 22.9023L36.8183 23.409C38.2136 21.7044 38.5221 19.2459 37.6109 17.1952L36.8798 17.52ZM36.3552 18.5593C36.7998 18.325 37.2018 18.0078 37.544 17.6236L36.9467 17.0915C36.6659 17.4067 36.3392 17.6634 35.9822 17.8516L36.3552 18.5593ZM34.9581 18.0243C35.1866 18.5637 35.805 18.8438 36.3524 18.5608L35.985 17.8501C35.9332 17.8769 35.8812 17.8775 35.833 17.8582C35.7834 17.8384 35.7289 17.7929 35.6947 17.7122L34.9581 18.0243ZM35.448 16.5825C34.9266 16.852 34.7367 17.5018 34.9581 18.0243L35.6947 17.7122C35.6195 17.5347 35.7029 17.3513 35.8154 17.2932L35.448 16.5825ZM36.4167 15.5963C36.1894 16.0336 35.8492 16.3757 35.4484 16.5823L35.815 17.2934C36.3717 17.0063 36.8277 16.5402 37.1266 15.9652L36.4167 15.5963ZM35.9606 12.5871C36.7301 13.3339 36.93 14.5947 36.4157 15.5983L37.1276 15.9632C37.7952 14.6604 37.5506 13.0154 36.5178 12.013L35.9606 12.5871ZM33.3012 12.4725C34.1014 11.8087 35.2042 11.853 35.9606 12.5871L36.5178 12.013C35.4718 10.9978 33.9087 10.929 32.7904 11.8568L33.3012 12.4725ZM31.8283 12.2494C32.1638 12.7436 32.8302 12.8627 33.301 12.4726L32.7906 11.8566C32.7018 11.9302 32.5743 11.924 32.4901 11.8L31.8283 12.2494ZM32.0307 10.7373C31.5851 11.1064 31.5077 11.7773 31.8283 12.2494L32.4901 11.8C32.3909 11.6539 32.4269 11.4478 32.541 11.3533L32.0307 10.7373ZM33.7462 9.90126C33.1216 10.0338 32.5354 10.3206 32.0312 10.7368L32.5405 11.3538C32.9489 11.0167 33.4182 10.7887 33.9123 10.6838L33.7462 9.90126ZM26.9637 4.30958C30.1227 4.32791 32.8671 6.8421 33.4344 10.3563L34.2241 10.2288C33.6039 6.38649 30.5739 3.53051 26.9683 3.50959L26.9637 4.30958ZM26.909 4.30959H26.966V3.50959H26.909V4.30959ZM27.366 4.60731C27.3648 4.35234 27.3441 4.09786 27.304 3.84658L26.514 3.97259C26.5476 4.18331 26.565 4.39689 26.566 4.61102L27.366 4.60731ZM26.3327 5.70874C26.9399 5.70874 27.366 5.17807 27.366 4.60917H26.566C26.566 4.813 26.425 4.90874 26.3327 4.90874V5.70874ZM25.2994 4.60917C25.2994 5.17807 25.7255 5.70874 26.3327 5.70874V4.90874C26.2403 4.90874 26.0994 4.813 26.0994 4.60917H25.2994ZM23.1661 2.21085C24.3077 2.21085 25.2994 3.24623 25.2994 4.60917H26.0994C26.0994 2.88117 24.8226 1.41085 23.1661 1.41085V2.21085ZM21.0328 4.60917C21.0328 3.24623 22.0244 2.21085 23.1661 2.21085V1.41085C21.5096 1.41085 20.2328 2.88117 20.2328 4.60917H21.0328ZM19.9995 5.70874C20.6067 5.70874 21.0328 5.17807 21.0328 4.60917H20.2328C20.2328 4.813 20.0918 4.90874 19.9995 4.90874V5.70874ZM18.9662 4.60917C18.9662 5.17807 19.3923 5.70874 19.9995 5.70874V4.90874C19.9072 4.90874 19.7662 4.81299 19.7662 4.60917H18.9662ZM19.3062 2.80129C19.0814 3.37296 18.9659 3.98829 18.9662 4.60932L19.7662 4.60901C19.766 4.08678 19.8631 3.57098 20.0507 3.09404L19.3062 2.80129ZM16.5165 2.21085C17.558 2.21018 18.5774 2.57472 19.4275 3.25922L19.9293 2.63611C18.9426 1.84167 17.7475 1.41005 16.516 1.41085L16.5165 2.21085ZM12.2294 4.91539C13.144 3.23011 14.7761 2.21735 16.5178 2.21085L16.5148 1.41086C14.4538 1.41855 12.5669 2.61629 11.5263 4.5338L12.2294 4.91539ZM11.6973 6.33417C11.8147 5.83441 11.9944 5.35604 12.2308 4.91282L11.5249 4.53637C11.2554 5.04176 11.0514 5.58529 10.9185 6.15119L11.6973 6.33417ZM11.2323 7.00568C11.4704 6.85169 11.6328 6.60713 11.6972 6.3346L10.9186 6.15076C10.8981 6.23754 10.8499 6.3003 10.7978 6.33396L11.2323 7.00568ZM10.4234 7.12712C10.6999 7.20712 10.9923 7.16095 11.2323 7.00567L10.7978 6.33396C10.7478 6.36632 10.6944 6.37272 10.6458 6.35864L10.4234 7.12712ZM9.79449 6.60681C9.92621 6.85528 10.1489 7.04804 10.4238 7.12724L10.6453 6.35851C10.5949 6.344 10.5395 6.30407 10.5013 6.2321L9.79449 6.60681ZM9.69255 5.79641C9.62801 6.06862 9.6632 6.35914 9.79449 6.60681L10.5013 6.23211C10.4627 6.15935 10.4503 6.06798 10.471 5.98098L9.69255 5.79641ZM10.086 4.59573C9.92541 4.98258 9.79411 5.38311 9.69332 5.79324L10.4702 5.98415C10.5614 5.61314 10.68 5.25134 10.8249 4.90243L10.086 4.59573ZM9.54711 5.00916C9.81395 5.01093 10.0798 5.05193 10.3377 5.13136L10.5731 4.3668C10.2412 4.26458 9.89793 4.21147 9.55244 4.20917L9.54711 5.00916ZM6.48098 8.14036C6.63188 6.33423 7.99032 5.01158 9.5504 5.00916L9.54916 4.20917C7.50961 4.21232 5.86366 5.92048 5.68376 8.07375L6.48098 8.14036ZM9.43886 9.56913C8.6615 8.40784 7.41923 7.70714 6.08239 7.70706L6.08234 8.50706C7.13114 8.50712 8.13304 9.05654 8.77405 10.0141L9.43886 9.56913ZM9.23498 11.0791C9.6805 10.71 9.75791 10.039 9.43738 9.56695L8.77553 10.0163C8.87473 10.1624 8.83871 10.3685 8.7246 10.463L9.23498 11.0791ZM7.76222 10.8558C8.09778 11.35 8.76419 11.4691 9.23498 11.0791L8.7246 10.463C8.63576 10.5366 8.50825 10.5304 8.42408 10.4064L7.76222 10.8558ZM6.06817 9.90621C6.72258 9.90354 7.35437 10.2454 7.76056 10.8534L8.42574 10.4089C7.8827 9.59616 7.00896 9.10236 6.0649 9.10622L6.06817 9.90621ZM4.01046 11.6554C4.27595 10.5957 5.13389 9.90516 6.06608 9.90621L6.06698 9.10621C4.71952 9.1047 3.57697 10.0937 3.23444 11.461L4.01046 11.6554ZM4.98427 14.3724C4.15995 13.8279 3.744 12.719 4.01046 11.6554L3.23444 11.461C2.89289 12.8243 3.41113 14.292 4.54333 15.0399L4.98427 14.3724ZM5.47115 15.3239C5.47684 14.9498 5.30208 14.5831 4.98478 14.3728L4.54282 15.0396C4.61357 15.0865 4.67315 15.1861 4.67124 15.3117L5.47115 15.3239ZM4.95445 16.2587C5.27942 16.0594 5.46545 15.6981 5.47115 15.3239L4.67124 15.3117C4.66933 15.4373 4.60694 15.5334 4.53625 15.5767L4.95445 16.2587ZM3.89114 16.2394C4.21433 16.4536 4.62347 16.4617 4.95445 16.2587L4.53625 15.5767C4.47158 15.6164 4.39794 15.6155 4.3331 15.5725L3.89114 16.2394ZM2.70703 15.0457C3.02577 15.5212 3.42653 15.9266 3.88872 16.2378L4.33552 15.5742C3.96264 15.3231 3.63478 14.993 3.37153 14.6003L2.70703 15.0457ZM2.66663 18.2503C2.66483 17.1139 2.91719 15.9962 3.39952 14.9969L2.67904 14.6491C2.14308 15.7596 1.86464 16.9969 1.86663 18.2516L2.66663 18.2503ZM5.13619 23.7791C3.5874 22.4706 2.66777 20.4289 2.66663 18.2507L1.86663 18.2511C1.86788 20.648 2.87891 22.9193 4.61989 24.3902L5.13619 23.7791ZM10.5441 24.9579C8.67953 25.5154 6.6819 25.085 5.13619 23.7791L4.61989 24.3902C6.36394 25.8637 8.64007 26.3622 10.7733 25.7244L10.5441 24.9579ZM10.0998 23.8487C10.1012 24.3791 10.1575 24.9077 10.2675 25.4245L11.0499 25.2579C10.9515 24.7954 10.9011 24.3219 10.8998 23.8465L10.0998 23.8487ZM10.1128 23.6028C10.1072 23.6708 10.0998 23.7578 10.0998 23.8476H10.8998C10.8998 23.7964 10.904 23.7424 10.9101 23.6687L10.1128 23.6028ZM10.1218 23.4784C10.1199 23.5166 10.1167 23.5558 10.1128 23.6028L10.9101 23.6687C10.9138 23.624 10.9182 23.5713 10.9208 23.5172L10.1218 23.4784ZM10.4998 23.8978H10.5213V23.0978H10.4998V23.8978ZM6.93317 20.0003C6.93546 22.1135 8.49431 23.8951 10.4992 23.8978L10.5003 23.0978C9.00922 23.0958 7.73506 21.748 7.73317 19.9994L6.93317 20.0003ZM7.95867 18.8864C7.35289 18.8982 6.93207 19.4309 6.93317 20.0007L7.73317 19.9991C7.73277 19.7909 7.87587 19.6882 7.9743 19.6862L7.95867 18.8864ZM8.70682 19.2113C8.51487 19.0035 8.24634 18.8809 7.95884 18.8864L7.97413 19.6862C8.01991 19.6854 8.07305 19.7042 8.11917 19.7542L8.70682 19.2113ZM8.9998 19.9708C8.99907 19.692 8.89748 19.4177 8.70682 19.2113L8.11917 19.7542C8.16658 19.8055 8.19957 19.8836 8.1998 19.973L8.9998 19.9708ZM8.9998 19.9999V19.9719H8.1998V19.9999H8.9998ZM9.50728 21.2926C9.18292 20.9737 8.99246 20.5048 8.99976 20.0057L8.19984 19.994C8.18954 20.6983 8.4569 21.3817 8.94634 21.863L9.50728 21.2926ZM10.6602 21.6875C10.2505 21.7476 9.82961 21.6096 9.50728 21.2926L8.94634 21.863C9.43779 22.3463 10.1059 22.5774 10.7763 22.479L10.6602 21.6875ZM11.0071 20.2384C10.7099 20.7853 10.4823 21.3736 10.33 21.9868L11.1065 22.1796C11.2427 21.6311 11.4459 21.1065 11.71 20.6204L11.0071 20.2384ZM12.4491 19.8574C11.9373 19.5173 11.2901 19.7186 11.0072 20.2381L11.7098 20.6207C11.7876 20.478 11.9187 20.4654 12.0064 20.5237L12.4491 19.8574ZM12.7953 21.342C13.0673 20.8425 12.9342 20.1797 12.4491 19.8574L12.0064 20.5237C12.1208 20.5997 12.1814 20.7967 12.0927 20.9594L12.7953 21.342ZM12.4125 25.4376C11.9825 24.0757 12.1243 22.5733 12.7953 21.3421L12.0928 20.9593C11.316 22.3847 11.1552 24.1126 11.6497 25.6785L12.4125 25.4376ZM12.4311 25.5622V25.558H11.6311V25.5622H12.4311ZM15.7071 28.6115C14.1946 28.2911 12.9283 27.0949 12.413 25.4431L11.6493 25.6814C12.2413 27.5791 13.716 29.0074 15.5413 29.3942L15.7071 28.6115ZM19.7993 27.0289C18.7777 28.3395 17.2159 28.9312 15.7071 28.6115L15.5413 29.3942C17.3705 29.7817 19.2342 29.0552 20.4302 27.5207L19.7993 27.0289ZM20.9771 26.7107C20.5526 26.535 20.0843 26.6738 19.8029 27.0244L20.4267 27.5252C20.4997 27.4343 20.5954 27.4186 20.6711 27.4499L20.9771 26.7107ZM24.3465 27.2736C23.2031 27.3721 22.0534 27.1812 20.9843 26.7138L20.6639 27.4468C21.8535 27.9669 23.1367 28.1808 24.4151 28.0707L24.3465 27.2736ZM26.0939 26.9196C25.5268 27.111 24.9421 27.2296 24.3513 27.2732L24.4102 28.0711C25.0687 28.0225 25.7195 27.8903 26.3498 27.6776L26.0939 26.9196ZM27.3986 27.6549C27.2436 27.0974 26.6766 26.722 26.0934 26.9198L26.3503 27.6774C26.4359 27.6484 26.5774 27.6879 26.6278 27.8692L27.3986 27.6549ZM26.7221 29.015C27.2839 28.8245 27.5503 28.2007 27.3986 27.6549L26.6278 27.8692C26.6814 28.0621 26.5721 28.2211 26.4651 28.2574L26.7221 29.015ZM24.5125 29.466C25.2624 29.4089 26.0036 29.2576 26.7216 29.0152L26.4656 28.2572C25.8102 28.4785 25.1346 28.6163 24.4518 28.6683L24.5125 29.466ZM24.4479 29.4671H24.4821V28.6671H24.4479V29.4671ZM28.571 32.9529C26.9545 32.3577 26.0611 31.8127 25.5531 31.2231C25.0609 30.6517 24.8916 29.9924 24.8475 29.0485L24.0484 29.0858C24.0961 30.1084 24.2862 30.9783 24.947 31.7452C25.5919 32.4939 26.645 33.0962 28.2945 33.7036L28.571 32.9529ZM32.9899 38.1248C32.7972 36.9882 31.9756 34.2065 28.571 32.9529L28.2945 33.7036C31.3155 34.8159 32.0316 37.2587 32.2012 38.2586L32.9899 38.1248ZM34.5405 37.7917H32.5955V38.5917H34.5405V37.7917ZM31.9429 30.9316C32.7803 31.9038 33.3129 33.3101 33.6451 34.7063C33.9752 36.094 34.0972 37.4266 34.1411 38.214L34.9398 38.1694C34.8944 37.3554 34.7684 35.9716 34.4233 34.5211C34.0803 33.0791 33.5102 31.5255 32.549 30.4095L31.9429 30.9316ZM30.92 31.4608C31.4213 31.3702 31.9139 31.2303 32.3919 31.043L32.1 30.2981C31.6699 30.4667 31.2274 30.5923 30.7777 30.6736L30.92 31.4608ZM30.7463 31.4763C30.805 31.4765 30.8635 31.4712 30.9212 31.4606L30.7765 30.6738C30.7672 30.6755 30.7579 30.6763 30.7487 30.6763L30.7463 31.4763ZM29.7156 30.4603C29.7542 31.0003 30.1745 31.4779 30.7487 31.4763L30.7464 30.6763C30.6584 30.6766 30.5271 30.5925 30.5135 30.4033L29.7156 30.4603ZM30.58 29.2914C30.0203 29.388 29.6771 29.9228 29.7156 30.4603L30.5135 30.4033C30.4998 30.2117 30.6217 30.096 30.7162 30.0797L30.58 29.2914ZM35.3582 25.3894C34.4158 27.4796 32.6303 28.9221 30.5772 29.2919L30.719 30.0792C33.0555 29.6584 35.0471 28.0256 36.0875 25.7182L35.3582 25.3894ZM30.055 25.9175C31.8956 26.9654 34.0874 26.9589 35.9227 25.9003L35.523 25.2073C33.9335 26.1242 32.0445 26.1297 30.4508 25.2223L30.055 25.9175ZM28.651 24.8451C29.0716 25.2729 29.5453 25.6348 30.0589 25.9197L30.4469 25.2201C30.0023 24.9735 29.5897 24.6587 29.2215 24.2842L28.651 24.8451ZM24.4016 23.1306C25.2483 25.0168 27.3437 25.85 29.1218 24.919L28.7507 24.2103C27.4252 24.9043 25.8105 24.3158 25.1314 22.803L24.4016 23.1306ZM24.4589 22.0634C24.2669 22.3865 24.2469 22.7913 24.4025 23.1327L25.1305 22.8009C25.0824 22.6954 25.0901 22.5673 25.1466 22.4721L24.4589 22.0634ZM25.3942 21.5537C25.0049 21.5291 24.6528 21.7371 24.4589 22.0634L25.1466 22.4721C25.2013 22.3802 25.2808 22.3482 25.3437 22.3521L25.3942 21.5537ZM26.2628 22.1713C26.1062 21.8275 25.7823 21.5783 25.3942 21.5537L25.3437 22.3521C25.4078 22.3562 25.4879 22.4 25.5349 22.503L26.2628 22.1713ZM27.9346 23.0566C27.286 23.2256 26.586 22.8875 26.2635 22.1727L25.5342 22.5017C25.9985 23.5307 27.0682 24.1091 28.1364 23.8308L27.9346 23.0566ZM29.0993 21.3994C29.0999 22.2164 28.5937 22.8849 27.9346 23.0566L28.1364 23.8308C29.1941 23.5551 29.9002 22.5301 29.8993 21.3987L29.0993 21.3994ZM28.9367 20.6288C29.0441 20.8658 29.1003 21.1292 29.0993 21.3975L29.8993 21.4006C29.9007 21.0196 29.8211 20.6422 29.6654 20.2986L28.9367 20.6288ZM28.9934 19.5603C28.8015 19.8834 28.7815 20.2882 28.937 20.6296L29.665 20.2978C29.6169 20.1923 29.6246 20.0642 29.6812 19.969L28.9934 19.5603ZM29.9288 19.0507C29.5395 19.026 29.1874 19.234 28.9934 19.5603L29.6812 19.969C29.7358 19.8771 29.8153 19.8451 29.8782 19.8491L29.9288 19.0507ZM30.7974 19.6682C30.6407 19.3244 30.3168 19.0752 29.9288 19.0507L29.8782 19.8491C29.9423 19.8531 30.0224 19.8969 30.0694 19.9999L30.7974 19.6682ZM30.2984 23.945C31.2404 22.757 31.4329 21.07 30.7977 19.6689L30.0691 19.9992C30.584 21.1351 30.422 22.5016 29.6716 23.4479L30.2984 23.945ZM31.0273 23.9723C30.7532 23.816 30.4951 23.6256 30.2581 23.4041L29.712 23.9888C29.9935 24.2517 30.3018 24.4795 30.6311 24.6673L31.0273 23.9723ZM32.981 24.4969C32.3036 24.4995 31.6338 24.3207 31.0285 23.9729L30.63 24.6666C31.3545 25.0828 32.1624 25.3001 32.984 25.2969L32.981 24.4969ZM36.1893 22.9188C35.3588 23.9269 34.1932 24.4928 32.9811 24.4969L32.9839 25.2969C34.4495 25.292 35.835 24.607 36.8068 23.4275L36.1893 22.9188Z" fill="#FF8D1A"/>
<path d="M25.375 13.8666H23.9712L22.8506 9.52129C22.7759 9.21591 22.521 9.00788 22.2356 9.01924C21.9508 9.02634 21.7064 9.2459 21.6412 9.55314L19.7994 18.2292L17.8625 7.49578C17.8034 7.17304 17.5472 6.9411 17.25 6.9411C16.9528 6.9411 16.6966 7.17304 16.6375 7.49578L15.4875 13.8666H11.625C11.2798 13.8666 11 14.1766 11 14.5591C11 14.9415 11.2798 15.2516 11.625 15.2516H16C16.297 15.2516 16.5531 15.0201 16.6125 14.6976L17.25 11.1659L19.1375 21.6224C19.1961 21.9406 19.4463 22.1709 19.7394 22.1764H19.75C20.0402 22.1766 20.2923 21.9555 20.3588 21.6425L22.3088 12.4595L22.8994 14.7495C22.9761 15.0466 23.2211 15.2514 23.5 15.2516H25.375C25.7202 15.2516 26 14.9415 26 14.5591C26 14.1766 25.7202 13.8666 25.375 13.8666V13.8666Z" fill="#FF8D1A" stroke="#FF8D1A" stroke-width="0.8"/>
<path d="M30.25 13.4705H28.75C28.3358 13.4705 28 13.7141 28 14.0146C28 14.3152 28.3358 14.5588 28.75 14.5588H30.25C30.6642 14.5588 31 14.3152 31 14.0146C31 13.7141 30.6642 13.4705 30.25 13.4705Z" fill="#FF8D1A" stroke="#FF8D1A" stroke-width="0.8"/>
</svg>
