<svg width="28" height="28" viewBox="0 0 28 28" fill="none" xmlns="http://www.w3.org/2000/svg">
<path fill-rule="evenodd" clip-rule="evenodd" d="M5.83333 28H22.1667C25.3867 27.9961 27.9961 25.3867 28 22.1667V5.83333C27.9961 2.61327 25.3867 0.00385714 22.1667 0H5.83333C2.61327 0.00385714 0.00385714 2.61327 0 5.83333V22.1667C0.00385714 25.3867 2.61327 27.9961 5.83333 28ZM2 5.6C2 3.61177 3.61177 2 5.6 2H22.4C24.3882 2 26 3.61177 26 5.6V22.4C26 24.3882 24.3882 26 22.4 26H5.6C3.61177 26 2 24.3882 2 22.4V5.6ZM10.8188 20C10.3188 19.9983 9.82806 19.8647 9.39624 19.6126C8.5277 19.1155 7.99419 18.1892 8.00005 17.1886V10.8053C7.99922 9.80486 8.53174 8.87979 9.39734 8.37802C10.2629 7.87625 11.3304 7.87385 12.1982 8.37174L18.529 11.5322C19.4246 12.0156 19.9876 12.9465 19.9998 13.9641C20.012 14.9816 19.4715 15.9258 18.5878 16.4305L12.1394 19.6533C11.7373 19.8827 11.2818 20.0023 10.8188 20ZM10.2242 10.0561C10.2879 10.0193 10.3601 9.99997 10.4337 10C10.5412 10.0032 10.6461 10.0345 10.7378 10.0908L17.7738 13.6094C17.9157 13.6871 18.0027 13.8374 17.9993 13.9993C18.0074 14.1368 17.9476 14.2696 17.8392 14.3545L10.6671 17.9439C10.5283 18.0207 10.3592 18.0185 10.2224 17.9382C10.0855 17.858 10.001 17.7114 10.0001 17.5526V10.446C9.99701 10.2845 10.0832 10.1346 10.2242 10.0561Z" fill="#FFFEFE"/>
</svg>
