<svg width="30" height="30" viewBox="0 0 30 30" fill="none" xmlns="http://www.w3.org/2000/svg">
<path fill-rule="evenodd" clip-rule="evenodd" d="M15.1129 4.1064C15.1162 4.11427 15.1193 4.12208 15.1223 4.13001L17.6874 10.9273C17.8555 11.3726 17.6307 11.8697 17.1855 12.0378C17.0853 12.0756 16.9824 12.0935 16.8813 12.0935C16.5331 12.0935 16.2052 11.8809 16.075 11.5358L15.6465 10.4004H12.6768L12.2435 11.5382C12.0741 11.983 11.5762 12.2062 11.1315 12.0368C10.6867 11.8674 10.4634 11.3696 10.6328 10.9248L13.2216 4.12783L13.2293 4.10824C13.3863 3.72441 13.7557 3.47611 14.1705 3.47571H14.1715C14.5858 3.47571 14.9552 3.72315 15.1129 4.1064ZM14.1685 6.48404L13.3332 8.67699H14.9961L14.1685 6.48404Z" fill="white"/>
<path fill-rule="evenodd" clip-rule="evenodd" d="M9.73669 21.0988C9.98557 20.7157 10.1307 20.2593 10.1307 19.7694C10.1307 18.4195 9.03252 17.3213 7.68267 17.3213H5.68012C5.2042 17.3213 4.81836 17.7071 4.81836 18.183V25.0771C4.81836 25.3063 4.90965 25.5261 5.07212 25.6878C5.23367 25.8486 5.45227 25.9389 5.68012 25.9389H5.68391L5.73343 25.9386L5.73515 25.9386C6.03675 25.9373 7.57923 25.9306 8.03237 25.9306C9.53079 25.9306 10.7498 24.7116 10.7498 23.2132C10.7499 22.3598 10.3541 21.5974 9.73669 21.0988ZM6.54187 19.0448H7.68267C8.08218 19.0448 8.40723 19.3699 8.40723 19.7694C8.40723 20.1689 8.08218 20.5098 7.68267 20.5098H6.54187V19.0448ZM6.54187 24.2117C7.09541 24.2095 7.75908 24.2071 8.03243 24.2071C8.5805 24.2071 9.02632 23.7613 9.02632 23.2132C9.02632 22.6652 8.5805 22.2193 8.03243 22.2193C8.03243 22.2193 6.67838 22.2204 6.54187 22.2209V24.2117Z" fill="white"/>
<path fill-rule="evenodd" clip-rule="evenodd" d="M21.598 13.8456H26.2549C27.9972 13.8456 29.4146 15.263 29.4146 17.0053V26.2549C29.4146 27.9972 27.9972 29.4146 26.2549 29.4146H17.0053C16.1005 29.4146 15.2839 29.0317 14.7073 28.4202C14.1307 29.0317 13.3141 29.4146 12.4093 29.4146H3.15978C1.41748 29.4146 0 27.9972 0 26.2549V17.0053C0 15.263 1.41748 13.8456 3.15978 13.8456H6.72234C6.50127 13.4143 6.37562 12.9264 6.37562 12.4093V3.15978C6.37562 1.41748 7.7931 0 9.5354 0H18.7849C20.5272 0 21.9447 1.41748 21.9447 3.15978V12.4093C21.9447 12.9264 21.8191 13.4143 21.598 13.8456ZM12.4093 27.6911C13.2013 27.6911 13.8456 27.0468 13.8456 26.2549V17.0053C13.8456 16.2134 13.2013 15.5691 12.4093 15.5691H3.15978C2.36782 15.5691 1.72351 16.2134 1.72351 17.0053V26.2549C1.72351 27.0468 2.36782 27.6911 3.15978 27.6911H12.4093ZM9.5354 13.8456C8.74344 13.8456 8.09914 13.2013 8.09914 12.4093V3.15978C8.09914 2.36782 8.74344 1.72351 9.5354 1.72351H18.7849C19.5769 1.72351 20.2212 2.36782 20.2212 3.15978V12.4093C20.2212 13.2013 19.5769 13.8456 18.7849 13.8456H9.5354ZM26.2549 27.6911C27.0468 27.6911 27.6911 27.0468 27.6911 26.2549V17.0053C27.6911 16.2134 27.0468 15.5691 26.2549 15.5691H17.0053C16.2134 15.5691 15.5691 16.2134 15.5691 17.0053V26.2549C15.5691 27.0468 16.2134 27.6911 17.0053 27.6911H26.2549Z" fill="white"/>
<path d="M24.9932 23.4437C24.6285 23.1379 24.085 23.1856 23.7791 23.5502C23.7191 23.6218 23.6543 23.6887 23.5864 23.7491C23.2391 24.0585 22.7955 24.2153 22.2678 24.2153C20.8423 24.2153 19.6825 23.0556 19.6825 21.6301C19.6825 20.2046 20.8423 19.0448 22.2678 19.0448C22.786 19.0448 23.2856 19.1973 23.7126 19.4858C24.1071 19.7522 24.6427 19.6485 24.9092 19.2542C25.1756 18.8598 25.0719 18.3241 24.6775 18.0576C23.9643 17.5759 23.1311 17.3213 22.2678 17.3213C19.8919 17.3213 17.959 19.2542 17.959 21.6301C17.959 24.0059 19.8919 25.9389 22.2678 25.9389C23.2174 25.9389 24.0698 25.6267 24.7328 25.0361C24.8628 24.9204 24.9862 24.7931 25.0997 24.6578C25.4055 24.2931 25.3578 23.7495 24.9932 23.4437Z" fill="white"/>
</svg>
