<svg width="30" height="30" viewBox="0 0 30 30" fill="none" xmlns="http://www.w3.org/2000/svg">
<path fill-rule="evenodd" clip-rule="evenodd" d="M19.9532 5.78457C19.5941 5.42549 19.0125 5.42549 18.6534 5.78457L0.269308 24.1687C-0.0897695 24.5277 -0.0897695 25.1094 0.269308 25.4685L3.94614 29.1453C4.12565 29.3248 4.36086 29.4146 4.59607 29.4146C4.83128 29.4146 5.06643 29.3248 5.246 29.1453L23.63 10.7612C23.9891 10.4021 23.9891 9.82047 23.63 9.4614L19.9532 5.78457ZM4.59601 27.1956L2.21904 24.8186L14.7073 12.3303L17.0843 14.7074C17.0843 14.7073 4.59601 27.1956 4.59601 27.1956ZM16.0071 11.0305L18.3841 13.4075L21.6803 10.1113L19.3033 7.73429L16.0071 11.0305Z" fill="white"/>
<path d="M12.8692 7.35366C13.7884 5.51527 14.7076 4.59605 16.546 3.67683C14.7077 2.75761 13.7884 1.83844 12.8692 0C11.95 1.83838 11.0307 2.75761 9.19238 3.67683C11.0308 4.59605 11.95 5.51527 12.8692 7.35366Z" fill="white"/>
<path d="M27.5767 12.8689C27.1171 13.7881 26.6573 14.2477 25.7383 14.7073C26.6575 15.1669 27.1171 15.6265 27.5767 16.5457C28.0362 15.6264 28.4959 15.1669 29.4151 14.7073C28.4959 14.2477 28.0363 13.7881 27.5767 12.8689Z" fill="white"/>
<path d="M27.5758 2.75761C26.197 2.06818 25.5075 1.3788 24.8182 0C24.1287 1.3788 23.4392 2.06824 22.0605 2.75761C23.4394 3.44704 24.1288 4.13641 24.8182 5.51521C25.5076 4.13641 26.197 3.44698 27.5758 2.75761Z" fill="white"/>
</svg>
