<svg width="82" height="82" viewBox="0 0 82 82" fill="none" xmlns="http://www.w3.org/2000/svg">
<circle cx="41" cy="41" r="40" fill="white" stroke="#1BC5BD" stroke-width="2"/>
<path fill-rule="evenodd" clip-rule="evenodd" d="M37.2667 44.5194C38.6449 45.2586 40.1563 45.6282 41.6682 45.6282C43.1798 45.628 44.6918 45.2586 46.0696 44.5194L56.0077 39.1888C57.4487 38.4159 58.3408 36.9211 58.3362 35.288C58.3314 33.6548 57.4306 32.1653 55.9851 31.4007L46.0221 26.1308C43.2958 24.6888 40.0406 24.6888 37.3143 26.1308L27.3513 31.4007C25.9058 32.1654 25.0049 33.6548 25.0002 35.288C24.9955 36.9211 25.8877 38.4159 27.3288 39.1888L37.2667 44.5194ZM38.532 28.433C39.5139 27.9137 40.591 27.654 41.6682 27.654C42.7454 27.654 43.8225 27.9137 44.8044 28.433L54.7676 33.703C55.3695 34.0214 55.7301 34.6167 55.732 35.2956C55.734 35.9745 55.3769 36.5719 54.7768 36.8938L44.8388 42.2244C42.8535 43.2892 40.4832 43.2892 38.4979 42.2244L28.5599 36.8938C27.9598 36.5719 27.6028 35.9744 27.6047 35.2956C27.6066 34.6168 27.9672 34.0214 28.5692 33.703L38.532 28.433ZM46.0697 56.3042L57.6496 50.0932C58.2833 49.7532 58.5215 48.9638 58.1816 48.3301C57.8417 47.6963 57.0524 47.4581 56.4186 47.7981L44.8386 54.0091C42.8535 55.074 40.4832 55.074 38.4928 54.0064L26.9129 47.8605C26.2775 47.5233 25.4893 47.765 25.1522 48.4002C24.8151 49.0355 25.0567 49.8237 25.692 50.1609L37.2667 56.3041C38.645 57.0434 40.1563 57.4129 41.6682 57.4129C43.1798 57.413 44.6918 57.0433 46.0697 56.3042ZM57.6496 44.2333L46.0697 50.4444C44.6918 51.1835 43.1798 51.5531 41.6682 51.5531C40.1563 51.5531 38.645 51.1836 37.2667 50.4443L25.692 44.3011C25.0567 43.9639 24.8151 43.1757 25.1522 42.5404C25.4893 41.9052 26.2775 41.6635 26.9129 42.0007L38.4928 48.1466C40.4832 49.2141 42.8535 49.2142 44.8386 48.1493L56.4186 41.9382C57.0524 41.5984 57.8417 41.8365 58.1816 42.4703C58.5215 43.104 58.2833 43.8934 57.6496 44.2333Z" fill="#1BC5BD"/>
</svg>
