<svg width="100%" height="100%" viewBox="0 0 100 100" fill="currentColor" xmlns="http://www.w3.org/2000/svg">
<path fill-rule="evenodd" clip-rule="evenodd" d="M70.0521 38.774C72.5228 39.1255 74.3602 41.2384 74.3653 43.734C74.3629 44.4201 74.2205 45.0986 73.9469 45.7278C75.8388 48.6718 75.5727 52.5087 73.2926 55.1633C72.6488 58.2766 70.6698 60.9498 67.88 62.4744C70.3039 65.4262 70.8603 70.0758 70.985 72.0839C71.012 72.5444 70.8477 72.9956 70.5309 73.3309C70.2141 73.6663 69.7729 73.8559 69.3116 73.8552H66.7588C65.9503 73.8591 65.2529 73.2881 65.0972 72.4947C64.8679 71.2689 63.9927 69.05 60.7137 67.9573C55.6634 66.2738 54.4602 64.3979 54.3054 61.2687C53.221 61.1978 52.1507 60.9849 51.1218 60.6353C49.2957 62.4763 46.6846 63.3075 44.1303 62.861C41.5761 62.4145 39.4018 60.7467 38.3086 58.3955C35.1552 59.2928 31.7636 58.6581 29.1482 56.6811C26.5328 54.7042 24.9969 51.6143 25 48.3358C24.9967 46.227 25.6391 44.1676 26.8408 42.4346C26.1675 39.9237 27.5628 37.3222 30.0269 36.494C30.0639 34.4861 31.0616 32.6178 32.7096 31.4702C34.3576 30.3226 36.456 30.0348 38.3521 30.6965C40.0034 28.3891 42.6617 27.0142 45.4992 27C47.3248 27 49.1047 27.5711 50.5896 28.6332C51.6715 27.4465 53.2571 26.8509 54.8528 27.032C56.4484 27.2131 57.8602 28.1488 58.6487 29.5477C58.7214 29.5436 58.7947 29.538 58.868 29.5324C59.0151 29.5213 59.1623 29.5101 59.3047 29.5101C64.676 29.5398 69.2307 33.4658 70.0521 38.774ZM71.8978 54.2228L71.9171 54.2028L71.9121 54.2019C73.6251 52.3074 74.0106 49.5602 72.8852 47.2674C72.4736 47.6856 71.9923 48.0288 71.4628 48.2814C71.0441 48.4774 70.5459 48.2968 70.35 47.8782C70.154 47.4595 70.3346 46.9613 70.7532 46.7653C71.3858 46.4701 71.9118 45.9868 72.2593 45.3814C73.04 44.0023 72.7464 42.2646 71.5559 41.2185C70.3653 40.1724 68.6043 40.1048 67.337 41.0565C66.9673 41.3338 66.4429 41.2589 66.1656 40.8892C65.8884 40.5195 65.9633 39.9951 66.333 39.7178C66.9358 39.2674 67.633 38.9596 68.372 38.8175C67.5875 34.4183 63.7732 31.207 59.3047 31.1835H59.2294C59.2781 31.4598 59.3033 31.7397 59.3047 32.0202C59.3047 32.4823 58.9301 32.8569 58.468 32.8569C58.0059 32.8569 57.6313 32.4823 57.6313 32.0202C57.6313 30.1718 56.1329 28.6734 54.2845 28.6734C52.4361 28.6734 50.9377 30.1718 50.9377 32.0202C50.9377 32.4823 50.5631 32.8569 50.101 32.8569C49.6389 32.8569 49.2643 32.4823 49.2643 32.0202C49.264 31.3365 49.4044 30.6601 49.6768 30.033C48.4635 29.1486 47.0006 28.6725 45.4992 28.6734C42.9872 28.6819 40.6627 30.0038 39.3712 32.1583C39.037 32.7255 38.7835 33.3366 38.6181 33.9739C38.5621 34.1888 38.4229 34.3725 38.2313 34.4847C38.0397 34.597 37.8113 34.6284 37.5965 34.5721C37.3817 34.5161 37.1979 34.3769 37.0857 34.1853C36.9735 33.9937 36.942 33.7653 36.9983 33.5505C37.1251 33.0834 37.2902 32.6275 37.4919 32.1875C37.1023 32.0789 36.6999 32.0226 36.2955 32.0202C33.9177 32.0235 31.9331 33.836 31.7145 36.2037C33.2904 36.2038 34.7728 36.9514 35.7098 38.2185C35.987 38.5881 35.9121 39.1126 35.5424 39.3898C35.1728 39.6671 34.6483 39.5922 34.3711 39.2225C33.744 38.3729 32.7495 37.8732 31.6936 37.8771C30.1877 37.8756 28.8663 38.8799 28.4646 40.3312C28.063 41.7826 28.6801 43.3234 29.9725 44.0963C30.2289 44.2501 30.3837 44.5289 30.3786 44.8278C30.3736 45.1267 30.2095 45.4002 29.9482 45.5453C29.6868 45.6904 29.3679 45.685 29.1116 45.5312C28.56 45.195 28.0786 44.7552 27.6942 44.236C27.0216 45.4977 26.6709 46.906 26.6734 48.3358C26.675 51.0717 27.9503 53.6509 30.1235 55.313C32.2966 56.9751 35.1197 57.5306 37.7605 56.8158C37.6228 56.2303 37.5523 55.6309 37.5505 55.0294C37.5505 54.9451 37.5582 54.8608 37.566 54.7761C37.571 54.7213 37.576 54.6663 37.579 54.6111H37.5505C35.2412 54.6083 33.3698 52.7369 33.367 50.4276C33.366 49.9623 33.7385 49.5824 34.2037 49.5741C34.4239 49.5703 34.6364 49.655 34.7936 49.8091C34.9509 49.9632 35.0398 50.1739 35.0404 50.3941V50.4276C35.0288 51.1472 35.3312 51.8362 35.8688 52.3148C36.4063 52.7934 37.1257 53.0141 37.8392 52.9193C38.0297 52.2245 38.3143 51.559 38.6851 50.9413C38.9233 50.5453 39.4374 50.4174 39.8334 50.6556C40.2295 50.8938 40.3574 51.4079 40.1192 51.8039C39.1629 53.3926 38.963 55.3243 39.5737 57.0752V57.0802C40.3052 59.2028 42.1157 60.7723 44.3207 61.1952C46.5256 61.618 48.7884 60.8298 50.2533 59.1284C50.4874 58.8644 50.86 58.772 51.1904 58.8958C52.6824 59.4863 54.2895 59.7284 55.8893 59.6037C56.7145 59.5485 57.5306 59.3986 58.3216 59.1569C58.7633 59.0212 59.2314 59.2694 59.367 59.7112C59.5027 60.1529 59.2545 60.621 58.8127 60.7566C57.9055 61.034 56.9696 61.2069 56.0232 61.272H55.978C56.0993 63.624 56.9276 64.9301 61.2425 66.3684C65.4871 67.7832 66.5028 70.9075 66.7421 72.1851H69.3116C69.1936 70.2699 68.6565 65.6873 66.2803 63.1897C65.6804 63.4025 65.0626 63.5613 64.4345 63.6642C64.3903 63.6715 64.3455 63.6752 64.3006 63.675C63.8632 63.6762 63.4988 63.3402 63.4644 62.9042C63.4299 62.4682 63.7371 62.0792 64.1693 62.0117C67.0689 61.5389 69.5639 59.6999 70.8737 57.0701C68.6114 58.2514 65.9158 58.2586 63.6472 57.0894C63.0142 56.7715 62.4287 56.3668 61.9077 55.887C59.8575 56.8588 57.4068 56.0086 56.3988 53.976C56.2643 53.7088 56.2826 53.3901 56.4468 53.14C56.6109 52.8899 56.8961 52.7463 57.1948 52.7635C57.4935 52.7806 57.7603 52.9557 57.8949 53.223C58.4146 54.2658 59.5836 54.8139 60.7177 54.5464C61.8517 54.2789 62.6526 53.2661 62.6515 52.101C62.6531 51.7127 62.5634 51.3295 62.3896 50.9823C62.2551 50.7151 62.2734 50.3964 62.4375 50.1463C62.6017 49.8961 62.8868 49.7526 63.1855 49.7697C63.4842 49.7869 63.7511 49.962 63.8856 50.2293C64.6453 51.7464 64.4111 53.5724 63.2932 54.8487C63.6358 55.1384 64.0099 55.3885 64.4086 55.5942C65.287 56.051 66.2632 56.2879 67.2533 56.2845C69.0221 56.279 70.7073 55.531 71.8978 54.2228Z" fill="currentColor"/>
<path d="M74.3653 43.734L74.7653 43.7354L74.7653 43.7332L74.3653 43.734ZM70.0521 38.774L69.6568 38.8352L69.7021 39.1283L69.9958 39.17L70.0521 38.774ZM73.9469 45.7278L73.5801 45.5683L73.4949 45.7643L73.6104 45.9441L73.9469 45.7278ZM73.2926 55.1633L72.9892 54.9027L72.9218 54.9811L72.9009 55.0823L73.2926 55.1633ZM67.88 62.4744L67.6882 62.1234L67.2644 62.355L67.5709 62.7282L67.88 62.4744ZM70.985 72.0839L71.3843 72.0605L71.3842 72.0591L70.985 72.0839ZM69.3116 73.8552L69.3123 73.4552H69.3116V73.8552ZM66.7588 73.8552V73.4551L66.7569 73.4552L66.7588 73.8552ZM65.0972 72.4947L64.704 72.5682L64.7046 72.5717L65.0972 72.4947ZM60.7137 67.9573L60.5872 68.3367L60.5872 68.3367L60.7137 67.9573ZM54.3054 61.2687L54.7049 61.2489L54.6873 60.8928L54.3315 60.8695L54.3054 61.2687ZM51.1218 60.6353L51.2505 60.2566L51.0138 60.1762L50.8378 60.3536L51.1218 60.6353ZM44.1303 62.861L44.1992 62.467L44.1303 62.861ZM38.3086 58.3955L38.6713 58.2268L38.5274 57.9173L38.1991 58.0107L38.3086 58.3955ZM25 48.3358L25.4 48.3362L25.4 48.3352L25 48.3358ZM26.8408 42.4346L27.1695 42.6625L27.2751 42.5101L27.2271 42.331L26.8408 42.4346ZM30.0269 36.494L30.1544 36.8732L30.4216 36.7833L30.4268 36.5014L30.0269 36.494ZM32.7096 31.4702L32.481 31.1419L32.7096 31.4702ZM38.3521 30.6965L38.2203 31.0742L38.503 31.1729L38.6774 30.9293L38.3521 30.6965ZM45.4992 27L45.4992 26.6L45.4972 26.6L45.4992 27ZM50.5896 28.6332L50.3569 28.9586L50.6459 29.1653L50.8852 28.9027L50.5896 28.6332ZM54.8528 27.032L54.8979 26.6346L54.8528 27.032ZM58.6487 29.5477L58.3003 29.7441L58.4227 29.9614L58.6717 29.9471L58.6487 29.5477ZM58.868 29.5324L58.8378 29.1336L58.868 29.5324ZM59.3047 29.5101L59.3069 29.1101H59.3047V29.5101ZM71.9171 54.2028L72.2059 54.4795L72.7299 53.9328L71.9829 53.8082L71.9171 54.2028ZM71.8978 54.2228L71.609 53.946L71.602 53.9536L71.8978 54.2228ZM71.9121 54.2019L71.6154 53.9337L71.1249 54.4762L71.8463 54.5965L71.9121 54.2019ZM72.8852 47.2674L73.2442 47.0911L72.9957 46.5847L72.6 46.9868L72.8852 47.2674ZM71.4628 48.2814L71.6323 48.6437L71.635 48.6424L71.4628 48.2814ZM70.35 47.8782L69.9877 48.0477V48.0477L70.35 47.8782ZM70.7532 46.7653L70.5841 46.4029L70.5837 46.4031L70.7532 46.7653ZM72.2593 45.3814L72.6062 45.5806L72.6074 45.5785L72.2593 45.3814ZM67.337 41.0565L67.577 41.3765L67.5772 41.3764L67.337 41.0565ZM66.1656 40.8892L65.8456 41.1292V41.1292L66.1656 40.8892ZM66.333 39.7178L66.0935 39.3974L66.093 39.3978L66.333 39.7178ZM68.372 38.8175L68.4475 39.2104L68.8351 39.1359L68.7658 38.7473L68.372 38.8175ZM59.3047 31.1835L59.3068 30.7835H59.3047V31.1835ZM59.2294 31.1835V30.7835H58.7527L58.8355 31.2529L59.2294 31.1835ZM59.3047 32.0202H59.7047L59.7047 32.0181L59.3047 32.0202ZM49.2643 32.0202H49.6643V32.02L49.2643 32.0202ZM49.6768 30.033L50.0437 30.1924L50.1713 29.8985L49.9124 29.7098L49.6768 30.033ZM45.4992 28.6734L45.4989 28.2734L45.4978 28.2734L45.4992 28.6734ZM39.3712 32.1583L39.0281 31.9526L39.0265 31.9552L39.3712 32.1583ZM38.6181 33.9739L39.0052 34.0748L39.0053 34.0744L38.6181 33.9739ZM38.2313 34.4847L38.0292 34.1396L38.0292 34.1396L38.2313 34.4847ZM37.5965 34.5721L37.6979 34.1852L37.6975 34.1851L37.5965 34.5721ZM37.0857 34.1853L37.4308 33.9832L37.4308 33.9832L37.0857 34.1853ZM36.9983 33.5505L36.6122 33.4457L36.6113 33.4492L36.9983 33.5505ZM37.4919 32.1875L37.8555 32.3543L38.0509 31.9281L37.5994 31.8022L37.4919 32.1875ZM36.2955 32.0202L36.2979 31.6202L36.2949 31.6202L36.2955 32.0202ZM31.7145 36.2037L31.3162 36.1669L31.2759 36.6037L31.7145 36.6037L31.7145 36.2037ZM35.7098 38.2185L35.3881 38.4563L35.3898 38.4585L35.7098 38.2185ZM35.5424 39.3898L35.7824 39.7098H35.7824L35.5424 39.3898ZM34.3711 39.2225L34.0492 39.46L34.0511 39.4625L34.3711 39.2225ZM31.6936 37.8771L31.6932 38.2771L31.6951 38.2771L31.6936 37.8771ZM28.4646 40.3312L28.8502 40.4379L28.4646 40.3312ZM29.9725 44.0963L30.1783 43.7533L30.1778 43.753L29.9725 44.0963ZM29.9482 45.5453L30.1423 45.895L29.9482 45.5453ZM29.1116 45.5312L28.9034 45.8728L28.9058 45.8742L29.1116 45.5312ZM27.6942 44.236L28.0157 43.998L27.639 43.4893L27.3412 44.0478L27.6942 44.236ZM26.6734 48.3358L27.0734 48.3356L27.0734 48.3351L26.6734 48.3358ZM30.1235 55.313L29.8804 55.6307L30.1235 55.313ZM37.7605 56.8158L37.865 57.2019L38.2385 57.1008L38.1499 56.7242L37.7605 56.8158ZM37.5505 55.0294H37.1505L37.1505 55.0306L37.5505 55.0294ZM37.566 54.7761L37.9643 54.8125V54.8125L37.566 54.7761ZM37.579 54.6111L37.9784 54.6325L38.001 54.2111H37.579V54.6111ZM37.5505 54.6111L37.55 55.0111H37.5505V54.6111ZM33.367 50.4276L33.767 50.4271L33.767 50.4267L33.367 50.4276ZM34.2037 49.5741L34.1968 49.1742L34.1966 49.1742L34.2037 49.5741ZM35.0404 50.3941H35.4404L35.4404 50.3929L35.0404 50.3941ZM35.0404 50.4276L35.4404 50.434V50.4276H35.0404ZM35.8688 52.3148L36.1348 52.0161H36.1348L35.8688 52.3148ZM37.8392 52.9193L37.8919 53.3158L38.1548 53.2808L38.2249 53.0251L37.8392 52.9193ZM38.6851 50.9413L38.3423 50.7351L38.3421 50.7355L38.6851 50.9413ZM39.8334 50.6556L40.0396 50.3128L39.8334 50.6556ZM40.1192 51.8039L40.4619 52.0102L40.4619 52.0101L40.1192 51.8039ZM39.5737 57.0752H39.9736V57.0074L39.9513 56.9434L39.5737 57.0752ZM39.5737 57.0802H39.1737V57.1472L39.1955 57.2105L39.5737 57.0802ZM44.3207 61.1952L44.396 60.8023L44.3207 61.1952ZM50.2533 59.1284L49.954 58.863L49.9502 58.8674L50.2533 59.1284ZM51.1904 58.8958L51.3376 58.5238L51.3308 58.5213L51.1904 58.8958ZM55.8893 59.6037L55.8626 59.2045L55.8582 59.2049L55.8893 59.6037ZM58.3216 59.1569L58.4385 59.5394L58.439 59.5392L58.3216 59.1569ZM59.367 59.7112L58.9846 59.8286V59.8286L59.367 59.7112ZM58.8127 60.7566L58.9296 61.1392L58.9301 61.139L58.8127 60.7566ZM56.0232 61.272V61.672H56.0369L56.0506 61.6711L56.0232 61.272ZM55.978 61.272V60.872H55.5568L55.5785 61.2926L55.978 61.272ZM61.2425 66.3684L61.369 65.9889L61.2425 66.3684ZM66.7421 72.1851L66.3489 72.2587L66.4101 72.5851H66.7421V72.1851ZM69.3116 72.1851V72.5851H69.737L69.7109 72.1605L69.3116 72.1851ZM66.2803 63.1897L66.57 62.914L66.3911 62.726L66.1465 62.8128L66.2803 63.1897ZM64.4345 63.6642L64.3699 63.2694L64.3688 63.2696L64.4345 63.6642ZM64.3006 63.675L64.3017 63.275L64.2996 63.275L64.3006 63.675ZM63.4644 62.9042L63.0656 62.9357V62.9357L63.4644 62.9042ZM64.1693 62.0117L64.231 62.4069L64.2336 62.4065L64.1693 62.0117ZM70.8737 57.0701L71.2318 57.2485L71.7814 56.1449L70.6886 56.7156L70.8737 57.0701ZM63.6472 57.0894L63.8304 56.7338L63.8267 56.7319L63.6472 57.0894ZM61.9077 55.887L62.1786 55.5928L61.9801 55.41L61.7363 55.5256L61.9077 55.887ZM56.3988 53.976L56.7572 53.7983L56.7561 53.7962L56.3988 53.976ZM57.1948 52.7635L57.1719 53.1628L57.1948 52.7635ZM57.8949 53.223L58.2529 53.0446L58.2521 53.0431L57.8949 53.223ZM62.6515 52.101L62.2515 52.0993V52.1013L62.6515 52.101ZM62.3896 50.9823L62.7473 50.8032L62.7469 50.8025L62.3896 50.9823ZM63.1855 49.7697L63.1626 50.1691L63.1855 49.7697ZM63.8856 50.2293L64.2433 50.0502L64.2429 50.0494L63.8856 50.2293ZM63.2932 54.8487L62.9923 54.5851L62.7242 54.8913L63.0349 55.1541L63.2932 54.8487ZM64.4086 55.5942L64.5931 55.2393L64.592 55.2387L64.4086 55.5942ZM67.2533 56.2845L67.2521 55.8845H67.2519L67.2533 56.2845ZM74.7653 43.7332C74.7598 41.0388 72.776 38.7575 70.1084 38.378L69.9958 39.17C72.2696 39.4935 73.9606 41.4381 73.9653 43.7348L74.7653 43.7332ZM74.3138 45.8873C74.609 45.2082 74.7627 44.4759 74.7653 43.7354L73.9653 43.7326C73.963 44.3643 73.832 44.989 73.5801 45.5683L74.3138 45.8873ZM73.5961 55.4239C75.9914 52.6351 76.2709 48.6043 74.2834 45.5116L73.6104 45.9441C75.4067 48.7392 75.1541 52.3822 72.9892 54.9027L73.5961 55.4239ZM68.0718 62.8254C70.9646 61.2445 73.0168 58.4726 73.6843 55.2443L72.9009 55.0823C72.2809 58.0806 70.3749 60.6551 67.6882 62.1234L68.0718 62.8254ZM71.3842 72.0591C71.3209 71.0396 71.1482 69.3484 70.6822 67.5336C70.2173 65.7231 69.4531 63.7598 68.1892 62.2205L67.5709 62.7282C68.7308 64.1408 69.4568 65.9782 69.9073 67.7325C70.3566 69.4825 70.5244 71.12 70.5858 72.1086L71.3842 72.0591ZM70.8216 73.6056C71.2142 73.1901 71.4178 72.6311 71.3843 72.0605L70.5857 72.1073C70.6062 72.4577 70.4812 72.8011 70.2401 73.0562L70.8216 73.6056ZM69.3109 74.2551C69.8825 74.2561 70.4291 74.0211 70.8216 73.6056L70.2401 73.0562C69.9991 73.3114 69.6633 73.4558 69.3123 73.4552L69.3109 74.2551ZM66.7588 74.2552H69.3116V73.4552H66.7588V74.2552ZM64.7046 72.5717C64.8974 73.5535 65.7603 74.26 66.7608 74.2551L66.7569 73.4552C66.1403 73.4581 65.6085 73.0227 65.4897 72.4176L64.7046 72.5717ZM60.5872 68.3367C63.6973 69.3732 64.4948 71.4499 64.704 72.5682L65.4903 72.4211C65.241 71.0879 64.2882 68.7268 60.8402 67.5778L60.5872 68.3367ZM53.9059 61.2884C53.9858 62.9027 54.34 64.2566 55.3747 65.4209C56.3959 66.5698 58.0391 67.4874 60.5872 68.3367L60.8402 67.5778C58.3379 66.7437 56.8545 65.8816 55.9727 64.8894C55.1046 63.9126 54.7799 62.764 54.7049 61.2489L53.9059 61.2884ZM50.9931 61.014C52.0552 61.3749 53.16 61.5947 54.2793 61.6678L54.3315 60.8695C53.2821 60.801 52.2462 60.5949 51.2505 60.2566L50.9931 61.014ZM44.0614 63.2551C46.7446 63.7241 49.4876 62.8509 51.4058 60.917L50.8378 60.3536C49.1039 62.1017 46.6245 62.891 44.1992 62.467L44.0614 63.2551ZM37.9458 58.5641C39.0942 61.0341 41.3783 62.786 44.0614 63.2551L44.1992 62.467C41.7739 62.0431 39.7093 60.4594 38.6713 58.2268L37.9458 58.5641ZM28.907 57.0002C31.6225 59.0528 35.144 59.7119 38.418 58.7802L38.1991 58.0107C35.1665 58.8737 31.9047 58.2633 29.3894 56.362L28.907 57.0002ZM24.6 48.3354C24.5968 51.7395 26.1915 54.9476 28.907 57.0002L29.3894 56.362C26.8741 54.4608 25.397 51.4892 25.4 48.3362L24.6 48.3354ZM26.5121 42.2067C25.2638 44.0068 24.5966 46.1459 24.6 48.3365L25.4 48.3352C25.3969 46.308 26.0143 44.3284 27.1695 42.6625L26.5121 42.2067ZM29.8995 36.1149C27.2352 37.0104 25.7265 39.8233 26.4544 42.5382L27.2271 42.331C26.6086 40.0242 27.8905 37.6341 30.1544 36.8732L29.8995 36.1149ZM32.481 31.1419C30.7278 32.3629 29.6664 34.3505 29.627 36.4866L30.4268 36.5014C30.4615 34.6218 31.3955 32.8728 32.9382 31.7984L32.481 31.1419ZM38.4839 30.3189C36.4667 29.6149 34.2343 29.921 32.481 31.1419L32.9382 31.7984C34.4809 30.7241 36.4453 30.4548 38.2203 31.0742L38.4839 30.3189ZM45.4972 26.6C42.5314 26.6148 39.7528 28.0519 38.0268 30.4637L38.6774 30.9293C40.254 28.7262 42.7921 27.4135 45.5012 27.4L45.4972 26.6ZM50.8223 28.3079C49.2696 27.1972 47.4083 26.6 45.4992 26.6L45.4991 27.4C47.2413 27.4 48.9399 27.945 50.3569 28.9586L50.8223 28.3079ZM54.8979 26.6346C53.1747 26.439 51.4624 27.0822 50.294 28.3638L50.8852 28.9027C51.8807 27.8108 53.3396 27.2629 54.8077 27.4295L54.8979 26.6346ZM58.9972 29.3514C58.1457 27.8406 56.621 26.8301 54.8979 26.6346L54.8077 27.4295C56.2758 27.5961 57.5748 28.457 58.3003 29.7441L58.9972 29.3514ZM58.8378 29.1336C58.7638 29.1392 58.6941 29.1445 58.6258 29.1484L58.6717 29.9471C58.7486 29.9427 58.8256 29.9368 58.8983 29.9313L58.8378 29.1336ZM59.3047 29.1101C59.1445 29.1101 58.9819 29.1226 58.8378 29.1336L58.8983 29.9313C59.0483 29.9199 59.1801 29.9101 59.3047 29.9101V29.1101ZM70.4474 38.7129C69.596 33.2105 64.8747 29.1409 59.3069 29.1101L59.3025 29.9101C64.4774 29.9387 68.8654 33.7211 69.6568 38.8352L70.4474 38.7129ZM71.6283 53.926L71.6091 53.9461L72.1866 54.4996L72.2059 54.4795L71.6283 53.926ZM71.8463 54.5965L71.8513 54.5973L71.9829 53.8082L71.9779 53.8074L71.8463 54.5965ZM72.5261 47.4436C73.5793 49.5895 73.2186 52.1606 71.6154 53.9337L72.2088 54.4702C74.0316 52.4542 74.4418 49.5309 73.2442 47.0911L72.5261 47.4436ZM71.635 48.6424C72.2066 48.3697 72.7261 47.9993 73.1703 47.5479L72.6 46.9868C72.2212 47.3718 71.778 47.6878 71.2905 47.9204L71.635 48.6424ZM69.9877 48.0477C70.2772 48.6664 71.0136 48.9333 71.6323 48.6437L71.2932 47.9192C71.0746 48.0214 70.8145 47.9272 70.7122 47.7086L69.9877 48.0477ZM70.5837 46.4031C69.9649 46.6926 69.6981 47.429 69.9877 48.0477L70.7122 47.7086C70.61 47.49 70.7042 47.2299 70.9228 47.1276L70.5837 46.4031ZM71.9124 45.1823C71.6059 45.7162 71.142 46.1425 70.5841 46.4029L70.9224 47.1278C71.6296 46.7978 72.2176 46.2574 72.6062 45.5806L71.9124 45.1823ZM71.2918 41.519C72.3401 42.44 72.5986 43.9701 71.9112 45.1844L72.6074 45.5785C73.4815 44.0345 73.1527 42.0891 71.8199 40.918L71.2918 41.519ZM67.5772 41.3764C68.693 40.5384 70.2436 40.5979 71.2918 41.519L71.8199 40.918C70.487 39.7469 68.5155 39.6712 67.0968 40.7367L67.5772 41.3764ZM65.8456 41.1292C66.2554 41.6756 67.0306 41.7864 67.577 41.3765L67.097 40.7365C66.9041 40.8813 66.6303 40.8422 66.4856 40.6492L65.8456 41.1292ZM66.093 39.3978C65.5466 39.8076 65.4358 40.5828 65.8456 41.1292L66.4856 40.6492C66.3409 40.4563 66.38 40.1825 66.573 40.0378L66.093 39.3978ZM68.2965 38.4247C67.4981 38.5782 66.7448 38.9107 66.0935 39.3974L66.5724 40.0383C67.1268 39.624 67.7679 39.341 68.4475 39.2104L68.2965 38.4247ZM59.3026 31.5835C63.5781 31.6059 67.2276 34.6786 67.9782 38.8878L68.7658 38.7473C67.9474 34.1581 63.9683 30.808 59.3068 30.7835L59.3026 31.5835ZM59.2294 31.5835H59.3047V30.7835H59.2294V31.5835ZM59.7047 32.0181C59.7031 31.715 59.6759 31.4126 59.6233 31.1141L58.8355 31.2529C58.8802 31.5069 58.9034 31.7643 58.9047 32.0222L59.7047 32.0181ZM58.468 33.2569C59.151 33.2569 59.7047 32.7032 59.7047 32.0202H58.9047C58.9047 32.2614 58.7092 32.4569 58.468 32.4569V33.2569ZM57.2313 32.0202C57.2313 32.7032 57.785 33.2569 58.468 33.2569V32.4569C58.2268 32.4569 58.0313 32.2614 58.0313 32.0202H57.2313ZM54.2845 29.0734C55.912 29.0734 57.2313 30.3927 57.2313 32.0202H58.0313C58.0313 29.9509 56.3538 28.2734 54.2845 28.2734V29.0734ZM51.3377 32.0202C51.3377 30.3927 52.657 29.0734 54.2845 29.0734V28.2734C52.2152 28.2734 50.5377 29.9509 50.5377 32.0202H51.3377ZM50.101 33.2569C50.784 33.2569 51.3377 32.7032 51.3377 32.0202H50.5377C50.5377 32.2614 50.3422 32.4569 50.101 32.4569V33.2569ZM48.8643 32.0202C48.8643 32.7032 49.418 33.2569 50.101 33.2569V32.4569C49.8598 32.4569 49.6643 32.2614 49.6643 32.0202H48.8643ZM49.3099 29.8737C49.0157 30.5511 48.864 31.2818 48.8643 32.0204L49.6643 32.02C49.664 31.3912 49.7932 30.7691 50.0437 30.1924L49.3099 29.8737ZM45.4994 29.0734C46.9161 29.0726 48.2964 29.5218 49.4412 30.3563L49.9124 29.7098C48.6306 28.7755 47.0851 28.2725 45.4989 28.2734L45.4994 29.0734ZM39.7142 32.3639C40.9338 30.3296 43.1286 29.0814 45.5005 29.0734L45.4978 28.2734C42.8458 28.2824 40.3917 29.678 39.0281 31.9526L39.7142 32.3639ZM39.0053 34.0744C39.1614 33.4731 39.4005 32.8965 39.7158 32.3613L39.0265 31.9552C38.6735 32.5545 38.4057 33.2001 38.231 33.8734L39.0053 34.0744ZM38.4335 34.8299C38.7167 34.6641 38.9224 34.3924 39.0052 34.0748L38.2311 33.8729C38.2018 33.9851 38.1292 34.081 38.0292 34.1396L38.4335 34.8299ZM37.4952 34.9591C37.8127 35.0422 38.1502 34.9958 38.4335 34.8299L38.0292 34.1396C37.9292 34.1981 37.81 34.2145 37.6979 34.1852L37.4952 34.9591ZM36.7405 34.3874C36.9064 34.6707 37.178 34.8763 37.4956 34.9592L37.6975 34.1851C37.5853 34.1558 37.4894 34.0832 37.4308 33.9832L36.7405 34.3874ZM36.6113 33.4492C36.5282 33.7667 36.5746 34.1042 36.7405 34.3874L37.4308 33.9832C37.3723 33.8832 37.3559 33.764 37.3852 33.6519L36.6113 33.4492ZM37.1283 32.0208C36.9174 32.4808 36.7448 32.9574 36.6123 33.4457L37.3843 33.6553C37.5054 33.2094 37.663 32.7742 37.8555 32.3543L37.1283 32.0208ZM36.2931 32.4202C36.662 32.4224 37.0291 32.4737 37.3845 32.5728L37.5994 31.8022C37.1755 31.6841 36.7379 31.6229 36.2979 31.6202L36.2931 32.4202ZM32.1128 36.2404C32.3124 34.0783 34.1247 32.4232 36.296 32.4202L36.2949 31.6202C33.7107 31.6238 31.5537 33.5936 31.3162 36.1669L32.1128 36.2404ZM36.0314 37.9806C35.019 36.6115 33.4173 35.8038 31.7146 35.8037L31.7145 36.6037C33.1635 36.6038 34.5266 37.2912 35.3881 38.4563L36.0314 37.9806ZM35.7824 39.7098C36.3288 39.3 36.4396 38.5249 36.0298 37.9785L35.3898 38.4585C35.5345 38.6514 35.4954 38.9251 35.3024 39.0698L35.7824 39.7098ZM34.0511 39.4625C34.4609 40.0089 35.236 40.1196 35.7824 39.7098L35.3024 39.0698C35.1095 39.2146 34.8358 39.1754 34.6911 38.9825L34.0511 39.4625ZM31.6951 38.2771C32.6235 38.2737 33.4979 38.713 34.0492 39.46L34.6929 38.985C33.9901 38.0328 32.8756 37.4727 31.6921 37.4771L31.6951 38.2771ZM28.8502 40.4379C29.2038 39.1601 30.3673 38.2757 31.6932 38.2771L31.694 37.4771C30.0082 37.4754 28.5288 38.5998 28.0791 40.2246L28.8502 40.4379ZM30.1778 43.753C29.0399 43.0725 28.4965 41.7158 28.8502 40.4379L28.0791 40.2246C27.6295 41.8493 28.3204 43.5743 29.7672 44.4396L30.1778 43.753ZM30.7786 44.8345C30.786 44.3928 30.5572 43.9806 30.1783 43.7533L29.7667 44.4393C29.9005 44.5195 29.9813 44.6651 29.9787 44.8211L30.7786 44.8345ZM30.1423 45.895C30.5286 45.6806 30.7711 45.2763 30.7786 44.8345L29.9787 44.8211C29.9761 44.9771 29.8904 45.1198 29.754 45.1956L30.1423 45.895ZM28.9058 45.8742C29.2846 46.1015 29.756 46.1095 30.1423 45.895L29.754 45.1956C29.6176 45.2713 29.4511 45.2685 29.3174 45.1882L28.9058 45.8742ZM27.3727 44.474C27.7879 45.0347 28.3077 45.5097 28.9034 45.8728L29.3197 45.1897C28.8122 44.8803 28.3694 44.4756 28.0157 43.998L27.3727 44.474ZM27.0734 48.3351C27.071 46.9712 27.4055 45.6278 28.0472 44.4242L27.3412 44.0478C26.6376 45.3677 26.2708 46.8408 26.2734 48.3365L27.0734 48.3351ZM30.3665 54.9953C28.2922 53.4088 27.0749 50.947 27.0734 48.3356L26.2734 48.3361C26.2751 51.1964 27.6084 53.893 29.8804 55.6307L30.3665 54.9953ZM37.656 56.4297C35.1353 57.112 32.4407 56.5817 30.3665 54.9953L29.8804 55.6307C32.1524 57.3684 35.104 57.9492 37.865 57.2019L37.656 56.4297ZM37.1505 55.0306C37.1524 55.6626 37.2265 56.2922 37.3712 56.9074L38.1499 56.7242C38.0191 56.1683 37.9522 55.5993 37.9505 55.0282L37.1505 55.0306ZM37.1676 54.7397C37.1602 54.8212 37.1505 54.9238 37.1505 55.0294H37.9505C37.9505 54.9664 37.9563 54.9003 37.9643 54.8125L37.1676 54.7397ZM37.1795 54.5897C37.177 54.6361 37.1727 54.6836 37.1676 54.7397L37.9643 54.8125C37.9692 54.7589 37.975 54.6965 37.9784 54.6325L37.1795 54.5897ZM37.5505 55.0111H37.579V54.2111H37.5505V55.0111ZM32.967 50.4281C32.97 52.9579 35.0202 55.008 37.55 55.0111L37.551 54.2111C35.4622 54.2086 33.7695 52.5159 33.767 50.4271L32.967 50.4281ZM34.1966 49.1742C33.513 49.1863 32.9656 49.7447 32.967 50.4284L33.767 50.4267C33.7665 50.18 33.9641 49.9784 34.2108 49.9741L34.1966 49.1742ZM35.0736 49.5234C34.8398 49.2943 34.524 49.1685 34.1968 49.1742L34.2106 49.9741C34.3237 49.9721 34.4329 50.0156 34.5136 50.0948L35.0736 49.5234ZM35.4404 50.3929C35.4395 50.0657 35.3073 49.7525 35.0736 49.5234L34.5136 50.0948C34.5944 50.1739 34.6401 50.2822 34.6404 50.3953L35.4404 50.3929ZM35.4404 50.4276V50.3941H34.6404V50.4276H35.4404ZM36.1348 52.0161C35.6841 51.6149 35.4306 51.0373 35.4404 50.434L34.6405 50.4211C34.627 51.2571 34.9783 52.0576 35.6028 52.6136L36.1348 52.0161ZM37.7865 52.5228C37.1884 52.6022 36.5854 52.4172 36.1348 52.0161L35.6028 52.6136C36.2273 53.1696 37.063 53.4259 37.8919 53.3158L37.7865 52.5228ZM38.3421 50.7355C37.9526 51.3844 37.6536 52.0835 37.4534 52.8135L38.2249 53.0251C38.4058 52.3654 38.676 51.7336 39.028 51.1472L38.3421 50.7355ZM40.0396 50.3128C39.4543 49.9607 38.6944 50.1498 38.3423 50.7351L39.0278 51.1475C39.1522 50.9408 39.4206 50.874 39.6273 50.9983L40.0396 50.3128ZM40.4619 52.0101C40.814 51.4248 40.6249 50.6649 40.0396 50.3128L39.6273 50.9983C39.834 51.1227 39.9008 51.3911 39.7764 51.5978L40.4619 52.0101ZM39.9513 56.9434C39.3798 55.3049 39.5669 53.497 40.4619 52.0102L39.7765 51.5977C38.7589 53.2882 38.5461 55.3438 39.196 57.2069L39.9513 56.9434ZM39.9736 57.0802V57.0752H39.1737V57.0802H39.9736ZM44.396 60.8023C42.3317 60.4064 40.6367 58.937 39.9518 56.9498L39.1955 57.2105C39.9737 59.4685 41.8997 61.1381 44.2453 61.588L44.396 60.8023ZM49.9502 58.8674C48.5787 60.4602 46.4603 61.1982 44.396 60.8023L44.2453 61.588C46.5909 62.0379 48.998 61.1993 50.5564 59.3894L49.9502 58.8674ZM51.3308 58.5213C50.8454 58.3393 50.298 58.4752 49.954 58.863L50.5525 59.3938C50.6768 59.2537 50.8746 59.2046 51.05 59.2704L51.3308 58.5213ZM55.8582 59.2049C54.3191 59.3249 52.773 59.0919 51.3376 58.5239L51.0432 59.2677C52.5918 59.8806 54.2599 60.1319 55.9204 60.0024L55.8582 59.2049ZM58.2047 58.7743C57.4431 59.0071 56.6572 59.1514 55.8626 59.2045L55.916 60.0028C56.7718 59.9456 57.6182 59.7901 58.4385 59.5394L58.2047 58.7743ZM59.7494 59.5938C59.549 58.9408 58.8571 58.574 58.2042 58.7745L58.439 59.5392C58.6695 59.4685 58.9138 59.598 58.9846 59.8286L59.7494 59.5938ZM58.9301 61.139C59.5831 60.9386 59.9499 60.2467 59.7494 59.5938L58.9846 59.8286C59.0554 60.0591 58.9259 60.3035 58.6953 60.3742L58.9301 61.139ZM56.0506 61.6711C57.0274 61.6038 57.9933 61.4254 58.9296 61.1392L58.6958 60.3741C57.8176 60.6425 56.9118 60.8099 55.9957 60.873L56.0506 61.6711ZM55.978 61.672H56.0232V60.872H55.978V61.672ZM61.369 65.9889C59.2244 65.274 58.0182 64.6129 57.3274 63.8871C56.6589 63.1846 56.4357 62.3806 56.3774 61.2514L55.5785 61.2926C55.6416 62.5154 55.8932 63.5405 56.7479 64.4386C57.5803 65.3133 58.9457 66.0244 61.116 66.7478L61.369 65.9889ZM67.1353 72.1115C66.8799 70.748 65.7988 67.4655 61.369 65.9889L61.116 66.7478C65.1753 68.1009 66.1257 71.0669 66.3489 72.2587L67.1353 72.1115ZM69.3116 71.7851H66.7421V72.5851H69.3116V71.7851ZM65.9905 63.4655C67.1108 64.643 67.8169 66.3372 68.2559 68.0075C68.693 69.6705 68.8543 71.2669 68.9124 72.2097L69.7109 72.1605C69.651 71.1881 69.4847 69.5356 69.0296 67.8041C68.5765 66.0799 67.826 64.2341 66.57 62.914L65.9905 63.4655ZM64.4991 64.0589C65.1508 63.9522 65.7916 63.7875 66.414 63.5667L66.1465 62.8128C65.5691 63.0176 64.9745 63.1704 64.3699 63.2694L64.4991 64.0589ZM64.2995 64.075C64.3667 64.0752 64.4338 64.0698 64.5002 64.0587L64.3688 63.2696C64.3467 63.2733 64.3242 63.2751 64.3017 63.275L64.2995 64.075ZM63.0656 62.9357C63.1165 63.5802 63.6552 64.0767 64.3016 64.075L64.2996 63.275C64.0713 63.2756 63.8811 63.1003 63.8631 62.8727L63.0656 62.9357ZM64.1075 61.6165C63.4688 61.7163 63.0147 62.2912 63.0656 62.9357L63.8631 62.8727C63.8452 62.6451 64.0055 62.4421 64.231 62.4069L64.1075 61.6165ZM70.5157 56.8918C69.2633 59.4064 66.8775 61.1648 64.1049 61.6169L64.2336 62.4065C67.2603 61.913 69.8646 59.9934 71.2318 57.2485L70.5157 56.8918ZM63.4639 57.4449C65.8482 58.6738 68.6812 58.6662 71.0589 57.4247L70.6886 56.7156C68.5415 57.8366 65.9834 57.8435 63.8304 56.7338L63.4639 57.4449ZM61.6367 56.1813C62.1851 56.6863 62.8014 57.1123 63.4677 57.4468L63.8267 56.7319C63.227 56.4308 62.6723 56.0474 62.1786 55.5928L61.6367 56.1813ZM56.0405 54.1537C57.1453 56.3818 59.8317 57.3137 62.079 56.2485L61.7363 55.5256C59.8833 56.4039 57.6682 55.6355 56.7572 53.7983L56.0405 54.1537ZM56.1124 52.9205C55.8698 53.29 55.8428 53.761 56.0415 54.1559L56.7561 53.7962C56.6859 53.6566 56.6954 53.4901 56.7812 53.3595L56.1124 52.9205ZM57.2177 52.3641C56.7763 52.3388 56.355 52.5509 56.1124 52.9205L56.7812 53.3595C56.8669 53.2288 57.0159 53.1539 57.1719 53.1628L57.2177 52.3641ZM58.2521 53.0431C58.0534 52.6483 57.659 52.3894 57.2177 52.3641L57.1719 53.1628C57.3279 53.1717 57.4673 53.2632 57.5376 53.4028L58.2521 53.0431ZM60.6258 54.1571C59.6725 54.3819 58.6898 53.9212 58.2529 53.0446L57.5368 53.4014C58.1394 54.6104 59.4947 55.2458 60.8095 54.9357L60.6258 54.1571ZM62.2515 52.1013C62.2524 53.0808 61.5792 53.9322 60.6258 54.1571L60.8095 54.9357C62.1243 54.6256 63.0527 53.4514 63.0515 52.1006L62.2515 52.1013ZM62.0319 51.1614C62.1776 51.4525 62.2529 51.7738 62.2515 52.0993L63.0515 52.1027C63.0534 51.6517 62.9492 51.2065 62.7473 50.8032L62.0319 51.1614ZM62.1031 49.9268C61.8605 50.2963 61.8335 50.7673 62.0323 51.1621L62.7469 50.8025C62.6766 50.6629 62.6862 50.4964 62.7719 50.3658L62.1031 49.9268ZM63.2084 49.3704C62.7671 49.3451 62.3457 49.5572 62.1031 49.9268L62.7719 50.3658C62.8577 50.2351 63.0066 50.1601 63.1626 50.1691L63.2084 49.3704ZM64.2429 50.0494C64.0441 49.6545 63.6498 49.3957 63.2084 49.3704L63.1626 50.1691C63.3187 50.178 63.4581 50.2695 63.5283 50.4091L64.2429 50.0494ZM63.5941 55.1122C64.8192 53.7136 65.0758 51.7127 64.2433 50.0502L63.528 50.4084C64.2148 51.7801 64.0031 53.4311 62.9923 54.5851L63.5941 55.1122ZM64.592 55.2387C64.2201 55.0468 63.8711 54.8135 63.5515 54.5433L63.0349 55.1541C63.4005 55.4632 63.7997 55.7301 64.2251 55.9496L64.592 55.2387ZM67.2519 55.8845C66.3265 55.8877 65.4141 55.6663 64.5931 55.2393L64.224 55.9491C65.1599 56.4358 66.1999 56.6881 67.2547 56.6845L67.2519 55.8845ZM71.602 53.9536C70.487 55.1788 68.9087 55.8794 67.2521 55.8845L67.2546 56.6845C69.1355 56.6787 70.9276 55.8832 72.1937 54.4921L71.602 53.9536Z" fill="currentColor"/>
<path d="M57.6308 42.8973H55.7516L54.2514 37.647C54.1513 37.278 53.8101 37.0267 53.4281 37.0404C53.0468 37.049 52.7196 37.3143 52.6324 37.6855L50.1666 48.1685L47.5737 35.1997C47.4945 34.8097 47.1516 34.5295 46.7537 34.5295C46.3558 34.5295 46.0129 34.8097 45.9337 35.1997L44.3942 42.8973H39.2234C38.7613 42.8973 38.3867 43.2719 38.3867 43.734C38.3867 44.1961 38.7613 44.5707 39.2234 44.5707H45.0803C45.478 44.5708 45.8207 44.291 45.9003 43.9013L46.7537 39.6342L49.2805 52.2683C49.359 52.6528 49.694 52.9311 50.0863 52.9377H50.1005C50.489 52.9379 50.8265 52.6707 50.9155 52.2926L53.526 41.1971L54.3166 43.9641C54.4193 44.323 54.7474 44.5705 55.1207 44.5707H57.6308C58.0929 44.5707 58.4675 44.1961 58.4675 43.734C58.4675 43.2719 58.0929 42.8973 57.6308 42.8973Z" fill="currentColor" stroke="currentColor" stroke-width="0.8"/>
<path d="M62.6517 42.8973H60.9783C60.5162 42.8973 60.1416 43.2719 60.1416 43.734C60.1416 44.1961 60.5162 44.5707 60.9783 44.5707H62.6517C63.1138 44.5707 63.4884 44.1961 63.4884 43.734C63.4884 43.2719 63.1138 42.8973 62.6517 42.8973Z" fill="currentColor" stroke="currentColor" stroke-width="0.8"/>
</svg>
