<svg width="30" height="30" viewBox="0 0 37 42" fill="none" xmlns="http://www.w3.org/2000/svg">
<path fill-rule="evenodd" clip-rule="evenodd" d="M7.70833 41.2058H29.2917C33.5467 41.2003 36.9949 37.4479 37 32.8173V9.32958C36.9949 4.69905 33.5467 0.946648 29.2917 0.941101H7.70833C3.45325 0.946648 0.00509693 4.69905 0 9.32958V32.8173C0.00509693 37.4479 3.45325 41.2003 7.70833 41.2058ZM3.08331 9.32961C3.08331 6.54991 5.154 4.29651 7.70832 4.29651H29.2917C31.846 4.29651 33.9167 6.54991 33.9167 9.32961V32.8174C33.9167 35.5971 31.846 37.8505 29.2917 37.8505H7.70832C5.154 37.8505 3.08331 35.5971 3.08331 32.8174V9.32961ZM14.4023 29.4702C13.7596 29.4679 13.1289 29.281 12.5739 28.9283C11.4575 28.233 10.7718 26.9374 10.7794 25.5377V16.609C10.7783 15.2096 11.4627 13.9156 12.5753 13.2138C13.6878 12.5119 15.0598 12.5085 16.1752 13.205L24.3121 17.6257C25.4631 18.3019 26.1867 19.604 26.2024 21.0274C26.2181 22.4507 25.5234 23.7714 24.3876 24.4774L16.0996 28.9854C15.5827 29.3062 14.9974 29.4735 14.4023 29.4702ZM14.1216 16.1192C14.1952 16.073 14.2787 16.0487 14.3637 16.0488C14.488 16.0527 14.6092 16.0921 14.7152 16.1629L22.846 20.5836C23.01 20.6812 23.1104 20.8701 23.1065 21.0735C23.116 21.2463 23.0468 21.4131 22.9215 21.5197L14.6335 26.0294C14.473 26.1259 14.2777 26.1232 14.1195 26.0223C13.9613 25.9215 13.8637 25.7373 13.8626 25.5378V16.6091C13.8591 16.4063 13.9587 16.2178 14.1216 16.1192Z" fill="#FF8D1A"/>
</svg>
