<svg width="26" height="37" viewBox="0 0 26 37" fill="none" xmlns="http://www.w3.org/2000/svg">
<path d="M1.10305 31.9369C0.493821 31.9369 0 31.443 0 30.8338V5.05008C0 2.54112 2.04112 0.5 4.55008 0.5H24.2671C24.8763 0.5 25.3701 0.99389 25.3701 1.60305V26.9732C25.3701 27.5823 24.8763 28.0762 24.2671 28.0762C23.6578 28.0762 23.164 27.5823 23.164 26.9732V2.7061H4.55008C3.25758 2.7061 2.2061 3.75758 2.2061 5.05008V30.8338C2.2061 31.443 1.71228 31.9369 1.10305 31.9369Z" fill="#FF8D1A"/>
<path d="M24.2671 35.7976H4.96372C2.22671 35.7976 0 33.5708 0 30.8338C0 28.0968 2.22671 25.8701 4.96372 25.8701H24.2671C24.8763 25.8701 25.3701 26.364 25.3701 26.9732C25.3701 27.5823 24.8763 28.0762 24.2671 28.0762H4.96372C3.44317 28.0762 2.2061 29.3133 2.2061 30.8338C2.2061 32.3544 3.44317 33.5915 4.96372 33.5915H24.2671C24.8763 33.5915 25.3701 34.0853 25.3701 34.6945C25.3701 35.3037 24.8763 35.7976 24.2671 35.7976Z" fill="#FF8D1A"/>
<path d="M24.2668 31.9368H4.9634C4.35417 31.9368 3.86035 31.4429 3.86035 30.8338C3.86035 30.2246 4.35417 29.7307 4.9634 29.7307H24.2668C24.876 29.7307 25.3698 30.2246 25.3698 30.8338C25.3698 31.4429 24.876 31.9368 24.2668 31.9368Z" fill="#FF8D1A"/>
<path d="M6.06692 28.0762C5.45769 28.0762 4.96387 27.5823 4.96387 26.9732V1.60305C4.96387 0.99389 5.45769 0.5 6.06692 0.5C6.67614 0.5 7.16996 0.99389 7.16996 1.60305V26.9732C7.16996 27.5823 6.67614 28.0762 6.06692 28.0762Z" fill="#FF8D1A"/>
</svg>
