
<svg width="100" height="100" viewBox="0 0 100 100" fill="none" xmlns="http://www.w3.org/2000/svg">
<circle cx="50" cy="50" r="50" fill="#FF8D1A" fill-opacity="0.15"/>
<path d="M38.6606 36.5807L34.5009 32.4209C33.9266 31.8466 32.9954 31.8466 32.421 32.4209C31.8466 32.9953 31.8466 33.9265 32.421 34.5008L36.5807 38.6605C37.155 39.2349 38.0863 39.2349 38.6606 38.6605C39.235 38.0862 39.235 37.155 38.6606 36.5807Z" fill="#FF8D1A"/>
<path d="M32.4516 48.6293H26.4707C25.6585 48.6293 25 49.2878 25 50.1C25 50.9122 25.6585 51.5707 26.4707 51.5707H32.4516C33.2638 51.5707 33.9223 50.9122 33.9223 50.1C33.9223 49.2878 33.2638 48.6293 32.4516 48.6293Z" fill="#FF8D1A"/>
<path d="M73.7289 48.6293H67.748C66.9358 48.6293 66.2773 49.2878 66.2773 50.1C66.2773 50.9122 66.9358 51.5707 67.748 51.5707H73.7289C74.5411 51.5707 75.1996 50.9122 75.1996 50.1C75.1996 49.2878 74.5411 48.6293 73.7289 48.6293Z" fill="#FF8D1A"/>
<path d="M67.7788 32.4209C67.2045 31.8466 66.2733 31.8466 65.6989 32.4209L61.5392 36.5807C60.9648 37.155 60.9648 38.0862 61.5392 38.6605C62.1134 39.2349 63.0448 39.2349 63.619 38.6605L67.7788 34.5008C68.3531 33.9265 68.3531 32.9953 67.7788 32.4209Z" fill="#FF8D1A"/>
<path d="M50.0996 25C49.2874 25 48.6289 25.6585 48.6289 26.4707V32.4516C48.6289 33.2638 49.2874 33.9223 50.0996 33.9223C50.9118 33.9223 51.5703 33.2638 51.5703 32.4516V26.4707C51.5703 25.6585 50.9118 25 50.0996 25Z" fill="#FF8D1A"/>
<path fill-rule="evenodd" clip-rule="evenodd" d="M58.323 39.7271C55.1357 37.1974 50.9848 36.2882 46.9351 37.2323C42.2261 38.3302 38.4354 42.0646 37.278 46.7459C36.1168 51.4422 37.4457 56.2291 40.8329 59.5509C42.0491 60.7436 42.7466 62.5442 42.7466 64.491V64.807C42.7466 66.1107 43.3154 67.2837 44.2173 68.0921V70.7879C44.2173 73.2207 46.1966 75.2 48.6294 75.2H51.5708C54.0037 75.2 55.983 73.2207 55.983 70.7879V68.0921C56.8849 67.2837 57.4537 66.1108 57.4537 64.807V64.4852C57.4537 62.5689 58.1885 60.7334 59.4698 59.4494C61.9632 56.9505 63.3365 53.6302 63.3365 50.1C63.3365 46.0366 61.5092 42.2558 58.323 39.7271ZM53.0415 70.7879C53.0415 71.5988 52.3818 72.2586 51.5708 72.2586H48.6294C47.8185 72.2586 47.1587 71.5988 47.1587 70.7879V69.2191H53.0415V70.7879ZM54.5122 64.4852C54.5122 61.7958 55.5603 59.203 57.3876 57.3717C59.3269 55.4282 60.3951 52.8457 60.3951 50.1C60.3951 46.9395 58.9734 43.9985 56.4945 42.031C54.6597 40.5748 52.4082 39.81 50.0772 39.81C49.2574 39.81 48.4279 39.9045 47.603 40.0969C43.9601 40.9461 41.0281 43.8331 40.1334 47.4518C39.2246 51.1273 40.256 54.8652 42.8924 57.4508C44.669 59.1931 45.688 61.7591 45.688 64.491V64.807C45.688 65.618 46.3478 66.2777 47.1587 66.2777H48.6294V57.2674C46.095 56.6127 44.2173 54.3068 44.2173 51.5707C44.2173 50.7585 44.8758 50.1 45.688 50.1C46.5002 50.1 47.1587 50.7585 47.1587 51.5707C47.1587 53.1926 48.4782 54.5121 50.1001 54.5121C51.722 54.5121 53.0415 53.1926 53.0415 51.5707C53.0415 50.7585 53.7 50.1 54.5122 50.1C55.3245 50.1 55.983 50.7585 55.983 51.5707C55.983 54.3069 54.1053 56.6127 51.5708 57.2674V66.2777H53.0415C53.8525 66.2777 54.5122 65.618 54.5122 64.807V64.4852Z" fill="#FF8D1A"/>
</svg>
