<svg width="85" height="85" viewBox="0 0 112 120" fill="none" xmlns="http://www.w3.org/2000/svg">
<g filter="url(#filter0_d)">
<ellipse cx="56" cy="60.0441" rx="40" ry="43.5294" fill="white"/>
<ellipse cx="56" cy="60.0441" rx="40" ry="43.5294" stroke="#FF8D1A" stroke-width="2"/>
</g>
<path fill-rule="evenodd" clip-rule="evenodd" d="M68 54.8051C68.0116 48.674 64.4914 43.2722 59.3641 41.5535C54.2368 39.8347 48.737 42.2128 45.8721 47.3874C43.0072 52.562 43.467 59.2872 47.0001 63.8855V78.0485C47 79.7032 47.8264 81.2115 49.1258 81.9282C50.4252 82.6449 51.9674 82.4432 53.093 81.4093L55.532 79.1711C55.8057 78.9202 56.1943 78.9202 56.468 79.1711L58.907 81.4093C60.0326 82.4432 61.5749 82.6449 62.8742 81.9282C64.1736 81.2115 65 79.7032 65 78.0485V63.8855C66.9324 61.3807 67.9995 58.1508 68 54.8051ZM56 44.4747C60.9705 44.4747 64.9999 49.0998 64.9999 54.8051C64.9999 60.5105 60.9705 65.1355 56 65.1355C51.0295 65.1355 47.0001 60.5105 47.0001 54.8051C47.005 49.1022 51.0315 44.4804 56 44.4747ZM60.782 78.7165C61.0058 78.9268 61.3162 78.9672 61.5755 78.8198C61.8371 78.6813 62.0034 78.3792 61.9999 78.0485V66.7161C58.2926 69.1998 53.7074 69.1998 50.0001 66.7161V78.0485C50.0012 78.3791 50.1671 78.6797 50.427 78.8221C50.6869 78.9645 50.995 78.9235 51.2195 78.7165L53.657 76.4783C55.0247 75.2137 56.9753 75.2137 58.343 76.4783L60.782 78.7165Z" fill="#FF8D1A"/>
<defs>
<filter id="filter0_d" x="0" y="0.514648" width="112" height="119.059" filterUnits="userSpaceOnUse" color-interpolation-filters="sRGB">
<feFlood flood-opacity="0" result="BackgroundImageFix"/>
<feColorMatrix in="SourceAlpha" type="matrix" values="0 0 0 0 0 0 0 0 0 0 0 0 0 0 0 0 0 0 127 0"/>
<feOffset/>
<feGaussianBlur stdDeviation="7.5"/>
<feColorMatrix type="matrix" values="0 0 0 0 0 0 0 0 0 0 0 0 0 0 0 0 0 0 0.05 0"/>
<feBlend mode="normal" in2="BackgroundImageFix" result="effect1_dropShadow"/>
<feBlend mode="normal" in="SourceGraphic" in2="effect1_dropShadow" result="shape"/>
</filter>
</defs>
</svg>
