<svg width="20" height="32" viewBox="0 0 20 32" fill="none" xmlns="http://www.w3.org/2000/svg">
<path fill-rule="evenodd" clip-rule="evenodd" d="M15.2472 8.51998C16.0063 8.51285 16.6812 8.94099 16.9087 9.57399C17.1525 10.2023 16.8965 10.896 16.2787 11.2814L14.35 12.5125L15.0825 14.4951C15.3156 15.1261 15.0564 15.8165 14.4409 16.2042C13.8254 16.5918 12.9941 16.5883 12.3829 16.1954L10.4965 14.9837L8.61067 16.1968C8.00235 16.5977 7.16487 16.6014 6.552 16.2058C5.92844 15.8226 5.66747 15.1265 5.91056 14.4951L6.64302 12.5125L4.71654 11.2814C4.10628 10.8915 3.85194 10.2029 4.08611 9.57465C4.32028 8.94643 4.98991 8.52092 5.74587 8.51998H8.1128L8.8317 6.56159C9.06366 5.92909 9.73657 5.5 10.4965 5.5C11.2565 5.5 11.9294 5.92909 12.1613 6.56159L12.8802 8.51998H15.2472ZM13.3944 11.951L15.6394 10.5167H15.6405C15.8724 10.3683 15.9689 10.1064 15.8797 9.8676C15.7904 9.62879 15.5357 9.46715 15.2482 9.46698H12.4853C12.25 9.46697 12.0416 9.33418 11.9695 9.13837L11.1298 6.8509C11.0414 6.61073 10.7857 6.44791 10.4971 6.44791C10.2084 6.44791 9.95272 6.61073 9.86429 6.8509L9.02457 9.13837C8.95256 9.33418 8.74415 9.46697 8.50882 9.46698H5.74587C5.45843 9.46715 5.20368 9.62879 5.11445 9.8676C5.02521 10.1064 5.12172 10.3683 5.35364 10.5167L7.59867 11.951C7.78782 12.0715 7.86693 12.2847 7.79479 12.4794L6.93881 14.7853C6.84867 15.026 6.94736 15.2901 7.18273 15.4379C7.41809 15.5857 7.73589 15.5831 7.96815 15.4316L10.1758 14.0111C10.3666 13.8886 10.6264 13.8886 10.8172 14.0111L13.0249 15.4316C13.2572 15.5811 13.5733 15.5825 13.8074 15.4351C14.0415 15.2878 14.1401 15.0253 14.0515 14.7853L13.1982 12.4794C13.1261 12.2847 13.2052 12.0715 13.3944 11.951Z" fill="#FF8D1A"/>
<path fill-rule="evenodd" clip-rule="evenodd" d="M20 10.8489C20.0097 6.2528 17.0761 2.20336 12.8034 0.914892C8.53066 -0.373573 3.94752 1.40917 1.56011 5.28828C-0.827292 9.1674 -0.444144 14.2089 2.50005 17.656V28.2732C2.50003 29.5137 3.18868 30.6443 4.27149 31.1816C5.3543 31.7189 6.63953 31.5677 7.57752 30.7926L9.61001 29.1147C9.83811 28.9267 10.1619 28.9267 10.39 29.1147L12.4225 30.7926C13.3605 31.5677 14.6457 31.7189 15.7285 31.1816C16.8113 30.6443 17.5 29.5137 17.5 28.2732V17.656C19.1103 15.7783 19.9996 13.357 20 10.8489ZM10 3.10479C14.1421 3.10479 17.5 6.57196 17.5 10.8489C17.5 15.1259 14.1421 18.593 10 18.593C5.85789 18.593 2.50005 15.1259 2.50005 10.8489C2.50418 6.57373 5.85961 3.10906 10 3.10479ZM13.985 28.774C14.1715 28.9317 14.4302 28.962 14.6462 28.8514C14.8643 28.7476 15.0028 28.5211 15 28.2732V19.7779C11.9105 21.6399 8.08947 21.6399 5.00003 19.7779V28.2732C5.00095 28.521 5.13923 28.7464 5.35583 28.8532C5.57244 28.9599 5.82911 28.9291 6.01628 28.774L8.04752 27.0961C9.18729 26.1481 10.8127 26.1481 11.9525 27.0961L13.985 28.774Z" fill="white"/>
</svg>
