<svg width="82" height="82" viewBox="0 0 82 82" fill="none" xmlns="http://www.w3.org/2000/svg">
<circle cx="41" cy="41" r="40" fill="white" stroke="#1BC5BD" stroke-width="2"/>
<path d="M31.9816 30.31L28.6375 26.9659C28.1758 26.5042 27.4272 26.5042 26.9654 26.9659C26.5037 27.4277 26.5037 28.1762 26.9654 28.638L30.3095 31.9821C30.7712 32.4438 31.5199 32.4438 31.9816 31.9821C32.4433 31.5203 32.4433 30.7718 31.9816 30.31Z" fill="#1BC5BD"/>
<path d="M26.9905 39.9961H22.1823C21.5294 39.9961 21 40.5255 21 41.1784C21 41.8314 21.5294 42.3608 22.1823 42.3608H26.9905C27.6434 42.3608 28.1728 41.8314 28.1728 41.1784C28.1728 40.5255 27.6434 39.9961 26.9905 39.9961Z" fill="#1BC5BD"/>
<path d="M60.1741 39.9961H55.3659C54.713 39.9961 54.1836 40.5255 54.1836 41.1784C54.1836 41.8314 54.713 42.3608 55.3659 42.3608H60.1741C60.827 42.3608 61.3564 41.8314 61.3564 41.1784C61.3564 40.5255 60.827 39.9961 60.1741 39.9961Z" fill="#1BC5BD"/>
<path d="M55.3908 26.9659C54.9291 26.5042 54.1805 26.5042 53.7187 26.9659L50.3746 30.31C49.9129 30.7718 49.9129 31.5203 50.3746 31.9821C50.8363 32.4438 51.585 32.4438 52.0467 31.9821L55.3908 28.638C55.8525 28.1762 55.8525 27.4277 55.3908 26.9659Z" fill="#1BC5BD"/>
<path d="M41.1784 21C40.5255 21 39.9961 21.5294 39.9961 22.1823V26.9905C39.9961 27.6434 40.5255 28.1728 41.1784 28.1728C41.8314 28.1728 42.3608 27.6434 42.3608 26.9905V22.1823C42.3608 21.5294 41.8314 21 41.1784 21Z" fill="#1BC5BD"/>
<path fill-rule="evenodd" clip-rule="evenodd" d="M47.7887 32.8393C45.2263 30.8056 41.8893 30.0747 38.6336 30.8337C34.848 31.7163 31.8006 34.7184 30.8701 38.4819C29.9366 42.2573 31.0049 46.1056 33.728 48.7761C34.7057 49.7349 35.2665 51.1824 35.2665 52.7475V53.0016C35.2665 54.0496 35.7237 54.9926 36.4488 55.6425V57.8097C36.4488 59.7655 38.04 61.3567 39.9958 61.3567H42.3604C44.3162 61.3567 45.9074 59.7655 45.9074 57.8097V55.6425C46.6325 54.9926 47.0898 54.0497 47.0898 53.0016V52.7429C47.0898 51.2023 47.6805 49.7267 48.7106 48.6945C50.7151 46.6856 51.8191 44.0163 51.8191 41.1783C51.8191 37.9117 50.3501 34.8722 47.7887 32.8393ZM43.5428 57.8097C43.5428 58.4616 43.0124 58.992 42.3604 58.992H39.9958C39.3438 58.992 38.8134 58.4616 38.8134 57.8097V56.5486H43.5428V57.8097ZM44.7251 52.7429C44.7251 50.5808 45.5676 48.4963 47.0366 47.0242C48.5957 45.4617 49.4544 43.3856 49.4544 41.1783C49.4544 38.6375 48.3115 36.2732 46.3186 34.6915C44.8436 33.5208 43.0336 32.9059 41.1597 32.9059C40.5006 32.9059 39.8338 32.9819 39.1706 33.1365C36.242 33.8193 33.8849 36.1402 33.1656 39.0494C32.435 42.0042 33.2642 45.0091 35.3837 47.0877C36.8119 48.4884 37.6311 50.5513 37.6311 52.7475V53.0016C37.6311 53.6535 38.1615 54.1839 38.8134 54.1839H39.9958V46.9403C37.9583 46.4139 36.4488 44.5602 36.4488 42.3606C36.4488 41.7076 36.9782 41.1783 37.6311 41.1783C38.2841 41.1783 38.8134 41.7076 38.8134 42.3606C38.8134 43.6645 39.8742 44.7253 41.1781 44.7253C42.482 44.7253 43.5428 43.6645 43.5428 42.3606C43.5428 41.7076 44.0721 41.1783 44.7251 41.1783C45.3781 41.1783 45.9074 41.7076 45.9074 42.3606C45.9074 44.5603 44.3979 46.4139 42.3604 46.9403V54.1839H43.5428C44.1947 54.1839 44.7251 53.6535 44.7251 53.0016V52.7429Z" fill="#1BC5BD"/>
</svg>
