<svg width="82" height="82" viewBox="0 0 82 82" fill="none" xmlns="http://www.w3.org/2000/svg">
<circle cx="41" cy="41" r="40" fill="white" stroke="#1BC5BD" stroke-width="2"/>
<path fill-rule="evenodd" clip-rule="evenodd" d="M57.2183 32.4654C59.2046 32.7479 60.6817 34.4466 60.6858 36.4528C60.6839 37.0044 60.5694 37.5498 60.3495 38.0557C61.8704 40.4224 61.6565 43.507 59.8235 45.6411C59.3059 48.1439 57.7149 50.293 55.4722 51.5186C57.4208 53.8917 57.8681 57.6296 57.9683 59.2439C57.99 59.6141 57.8579 59.9769 57.6033 60.2464C57.3486 60.516 56.9939 60.6685 56.6231 60.6679H54.5708C53.9208 60.671 53.3602 60.212 53.235 59.5742C53.0507 58.5887 52.3471 56.8049 49.711 55.9264C45.6509 54.5731 44.6837 53.065 44.5593 50.5493C43.6875 50.4924 42.827 50.3212 41.9999 50.0401C40.5319 51.5202 38.4327 52.1884 36.3793 51.8295C34.3258 51.4705 32.5779 50.1297 31.699 48.2395C29.164 48.9609 26.4374 48.4506 24.3348 46.8613C22.2322 45.272 20.9975 42.788 21 40.1523C20.9974 38.457 21.5138 36.8014 22.4798 35.4082C21.9386 33.3897 23.0603 31.2983 25.0412 30.6325C25.071 29.0183 25.8731 27.5163 27.1979 26.5937C28.5228 25.6711 30.2097 25.4398 31.734 25.9717C33.0616 24.1167 35.1986 23.0114 37.4797 23C38.9474 23 40.3783 23.4591 41.5721 24.313C42.4418 23.3589 43.7165 22.8802 44.9993 23.0257C46.282 23.1713 47.4171 23.9235 48.0509 25.0482C48.1093 25.0448 48.1683 25.0404 48.2273 25.0359C48.3455 25.0269 48.4638 25.0179 48.5783 25.0179C52.8964 25.0418 56.558 28.198 57.2183 32.4654ZM58.7022 44.885L58.7177 44.8689L58.7136 44.8682C60.0907 43.3452 60.4006 41.1366 59.4959 39.2934C59.1651 39.6296 58.7781 39.9055 58.3524 40.1086C58.0159 40.2661 57.6153 40.121 57.4578 39.7844C57.3003 39.4478 57.4454 39.0473 57.782 38.8898C58.2905 38.6525 58.7134 38.2639 58.9928 37.7772C59.6204 36.6685 59.3844 35.2715 58.4273 34.4306C57.4701 33.5896 56.0544 33.5353 55.0356 34.3004C54.7384 34.5233 54.3168 34.463 54.0939 34.1658C53.871 33.8686 53.9313 33.447 54.2285 33.2241C54.7131 32.862 55.2736 32.6145 55.8677 32.5004C55.237 28.9638 52.1706 26.3821 48.5783 26.3632H48.5177C48.5569 26.5853 48.5771 26.8103 48.5783 27.0358C48.5783 27.4073 48.2771 27.7085 47.9056 27.7085C47.5342 27.7085 47.233 27.4073 47.233 27.0358C47.233 25.5499 46.0284 24.3453 44.5424 24.3453C43.0565 24.3453 41.8519 25.5499 41.8519 27.0358C41.8519 27.4073 41.5507 27.7085 41.1792 27.7085C40.8077 27.7085 40.5066 27.4073 40.5066 27.0358C40.5064 26.4862 40.6192 25.9424 40.8382 25.4383C39.8628 24.7273 38.6867 24.3446 37.4797 24.3453C35.4603 24.3521 33.5916 25.4148 32.5533 27.1468C32.2846 27.6029 32.0809 28.0941 31.9479 28.6065C31.9029 28.7792 31.791 28.9269 31.6369 29.0171C31.4829 29.1074 31.2993 29.1326 31.1266 29.0874C30.9539 29.0423 30.8061 28.9305 30.7159 28.7764C30.6257 28.6224 30.6005 28.4388 30.6457 28.2661C30.7476 27.8906 30.8804 27.5241 31.0425 27.1704C30.7293 27.083 30.4058 27.0378 30.0807 27.0358C28.1691 27.0385 26.5736 28.4956 26.398 30.399C27.6648 30.3991 28.8566 31.0001 29.6098 32.0188C29.8327 32.316 29.7725 32.7376 29.4753 32.9605C29.1781 33.1834 28.7565 33.1231 28.5336 32.8259C28.0295 32.1429 27.23 31.7412 26.3811 31.7443C25.1705 31.7431 24.1082 32.5505 23.7853 33.7173C23.4624 34.884 23.9585 36.1227 24.9975 36.7441C25.2036 36.8677 25.328 37.0919 25.324 37.3322C25.32 37.5724 25.188 37.7923 24.9779 37.909C24.7678 38.0256 24.5114 38.0213 24.3054 37.8976C23.8619 37.6273 23.475 37.2738 23.1659 36.8564C22.6252 37.8707 22.3433 39.0029 22.3453 40.1523C22.3466 42.3518 23.3718 44.4252 25.1189 45.7614C26.8659 47.0976 29.1354 47.5442 31.2585 46.9695C31.1477 46.4988 31.0911 46.017 31.0896 45.5335C31.0896 45.4657 31.0958 45.3979 31.102 45.3298C31.1061 45.2857 31.1101 45.2415 31.1125 45.1971H31.0896C29.2331 45.1949 27.7286 43.6905 27.7264 41.8339C27.7256 41.4599 28.0251 41.1545 28.3991 41.1478C28.5761 41.1448 28.7469 41.2128 28.8733 41.3367C28.9997 41.4606 29.0712 41.63 29.0717 41.807V41.8339C29.0624 42.4125 29.3055 42.9664 29.7376 43.3511C30.1698 43.7359 30.7481 43.9133 31.3217 43.8371C31.4749 43.2785 31.7037 42.7435 32.0017 42.2469C32.1932 41.9286 32.6066 41.8257 32.9249 42.0172C33.2433 42.2087 33.3461 42.6221 33.1546 42.9404C32.3858 44.2176 32.2251 45.7705 32.7161 47.1781V47.1821C33.3042 48.8885 34.7597 50.1503 36.5323 50.4902C38.3049 50.8302 40.124 50.1965 41.3017 48.8287C41.4899 48.6165 41.7894 48.5422 42.055 48.6417C43.2545 49.1164 44.5465 49.3111 45.8326 49.2108C46.496 49.1664 47.1521 49.0459 47.7879 48.8516C48.1431 48.7426 48.5194 48.9421 48.6284 49.2972C48.7374 49.6524 48.5379 50.0286 48.1828 50.1377C47.4534 50.3606 46.701 50.4996 45.9402 50.552H45.9039C46.0014 52.4428 46.6673 53.4928 50.1361 54.6491C53.5484 55.7865 54.365 58.2982 54.5574 59.3253H56.6231C56.5282 57.7856 56.0964 54.1016 54.1861 52.0937C53.7038 52.2648 53.2072 52.3924 52.7022 52.4751C52.6667 52.481 52.6307 52.4839 52.5946 52.4839C52.243 52.4848 51.95 52.2147 51.9223 51.8642C51.8947 51.5136 52.1416 51.2009 52.489 51.1466C54.8201 50.7666 56.8259 49.2882 57.8789 47.174C56.0601 48.1237 53.8931 48.1295 52.0693 47.1895C51.5604 46.934 51.0897 46.6086 50.6709 46.2229C49.0227 47.0041 47.0525 46.3207 46.2422 44.6866C46.1341 44.4718 46.1487 44.2156 46.2807 44.0145C46.4127 43.8134 46.642 43.698 46.8821 43.7118C47.1222 43.7256 47.3367 43.8664 47.4449 44.0812C47.8627 44.9196 48.8025 45.3602 49.7142 45.1451C50.6259 44.9301 51.2697 44.1159 51.2688 43.1792C51.2702 42.8671 51.198 42.559 51.0583 42.2799C50.9502 42.0651 50.9649 41.8088 51.0968 41.6078C51.2288 41.4067 51.4581 41.2913 51.6982 41.3051C51.9383 41.3189 52.1528 41.4597 52.261 41.6745C52.8717 42.8941 52.6835 44.3621 51.7848 45.3882C52.0601 45.621 52.3609 45.8221 52.6814 45.9875C53.3876 46.3548 54.1724 46.5452 54.9684 46.5424C56.3903 46.538 57.7451 45.9367 58.7022 44.885Z" fill="#1BC5BD"/>
<path d="M60.6858 36.4528L61.0074 36.4539L61.0074 36.4522L60.6858 36.4528ZM57.2183 32.4654L56.9006 32.5146L56.937 32.7502L57.1731 32.7838L57.2183 32.4654ZM60.3495 38.0557L60.0546 37.9275L59.9861 38.085L60.079 38.2296L60.3495 38.0557ZM59.8235 45.6411L59.5795 45.4316L59.5254 45.4946L59.5086 45.576L59.8235 45.6411ZM55.4722 51.5186L55.318 51.2364L54.9773 51.4226L55.2237 51.7227L55.4722 51.5186ZM57.9683 59.2439L58.2894 59.2251L58.2893 59.224L57.9683 59.2439ZM57.6033 60.2464L57.837 60.4673H57.837L57.6033 60.2464ZM56.6231 60.6679L56.6236 60.3463H56.6231V60.6679ZM54.5708 60.6679V60.3463L54.5693 60.3463L54.5708 60.6679ZM53.235 59.5742L52.9189 59.6333L52.9194 59.6361L53.235 59.5742ZM49.711 55.9264L49.6093 56.2315L49.6093 56.2315L49.711 55.9264ZM44.5593 50.5493L44.8804 50.5335L44.8663 50.2471L44.5802 50.2285L44.5593 50.5493ZM41.9999 50.0401L42.1033 49.7357L41.913 49.671L41.7715 49.8137L41.9999 50.0401ZM31.699 48.2395L31.9906 48.1039L31.8749 47.8551L31.611 47.9302L31.699 48.2395ZM21 40.1523L21.3216 40.1526L21.3216 40.1518L21 40.1523ZM22.4798 35.4082L22.7441 35.5914L22.829 35.4689L22.7904 35.3249L22.4798 35.4082ZM25.0412 30.6325L25.1437 30.9373L25.3586 30.865L25.3628 30.6384L25.0412 30.6325ZM31.734 25.9717L31.6281 26.2753L31.8554 26.3547L31.9955 26.1589L31.734 25.9717ZM37.4797 23L37.4797 22.6784L37.4781 22.6784L37.4797 23ZM41.5721 24.313L41.385 24.5745L41.6173 24.7407L41.8097 24.5296L41.5721 24.313ZM48.0509 25.0482L47.7708 25.2061L47.8692 25.3807L48.0694 25.3692L48.0509 25.0482ZM48.2273 25.0359L48.2029 24.7152H48.2029L48.2273 25.0359ZM48.5783 25.0179L48.5801 24.6964H48.5783V25.0179ZM58.7177 44.8689L58.9498 45.0914L59.3712 44.6516L58.7704 44.5517L58.7177 44.8689ZM58.7022 44.885L58.4699 44.6625L58.4644 44.6686L58.7022 44.885ZM58.7136 44.8682L58.4751 44.6525L58.0806 45.0889L58.6609 45.1854L58.7136 44.8682ZM59.4959 39.2934L59.7846 39.1517L59.5848 38.7446L59.2667 39.0678L59.4959 39.2934ZM58.3524 40.1086L58.4887 40.3999L58.4909 40.3988L58.3524 40.1086ZM57.4578 39.7844L57.7491 39.6481V39.6481L57.4578 39.7844ZM57.782 38.8898L57.646 38.5984L57.6457 38.5985L57.782 38.8898ZM58.9928 37.7772L59.2717 37.9373L59.2726 37.9357L58.9928 37.7772ZM58.4273 34.4306L58.6395 34.189L58.4273 34.4306ZM55.0356 34.3004L55.2286 34.5576L55.2287 34.5575L55.0356 34.3004ZM54.0939 34.1658L54.3512 33.9729L54.0939 34.1658ZM54.2285 33.2241L54.036 32.9665L54.0355 32.9669L54.2285 33.2241ZM55.8677 32.5004L55.9284 32.8162L56.24 32.7563L56.1843 32.4439L55.8677 32.5004ZM48.5783 26.3632L48.58 26.0416H48.5783V26.3632ZM48.5177 26.3632V26.0416H48.1346L48.2011 26.419L48.5177 26.3632ZM48.5783 27.0358H48.8999L48.8998 27.0342L48.5783 27.0358ZM40.5066 27.0358H40.8282V27.0357L40.5066 27.0358ZM40.8382 25.4383L41.1332 25.5664L41.2358 25.3302L41.0276 25.1785L40.8382 25.4383ZM37.4797 24.3453L37.4795 24.0237L37.4786 24.0237L37.4797 24.3453ZM32.5533 27.1468L32.2775 26.9815L32.2762 26.9836L32.5533 27.1468ZM31.9479 28.6065L32.2591 28.6876L32.2592 28.6872L31.9479 28.6065ZM31.1266 29.0874L31.2081 28.7763L31.2078 28.7762L31.1266 29.0874ZM30.7159 28.7764L30.4384 28.9389L30.4384 28.9389L30.7159 28.7764ZM30.6457 28.2661L30.3353 28.1819L30.3346 28.1846L30.6457 28.2661ZM31.0425 27.1704L31.3348 27.3044L31.4919 26.9618L31.1289 26.8606L31.0425 27.1704ZM30.0807 27.0358L30.0826 26.7143L30.0802 26.7143L30.0807 27.0358ZM26.398 30.399L26.0778 30.3695L26.0453 30.7206L26.3979 30.7206L26.398 30.399ZM29.6098 32.0188L29.3513 32.21L29.3526 32.2117L29.6098 32.0188ZM29.4753 32.9605L29.2823 32.7032V32.7032L29.4753 32.9605ZM28.5336 32.8259L28.2749 33.0169L28.2763 33.0189L28.5336 32.8259ZM26.3811 31.7443L26.3808 32.0659L26.3823 32.0659L26.3811 31.7443ZM23.7853 33.7173L23.4754 33.6315L23.7853 33.7173ZM24.9975 36.7441L25.163 36.4683L25.1626 36.4681L24.9975 36.7441ZM24.9779 37.909L24.8218 37.6278H24.8218L24.9779 37.909ZM24.3054 37.8976L24.138 38.1722L24.1399 38.1734L24.3054 37.8976ZM23.1659 36.8564L23.4243 36.665L23.1215 36.2561L22.8822 36.7051L23.1659 36.8564ZM22.3453 40.1523L22.6669 40.1521L22.6669 40.1518L22.3453 40.1523ZM25.1189 45.7614L25.3142 45.506L25.1189 45.7614ZM31.2585 46.9695L31.3425 47.2799L31.6427 47.1987L31.5715 46.8959L31.2585 46.9695ZM31.0896 45.5335H30.7681L30.7681 45.5344L31.0896 45.5335ZM31.102 45.3298L30.7818 45.3005L31.102 45.3298ZM31.1125 45.1971L31.4336 45.2143L31.4518 44.8756H31.1125V45.1971ZM31.0896 45.1971L31.0892 45.5187H31.0896V45.1971ZM27.7264 41.8339L28.048 41.8335L28.048 41.8333L27.7264 41.8339ZM28.3991 41.1478L28.3935 40.8263L28.3934 40.8263L28.3991 41.1478ZM28.8733 41.3367L28.6482 41.5664L28.6482 41.5664L28.8733 41.3367ZM29.0717 41.807H29.3933L29.3933 41.8061L29.0717 41.807ZM29.0717 41.8339L29.3933 41.8391V41.8339H29.0717ZM29.7376 43.3511L29.5238 43.5913H29.5238L29.7376 43.3511ZM31.3217 43.8371L31.364 44.1558L31.5754 44.1277L31.6318 43.9221L31.3217 43.8371ZM32.0017 42.2469L31.7262 42.0812L31.726 42.0814L32.0017 42.2469ZM32.9249 42.0172L33.0907 41.7417H33.0907L32.9249 42.0172ZM33.1546 42.9404L33.4301 43.1063L33.4302 43.1062L33.1546 42.9404ZM32.7161 47.1781H33.0376V47.1236L33.0197 47.0722L32.7161 47.1781ZM32.7161 47.1821H32.3945V47.236L32.4121 47.2869L32.7161 47.1821ZM36.5323 50.4902L36.5929 50.1744L36.5323 50.4902ZM41.3017 48.8287L41.0611 48.6153L41.058 48.6189L41.3017 48.8287ZM42.055 48.6417L42.1734 48.3427L42.1679 48.3406L42.055 48.6417ZM45.8326 49.2108L45.8111 48.8899L45.8076 48.8902L45.8326 49.2108ZM47.7879 48.8516L47.8819 49.1591L47.8823 49.159L47.7879 48.8516ZM48.6284 49.2972L48.9358 49.2028V49.2028L48.6284 49.2972ZM48.1828 50.1377L48.2768 50.4452L48.2771 50.4451L48.1828 50.1377ZM45.9402 50.552V50.8736H45.9512L45.9623 50.8728L45.9402 50.552ZM45.9039 50.552V50.2305H45.5653L45.5827 50.5686L45.9039 50.552ZM50.1361 54.6491L50.0344 54.9541L50.1361 54.6491ZM54.5574 59.3253L54.2413 59.3845L54.2905 59.6468H54.5574V59.3253ZM56.6231 59.3253V59.6468H56.965L56.944 59.3055L56.6231 59.3253ZM54.1861 52.0937L54.4191 51.8721L54.2752 51.7209L54.0786 51.7907L54.1861 52.0937ZM52.7022 52.4751L52.6503 52.1578L52.6495 52.1579L52.7022 52.4751ZM52.5946 52.4839L52.5955 52.1623L52.5938 52.1623L52.5946 52.4839ZM51.9223 51.8642L52.2429 51.8389V51.8389L51.9223 51.8642ZM52.489 51.1466L52.5387 51.4644L52.5408 51.464L52.489 51.1466ZM57.8789 47.174L58.1667 47.3174L58.6086 46.4302L57.73 46.889L57.8789 47.174ZM52.0693 47.1895L52.2166 46.9036L52.2136 46.9021L52.0693 47.1895ZM50.6709 46.2229L50.8887 45.9864L50.7291 45.8394L50.5331 45.9323L50.6709 46.2229ZM46.2422 44.6866L46.5303 44.5437L46.5294 44.542L46.2422 44.6866ZM46.2807 44.0145L46.5496 44.1909L46.5496 44.1909L46.2807 44.0145ZM46.8821 43.7118L46.9005 43.3908L46.8821 43.7118ZM47.4449 44.0812L47.7327 43.9378L47.7321 43.9366L47.4449 44.0812ZM49.7142 45.1451L49.788 45.4581H49.788L49.7142 45.1451ZM51.2688 43.1792L50.9473 43.1779V43.1795L51.2688 43.1792ZM51.0583 42.2799L51.3459 42.1359L51.3455 42.1353L51.0583 42.2799ZM51.0968 41.6078L51.3657 41.7842L51.3657 41.7842L51.0968 41.6078ZM51.6982 41.3051L51.7166 40.984L51.6982 41.3051ZM52.261 41.6745L52.5485 41.5305L52.5482 41.5299L52.261 41.6745ZM51.7848 45.3882L51.5429 45.1763L51.3273 45.4224L51.5771 45.6337L51.7848 45.3882ZM52.6814 45.9875L52.8298 45.7022L52.8289 45.7017L52.6814 45.9875ZM54.9684 46.5424L54.9674 46.2208H54.9673L54.9684 46.5424ZM61.0074 36.4522C61.003 34.2861 59.4081 32.4521 57.2636 32.147L57.1731 32.7838C59.001 33.0438 60.3605 34.6071 60.3642 36.4535L61.0074 36.4522ZM60.6444 38.1839C60.8818 37.6379 61.0053 37.0493 61.0074 36.4539L60.3642 36.4517C60.3625 36.9596 60.2571 37.4617 60.0546 37.9275L60.6444 38.1839ZM60.0674 45.8506C61.9931 43.6086 62.2178 40.3682 60.62 37.8819L60.079 38.2296C61.523 40.4766 61.3199 43.4053 59.5795 45.4316L60.0674 45.8506ZM55.6264 51.8008C57.9519 50.5299 59.6017 48.3015 60.1384 45.7062L59.5086 45.576C59.0101 47.9864 57.4779 50.0561 55.318 51.2364L55.6264 51.8008ZM58.2893 59.224C58.2384 58.4044 58.0995 57.0448 57.7249 55.5858C57.3512 54.1303 56.7368 52.552 55.7207 51.3145L55.2237 51.7227C56.1561 52.8583 56.7398 54.3354 57.102 55.7458C57.4632 57.1526 57.598 58.469 57.6474 59.2638L58.2893 59.224ZM57.837 60.4673C58.1526 60.1333 58.3162 59.6838 58.2894 59.2251L57.6473 59.2627C57.6638 59.5444 57.5633 59.8205 57.3695 60.0256L57.837 60.4673ZM56.6225 60.9894C57.082 60.9902 57.5215 60.8013 57.837 60.4673L57.3695 60.0256C57.1757 60.2307 56.9058 60.3468 56.6236 60.3463L56.6225 60.9894ZM54.5708 60.9894H56.6231V60.3463H54.5708V60.9894ZM52.9194 59.6361C53.0744 60.4254 53.7681 60.9933 54.5724 60.9894L54.5693 60.3463C54.0736 60.3487 53.646 59.9986 53.5505 59.5122L52.9194 59.6361ZM49.6093 56.2315C52.1096 57.0647 52.7507 58.7342 52.9189 59.6333L53.5511 59.515C53.3506 58.4432 52.5846 56.5451 49.8127 55.6214L49.6093 56.2315ZM44.2381 50.5652C44.3023 51.8629 44.587 52.9513 45.4189 53.8874C46.2398 54.8111 47.5609 55.5487 49.6093 56.2315L49.8127 55.6214C47.8011 54.9508 46.6085 54.2577 45.8996 53.4601C45.2018 52.6749 44.9407 51.7514 44.8804 50.5335L44.2381 50.5652ZM41.8964 50.3446C42.7502 50.6347 43.6385 50.8114 44.5383 50.8702L44.5802 50.2285C43.7366 50.1733 42.9038 50.0077 42.1033 49.7357L41.8964 50.3446ZM36.3239 52.1462C38.481 52.5233 40.6861 51.8213 42.2282 50.2666L41.7715 49.8137C40.3776 51.219 38.3844 51.8535 36.4347 51.5127L36.3239 52.1462ZM31.4074 48.3751C32.3307 50.3607 34.1668 51.7692 36.3239 52.1462L36.4347 51.5127C34.4849 51.1719 32.8251 49.8988 31.9906 48.1039L31.4074 48.3751ZM24.1409 47.1178C26.324 48.768 29.155 49.2978 31.7871 48.5488L31.611 47.9302C29.1731 48.624 26.5508 48.1332 24.5287 46.6048L24.1409 47.1178ZM20.6785 40.152C20.6759 42.8886 21.9578 45.4677 24.1409 47.1178L24.5287 46.6048C22.5066 45.0763 21.3192 42.6874 21.3216 40.1526L20.6785 40.152ZM22.2156 35.225C21.2121 36.6721 20.6757 38.3918 20.6785 40.1528L21.3216 40.1518C21.319 38.5221 21.8155 36.9307 22.7441 35.5914L22.2156 35.225ZM24.9388 30.3276C22.7969 31.0476 21.584 33.3089 22.1692 35.4915L22.7904 35.3249C22.2932 33.4704 23.3237 31.549 25.1437 30.9373L24.9388 30.3276ZM27.0142 26.3298C25.6047 27.3113 24.7514 28.9092 24.7197 30.6265L25.3628 30.6384C25.3906 29.1273 26.1415 27.7212 27.3817 26.8576L27.0142 26.3298ZM31.84 25.6681C30.2183 25.1022 28.4236 25.3483 27.0142 26.3298L27.3817 26.8576C28.6219 25.9939 30.2011 25.7774 31.6281 26.2753L31.84 25.6681ZM37.4781 22.6784C35.0938 22.6903 32.8601 23.8457 31.4725 25.7846L31.9955 26.1589C33.263 24.3878 35.3034 23.3324 37.4813 23.3216L37.4781 22.6784ZM41.7591 24.0514C40.5108 23.1585 39.0145 22.6785 37.4797 22.6784L37.4797 23.3216C38.8803 23.3216 40.2458 23.7597 41.385 24.5745L41.7591 24.0514ZM45.0355 22.7062C43.6503 22.549 42.2737 23.0661 41.3344 24.0964L41.8097 24.5296C42.6099 23.6518 43.7828 23.2113 44.963 23.3453L45.0355 22.7062ZM48.3311 24.8903C47.6465 23.6758 46.4208 22.8634 45.0355 22.7062L44.963 23.3453C46.1433 23.4792 47.1876 24.1713 47.7708 25.2061L48.3311 24.8903ZM48.2029 24.7152C48.1434 24.7198 48.0875 24.724 48.0325 24.7272L48.0694 25.3692C48.1312 25.3657 48.1931 25.361 48.2516 25.3565L48.2029 24.7152ZM48.5783 24.6964C48.4495 24.6964 48.3188 24.7064 48.2029 24.7152L48.2516 25.3565C48.3722 25.3474 48.4782 25.3395 48.5783 25.3395V24.6964ZM57.5361 32.4162C56.8517 27.9927 53.0561 24.7211 48.5801 24.6964L48.5765 25.3395C52.7367 25.3625 56.2644 28.4032 56.9006 32.5146L57.5361 32.4162ZM58.4855 44.6464L58.47 44.6626L58.9344 45.1075L58.9498 45.0914L58.4855 44.6464ZM58.6609 45.1854L58.6649 45.1861L58.7704 44.5517L58.7664 44.551L58.6609 45.1854ZM59.2072 39.4351C60.054 41.1602 59.7639 43.2271 58.4751 44.6525L58.9522 45.0839C60.4175 43.4632 60.7473 41.1131 59.7846 39.1517L59.2072 39.4351ZM58.4909 40.3988C58.9504 40.1796 59.368 39.8818 59.7251 39.5189L59.2667 39.0678C58.9621 39.3774 58.6059 39.6314 58.2139 39.8184L58.4909 40.3988ZM57.1666 39.9207C57.3993 40.4181 57.9913 40.6327 58.4887 40.3999L58.2161 39.8174C58.0404 39.8996 57.8313 39.8238 57.7491 39.6481L57.1666 39.9207ZM57.6457 38.5985C57.1483 38.8313 56.9338 39.4233 57.1666 39.9207L57.7491 39.6481C57.6668 39.4724 57.7426 39.2633 57.9183 39.181L57.6457 38.5985ZM58.7139 37.6171C58.4675 38.0464 58.0945 38.3891 57.646 38.5984L57.918 39.1812C58.4865 38.9158 58.9593 38.4815 59.2717 37.9373L58.7139 37.6171ZM58.215 34.6721C59.0577 35.4126 59.2656 36.6426 58.7129 37.6188L59.2726 37.9357C59.9753 36.6944 59.711 35.1305 58.6395 34.189L58.215 34.6721ZM55.2287 34.5575C56.1257 33.8838 57.3723 33.9317 58.215 34.6721L58.6395 34.189C57.568 33.2475 55.9831 33.1867 54.8425 34.0432L55.2287 34.5575ZM53.8367 34.3588C54.1661 34.798 54.7893 34.8871 55.2286 34.5576L54.8427 34.0431C54.6876 34.1594 54.4675 34.128 54.3512 33.9729L53.8367 34.3588ZM54.0355 32.9669C53.5963 33.2963 53.5072 33.9195 53.8367 34.3588L54.3512 33.9729C54.2349 33.8178 54.2663 33.5977 54.4214 33.4814L54.0355 32.9669ZM55.807 32.1846C55.1651 32.3079 54.5596 32.5753 54.036 32.9665L54.4209 33.4817C54.8666 33.1487 55.382 32.9212 55.9284 32.8162L55.807 32.1846ZM48.5766 26.6848C52.0138 26.7028 54.9477 29.173 55.5511 32.5568L56.1843 32.4439C55.5264 28.7545 52.3275 26.0613 48.58 26.0416L48.5766 26.6848ZM48.5177 26.6848H48.5783V26.0416H48.5177V26.6848ZM48.8998 27.0342C48.8986 26.7905 48.8767 26.5474 48.8344 26.3074L48.2011 26.419C48.237 26.6232 48.2557 26.8301 48.2567 27.0375L48.8998 27.0342ZM47.9056 28.0301C48.4547 28.0301 48.8999 27.5849 48.8999 27.0358H48.2567C48.2567 27.2297 48.0995 27.3869 47.9056 27.3869V28.0301ZM46.9114 27.0358C46.9114 27.5849 47.3566 28.0301 47.9056 28.0301V27.3869C47.7117 27.3869 47.5546 27.2297 47.5546 27.0358H46.9114ZM44.5424 24.6668C45.8508 24.6668 46.9114 25.7275 46.9114 27.0358H47.5546C47.5546 25.3723 46.206 24.0237 44.5424 24.0237V24.6668ZM42.1734 27.0358C42.1734 25.7275 43.2341 24.6668 44.5424 24.6668V24.0237C42.8789 24.0237 41.5303 25.3723 41.5303 27.0358H42.1734ZM41.1792 28.0301C41.7283 28.0301 42.1734 27.5849 42.1734 27.0358H41.5303C41.5303 27.2297 41.3731 27.3869 41.1792 27.3869V28.0301ZM40.185 27.0358C40.185 27.5849 40.6301 28.0301 41.1792 28.0301V27.3869C40.9853 27.3869 40.8282 27.2297 40.8282 27.0358H40.185ZM40.5433 25.3102C40.3067 25.8548 40.1848 26.4422 40.185 27.036L40.8282 27.0357C40.8279 26.5302 40.9318 26.0301 41.1332 25.5664L40.5433 25.3102ZM37.4799 24.6668C38.6188 24.6662 39.7285 25.0273 40.6488 25.6982L41.0276 25.1785C39.9972 24.4273 38.7547 24.023 37.4795 24.0237L37.4799 24.6668ZM32.8291 27.3122C33.8095 25.6767 35.574 24.6733 37.4808 24.6668L37.4786 24.0237C35.3466 24.0309 33.3737 25.1529 32.2775 26.9815L32.8291 27.3122ZM32.2592 28.6872C32.3846 28.2039 32.5769 27.7403 32.8304 27.31L32.2762 26.9836C31.9924 27.4654 31.7771 27.9844 31.6367 28.5257L32.2592 28.6872ZM31.7994 29.2946C32.0271 29.1613 32.1925 28.9429 32.2591 28.6876L31.6368 28.5253C31.6132 28.6155 31.5549 28.6926 31.4745 28.7397L31.7994 29.2946ZM31.0451 29.3985C31.3004 29.4653 31.5718 29.428 31.7994 29.2946L31.4745 28.7397C31.3941 28.7867 31.2982 28.7999 31.2081 28.7763L31.0451 29.3985ZM30.4384 28.9389C30.5718 29.1666 30.7901 29.332 31.0455 29.3986L31.2078 28.7762C31.1176 28.7527 31.0405 28.6943 30.9934 28.6139L30.4384 28.9389ZM30.3346 28.1846C30.2678 28.4399 30.3051 28.7112 30.4384 28.9389L30.9934 28.6139C30.9463 28.5335 30.9332 28.4377 30.9568 28.3476L30.3346 28.1846ZM30.7502 27.0363C30.5807 27.4061 30.4419 27.7893 30.3353 28.1819L30.956 28.3503C31.0533 27.9919 31.18 27.642 31.3348 27.3044L30.7502 27.0363ZM30.0787 27.3574C30.3754 27.3592 30.6704 27.4005 30.9562 27.4801L31.1289 26.8606C30.7882 26.7656 30.4363 26.7164 30.0826 26.7143L30.0787 27.3574ZM26.7182 30.4286C26.8786 28.6904 28.3355 27.3599 30.0811 27.3574L30.0802 26.7143C28.0027 26.7172 26.2687 28.3007 26.0778 30.3695L26.7182 30.4286ZM29.8684 31.8276C29.0545 30.7269 27.7668 30.0776 26.398 30.0775L26.3979 30.7206C27.5628 30.7207 28.6587 31.2733 29.3513 32.21L29.8684 31.8276ZM29.6682 33.2177C30.1075 32.8883 30.1965 32.2651 29.8671 31.8258L29.3526 32.2117C29.4689 32.3668 29.4375 32.5869 29.2823 32.7032L29.6682 33.2177ZM28.2763 33.0189C28.6058 33.4581 29.229 33.5472 29.6682 33.2177L29.2823 32.7032C29.1272 32.8195 28.9072 32.7881 28.7908 32.633L28.2763 33.0189ZM26.3823 32.0659C27.1287 32.0631 27.8316 32.4164 28.2749 33.0169L28.7923 32.635C28.2274 31.8695 27.3313 31.4192 26.38 31.4228L26.3823 32.0659ZM24.0952 33.803C24.3795 32.7757 25.3149 32.0648 26.3808 32.0659L26.3815 31.4228C25.0262 31.4214 23.8369 32.3253 23.4754 33.6315L24.0952 33.803ZM25.1626 36.4681C24.2477 35.921 23.8109 34.8303 24.0952 33.803L23.4754 33.6315C23.1139 34.9377 23.6693 36.3245 24.8325 37.0201L25.1626 36.4681ZM25.6455 37.3376C25.6515 36.9824 25.4675 36.6511 25.163 36.4683L24.8321 37.0198C24.9396 37.0843 25.0046 37.2013 25.0025 37.3268L25.6455 37.3376ZM25.134 38.1901C25.4446 38.0177 25.6395 37.6927 25.6455 37.3376L25.0025 37.3268C25.0004 37.4522 24.9315 37.5669 24.8218 37.6278L25.134 38.1901ZM24.1399 38.1734C24.4445 38.3561 24.8234 38.3625 25.134 38.1901L24.8218 37.6278C24.7122 37.6887 24.5784 37.6864 24.4708 37.6219L24.1399 38.1734ZM22.9075 37.0478C23.2413 37.4985 23.6591 37.8803 24.138 38.1722L24.4727 37.6231C24.0647 37.3744 23.7087 37.049 23.4243 36.665L22.9075 37.0478ZM22.6669 40.1518C22.6649 39.0553 22.9338 37.9753 23.4497 37.0077L22.8822 36.7051C22.3165 37.7662 22.0216 38.9505 22.0237 40.1529L22.6669 40.1518ZM25.3142 45.506C23.6467 44.2306 22.6681 42.2515 22.6669 40.1521L22.0237 40.1525C22.0251 42.452 23.097 44.6198 24.9235 46.0168L25.3142 45.506ZM31.1744 46.6591C29.148 47.2077 26.9817 46.7814 25.3142 45.506L24.9235 46.0168C26.75 47.4138 29.1228 47.8808 31.3425 47.2799L31.1744 46.6591ZM30.7681 45.5344C30.7696 46.0425 30.8291 46.5486 30.9454 47.0432L31.5715 46.8959C31.4664 46.449 31.4126 45.9916 31.4112 45.5325L30.7681 45.5344ZM30.7818 45.3005C30.7758 45.3661 30.7681 45.4485 30.7681 45.5335H31.4112C31.4112 45.4828 31.4158 45.4297 31.4223 45.3591L30.7818 45.3005ZM30.7914 45.1799C30.7894 45.2173 30.7859 45.2555 30.7818 45.3005L31.4223 45.3591C31.4262 45.316 31.4308 45.2658 31.4336 45.2143L30.7914 45.1799ZM31.0896 45.5187H31.1125V44.8756H31.0896V45.5187ZM27.4049 41.8343C27.4073 43.8681 29.0554 45.5163 31.0892 45.5187L31.09 44.8756C29.4108 44.8736 28.05 43.5128 28.048 41.8335L27.4049 41.8343ZM28.3934 40.8263C27.8438 40.836 27.4037 41.2849 27.4049 41.8346L28.048 41.8333C28.0476 41.6349 28.2064 41.4729 28.4048 41.4694L28.3934 40.8263ZM29.0984 41.107C28.9105 40.9229 28.6566 40.8218 28.3935 40.8263L28.4046 41.4694C28.4955 41.4678 28.5833 41.5027 28.6482 41.5664L29.0984 41.107ZM29.3933 41.8061C29.3925 41.543 29.2863 41.2912 29.0984 41.107L28.6482 41.5664C28.7132 41.63 28.7499 41.717 28.7501 41.808L29.3933 41.8061ZM29.3933 41.8339V41.807H28.7501V41.8339H29.3933ZM29.9515 43.1109C29.5892 42.7884 29.3854 42.3241 29.3932 41.8391L28.7502 41.8287C28.7393 42.5008 29.0218 43.1443 29.5238 43.5913L29.9515 43.1109ZM31.2793 43.5183C30.7985 43.5822 30.3137 43.4335 29.9515 43.1109L29.5238 43.5913C30.0259 44.0383 30.6977 44.2444 31.364 44.1558L31.2793 43.5183ZM31.726 42.0814C31.4129 42.6031 31.1725 43.1652 31.0116 43.752L31.6318 43.9221C31.7772 43.3918 31.9945 42.8839 32.2774 42.4124L31.726 42.0814ZM33.0907 41.7417C32.6201 41.4586 32.0092 41.6106 31.7262 42.0812L32.2773 42.4127C32.3772 42.2465 32.593 42.1928 32.7592 42.2928L33.0907 41.7417ZM33.4302 43.1062C33.7132 42.6356 33.5612 42.0247 33.0907 41.7417L32.7592 42.2928C32.9254 42.3927 32.979 42.6085 32.8791 42.7747L33.4302 43.1062ZM33.0197 47.0722C32.5602 45.7549 32.7107 44.3015 33.4301 43.1063L32.8791 42.7746C32.061 44.1336 31.89 45.7862 32.4124 47.284L33.0197 47.0722ZM33.0376 47.1821V47.1781H32.3945V47.1821H33.0376ZM36.5929 50.1744C34.9334 49.8561 33.5707 48.6749 33.0201 47.0773L32.4121 47.2869C33.0377 49.1021 34.5861 50.4444 36.4717 50.806L36.5929 50.1744ZM41.058 48.6189C39.9554 49.8994 38.2524 50.4927 36.5929 50.1744L36.4717 50.806C38.3574 51.1677 40.2925 50.4935 41.5453 49.0385L41.058 48.6189ZM42.1679 48.3406C41.7776 48.1943 41.3376 48.3036 41.0611 48.6153L41.5422 49.0421C41.6422 48.9294 41.8011 48.89 41.9421 48.9428L42.1679 48.3406ZM45.8076 48.8902C44.5703 48.9867 43.3273 48.7994 42.1733 48.3427L41.9367 48.9407C43.1817 49.4334 44.5227 49.6355 45.8576 49.5314L45.8076 48.8902ZM47.6939 48.5441C47.0817 48.7312 46.4499 48.8472 45.8111 48.8899L45.854 49.5316C46.542 49.4856 47.2225 49.3607 47.8819 49.1591L47.6939 48.5441ZM48.9358 49.2028C48.7746 48.6779 48.2185 48.383 47.6936 48.5442L47.8823 49.159C48.0677 49.1021 48.2641 49.2062 48.321 49.3916L48.9358 49.2028ZM48.2771 50.4451C48.8021 50.2839 49.097 49.7278 48.9358 49.2028L48.321 49.3916C48.3779 49.577 48.2738 49.7734 48.0884 49.8303L48.2771 50.4451ZM45.9623 50.8728C46.7475 50.8188 47.524 50.6753 48.2768 50.4452L48.0888 49.8302C47.3828 50.046 46.6546 50.1805 45.9181 50.2312L45.9623 50.8728ZM45.9039 50.8736H45.9402V50.2305H45.9039V50.8736ZM50.2378 54.344C48.5138 53.7693 47.544 53.2379 46.9887 52.6543C46.4513 52.0896 46.2718 51.4432 46.225 50.5355L45.5827 50.5686C45.6334 51.5516 45.8357 52.3757 46.5228 53.0977C47.192 53.8009 48.2897 54.3726 50.0344 54.9541L50.2378 54.344ZM54.8735 59.2661C54.6682 58.17 53.799 55.5311 50.2378 54.344L50.0344 54.9541C53.2978 56.0419 54.0619 58.4263 54.2413 59.3845L54.8735 59.2661ZM56.6231 59.0037H54.5574V59.6468H56.6231V59.0037ZM53.9531 52.3154C54.8538 53.262 55.4215 54.624 55.7744 55.9668C56.1257 57.3038 56.2554 58.5871 56.3021 59.345L56.944 59.3055C56.8959 58.5238 56.7622 57.1953 56.3964 55.8033C56.0321 54.4172 55.4287 52.9333 54.4191 51.8721L53.9531 52.3154ZM52.7542 52.7925C53.2781 52.7067 53.7933 52.5743 54.2936 52.3968L54.0786 51.7907C53.6144 51.9553 53.1364 52.0782 52.6503 52.1578L52.7542 52.7925ZM52.5937 52.8054C52.6478 52.8056 52.7017 52.8012 52.755 52.7923L52.6495 52.1579C52.6316 52.1609 52.6136 52.1623 52.5955 52.1623L52.5937 52.8054ZM51.6018 51.8895C51.6427 52.4076 52.0757 52.8068 52.5954 52.8054L52.5938 52.1623C52.4103 52.1628 52.2574 52.0218 52.2429 51.8389L51.6018 51.8895ZM52.4394 50.8289C51.9259 50.9092 51.5609 51.3714 51.6018 51.8895L52.2429 51.8389C52.2285 51.6559 52.3574 51.4927 52.5387 51.4644L52.4394 50.8289ZM57.591 47.0307C56.5842 49.0522 54.6662 50.4658 52.4373 50.8293L52.5408 51.464C54.9739 51.0673 57.0676 49.5241 58.1667 47.3174L57.591 47.0307ZM51.922 47.4753C53.8387 48.4632 56.1162 48.4572 58.0277 47.4591L57.73 46.889C56.004 47.7902 53.9474 47.7957 52.2166 46.9037L51.922 47.4753ZM50.453 46.4595C50.8939 46.8655 51.3894 47.2079 51.925 47.4769L52.2136 46.9021C51.7315 46.66 51.2855 46.3518 50.8887 45.9864L50.453 46.4595ZM45.9541 44.8295C46.8423 46.6207 49.002 47.3698 50.8086 46.5135L50.5331 45.9323C49.0434 46.6384 47.2627 46.0207 46.5303 44.5437L45.9541 44.8295ZM46.0119 43.838C45.8169 44.1351 45.7952 44.5137 45.955 44.8312L46.5294 44.542C46.4729 44.4298 46.4806 44.296 46.5496 44.1909L46.0119 43.838ZM46.9005 43.3908C46.5457 43.3704 46.2069 43.5409 46.0119 43.838L46.5496 44.1909C46.6185 44.0859 46.7382 44.0256 46.8637 44.0328L46.9005 43.3908ZM47.7321 43.9366C47.5723 43.6192 47.2553 43.4111 46.9005 43.3908L46.8637 44.0328C46.9891 44.04 47.1012 44.1136 47.1576 44.2258L47.7321 43.9366ZM49.6404 44.8321C48.874 45.0129 48.0839 44.6425 47.7327 43.9378L47.1571 44.2247C47.6415 45.1966 48.7311 45.7074 49.788 45.4581L49.6404 44.8321ZM50.9473 43.1795C50.948 43.9669 50.4068 44.6514 49.6404 44.8321L49.788 45.4581C50.845 45.2088 51.5914 44.2649 51.5904 43.1789L50.9473 43.1795ZM50.7708 42.4238C50.8879 42.6579 50.9484 42.9162 50.9473 43.1779L51.5904 43.1806C51.5919 42.818 51.5082 42.4602 51.3459 42.1359L50.7708 42.4238ZM50.828 41.4313C50.633 41.7284 50.6113 42.107 50.7711 42.4245L51.3455 42.1353C51.2891 42.0231 51.2967 41.8893 51.3657 41.7842L50.828 41.4313ZM51.7166 40.984C51.3618 40.9637 51.023 41.1342 50.828 41.4313L51.3657 41.7842C51.4346 41.6792 51.5543 41.6189 51.6798 41.6261L51.7166 40.984ZM52.5482 41.5299C52.3884 41.2125 52.0714 41.0044 51.7166 40.984L51.6798 41.6261C51.8052 41.6333 51.9173 41.7069 51.9738 41.8191L52.5482 41.5299ZM52.0267 45.6C53.0115 44.4757 53.2178 42.867 52.5485 41.5305L51.9735 41.8185C52.5257 42.9213 52.3555 44.2486 51.5429 45.1763L52.0267 45.6ZM52.8289 45.7017C52.5299 45.5474 52.2493 45.3599 51.9924 45.1426L51.5771 45.6337C51.871 45.8822 52.1919 46.0967 52.5339 46.2732L52.8289 45.7017ZM54.9673 46.2208C54.2233 46.2234 53.4898 46.0455 52.8298 45.7022L52.533 46.2728C53.2854 46.6641 54.1215 46.8669 54.9695 46.864L54.9673 46.2208ZM58.4644 44.6686C57.568 45.6535 56.2991 46.2168 54.9674 46.2208L54.9694 46.864C56.4815 46.8593 57.9222 46.2198 58.94 45.1015L58.4644 44.6686Z" fill="#1BC5BD"/>
<path d="M47.2334 35.7803H45.7227L44.5166 31.5595C44.4362 31.2629 44.1619 31.0608 43.8548 31.0718C43.5483 31.0787 43.2852 31.292 43.2151 31.5904L41.2328 40.0179L39.1483 29.592C39.0846 29.2785 38.809 29.0532 38.4891 29.0532C38.1692 29.0532 37.8936 29.2785 37.8299 29.592L36.5923 35.7803H32.4353C32.0638 35.7803 31.7627 36.0815 31.7627 36.4529C31.7627 36.8244 32.0638 37.1256 32.4353 37.1256H37.1438C37.4635 37.1256 37.7391 36.9007 37.803 36.5875L38.4891 33.157L40.5205 43.3139C40.5835 43.6229 40.8528 43.8467 41.1682 43.852H41.1797C41.492 43.8522 41.7633 43.6374 41.8348 43.3334L43.9335 34.4135L44.5691 36.6379C44.6516 36.9265 44.9154 37.1254 45.2155 37.1256H47.2334C47.6049 37.1256 47.9061 36.8244 47.9061 36.4529C47.9061 36.0815 47.6049 35.7803 47.2334 35.7803Z" fill="#1BC5BD" stroke="#1BC5BD" stroke-width="0.643137"/>
<path d="M51.2689 35.7803H49.9236C49.5521 35.7803 49.251 36.0814 49.251 36.4529C49.251 36.8244 49.5521 37.1256 49.9236 37.1256H51.2689C51.6404 37.1256 51.9415 36.8244 51.9415 36.4529C51.9415 36.0814 51.6404 35.7803 51.2689 35.7803Z" fill="#1BC5BD" stroke="#1BC5BD" stroke-width="0.643137"/>
</svg>
