<svg width="33" height="33" viewBox="0 0 33 33" fill="none" xmlns="http://www.w3.org/2000/svg">
<path fill-rule="evenodd" clip-rule="evenodd" d="M11.5 15C7.35786 15 4 11.6421 4 7.5C4 3.35786 7.35786 0 11.5 0C15.6421 0 19 3.35786 19 7.5C18.9955 11.6403 15.6403 14.9955 11.5 15ZM14 23.5C14 28.7467 18.2533 33 23.5 33C28.7442 32.994 32.994 28.7442 33 23.5C33 18.2533 28.7467 14 23.5 14C18.2533 14 14 18.2533 14 23.5ZM16 23C16 19.134 19.134 16 23 16C26.8641 16.0046 29.9954 19.1359 30 23C30 26.866 26.866 30 23 30C19.134 30 16 26.866 16 23ZM25.6096 25.5901C26.1301 25.0434 26.1301 24.1571 25.6096 23.6104L24.6669 22.6206V20.4001C24.6669 19.6268 24.0699 19 23.3334 19C22.597 19 22 19.6268 22 20.4001V23.2002C22.0001 23.5715 22.1406 23.9275 22.3907 24.19L23.7241 25.5901C24.2448 26.1366 25.0889 26.1366 25.6096 25.5901ZM10.9605 20.6954C6.0829 21.9861 2.67354 26.4836 2.66662 31.6365C2.66662 32.3895 2.06972 33 1.33342 33C0.597111 33 0.000216294 32.3895 0.000216294 31.6365C-0.0350848 25.1947 4.25411 19.5689 10.3712 18.0337C10.8361 17.9261 11.3218 18.0802 11.6454 18.4382C11.969 18.7961 12.0813 19.3034 11.94 19.769C11.7987 20.2346 11.4253 20.5877 10.9605 20.6954ZM7 8C7 5.23858 9.23858 3 12 3C14.7614 3 17 5.23858 17 8C17 10.7614 14.7614 13 12 13C9.23858 13 7 10.7614 7 8Z" fill="white"/>
</svg>
