<svg width="27" height="30" viewBox="0 0 27 30" fill="none" xmlns="http://www.w3.org/2000/svg">
<path fill-rule="evenodd" clip-rule="evenodd" d="M14.6047 23.9655V22.9077C14.6047 22.4331 14.2199 22.0483 13.7452 22.0483C13.2706 22.0483 12.8858 22.4331 12.8858 22.9077V23.8817H10.6253L5.09654 17.8C5.53714 17.0116 5.55187 16.0547 5.13487 15.2528L10.5999 9.5947C10.7308 10.6625 11.1511 11.7057 11.8679 12.6017L14.1903 15.5046C14.5098 15.904 15.1068 15.9378 15.4691 15.5755L23.2478 7.79684C23.6095 7.43519 23.577 6.83806 23.177 6.51806L20.2739 4.19566C18.7954 3.0128 16.9161 2.63769 15.187 3.03818L12.569 0.268936C12.2371 -0.0821685 11.6794 -0.0911066 11.3368 0.251633L7.92372 3.66471C7.5804 4.00791 7.59043 4.56556 7.94102 4.89696L10.4535 7.27218L3.89896 14.0582C2.13209 13.2164 0.0517578 14.5036 0.0517578 16.4906C0.0517578 18.4296 2.05222 19.7364 3.82505 18.9565L8.54829 24.1522C6.84278 24.7777 5.5521 26.4591 5.5521 28.4653C5.5521 28.94 5.93689 29.3248 6.41152 29.3248H17.4122C17.8868 29.3248 18.2716 28.94 18.2716 28.4653C18.2716 26.2313 16.6676 24.3697 14.6047 23.9655ZM19.2002 5.53786L21.3534 7.26044L14.9327 13.6811L13.2101 11.528C12.2855 10.3721 12.0535 8.87261 12.4842 7.54777C12.4886 7.53599 12.4922 7.524 12.4958 7.51202L12.4958 7.51201L12.4958 7.512L12.4958 7.512L12.4991 7.50096C13.4399 4.71676 16.8806 3.68224 19.2002 5.53786ZM13.4746 3.72888L11.9272 2.09207L9.76409 4.25508L11.401 5.80256C11.9178 4.93798 12.6305 4.23348 13.4746 3.72888ZM1.77056 16.4906C1.77056 15.9536 2.20749 15.5166 2.74457 15.5166C3.28166 15.5166 3.71859 15.9536 3.71859 16.4906C3.71859 17.0277 3.28166 17.4647 2.74457 17.4647C2.20749 17.4647 1.77056 17.0277 1.77056 16.4906ZM10.0784 25.6006C8.82359 25.6006 7.75848 26.4448 7.39992 27.6059H16.4237C16.0651 26.4448 15 25.6006 13.7453 25.6006H10.0784Z" fill="#FF8D1A"/>
<path d="M22.1458 13.1328C21.8103 12.7972 21.2661 12.7972 20.9304 13.1328C20.5948 13.4684 20.5948 14.0126 20.9304 14.3482L22.7639 16.1816C22.9317 16.3495 23.1517 16.4334 23.3716 16.4334C24.1304 16.4334 24.5222 15.5092 23.9792 14.9663L22.1458 13.1328Z" fill="#FF8D1A"/>
<path d="M25.663 10.1309H23.3711C22.8965 10.1309 22.5117 10.5157 22.5117 10.9903C22.5117 11.4649 22.8965 11.8497 23.3711 11.8497H25.663C26.1376 11.8497 26.5224 11.4649 26.5224 10.9903C26.5224 10.5157 26.1376 10.1309 25.663 10.1309Z" fill="#FF8D1A"/>
<path d="M18.7872 14.7145C18.3125 14.7145 17.9277 15.0993 17.9277 15.5739V17.8657C17.9277 18.3403 18.3125 18.7251 18.7872 18.7251C19.2618 18.7251 19.6466 18.3403 19.6466 17.8657V15.5739C19.6466 15.0993 19.2619 14.7145 18.7872 14.7145Z" fill="#FF8D1A"/>
</svg>
