<svg width="22" height="22" viewBox="0 0 22 22" fill="none" xmlns="http://www.w3.org/2000/svg">
<path d="M16.8667 6.76138C16.5303 6.66486 16.2654 6.40482 16.1627 6.07021C15.397 3.47965 13.2691 1.51981 10.6244 0.969367C7.97974 0.418925 5.2466 1.36702 3.5109 3.43696C1.7752 5.5069 1.31803 8.36347 2.32105 10.8717C2.49643 11.2711 2.37957 11.7385 2.03688 12.0084C0.549513 13.1118 -0.213141 14.9419 0.0504627 16.775C0.468897 19.2889 2.66131 21.1198 5.20946 21.0834H10.0834C10.5896 21.0834 11 20.673 11 20.1667C11 19.6604 10.5896 19.25 10.0834 19.25H5.20946C3.57317 19.2898 2.15295 18.129 1.86638 16.5175C1.68563 15.3473 2.17206 14.174 3.12771 13.475C4.13767 12.7197 4.50995 11.3775 4.03338 10.2099C3.57351 8.99504 3.54953 7.65825 3.96555 6.42771C4.6457 4.46167 6.38309 3.05229 8.44713 2.79221C8.68194 2.76371 8.91827 2.74963 9.1548 2.75004C11.5898 2.74203 13.7388 4.34002 14.432 6.67429C14.6997 7.55391 15.3923 8.23962 16.2745 8.49846C18.4517 9.14205 20.0002 11.0699 20.1593 13.3345C20.3183 15.5992 19.0544 17.7246 16.9886 18.6661C16.6842 18.8222 16.4953 19.1381 16.5019 19.4801C16.4984 19.7883 16.6518 20.0772 16.9091 20.247C17.1663 20.4167 17.4922 20.4442 17.7742 20.3198C21.5646 18.4975 23.6235 13.7051 20.4142 9.07596C19.5308 7.92191 18.2789 7.10509 16.8667 6.76138Z" fill="#FF8D1A"/>
<path d="M17.1499 14.0168L14.3999 11.2668C14.0419 10.909 13.4617 10.909 13.1037 11.2668L10.3537 14.0168C9.99555 14.3747 9.99535 14.9552 10.3533 15.3134C10.7112 15.6716 11.2917 15.6718 11.6499 15.3139L12.8333 14.1286V21.0834C12.8333 21.5896 13.2437 22.0001 13.75 22.0001C14.2562 22.0001 14.6666 21.5896 14.6666 21.0834V14.1286L15.8583 15.3139C16.09 15.5454 16.4276 15.6358 16.744 15.5509C17.0604 15.466 17.3074 15.2188 17.3921 14.9023C17.4768 14.5859 17.3862 14.2483 17.1545 14.0168H17.1499Z" fill="#FF8D1A"/>
</svg>
