<svg width="20" height="20" viewBox="0 0 20 20" fill="none" xmlns="http://www.w3.org/2000/svg">
<path fill-rule="evenodd" clip-rule="evenodd" d="M17.7966 12C18.533 12.0007 19.1298 12.5497 19.1305 13.2272C19.1305 13.4481 19.3251 13.6272 19.5653 13.6272C19.8054 13.6272 20 13.4481 20 13.2272V13.2V13.178C19.9699 12.0781 18.9925 11.2008 17.7966 11.2H17.3913V10.8C17.3913 10.5791 17.1967 10.4 16.9566 10.4C16.7164 10.4 16.5218 10.5791 16.5218 10.8V11.2H16.1166C15.0365 11.2011 14.1165 11.9222 13.9438 12.903C13.7711 13.8838 14.3965 14.8353 15.4209 15.15L16.5218 15.488V18.4H16.1166C15.3802 18.3994 14.7834 17.8503 14.7827 17.1728C14.7827 16.9519 14.588 16.7728 14.3479 16.7728C14.1077 16.7728 13.9131 16.9519 13.9131 17.1728V17.2V17.222C13.9433 18.3219 14.9207 19.1993 16.1166 19.2H16.5218V19.6C16.5218 19.8209 16.7164 20 16.9566 20C17.1967 20 17.3913 19.8209 17.3913 19.6V19.2H17.7966C18.8766 19.199 19.7966 18.4779 19.9693 17.4971C20.1421 16.5162 19.5166 15.5648 18.4922 15.25L17.3913 14.912V12H17.7966ZM18.4333 16.2636C19.085 16.426 19.4832 16.9183 19.3731 17.4258C19.2631 17.9333 18.6775 18.3061 17.9906 18.3059H17.5653V16.0471L18.4333 16.2636ZM15.4803 14.1364L16.3479 14.353V12.0941H15.9223C15.2352 12.0943 14.6497 12.4672 14.5399 12.9746C14.4301 13.482 14.8284 13.9741 15.4803 14.1364Z" fill="#FF750D"/>
<path fill-rule="evenodd" clip-rule="evenodd" d="M13.0434 4.8C13.0434 7.45097 10.7075 9.6 7.82603 9.6C4.94574 9.59735 2.61152 7.44987 2.60864 4.8C2.60864 2.14903 4.94455 0 7.82603 0C10.7075 0 13.0434 2.14903 13.0434 4.8ZM11.3043 4.8C11.3043 3.03269 9.74702 1.6 7.82603 1.6C5.90504 1.6 4.34777 3.03269 4.34777 4.8C4.34777 6.56731 5.90504 8 7.82603 8C9.74702 8 11.3043 6.56731 11.3043 4.8Z" fill="#FF6E00"/>
<path d="M7.82609 11.2C3.50585 11.2044 0.00479229 14.4254 0 18.4C0 18.8418 0.389318 19.2 0.869565 19.2C1.34981 19.2 1.73913 18.8418 1.73913 18.4C1.73913 15.3072 4.46435 12.8 7.82609 12.8C11.1878 12.8 10 12.8 11.4803 13.8187C11.9484 14.1409 11.8696 14.6187 12.3499 14.6187C12.8301 14.6187 12.7449 13.1709 12.3499 12.8C9.56522 10.1857 12.1463 11.2044 7.82609 11.2Z" fill="#FF6E00"/>
</svg>
