<svg width="20" height="20" viewBox="0 0 20 20" fill="none" xmlns="http://www.w3.org/2000/svg">
<path fill-rule="evenodd" clip-rule="evenodd" d="M7.06156 9.16667C4.53025 9.16667 2.47822 7.11464 2.47822 4.58333C2.47822 2.05203 4.53025 0 7.06156 0C9.59286 0 11.6449 2.05203 11.6449 4.58333C11.6421 7.1135 9.59172 9.16391 7.06156 9.16667ZM8.33322 14.1667C8.33322 17.3883 10.9449 20 14.1666 20C17.3867 19.9963 19.9962 17.3868 19.9999 14.1667C19.9999 10.945 17.3882 8.33333 14.1666 8.33333C10.9449 8.33333 8.33322 10.945 8.33322 14.1667ZM9.99989 14.1667C9.99989 11.8655 11.8654 10 14.1666 10C16.4666 10.0028 18.3305 11.8666 18.3332 14.1667C18.3332 16.4679 16.4677 18.3333 14.1666 18.3333C11.8654 18.3333 9.99989 16.4679 9.99989 14.1667ZM15.5891 15.5892C15.9144 15.2638 15.9144 14.7362 15.5891 14.4108L14.9999 13.8217V12.5C14.9999 12.0398 14.6268 11.6667 14.1666 11.6667C13.7063 11.6667 13.3332 12.0398 13.3332 12.5V14.1667C13.3333 14.3877 13.4211 14.5996 13.5774 14.7558L14.4107 15.5892C14.7361 15.9145 15.2636 15.9145 15.5891 15.5892ZM6.85072 12.48C3.80195 13.2688 1.67089 16.0175 1.66656 19.1667C1.66656 19.6269 1.29346 20 0.833224 20C0.372987 20 -0.000108944 19.6269 -0.000108944 19.1667C-0.0221743 15.2298 2.65884 11.7915 6.48239 10.8533C6.77297 10.7875 7.07657 10.8818 7.27884 11.1005C7.48111 11.3193 7.55131 11.6293 7.46301 11.9138C7.3747 12.1984 7.1413 12.4142 6.85072 12.48ZM4.14489 4.58333C4.14489 2.9725 5.45073 1.66667 7.06156 1.66667C8.67239 1.66667 9.97822 2.9725 9.97822 4.58333C9.97822 6.19416 8.67239 7.5 7.06156 7.5C5.45073 7.5 4.14489 6.19416 4.14489 4.58333Z" fill="#93C01F"/>
</svg>
