<svg width="20" height="20" viewBox="0 0 20 20" fill="none" xmlns="http://www.w3.org/2000/svg">
<path fill-rule="evenodd" clip-rule="evenodd" d="M4.16667 20H15.8333C18.1334 19.9972 19.9972 18.1334 20 15.8333V4.16667C19.9972 1.86662 18.1334 0.0027551 15.8333 0H4.16667C1.86662 0.0027551 0.0027551 1.86662 0 4.16667V15.8333C0.0027551 18.1334 1.86662 19.9972 4.16667 20ZM1.66667 4.16667C1.66667 2.78595 2.78595 1.66667 4.16667 1.66667H15.8333C17.214 1.66667 18.3333 2.78595 18.3333 4.16667V15.8333C18.3333 17.214 17.214 18.3333 15.8333 18.3333H4.16667C2.78595 18.3333 1.66667 17.214 1.66667 15.8333V4.16667ZM7.785 14.1708C7.43761 14.1697 7.09668 14.0768 6.79667 13.9017C6.19325 13.5563 5.82259 12.9127 5.82667 12.2175V7.7825C5.82609 7.08738 6.19606 6.44466 6.79743 6.09603C7.3988 5.74741 8.1404 5.74574 8.74333 6.09167L13.1417 8.2875C13.7638 8.62336 14.155 9.27017 14.1635 9.97715C14.1719 10.6841 13.7964 11.3401 13.1825 11.6908L8.7025 13.93C8.42309 14.0894 8.10667 14.1724 7.785 14.1708ZM7.63333 7.53917C7.67312 7.51622 7.71824 7.50415 7.76417 7.50417C7.83136 7.50614 7.89687 7.52568 7.95417 7.56083L12.3492 9.75667C12.4378 9.80515 12.4921 9.89897 12.49 10C12.4951 10.0858 12.4577 10.1687 12.39 10.2217L7.91 12.4617C7.82326 12.5096 7.71768 12.5083 7.63218 12.4582C7.54667 12.4081 7.49391 12.3166 7.49333 12.2175V7.7825C7.49141 7.68174 7.54526 7.58815 7.63333 7.53917Z" fill="#93C01F"/>
</svg>
