<svg width="1200" height="250" viewBox="0 0 1200 250" fill="none" xmlns="http://www.w3.org/2000/svg">
<path d="M0 12C0 5.37258 5.37258 0 12 0H1188C1194.63 0 1200 5.37258 1200 12V250H0V12Z" fill="#F3F6F9"/>
<mask id="mask0" mask-type="alpha" maskUnits="userSpaceOnUse" x="0" y="0" width="1200" height="250">
<path d="M0 12C0 5.37258 5.37258 0 12 0H1188C1194.63 0 1200 5.37258 1200 12V250H0V12Z" fill="white"/>
</mask>
<g mask="url(#mask0)">
<g opacity="0.3">
<path fill-rule="evenodd" clip-rule="evenodd" d="M5.53285 273.453C6.31952 274.24 6.2914 275.543 5.47005 276.365C4.64864 277.186 3.34507 277.215 2.5584 276.428C1.77172 275.641 1.79985 274.338 2.6212 273.516C3.4426 272.695 4.74618 272.667 5.53285 273.453ZM13.1821 265.805C13.9688 266.591 13.9407 267.895 13.1193 268.716C12.2979 269.537 10.9943 269.565 10.2076 268.779C9.42096 267.992 9.44915 266.689 10.2705 265.867C11.0919 265.046 12.3955 265.018 13.1821 265.805ZM20.8313 258.155C21.6179 258.942 21.5897 260.246 20.7682 261.067C19.9472 261.888 18.6435 261.916 17.8568 261.13C17.0701 260.343 17.0983 259.039 17.9196 258.218C18.741 257.396 20.0446 257.369 20.8313 258.155ZM28.4804 250.506C29.2671 251.293 29.2389 252.596 28.4173 253.418C27.5964 254.239 26.2923 254.267 25.5056 253.481C24.719 252.694 24.7472 251.39 25.5687 250.569C26.3903 249.748 27.6938 249.72 28.4804 250.506ZM36.1296 242.857C36.9163 243.644 36.8881 244.947 36.0665 245.769C35.2456 246.59 33.9415 246.618 33.1548 245.831C32.3681 245.045 32.3964 243.741 33.2179 242.92C34.0394 242.099 35.343 242.07 36.1296 242.857ZM43.7788 235.208C44.5655 235.995 44.5372 237.298 43.7157 238.12C42.8942 238.941 41.5907 238.969 40.804 238.182C40.0173 237.396 40.0456 236.092 40.8671 235.27C41.6886 234.45 42.9921 234.421 43.7788 235.208ZM51.3649 230.471C52.1864 229.649 52.2147 228.345 51.428 227.559C50.6413 226.772 49.3378 226.8 48.5163 227.622C47.6947 228.443 47.6665 229.746 48.4532 230.533C49.2399 231.32 50.5434 231.292 51.3649 230.471ZM43.7674 222.873C44.5889 222.052 44.6172 220.748 43.8299 219.961C43.0432 219.175 41.7397 219.202 40.9188 220.024C40.0973 220.845 40.069 222.149 40.8557 222.936C41.6424 223.722 42.9459 223.694 43.7674 222.873ZM36.2336 212.364C37.0203 213.151 36.992 214.455 36.1705 215.276C35.349 216.097 34.0455 216.125 33.2588 215.339C32.4721 214.552 32.5004 213.248 33.3219 212.427C34.1428 211.606 35.4469 211.578 36.2336 212.364ZM28.573 207.678C29.3939 206.857 29.4222 205.553 28.6355 204.766C27.8488 203.98 26.5453 204.008 25.7238 204.829C24.9029 205.651 24.8746 206.955 25.6613 207.741C26.448 208.528 27.7515 208.5 28.573 207.678ZM21.038 197.169C21.8247 197.956 21.7964 199.259 20.9749 200.081C20.154 200.902 18.8502 200.93 18.0635 200.144C17.2768 199.357 17.3049 198.053 18.1263 197.232C18.9477 196.41 20.2513 196.382 21.038 197.169ZM13.3782 192.484C14.1997 191.662 14.2278 190.359 13.4411 189.572C12.6544 188.785 11.3509 188.814 10.5295 189.635C9.7081 190.457 9.67998 191.76 10.4667 192.547C11.2533 193.333 12.5569 193.305 13.3782 192.484ZM36.1182 230.522C36.9397 229.701 36.968 228.397 36.1813 227.61C35.3946 226.824 34.0905 226.851 33.2696 227.673C32.4481 228.495 32.4198 229.798 33.2065 230.585C33.9932 231.371 35.2967 231.343 36.1182 230.522ZM28.5844 220.014C29.3711 220.8 29.3428 222.104 28.5213 222.925C27.6998 223.746 26.3963 223.774 25.6096 222.988C24.8229 222.201 24.8512 220.898 25.6727 220.076C26.4936 219.255 27.7977 219.227 28.5844 220.014ZM20.9238 215.327C21.7447 214.506 21.773 213.202 20.9863 212.416C20.1996 211.629 18.8963 211.657 18.0748 212.479C17.2535 213.3 17.2253 214.604 18.012 215.39C18.7987 216.177 20.1023 216.149 20.9238 215.327ZM13.3888 204.818C14.1755 205.605 14.1474 206.908 13.326 207.73C12.5046 208.551 11.201 208.579 10.4143 207.792C9.62764 207.006 9.65582 205.702 10.4772 204.881C11.2986 204.06 12.6021 204.031 13.3888 204.818ZM5.72913 200.133C6.55054 199.311 6.57866 198.008 5.79199 197.221C5.00531 196.435 3.70169 196.463 2.88034 197.284C2.05893 198.105 2.0308 199.409 2.81747 200.195C3.60415 200.982 4.90778 200.954 5.72913 200.133ZM28.469 238.171C29.2906 237.35 29.3188 236.046 28.5321 235.26C27.7455 234.472 26.4413 234.501 25.6204 235.322C24.7989 236.144 24.7706 237.447 25.5573 238.234C26.344 239.021 27.6475 238.992 28.469 238.171ZM20.9352 227.663C21.7219 228.449 21.6937 229.753 20.8721 230.574C20.0506 231.395 18.7472 231.424 17.9605 230.637C17.1739 229.85 17.202 228.547 18.0234 227.725C18.8448 226.904 20.1486 226.876 20.9352 227.663ZM13.2745 222.976C14.0959 222.155 14.124 220.851 13.3373 220.065C12.5506 219.278 11.2471 219.306 10.4257 220.128C9.60432 220.949 9.57619 222.253 10.3629 223.04C11.1495 223.826 12.4531 223.798 13.2745 222.976ZM5.7397 212.467C6.52637 213.254 6.49819 214.557 5.67684 215.379C4.85543 216.2 3.55186 216.228 2.76519 215.441C1.97851 214.655 2.00664 213.351 2.82805 212.53C3.6494 211.709 4.95303 211.681 5.7397 212.467ZM-1.91999 207.782C-1.09864 206.961 -1.07046 205.657 -1.85713 204.87C-2.64381 204.084 -3.94744 204.112 -4.76879 204.933C-5.59019 205.754 -5.61832 207.058 -4.83165 207.845C-4.04498 208.632 -2.74141 208.604 -1.91999 207.782ZM20.8198 245.82C21.6414 244.999 21.6696 243.695 20.8829 242.908C20.0963 242.122 18.7925 242.15 17.9711 242.971C17.1497 243.793 17.1216 245.096 17.9083 245.883C18.695 246.67 19.9983 246.641 20.8198 245.82ZM13.2859 235.312C14.0726 236.099 14.0444 237.402 13.2231 238.223C12.4017 239.045 11.0981 239.073 10.3114 238.286C9.52475 237.499 9.55288 236.196 10.3742 235.374C11.1956 234.553 12.4992 234.525 13.2859 235.312ZM5.6254 230.626C6.44675 229.804 6.47487 228.501 5.6882 227.714C4.90153 226.927 3.59796 226.955 2.77661 227.777C1.9552 228.598 1.92707 229.902 2.71375 230.689C3.50042 231.475 4.80399 231.447 5.6254 230.626ZM-1.90948 220.116C-1.1228 220.903 -1.15093 222.207 -1.97228 223.028C-2.79369 223.85 -4.09726 223.877 -4.88393 223.091C-5.6706 222.304 -5.64248 221 -4.82107 220.179C-3.99972 219.358 -2.69615 219.33 -1.90948 220.116ZM-9.56911 215.431C-8.74776 214.61 -8.71964 213.306 -9.50631 212.52C-10.293 211.733 -11.5966 211.761 -12.4179 212.583C-13.2393 213.404 -13.2674 214.707 -12.4808 215.494C-11.6941 216.28 -10.3905 216.253 -9.56911 215.431ZM13.1708 253.469C13.9922 252.648 14.0203 251.344 13.2337 250.557C12.447 249.771 11.1433 249.799 10.3219 250.62C9.50059 251.442 9.47246 252.746 10.2591 253.532C11.0458 254.319 12.3494 254.291 13.1708 253.469ZM5.63676 242.96C6.42343 243.747 6.39531 245.051 5.57396 245.872C4.75255 246.694 3.44898 246.722 2.6623 245.935C1.87557 245.149 1.90376 243.845 2.72511 243.024C3.54652 242.202 4.85009 242.174 5.63676 242.96ZM-2.02378 238.275C-1.20237 237.453 -1.17425 236.15 -1.96092 235.363C-2.74759 234.576 -4.05116 234.605 -4.87257 235.426C-5.69392 236.247 -5.72205 237.551 -4.93538 238.338C-4.1487 239.124 -2.84513 239.096 -2.02378 238.275ZM-9.5586 227.766C-8.77192 228.552 -8.80005 229.856 -9.6214 230.677C-10.4428 231.498 -11.7464 231.526 -12.5331 230.74C-13.3197 229.953 -13.2916 228.65 -12.4702 227.828C-11.6488 227.007 -10.3453 226.979 -9.5586 227.766ZM-17.2183 223.08C-16.3969 222.259 -16.3688 220.955 -17.1554 220.169C-17.9421 219.382 -19.2457 219.41 -20.0671 220.231C-20.8884 221.053 -20.9166 222.356 -20.1299 223.143C-19.3432 223.93 -18.0396 223.902 -17.2183 223.08ZM5.52167 261.118C6.34308 260.297 6.3712 258.993 5.58447 258.207C4.7978 257.42 3.49423 257.448 2.67282 258.27C1.85141 259.091 1.82328 260.395 2.61002 261.181C3.39669 261.968 4.70026 261.94 5.52167 261.118ZM-2.01236 250.61C-1.22569 251.396 -1.25382 252.7 -2.07523 253.521C-2.89658 254.343 -4.20021 254.371 -4.98688 253.584C-5.77355 252.798 -5.74543 251.494 -4.92402 250.673C-4.10267 249.851 -2.79904 249.823 -2.01236 250.61ZM-9.6729 245.924C-8.85149 245.102 -8.82337 243.799 -9.61004 243.012C-10.3967 242.226 -11.7003 242.254 -12.5217 243.075C-13.3431 243.896 -13.3712 245.2 -12.5846 245.986C-11.7979 246.773 -10.4943 246.745 -9.6729 245.924ZM-17.2077 235.415C-16.421 236.201 -16.4492 237.505 -17.2706 238.326C-18.0919 239.147 -19.3956 239.176 -20.1822 238.389C-20.9689 237.602 -20.9408 236.299 -20.1194 235.477C-19.298 234.656 -17.9944 234.628 -17.2077 235.415ZM-24.8674 230.73C-24.046 229.908 -24.0179 228.604 -24.8046 227.818C-25.5912 227.031 -26.8948 227.059 -27.7162 227.88C-28.5376 228.702 -28.5657 230.005 -27.7791 230.792C-26.9924 231.579 -25.6888 231.55 -24.8674 230.73ZM-2.12703 268.768C-1.30568 267.946 -1.27755 266.643 -2.06423 265.856C-2.8509 265.07 -4.15453 265.098 -4.97588 265.919C-5.79729 266.74 -5.82542 268.044 -5.03868 268.831C-4.25201 269.617 -2.94844 269.59 -2.12703 268.768ZM-9.66184 258.259C-8.87517 259.045 -8.9033 260.349 -9.72465 261.171C-10.5461 261.991 -11.8496 262.02 -12.6363 261.233C-13.423 260.446 -13.3948 259.143 -12.5734 258.321C-11.7521 257.5 -10.4485 257.472 -9.66184 258.259ZM-17.3218 253.573C-16.5004 252.752 -16.4723 251.448 -17.259 250.661C-18.0457 249.875 -19.3492 249.903 -20.1706 250.724C-20.992 251.546 -21.0201 252.849 -20.2334 253.636C-19.4468 254.423 -18.1432 254.395 -17.3218 253.573ZM-24.8565 243.064C-24.0698 243.851 -24.0979 245.154 -24.9193 245.976C-25.7407 246.797 -27.0443 246.825 -27.831 246.039C-28.6177 245.252 -28.5895 243.948 -27.7681 243.127C-26.9468 242.305 -25.6432 242.277 -24.8565 243.064ZM-32.5163 238.379C-31.6949 237.557 -31.6668 236.254 -32.4534 235.467C-33.2401 234.68 -34.5437 234.709 -35.3651 235.53C-36.1865 236.351 -36.2146 237.655 -35.4279 238.442C-34.6412 239.228 -33.3376 239.2 -32.5163 238.379Z" fill="#FF8D1A"/>
<circle opacity="0.1" r="112.51" transform="matrix(1 0 0 -1 230.944 301.49)" fill="#F64E60"/>
<mask id="mask1" mask-type="alpha" maskUnits="userSpaceOnUse" x="1113" y="152" width="115" height="125">
<path fill-rule="evenodd" clip-rule="evenodd" d="M1136.16 263.366C1142.82 273.162 1153.96 278.354 1164.76 276.695L1192.91 272.368C1202.47 270.9 1210.33 264.268 1213.75 254.793L1226.2 220.313C1229.62 210.838 1228.11 199.841 1222.21 191.168L1204.84 165.634C1198.18 155.838 1187.04 150.646 1176.24 152.305L1148.1 156.632C1138.53 158.1 1130.67 164.732 1127.25 174.207L1114.8 208.687C1111.38 218.162 1112.89 229.159 1118.79 237.832L1136.16 263.366Z" fill="white"/>
</mask>
<g mask="url(#mask1)">
<path fill-rule="evenodd" clip-rule="evenodd" d="M1031 282.552L1234.46 69L1235.29 70.017L1031.84 283.569L1031 282.552ZM1036.27 285.01L1239.72 71.4575L1240.56 72.4745L1037.11 286.025L1036.27 285.01ZM1244.99 73.9151L1041.54 287.467L1042.37 288.482L1245.83 74.9301L1244.99 73.9151ZM1046.81 289.923L1250.26 76.3726L1251.1 77.3876L1047.65 290.94L1046.81 289.923ZM1255.53 78.8282L1052.07 292.381L1052.91 293.397L1256.37 79.8452L1255.53 78.8282ZM1057.34 294.838L1260.8 81.2857L1261.64 82.3027L1058.18 295.855L1057.34 294.838ZM1266.07 83.7433L1062.61 297.296L1063.45 298.313L1266.9 84.7603L1266.07 83.7433ZM1067.88 299.753L1271.34 86.2008L1272.17 87.2178L1068.72 300.768L1067.88 299.753ZM1276.6 88.6584L1073.15 302.211L1073.98 303.226L1277.44 89.6754L1276.6 88.6584ZM1078.42 304.668L1281.87 91.1159L1282.71 92.131L1079.25 305.683L1078.42 304.668ZM1287.14 93.5735L1083.68 307.124L1084.52 308.141L1287.98 94.5885L1287.14 93.5735ZM1088.95 309.581L1292.41 96.029L1293.25 97.046L1089.79 310.598L1088.95 309.581ZM1297.67 98.4866L1094.22 312.039L1095.06 313.056L1298.51 99.5036L1297.67 98.4866ZM1099.49 314.496L1302.95 100.944L1303.78 101.961L1100.33 315.513L1099.49 314.496ZM1308.21 103.402L1104.75 316.954L1105.59 317.971L1309.05 104.419L1308.21 103.402ZM1110.03 319.412L1313.48 105.859L1314.32 106.876L1110.86 320.427L1110.03 319.412ZM1318.75 108.317L1115.29 321.867L1116.13 322.884L1319.59 109.332L1318.75 108.317ZM1120.56 324.325L1324.02 110.774L1324.86 111.789L1121.4 325.342L1120.56 324.325ZM1329.28 113.23L1125.83 326.782L1126.67 327.799L1330.12 114.247L1329.28 113.23ZM1131.1 329.24L1334.55 115.687L1335.39 116.704L1131.94 330.257L1131.1 329.24ZM1339.82 118.145L1136.36 331.697L1137.2 332.714L1340.66 119.162L1339.82 118.145ZM1141.63 334.155L1345.09 120.602L1345.93 121.619L1142.47 335.172L1141.63 334.155ZM1350.36 123.06L1146.91 336.612L1147.74 337.627L1351.2 124.077L1350.36 123.06ZM1152.17 339.07L1355.63 125.518L1356.46 126.533L1153.01 340.085L1152.17 339.07ZM1360.9 127.975L1157.44 341.525L1158.28 342.542L1361.73 128.99L1360.9 127.975ZM1162.71 343.983L1366.16 130.431L1367 131.448L1163.55 345L1162.71 343.983Z" fill="#8950FC"/>
</g>
</g>
</g>
</svg>
