<svg width="1440" height="777" viewBox="0 0 1440 777" fill="none" xmlns="http://www.w3.org/2000/svg">
<rect width="1440" height="777" fill="#F6F9FB"/>
<rect width="1440" height="777" fill="white"/>
<mask id="mask0" mask-type="alpha" maskUnits="userSpaceOnUse" x="0" y="0" width="1440" height="777">
<rect width="1440" height="777" fill="white"/>
<rect width="1440" height="777" stroke="white"/>
</mask>
<g mask="url(#mask0)">
<path fill-rule="evenodd" clip-rule="evenodd" d="M5.53285 590.453C6.31952 591.24 6.2914 592.543 5.47005 593.365C4.64864 594.186 3.34507 594.215 2.5584 593.428C1.77172 592.641 1.79985 591.338 2.6212 590.516C3.4426 589.695 4.74618 589.667 5.53285 590.453ZM13.1821 582.805C13.9688 583.591 13.9407 584.895 13.1193 585.716C12.2979 586.537 10.9943 586.565 10.2076 585.779C9.42096 584.992 9.44915 583.689 10.2705 582.867C11.0919 582.046 12.3955 582.018 13.1821 582.805ZM20.8313 575.155C21.6179 575.942 21.5897 577.246 20.7682 578.067C19.9472 578.888 18.6435 578.916 17.8568 578.13C17.0701 577.343 17.0983 576.039 17.9196 575.218C18.741 574.396 20.0446 574.369 20.8313 575.155ZM28.4804 567.506C29.2671 568.293 29.2389 569.596 28.4173 570.418C27.5964 571.239 26.2923 571.267 25.5056 570.481C24.719 569.694 24.7472 568.39 25.5687 567.569C26.3903 566.748 27.6938 566.72 28.4804 567.506ZM36.1296 559.857C36.9163 560.644 36.8881 561.947 36.0665 562.769C35.2456 563.59 33.9415 563.618 33.1548 562.831C32.3681 562.045 32.3964 560.741 33.2179 559.92C34.0394 559.099 35.343 559.07 36.1296 559.857ZM43.7788 552.208C44.5655 552.995 44.5372 554.298 43.7157 555.12C42.8942 555.941 41.5907 555.969 40.804 555.182C40.0173 554.396 40.0456 553.092 40.8671 552.27C41.6886 551.45 42.9921 551.421 43.7788 552.208ZM51.3649 547.471C52.1864 546.649 52.2147 545.345 51.428 544.559C50.6413 543.772 49.3378 543.8 48.5163 544.622C47.6947 545.443 47.6665 546.746 48.4532 547.533C49.2399 548.32 50.5434 548.292 51.3649 547.471ZM43.7674 539.873C44.5889 539.052 44.6172 537.748 43.8299 536.961C43.0432 536.175 41.7397 536.202 40.9188 537.024C40.0973 537.845 40.069 539.149 40.8557 539.936C41.6424 540.722 42.9459 540.694 43.7674 539.873ZM36.2336 529.364C37.0203 530.151 36.992 531.455 36.1705 532.276C35.349 533.097 34.0455 533.125 33.2588 532.339C32.4721 531.552 32.5004 530.248 33.3219 529.427C34.1428 528.606 35.4469 528.578 36.2336 529.364ZM28.573 524.678C29.3939 523.857 29.4222 522.553 28.6355 521.766C27.8488 520.98 26.5453 521.008 25.7238 521.829C24.9029 522.651 24.8746 523.955 25.6613 524.741C26.448 525.528 27.7515 525.5 28.573 524.678ZM21.038 514.169C21.8247 514.956 21.7964 516.259 20.9749 517.081C20.154 517.902 18.8502 517.93 18.0635 517.144C17.2768 516.357 17.3049 515.053 18.1263 514.232C18.9477 513.41 20.2513 513.382 21.038 514.169ZM13.3782 509.484C14.1997 508.662 14.2278 507.359 13.4411 506.572C12.6544 505.785 11.3509 505.814 10.5295 506.635C9.7081 507.457 9.67998 508.76 10.4667 509.547C11.2533 510.333 12.5569 510.305 13.3782 509.484ZM36.1182 547.522C36.9397 546.701 36.968 545.397 36.1813 544.61C35.3946 543.824 34.0905 543.851 33.2696 544.673C32.4481 545.495 32.4198 546.798 33.2065 547.585C33.9932 548.371 35.2967 548.343 36.1182 547.522ZM28.5844 537.014C29.3711 537.8 29.3428 539.104 28.5213 539.925C27.6998 540.746 26.3963 540.774 25.6096 539.988C24.8229 539.201 24.8512 537.898 25.6727 537.076C26.4936 536.255 27.7977 536.227 28.5844 537.014ZM20.9238 532.327C21.7447 531.506 21.773 530.202 20.9863 529.416C20.1996 528.629 18.8963 528.657 18.0748 529.479C17.2535 530.3 17.2253 531.604 18.012 532.39C18.7987 533.177 20.1023 533.149 20.9238 532.327ZM13.3888 521.818C14.1755 522.605 14.1474 523.908 13.326 524.73C12.5046 525.551 11.201 525.579 10.4143 524.792C9.62764 524.006 9.65582 522.702 10.4772 521.881C11.2986 521.06 12.6021 521.031 13.3888 521.818ZM5.72913 517.133C6.55054 516.311 6.57866 515.008 5.79199 514.221C5.00531 513.435 3.70169 513.463 2.88034 514.284C2.05893 515.105 2.0308 516.409 2.81747 517.195C3.60415 517.982 4.90778 517.954 5.72913 517.133ZM28.469 555.171C29.2906 554.35 29.3188 553.046 28.5321 552.26C27.7455 551.472 26.4413 551.501 25.6204 552.322C24.7989 553.144 24.7706 554.447 25.5573 555.234C26.344 556.021 27.6475 555.992 28.469 555.171ZM20.9352 544.663C21.7219 545.449 21.6937 546.753 20.8721 547.574C20.0506 548.395 18.7472 548.424 17.9605 547.637C17.1739 546.85 17.202 545.547 18.0234 544.725C18.8448 543.904 20.1486 543.876 20.9352 544.663ZM13.2745 539.976C14.0959 539.155 14.124 537.851 13.3373 537.065C12.5506 536.278 11.2471 536.306 10.4257 537.128C9.60432 537.949 9.57619 539.253 10.3629 540.04C11.1495 540.826 12.4531 540.798 13.2745 539.976ZM5.7397 529.467C6.52637 530.254 6.49819 531.557 5.67684 532.379C4.85543 533.2 3.55186 533.228 2.76519 532.441C1.97851 531.655 2.00664 530.351 2.82805 529.53C3.6494 528.709 4.95303 528.681 5.7397 529.467ZM-1.91999 524.782C-1.09864 523.961 -1.07046 522.657 -1.85713 521.87C-2.64381 521.084 -3.94744 521.112 -4.76879 521.933C-5.59019 522.754 -5.61832 524.058 -4.83165 524.845C-4.04498 525.632 -2.74141 525.604 -1.91999 524.782ZM20.8198 562.82C21.6414 561.999 21.6696 560.695 20.8829 559.908C20.0963 559.122 18.7925 559.15 17.9711 559.971C17.1497 560.793 17.1216 562.096 17.9083 562.883C18.695 563.67 19.9983 563.641 20.8198 562.82ZM13.2859 552.312C14.0726 553.099 14.0444 554.402 13.2231 555.223C12.4017 556.045 11.0981 556.073 10.3114 555.286C9.52475 554.499 9.55288 553.196 10.3742 552.374C11.1956 551.553 12.4992 551.525 13.2859 552.312ZM5.6254 547.626C6.44675 546.804 6.47487 545.501 5.6882 544.714C4.90153 543.927 3.59796 543.955 2.77661 544.777C1.9552 545.598 1.92707 546.902 2.71375 547.689C3.50042 548.475 4.80399 548.447 5.6254 547.626ZM-1.90948 537.116C-1.1228 537.903 -1.15093 539.207 -1.97228 540.028C-2.79369 540.85 -4.09726 540.877 -4.88393 540.091C-5.6706 539.304 -5.64248 538 -4.82107 537.179C-3.99972 536.358 -2.69615 536.33 -1.90948 537.116ZM-9.56911 532.431C-8.74776 531.61 -8.71964 530.306 -9.50631 529.52C-10.293 528.733 -11.5966 528.761 -12.4179 529.583C-13.2393 530.404 -13.2674 531.707 -12.4808 532.494C-11.6941 533.28 -10.3905 533.253 -9.56911 532.431ZM13.1708 570.469C13.9922 569.648 14.0203 568.344 13.2337 567.557C12.447 566.771 11.1433 566.799 10.3219 567.62C9.50059 568.442 9.47246 569.746 10.2591 570.532C11.0458 571.319 12.3494 571.291 13.1708 570.469ZM5.63676 559.96C6.42343 560.747 6.39531 562.051 5.57396 562.872C4.75255 563.694 3.44898 563.722 2.6623 562.935C1.87557 562.149 1.90376 560.845 2.72511 560.024C3.54652 559.202 4.85009 559.174 5.63676 559.96ZM-2.02378 555.275C-1.20237 554.453 -1.17425 553.15 -1.96092 552.363C-2.74759 551.576 -4.05116 551.605 -4.87257 552.426C-5.69392 553.247 -5.72205 554.551 -4.93538 555.338C-4.1487 556.124 -2.84513 556.096 -2.02378 555.275ZM-9.5586 544.766C-8.77192 545.552 -8.80005 546.856 -9.6214 547.677C-10.4428 548.498 -11.7464 548.526 -12.5331 547.74C-13.3197 546.953 -13.2916 545.65 -12.4702 544.828C-11.6488 544.007 -10.3453 543.979 -9.5586 544.766ZM-17.2183 540.08C-16.3969 539.259 -16.3688 537.955 -17.1554 537.169C-17.9421 536.382 -19.2457 536.41 -20.0671 537.231C-20.8884 538.053 -20.9166 539.356 -20.1299 540.143C-19.3432 540.93 -18.0396 540.902 -17.2183 540.08ZM5.52167 578.118C6.34308 577.297 6.3712 575.993 5.58447 575.207C4.7978 574.42 3.49423 574.448 2.67282 575.27C1.85141 576.091 1.82328 577.395 2.61002 578.181C3.39669 578.968 4.70026 578.94 5.52167 578.118ZM-2.01236 567.61C-1.22569 568.396 -1.25382 569.7 -2.07523 570.521C-2.89658 571.343 -4.20021 571.371 -4.98688 570.584C-5.77355 569.798 -5.74543 568.494 -4.92402 567.673C-4.10267 566.851 -2.79904 566.823 -2.01236 567.61ZM-9.6729 562.924C-8.85149 562.102 -8.82337 560.799 -9.61004 560.012C-10.3967 559.226 -11.7003 559.254 -12.5217 560.075C-13.3431 560.896 -13.3712 562.2 -12.5846 562.986C-11.7979 563.773 -10.4943 563.745 -9.6729 562.924ZM-17.2077 552.415C-16.421 553.201 -16.4492 554.505 -17.2706 555.326C-18.0919 556.147 -19.3956 556.176 -20.1822 555.389C-20.9689 554.602 -20.9408 553.299 -20.1194 552.477C-19.298 551.656 -17.9944 551.628 -17.2077 552.415ZM-24.8674 547.73C-24.046 546.908 -24.0179 545.604 -24.8046 544.818C-25.5912 544.031 -26.8948 544.059 -27.7162 544.88C-28.5376 545.702 -28.5657 547.005 -27.7791 547.792C-26.9924 548.579 -25.6888 548.55 -24.8674 547.73ZM-2.12703 585.768C-1.30568 584.946 -1.27755 583.643 -2.06423 582.856C-2.8509 582.07 -4.15453 582.098 -4.97588 582.919C-5.79729 583.74 -5.82542 585.044 -5.03868 585.831C-4.25201 586.617 -2.94844 586.59 -2.12703 585.768ZM-9.66184 575.259C-8.87517 576.045 -8.9033 577.349 -9.72465 578.171C-10.5461 578.991 -11.8496 579.02 -12.6363 578.233C-13.423 577.446 -13.3948 576.143 -12.5734 575.321C-11.7521 574.5 -10.4485 574.472 -9.66184 575.259ZM-17.3218 570.573C-16.5004 569.752 -16.4723 568.448 -17.259 567.661C-18.0457 566.875 -19.3492 566.903 -20.1706 567.724C-20.992 568.546 -21.0201 569.849 -20.2334 570.636C-19.4468 571.423 -18.1432 571.395 -17.3218 570.573ZM-24.8565 560.064C-24.0698 560.851 -24.0979 562.154 -24.9193 562.976C-25.7407 563.797 -27.0443 563.825 -27.831 563.039C-28.6177 562.252 -28.5895 560.948 -27.7681 560.127C-26.9468 559.305 -25.6432 559.277 -24.8565 560.064ZM-32.5163 555.379C-31.6949 554.557 -31.6668 553.254 -32.4534 552.467C-33.2401 551.68 -34.5437 551.709 -35.3651 552.53C-36.1865 553.351 -36.2146 554.655 -35.4279 555.442C-34.6412 556.228 -33.3376 556.2 -32.5163 555.379Z" fill="#FF8D1A"/>
<circle opacity="0.1" r="112.51" transform="matrix(1 0 0 -1 944.944 537.49)" fill="#F64E60"/>
<mask id="mask1" mask-type="alpha" maskUnits="userSpaceOnUse" x="733" y="61" width="89" height="97">
<path fill-rule="evenodd" clip-rule="evenodd" d="M751.214 147.269C756.331 154.815 764.882 158.814 773.173 157.536L794.782 154.203C802.121 153.072 808.16 147.963 810.785 140.664L820.34 114.102C822.965 106.803 821.81 98.331 817.28 91.65L803.945 71.979C798.83 64.4325 790.277 60.4335 781.988 61.7115L760.379 65.0445C753.038 66.1755 746.999 71.2845 744.374 78.5835L734.821 105.146C732.196 112.445 733.349 120.917 737.879 127.598L751.214 147.269Z" fill="white"/>
</mask>
<g mask="url(#mask1)">
<path fill-rule="evenodd" clip-rule="evenodd" d="M671.196 162.061L827.16 -2.0435L827.802 -1.26201L671.84 162.842L671.196 162.061ZM675.233 163.949L831.197 -0.155014L831.839 0.626495L675.876 164.729L675.233 163.949ZM835.236 1.73349L679.274 165.838L679.916 166.618L835.88 2.51349L835.236 1.73349ZM683.313 167.725L839.277 3.62199L839.919 4.40199L683.957 168.506L683.313 167.725ZM843.314 5.50899L687.35 169.613L687.993 170.395L843.956 6.29048L843.314 5.50899ZM691.391 171.502L847.353 7.39749L847.997 8.17899L692.033 172.283L691.391 171.502ZM851.391 9.286L695.427 173.39L696.069 174.172L852.033 10.0675L851.391 9.286ZM699.467 175.279L855.431 11.1745L856.073 11.956L700.11 176.059L699.467 175.279ZM859.467 13.063L703.505 177.167L704.147 177.947L860.109 13.8445L859.467 13.063ZM707.544 179.056L863.507 14.9515L864.15 15.7315L708.186 179.836L707.544 179.056ZM867.545 16.84L711.581 180.943L712.223 181.724L868.187 17.62L867.545 16.84ZM715.622 182.831L871.584 18.727L872.226 19.5085L716.264 183.613L715.622 182.831ZM875.621 20.6155L719.658 184.72L720.3 185.501L876.263 21.397L875.621 20.6155ZM723.698 186.608L879.662 22.504L880.304 23.2855L724.34 187.39L723.698 186.608ZM883.698 24.3925L727.734 188.497L728.378 189.278L884.34 25.174L883.698 24.3925ZM731.775 190.385L887.738 26.281L888.38 27.0625L732.417 191.165L731.775 190.385ZM891.774 28.1695L735.812 192.272L736.454 193.054L892.418 28.9495L891.774 28.1695ZM739.851 194.161L895.815 30.058L896.457 30.838L740.493 194.942L739.851 194.161ZM899.852 31.945L743.888 196.049L744.531 196.831L900.494 32.7265L899.852 31.945ZM747.929 197.938L903.891 33.8335L904.533 34.615L748.571 198.719L747.929 197.938ZM907.928 35.722L751.965 199.826L752.607 200.608L908.571 36.5035L907.928 35.722ZM756.005 201.715L911.969 37.6105L912.611 38.392L756.648 202.496L756.005 201.715ZM916.008 39.499L760.046 203.603L760.688 204.383L916.65 40.2805L916.008 39.499ZM764.082 205.492L920.045 41.3875L920.688 42.1675L764.724 206.272L764.082 205.492ZM924.086 43.276L768.122 207.379L768.764 208.16L924.728 44.056L924.086 43.276ZM772.158 209.267L928.122 45.163L928.764 45.9445L772.802 210.049L772.158 209.267Z" fill="#8950FC"/>
</g>
<path fill-rule="evenodd" clip-rule="evenodd" d="M1415.98 434.765C1417.09 434.765 1418 435.713 1418 436.882C1418 438.052 1417.09 439 1415.98 439C1414.86 439 1413.95 438.052 1413.95 436.882C1413.95 435.713 1414.86 434.765 1415.98 434.765ZM1415.98 423.47C1417.09 423.47 1418 424.419 1418 425.588C1418 426.758 1417.09 427.706 1415.98 427.706C1414.86 427.706 1413.95 426.758 1413.95 425.588C1413.95 424.419 1414.86 423.47 1415.98 423.47ZM1415.98 412.176C1417.09 412.176 1418 413.124 1418 414.294C1418 415.464 1417.09 416.412 1415.98 416.412C1414.86 416.412 1413.95 415.464 1413.95 414.294C1413.95 413.124 1414.86 412.176 1415.98 412.176ZM1415.98 400.882C1417.09 400.882 1418 401.831 1418 403C1418 404.169 1417.09 405.117 1415.98 405.117C1414.86 405.117 1413.95 404.169 1413.95 403C1413.95 401.831 1414.86 400.882 1415.98 400.882ZM1415.98 389.588C1417.09 389.588 1418 390.536 1418 391.706C1418 392.876 1417.09 393.824 1415.98 393.824C1414.86 393.824 1413.95 392.876 1413.95 391.706C1413.95 390.536 1414.86 389.588 1415.98 389.588ZM1415.98 378.294C1417.09 378.294 1418 379.242 1418 380.412C1418 381.581 1417.09 382.529 1415.98 382.529C1414.86 382.529 1413.95 381.581 1413.95 380.412C1413.95 379.242 1414.86 378.294 1415.98 378.294ZM1394.62 367.013C1395.74 367.013 1396.64 367.961 1396.64 369.13C1396.64 370.299 1395.74 371.248 1394.62 371.248C1393.5 371.248 1392.59 370.299 1392.59 369.13C1392.59 367.961 1393.5 367.013 1394.62 367.013ZM1407.21 369.117C1407.21 367.948 1406.3 367 1405.19 367C1404.07 367 1403.17 367.948 1403.17 369.117C1403.17 370.287 1404.07 371.235 1405.19 371.235C1406.3 371.235 1407.21 370.287 1407.21 369.117ZM1418 369.117C1418 367.948 1417.09 367 1415.98 367C1414.86 367 1413.95 367.948 1413.95 369.117C1413.95 370.287 1414.86 371.235 1415.98 371.235C1417.09 371.235 1418 370.287 1418 369.117ZM1385.63 369.117C1385.63 367.948 1384.72 367 1383.6 367C1382.49 367 1381.58 367.948 1381.58 369.117C1381.58 370.287 1382.49 371.235 1383.6 371.235C1384.72 371.235 1385.63 370.287 1385.63 369.117ZM1372.81 367C1373.94 367 1374.84 367.948 1374.84 369.117C1374.84 370.287 1373.94 371.235 1372.81 371.235C1371.7 371.235 1370.79 370.287 1370.79 369.117C1370.79 367.948 1371.7 367 1372.81 367ZM1364.05 369.117C1364.05 367.948 1363.14 367 1362.03 367C1360.91 367 1360 367.948 1360 369.117C1360 370.287 1360.91 371.235 1362.03 371.235C1363.14 371.235 1364.05 370.287 1364.05 369.117ZM1407.21 380.412C1407.21 379.242 1406.3 378.294 1405.19 378.294C1404.07 378.294 1403.17 379.242 1403.17 380.412C1403.17 381.581 1404.07 382.529 1405.19 382.529C1406.3 382.529 1407.21 381.581 1407.21 380.412ZM1394.4 378.294C1395.51 378.294 1396.42 379.242 1396.42 380.412C1396.42 381.581 1395.51 382.529 1394.4 382.529C1393.28 382.529 1392.37 381.581 1392.37 380.412C1392.37 379.242 1393.28 378.294 1394.4 378.294ZM1385.63 380.412C1385.63 379.242 1384.72 378.294 1383.6 378.294C1382.49 378.294 1381.58 379.242 1381.58 380.412C1381.58 381.581 1382.49 382.529 1383.6 382.529C1384.72 382.529 1385.63 381.581 1385.63 380.412ZM1372.81 378.294C1373.94 378.294 1374.84 379.242 1374.84 380.412C1374.84 381.581 1373.94 382.529 1372.81 382.529C1371.7 382.529 1370.79 381.581 1370.79 380.412C1370.79 379.242 1371.7 378.294 1372.81 378.294ZM1364.05 380.412C1364.05 379.242 1363.14 378.294 1362.03 378.294C1360.91 378.294 1360 379.242 1360 380.412C1360 381.581 1360.91 382.529 1362.03 382.529C1363.14 382.529 1364.05 381.581 1364.05 380.412ZM1407.21 391.706C1407.21 390.536 1406.3 389.588 1405.19 389.588C1404.07 389.588 1403.17 390.536 1403.17 391.706C1403.17 392.876 1404.07 393.824 1405.19 393.824C1406.3 393.824 1407.21 392.876 1407.21 391.706ZM1394.4 389.588C1395.51 389.588 1396.42 390.536 1396.42 391.706C1396.42 392.876 1395.51 393.824 1394.4 393.824C1393.28 393.824 1392.37 392.876 1392.37 391.706C1392.37 390.536 1393.28 389.588 1394.4 389.588ZM1385.63 391.706C1385.63 390.536 1384.72 389.588 1383.6 389.588C1382.49 389.588 1381.58 390.536 1381.58 391.706C1381.58 392.876 1382.49 393.824 1383.6 393.824C1384.72 393.824 1385.63 392.876 1385.63 391.706ZM1372.81 389.588C1373.94 389.588 1374.84 390.536 1374.84 391.706C1374.84 392.876 1373.94 393.824 1372.81 393.824C1371.7 393.824 1370.79 392.876 1370.79 391.706C1370.79 390.536 1371.7 389.588 1372.81 389.588ZM1364.05 391.706C1364.05 390.536 1363.14 389.588 1362.03 389.588C1360.91 389.588 1360 390.536 1360 391.706C1360 392.876 1360.91 393.824 1362.03 393.824C1363.14 393.824 1364.05 392.876 1364.05 391.706ZM1407.21 403C1407.21 401.831 1406.3 400.882 1405.19 400.882C1404.07 400.882 1403.17 401.831 1403.17 403C1403.17 404.169 1404.07 405.117 1405.19 405.117C1406.3 405.117 1407.21 404.169 1407.21 403ZM1394.4 400.882C1395.51 400.882 1396.42 401.831 1396.42 403C1396.42 404.169 1395.51 405.117 1394.4 405.117C1393.28 405.117 1392.37 404.169 1392.37 403C1392.37 401.831 1393.28 400.882 1394.4 400.882ZM1385.63 403C1385.63 401.831 1384.72 400.882 1383.6 400.882C1382.49 400.882 1381.58 401.831 1381.58 403C1381.58 404.169 1382.49 405.117 1383.6 405.117C1384.72 405.117 1385.63 404.169 1385.63 403ZM1372.81 400.882C1373.94 400.882 1374.84 401.831 1374.84 403C1374.84 404.169 1373.94 405.117 1372.81 405.117C1371.7 405.117 1370.79 404.169 1370.79 403C1370.79 401.831 1371.7 400.882 1372.81 400.882ZM1364.05 403C1364.05 401.831 1363.14 400.882 1362.03 400.882C1360.91 400.882 1360 401.831 1360 403C1360 404.169 1360.91 405.117 1362.03 405.117C1363.14 405.117 1364.05 404.169 1364.05 403ZM1407.21 414.294C1407.21 413.124 1406.3 412.176 1405.19 412.176C1404.07 412.176 1403.17 413.124 1403.17 414.294C1403.17 415.464 1404.07 416.412 1405.19 416.412C1406.3 416.412 1407.21 415.464 1407.21 414.294ZM1394.4 412.176C1395.51 412.176 1396.42 413.124 1396.42 414.294C1396.42 415.464 1395.51 416.412 1394.4 416.412C1393.28 416.412 1392.37 415.464 1392.37 414.294C1392.37 413.124 1393.28 412.176 1394.4 412.176ZM1385.63 414.294C1385.63 413.124 1384.72 412.176 1383.6 412.176C1382.49 412.176 1381.58 413.124 1381.58 414.294C1381.58 415.464 1382.49 416.412 1383.6 416.412C1384.72 416.412 1385.63 415.464 1385.63 414.294ZM1372.81 412.176C1373.94 412.176 1374.84 413.124 1374.84 414.294C1374.84 415.464 1373.94 416.412 1372.81 416.412C1371.7 416.412 1370.79 415.464 1370.79 414.294C1370.79 413.124 1371.7 412.176 1372.81 412.176ZM1364.05 414.294C1364.05 413.124 1363.14 412.176 1362.03 412.176C1360.91 412.176 1360 413.124 1360 414.294C1360 415.464 1360.91 416.412 1362.03 416.412C1363.14 416.412 1364.05 415.464 1364.05 414.294ZM1407.21 425.588C1407.21 424.419 1406.3 423.47 1405.19 423.47C1404.07 423.47 1403.17 424.419 1403.17 425.588C1403.17 426.758 1404.07 427.706 1405.19 427.706C1406.3 427.706 1407.21 426.758 1407.21 425.588ZM1394.4 423.47C1395.51 423.47 1396.42 424.419 1396.42 425.588C1396.42 426.758 1395.51 427.706 1394.4 427.706C1393.28 427.706 1392.37 426.758 1392.37 425.588C1392.37 424.419 1393.28 423.47 1394.4 423.47ZM1385.63 425.588C1385.63 424.419 1384.72 423.47 1383.6 423.47C1382.49 423.47 1381.58 424.419 1381.58 425.588C1381.58 426.758 1382.49 427.706 1383.6 427.706C1384.72 427.706 1385.63 426.758 1385.63 425.588ZM1372.81 423.47C1373.94 423.47 1374.84 424.419 1374.84 425.588C1374.84 426.758 1373.94 427.706 1372.81 427.706C1371.7 427.706 1370.79 426.758 1370.79 425.588C1370.79 424.419 1371.7 423.47 1372.81 423.47ZM1364.05 425.588C1364.05 424.419 1363.14 423.47 1362.03 423.47C1360.91 423.47 1360 424.419 1360 425.588C1360 426.758 1360.91 427.706 1362.03 427.706C1363.14 427.706 1364.05 426.758 1364.05 425.588ZM1407.21 436.882C1407.21 435.713 1406.3 434.765 1405.19 434.765C1404.07 434.765 1403.17 435.713 1403.17 436.882C1403.17 438.052 1404.07 439 1405.19 439C1406.3 439 1407.21 438.052 1407.21 436.882ZM1394.4 434.765C1395.51 434.765 1396.42 435.713 1396.42 436.882C1396.42 438.052 1395.51 439 1394.4 439C1393.28 439 1392.37 438.052 1392.37 436.882C1392.37 435.713 1393.28 434.765 1394.4 434.765ZM1385.63 436.882C1385.63 435.713 1384.72 434.765 1383.6 434.765C1382.49 434.765 1381.58 435.713 1381.58 436.882C1381.58 438.052 1382.49 439 1383.6 439C1384.72 439 1385.63 438.052 1385.63 436.882ZM1372.81 434.765C1373.94 434.765 1374.84 435.713 1374.84 436.882C1374.84 438.052 1373.94 439 1372.81 439C1371.7 439 1370.79 438.052 1370.79 436.882C1370.79 435.713 1371.7 434.765 1372.81 434.765ZM1364.05 436.882C1364.05 435.713 1363.14 434.765 1362.03 434.765C1360.91 434.765 1360 435.713 1360 436.882C1360 438.052 1360.91 439 1362.03 439C1363.14 439 1364.05 438.052 1364.05 436.882Z" fill="#00B5CE"/>
<circle r="78.8773" transform="matrix(1 0 0 -1 1339.88 119.123)" fill="#1BC5BD"/>
</g>
</svg>
