<svg width="1440" height="950" viewBox="0 0 1440 950" fill="none" xmlns="http://www.w3.org/2000/svg">
<rect width="1440" height="950" fill="#8950FC"/>
<mask id="mask0" mask-type="alpha" maskUnits="userSpaceOnUse" x="0" y="0" width="1440" height="950">
<rect width="1440" height="950" fill="white"/>
</mask>
<g mask="url(#mask0)">
<path fill-rule="evenodd" clip-rule="evenodd" d="M53.5328 490.547C54.3195 489.76 54.2914 488.457 53.47 487.635C52.6486 486.814 51.3451 486.785 50.5584 487.572C49.7717 488.359 49.7998 489.662 50.6212 490.484C51.4426 491.305 52.7462 491.333 53.5328 490.547ZM61.1821 498.195C61.9688 497.409 61.9407 496.105 61.1193 495.284C60.2979 494.463 58.9943 494.435 58.2076 495.221C57.421 496.008 57.4491 497.311 58.2705 498.133C59.0919 498.954 60.3955 498.982 61.1821 498.195ZM68.8313 505.845C69.6179 505.058 69.5897 503.754 68.7682 502.933C67.9472 502.112 66.6435 502.084 65.8568 502.87C65.0701 503.657 65.0983 504.961 65.9196 505.782C66.741 506.604 68.0446 506.631 68.8313 505.845ZM76.4804 513.494C77.2671 512.707 77.2389 511.404 76.4173 510.582C75.5964 509.761 74.2923 509.733 73.5056 510.519C72.719 511.306 72.7472 512.61 73.5687 513.431C74.3903 514.252 75.6938 514.28 76.4804 513.494ZM84.1296 521.143C84.9163 520.356 84.8881 519.053 84.0665 518.231C83.2456 517.41 81.9415 517.382 81.1548 518.169C80.3681 518.955 80.3964 520.259 81.2179 521.08C82.0394 521.901 83.343 521.93 84.1296 521.143ZM91.7788 528.792C92.5655 528.005 92.5372 526.702 91.7157 525.88C90.8942 525.059 89.5907 525.031 88.804 525.818C88.0173 526.604 88.0456 527.908 88.8671 528.73C89.6886 529.55 90.9921 529.579 91.7788 528.792ZM99.3649 533.529C100.186 534.351 100.215 535.655 99.428 536.441C98.6413 537.228 97.3378 537.2 96.5163 536.378C95.6947 535.557 95.6665 534.254 96.4532 533.467C97.2399 532.68 98.5434 532.708 99.3649 533.529ZM91.7674 541.127C92.5889 541.948 92.6172 543.252 91.8299 544.039C91.0432 544.825 89.7397 544.798 88.9188 543.976C88.0973 543.155 88.069 541.851 88.8557 541.064C89.6424 540.278 90.9459 540.306 91.7674 541.127ZM84.2336 551.636C85.0203 550.849 84.992 549.545 84.1705 548.724C83.349 547.903 82.0455 547.875 81.2588 548.661C80.4721 549.448 80.5004 550.752 81.3219 551.573C82.1428 552.394 83.4469 552.422 84.2336 551.636ZM76.573 556.322C77.3939 557.143 77.4222 558.447 76.6355 559.234C75.8488 560.02 74.5453 559.992 73.7238 559.171C72.9029 558.349 72.8746 557.045 73.6613 556.259C74.448 555.472 75.7515 555.5 76.573 556.322ZM69.038 566.831C69.8247 566.044 69.7964 564.741 68.9749 563.919C68.154 563.098 66.8502 563.07 66.0635 563.856C65.2768 564.643 65.3049 565.947 66.1263 566.768C66.9477 567.59 68.2513 567.618 69.038 566.831ZM61.3782 571.516C62.1997 572.338 62.2278 573.641 61.4411 574.428C60.6544 575.215 59.3509 575.186 58.5295 574.365C57.7081 573.543 57.68 572.24 58.4667 571.453C59.2533 570.667 60.5569 570.695 61.3782 571.516ZM84.1182 533.478C84.9397 534.299 84.968 535.603 84.1813 536.39C83.3946 537.176 82.0905 537.149 81.2696 536.327C80.4481 535.505 80.4198 534.202 81.2065 533.415C81.9932 532.629 83.2967 532.657 84.1182 533.478ZM76.5844 543.986C77.3711 543.2 77.3428 541.896 76.5213 541.075C75.6998 540.254 74.3963 540.226 73.6096 541.012C72.8229 541.799 72.8512 543.102 73.6727 543.924C74.4936 544.745 75.7977 544.773 76.5844 543.986ZM68.9238 548.673C69.7447 549.494 69.773 550.798 68.9863 551.584C68.1996 552.371 66.8963 552.343 66.0748 551.521C65.2535 550.7 65.2253 549.396 66.012 548.61C66.7987 547.823 68.1023 547.851 68.9238 548.673ZM61.3888 559.182C62.1755 558.395 62.1474 557.092 61.326 556.27C60.5046 555.449 59.201 555.421 58.4143 556.208C57.6276 556.994 57.6558 558.298 58.4772 559.119C59.2986 559.94 60.6021 559.969 61.3888 559.182ZM53.7291 563.867C54.5505 564.689 54.5787 565.992 53.792 566.779C53.0053 567.565 51.7017 567.537 50.8803 566.716C50.0589 565.895 50.0308 564.591 50.8175 563.805C51.6041 563.018 52.9078 563.046 53.7291 563.867ZM76.469 525.829C77.2906 526.65 77.3188 527.954 76.5321 528.74C75.7455 529.528 74.4413 529.499 73.6204 528.678C72.7989 527.856 72.7706 526.553 73.5573 525.766C74.344 524.979 75.6475 525.008 76.469 525.829ZM68.9352 536.337C69.7219 535.551 69.6937 534.247 68.8721 533.426C68.0506 532.605 66.7472 532.576 65.9605 533.363C65.1739 534.15 65.202 535.453 66.0234 536.275C66.8448 537.096 68.1486 537.124 68.9352 536.337ZM61.2745 541.024C62.0959 541.845 62.124 543.149 61.3373 543.935C60.5506 544.722 59.2471 544.694 58.4257 543.872C57.6043 543.051 57.5762 541.747 58.3629 540.96C59.1495 540.174 60.4531 540.202 61.2745 541.024ZM53.7397 551.533C54.5264 550.746 54.4982 549.443 53.6768 548.621C52.8554 547.8 51.5519 547.772 50.7652 548.559C49.9785 549.345 50.0066 550.649 50.828 551.47C51.6494 552.291 52.953 552.319 53.7397 551.533ZM46.08 556.218C46.9014 557.039 46.9295 558.343 46.1429 559.13C45.3562 559.916 44.0526 559.888 43.2312 559.067C42.4098 558.246 42.3817 556.942 43.1684 556.155C43.955 555.368 45.2586 555.396 46.08 556.218ZM68.8198 518.18C69.6414 519.001 69.6696 520.305 68.8829 521.092C68.0963 521.878 66.7925 521.85 65.9711 521.029C65.1497 520.207 65.1216 518.904 65.9083 518.117C66.695 517.33 67.9983 517.359 68.8198 518.18ZM61.2859 528.688C62.0726 527.901 62.0444 526.598 61.2231 525.777C60.4017 524.955 59.0981 524.927 58.3114 525.714C57.5247 526.501 57.5529 527.804 58.3742 528.626C59.1956 529.447 60.4992 529.475 61.2859 528.688ZM53.6254 533.374C54.4467 534.196 54.4749 535.499 53.6882 536.286C52.9015 537.073 51.598 537.045 50.7766 536.223C49.9552 535.402 49.9271 534.098 50.7137 533.311C51.5004 532.525 52.804 532.553 53.6254 533.374ZM46.0905 543.884C46.8772 543.097 46.8491 541.793 46.0277 540.972C45.2063 540.15 43.9027 540.123 43.1161 540.909C42.3294 541.696 42.3575 543 43.1789 543.821C44.0003 544.642 45.3038 544.67 46.0905 543.884ZM38.4309 548.569C39.2522 549.39 39.2804 550.694 38.4937 551.48C37.707 552.267 36.4034 552.239 35.5821 551.417C34.7607 550.596 34.7326 549.293 35.5192 548.506C36.3059 547.72 37.6095 547.747 38.4309 548.569ZM61.1708 510.531C61.9922 511.352 62.0203 512.656 61.2337 513.443C60.447 514.229 59.1433 514.201 58.3219 513.38C57.5006 512.558 57.4725 511.254 58.2591 510.468C59.0458 509.681 60.3494 509.709 61.1708 510.531ZM53.6368 521.04C54.4234 520.253 54.3953 518.949 53.574 518.128C52.7525 517.306 51.449 517.278 50.6623 518.065C49.8756 518.851 49.9038 520.155 50.7251 520.976C51.5465 521.798 52.8501 521.826 53.6368 521.04ZM45.9762 525.725C46.7976 526.547 46.8258 527.85 46.0391 528.637C45.2524 529.424 43.9488 529.395 43.1274 528.574C42.3061 527.753 42.278 526.449 43.0646 525.662C43.8513 524.876 45.1549 524.904 45.9762 525.725ZM38.4414 536.234C39.2281 535.448 39.2 534.144 38.3786 533.323C37.5572 532.502 36.2536 532.474 35.4669 533.26C34.6803 534.047 34.7084 535.35 35.5298 536.172C36.3512 536.993 37.6547 537.021 38.4414 536.234ZM30.7817 540.92C31.6031 541.741 31.6312 543.045 30.8446 543.831C30.0579 544.618 28.7543 544.59 27.9329 543.769C27.1116 542.947 27.0834 541.644 27.8701 540.857C28.6568 540.07 29.9604 540.098 30.7817 540.92ZM53.5217 502.882C54.3431 503.703 54.3712 505.007 53.5845 505.793C52.7978 506.58 51.4942 506.552 50.6728 505.73C49.8514 504.909 49.8233 503.605 50.61 502.819C51.3967 502.032 52.7003 502.06 53.5217 502.882ZM45.9876 513.39C46.7743 512.604 46.7462 511.3 45.9248 510.479C45.1034 509.657 43.7998 509.629 43.0131 510.416C42.2264 511.202 42.2546 512.506 43.076 513.327C43.8973 514.149 45.201 514.177 45.9876 513.39ZM38.3271 518.076C39.1485 518.898 39.1766 520.201 38.39 520.988C37.6033 521.774 36.2997 521.746 35.4783 520.925C34.6569 520.104 34.6288 518.8 35.4154 518.014C36.2021 517.227 37.5057 517.255 38.3271 518.076ZM30.7923 528.585C31.579 527.799 31.5508 526.495 30.7294 525.674C29.9081 524.853 28.6044 524.824 27.8178 525.611C27.0311 526.398 27.0592 527.701 27.8806 528.523C28.702 529.344 30.0056 529.372 30.7923 528.585ZM23.1326 533.27C23.954 534.092 23.9821 535.396 23.1954 536.182C22.4088 536.969 21.1052 536.941 20.2838 536.12C19.4624 535.298 19.4343 533.995 20.2209 533.208C21.0076 532.421 22.3112 532.45 23.1326 533.27ZM45.873 495.232C46.6943 496.054 46.7224 497.357 45.9358 498.144C45.1491 498.93 43.8455 498.902 43.0241 498.081C42.2027 497.26 42.1746 495.956 42.9613 495.169C43.748 494.383 45.0516 494.41 45.873 495.232ZM38.3382 505.741C39.1248 504.955 39.0967 503.651 38.2754 502.829C37.4539 502.009 36.1504 501.98 35.3637 502.767C34.577 503.554 34.6052 504.857 35.4266 505.679C36.2479 506.5 37.5515 506.528 38.3382 505.741ZM30.6782 510.427C31.4996 511.248 31.5277 512.552 30.741 513.339C29.9543 514.125 28.6508 514.097 27.8294 513.276C27.008 512.454 26.9799 511.151 27.7666 510.364C28.5532 509.577 29.8568 509.605 30.6782 510.427ZM23.1435 520.936C23.9302 520.149 23.9021 518.846 23.0807 518.024C22.2593 517.203 20.9557 517.175 20.169 517.961C19.3823 518.748 19.4105 520.052 20.2319 520.873C21.0532 521.695 22.3568 521.723 23.1435 520.936ZM15.4837 525.621C16.3051 526.443 16.3332 527.746 15.5466 528.533C14.7599 529.32 13.4563 529.291 12.6349 528.47C11.8135 527.649 11.7854 526.345 12.5721 525.558C13.3588 524.772 14.6624 524.8 15.4837 525.621Z" fill="white"/>
<circle opacity="0.1" cx="612.944" cy="693.51" r="112.51" fill="white"/>
<mask id="mask1" mask-type="alpha" maskUnits="userSpaceOnUse" x="761" y="703" width="89" height="97">
<path fill-rule="evenodd" clip-rule="evenodd" d="M779.214 713.731C784.331 706.185 792.882 702.186 801.173 703.464L822.782 706.797C830.121 707.928 836.16 713.037 838.785 720.336L848.34 746.898C850.965 754.197 849.81 762.669 845.28 769.35L831.945 789.021C826.83 796.567 818.277 800.566 809.988 799.288L788.379 795.955C781.038 794.824 774.999 789.715 772.374 782.416L762.821 755.854C760.196 748.555 761.349 740.083 765.879 733.402L779.214 713.731Z" fill="white"/>
</mask>
<g mask="url(#mask1)">
<path fill-rule="evenodd" clip-rule="evenodd" d="M699.196 698.939L855.16 863.044L855.802 862.262L699.84 698.158L699.196 698.939ZM703.233 697.051L859.197 861.155L859.839 860.374L703.876 696.271L703.233 697.051ZM863.236 859.267L707.274 695.162L707.916 694.382L863.88 858.487L863.236 859.267ZM711.313 693.275L867.277 857.378L867.919 856.598L711.957 692.494L711.313 693.275ZM871.314 855.491L715.35 691.387L715.993 690.605L871.956 854.71L871.314 855.491ZM719.391 689.498L875.353 853.603L875.997 852.821L720.033 688.717L719.391 689.498ZM879.391 851.714L723.427 687.61L724.069 686.828L880.033 850.933L879.391 851.714ZM727.467 685.721L883.431 849.826L884.073 849.044L728.11 684.941L727.467 685.721ZM887.467 847.937L731.505 683.833L732.147 683.053L888.109 847.156L887.467 847.937ZM735.544 681.944L891.507 846.049L892.15 845.269L736.186 681.164L735.544 681.944ZM895.545 844.16L739.581 680.057L740.223 679.276L896.187 843.38L895.545 844.16ZM743.622 678.169L899.584 842.273L900.226 841.492L744.264 677.387L743.622 678.169ZM903.621 840.385L747.658 676.28L748.3 675.499L904.263 839.603L903.621 840.385ZM751.698 674.392L907.662 838.496L908.304 837.715L752.34 673.61L751.698 674.392ZM911.698 836.608L755.734 672.503L756.378 671.722L912.34 835.826L911.698 836.608ZM759.775 670.615L915.738 834.719L916.38 833.938L760.417 669.835L759.775 670.615ZM919.774 832.831L763.812 668.728L764.454 667.946L920.418 832.051L919.774 832.831ZM767.851 666.839L923.815 830.942L924.457 830.162L768.493 666.058L767.851 666.839ZM927.852 829.055L771.888 664.951L772.531 664.169L928.494 828.274L927.852 829.055ZM775.929 663.062L931.891 827.167L932.533 826.385L776.571 662.281L775.929 663.062ZM935.928 825.278L779.965 661.174L780.607 660.392L936.571 824.497L935.928 825.278ZM784.005 659.285L939.969 823.39L940.611 822.608L784.648 658.504L784.005 659.285ZM944.008 821.501L788.046 657.397L788.688 656.617L944.65 820.72L944.008 821.501ZM792.082 655.508L948.045 819.613L948.688 818.833L792.724 654.728L792.082 655.508ZM952.086 817.724L796.122 653.621L796.764 652.84L952.728 816.944L952.086 817.724ZM800.158 651.733L956.122 815.837L956.764 815.056L800.802 650.951L800.158 651.733Z" fill="white"/>
</g>
<path fill-rule="evenodd" clip-rule="evenodd" d="M1443.98 426.235C1445.09 426.235 1446 425.287 1446 424.118C1446 422.948 1445.09 422 1443.98 422C1442.86 422 1441.95 422.948 1441.95 424.118C1441.95 425.287 1442.86 426.235 1443.98 426.235ZM1443.98 437.53C1445.09 437.53 1446 436.581 1446 435.412C1446 434.242 1445.09 433.294 1443.98 433.294C1442.86 433.294 1441.95 434.242 1441.95 435.412C1441.95 436.581 1442.86 437.53 1443.98 437.53ZM1443.98 448.824C1445.09 448.824 1446 447.876 1446 446.706C1446 445.536 1445.09 444.588 1443.98 444.588C1442.86 444.588 1441.95 445.536 1441.95 446.706C1441.95 447.876 1442.86 448.824 1443.98 448.824ZM1443.98 460.118C1445.09 460.118 1446 459.169 1446 458C1446 456.831 1445.09 455.883 1443.98 455.883C1442.86 455.883 1441.95 456.831 1441.95 458C1441.95 459.169 1442.86 460.118 1443.98 460.118ZM1443.98 471.412C1445.09 471.412 1446 470.464 1446 469.294C1446 468.124 1445.09 467.176 1443.98 467.176C1442.86 467.176 1441.95 468.124 1441.95 469.294C1441.95 470.464 1442.86 471.412 1443.98 471.412ZM1443.98 482.706C1445.09 482.706 1446 481.758 1446 480.588C1446 479.419 1445.09 478.471 1443.98 478.471C1442.86 478.471 1441.95 479.419 1441.95 480.588C1441.95 481.758 1442.86 482.706 1443.98 482.706ZM1422.62 493.987C1423.74 493.987 1424.64 493.039 1424.64 491.87C1424.64 490.701 1423.74 489.752 1422.62 489.752C1421.5 489.752 1420.59 490.701 1420.59 491.87C1420.59 493.039 1421.5 493.987 1422.62 493.987ZM1435.21 491.883C1435.21 493.052 1434.3 494 1433.19 494C1432.07 494 1431.17 493.052 1431.17 491.883C1431.17 490.713 1432.07 489.765 1433.19 489.765C1434.3 489.765 1435.21 490.713 1435.21 491.883ZM1446 491.883C1446 493.052 1445.09 494 1443.98 494C1442.86 494 1441.95 493.052 1441.95 491.883C1441.95 490.713 1442.86 489.765 1443.98 489.765C1445.09 489.765 1446 490.713 1446 491.883ZM1413.63 491.883C1413.63 493.052 1412.72 494 1411.6 494C1410.49 494 1409.58 493.052 1409.58 491.883C1409.58 490.713 1410.49 489.765 1411.6 489.765C1412.72 489.765 1413.63 490.713 1413.63 491.883ZM1400.81 494C1401.94 494 1402.84 493.052 1402.84 491.883C1402.84 490.713 1401.94 489.765 1400.81 489.765C1399.7 489.765 1398.79 490.713 1398.79 491.883C1398.79 493.052 1399.7 494 1400.81 494ZM1392.05 491.883C1392.05 493.052 1391.14 494 1390.03 494C1388.91 494 1388 493.052 1388 491.883C1388 490.713 1388.91 489.765 1390.03 489.765C1391.14 489.765 1392.05 490.713 1392.05 491.883ZM1435.21 480.588C1435.21 481.758 1434.3 482.706 1433.19 482.706C1432.07 482.706 1431.17 481.758 1431.17 480.588C1431.17 479.419 1432.07 478.471 1433.19 478.471C1434.3 478.471 1435.21 479.419 1435.21 480.588ZM1422.4 482.706C1423.51 482.706 1424.42 481.758 1424.42 480.588C1424.42 479.419 1423.51 478.471 1422.4 478.471C1421.28 478.471 1420.37 479.419 1420.37 480.588C1420.37 481.758 1421.28 482.706 1422.4 482.706ZM1413.63 480.588C1413.63 481.758 1412.72 482.706 1411.6 482.706C1410.49 482.706 1409.58 481.758 1409.58 480.588C1409.58 479.419 1410.49 478.471 1411.6 478.471C1412.72 478.471 1413.63 479.419 1413.63 480.588ZM1400.81 482.706C1401.94 482.706 1402.84 481.758 1402.84 480.588C1402.84 479.419 1401.94 478.471 1400.81 478.471C1399.7 478.471 1398.79 479.419 1398.79 480.588C1398.79 481.758 1399.7 482.706 1400.81 482.706ZM1392.05 480.588C1392.05 481.758 1391.14 482.706 1390.03 482.706C1388.91 482.706 1388 481.758 1388 480.588C1388 479.419 1388.91 478.471 1390.03 478.471C1391.14 478.471 1392.05 479.419 1392.05 480.588ZM1435.21 469.294C1435.21 470.464 1434.3 471.412 1433.19 471.412C1432.07 471.412 1431.17 470.464 1431.17 469.294C1431.17 468.124 1432.07 467.176 1433.19 467.176C1434.3 467.176 1435.21 468.124 1435.21 469.294ZM1422.4 471.412C1423.51 471.412 1424.42 470.464 1424.42 469.294C1424.42 468.124 1423.51 467.176 1422.4 467.176C1421.28 467.176 1420.37 468.124 1420.37 469.294C1420.37 470.464 1421.28 471.412 1422.4 471.412ZM1413.63 469.294C1413.63 470.464 1412.72 471.412 1411.6 471.412C1410.49 471.412 1409.58 470.464 1409.58 469.294C1409.58 468.124 1410.49 467.176 1411.6 467.176C1412.72 467.176 1413.63 468.124 1413.63 469.294ZM1400.81 471.412C1401.94 471.412 1402.84 470.464 1402.84 469.294C1402.84 468.124 1401.94 467.176 1400.81 467.176C1399.7 467.176 1398.79 468.124 1398.79 469.294C1398.79 470.464 1399.7 471.412 1400.81 471.412ZM1392.05 469.294C1392.05 470.464 1391.14 471.412 1390.03 471.412C1388.91 471.412 1388 470.464 1388 469.294C1388 468.124 1388.91 467.176 1390.03 467.176C1391.14 467.176 1392.05 468.124 1392.05 469.294ZM1435.21 458C1435.21 459.169 1434.3 460.118 1433.19 460.118C1432.07 460.118 1431.17 459.169 1431.17 458C1431.17 456.831 1432.07 455.883 1433.19 455.883C1434.3 455.883 1435.21 456.831 1435.21 458ZM1422.4 460.118C1423.51 460.118 1424.42 459.169 1424.42 458C1424.42 456.831 1423.51 455.883 1422.4 455.883C1421.28 455.883 1420.37 456.831 1420.37 458C1420.37 459.169 1421.28 460.118 1422.4 460.118ZM1413.63 458C1413.63 459.169 1412.72 460.118 1411.6 460.118C1410.49 460.118 1409.58 459.169 1409.58 458C1409.58 456.831 1410.49 455.883 1411.6 455.883C1412.72 455.883 1413.63 456.831 1413.63 458ZM1400.81 460.118C1401.94 460.118 1402.84 459.169 1402.84 458C1402.84 456.831 1401.94 455.883 1400.81 455.883C1399.7 455.883 1398.79 456.831 1398.79 458C1398.79 459.169 1399.7 460.118 1400.81 460.118ZM1392.05 458C1392.05 459.169 1391.14 460.118 1390.03 460.118C1388.91 460.118 1388 459.169 1388 458C1388 456.831 1388.91 455.883 1390.03 455.883C1391.14 455.883 1392.05 456.831 1392.05 458ZM1435.21 446.706C1435.21 447.876 1434.3 448.824 1433.19 448.824C1432.07 448.824 1431.17 447.876 1431.17 446.706C1431.17 445.536 1432.07 444.588 1433.19 444.588C1434.3 444.588 1435.21 445.536 1435.21 446.706ZM1422.4 448.824C1423.51 448.824 1424.42 447.876 1424.42 446.706C1424.42 445.536 1423.51 444.588 1422.4 444.588C1421.28 444.588 1420.37 445.536 1420.37 446.706C1420.37 447.876 1421.28 448.824 1422.4 448.824ZM1413.63 446.706C1413.63 447.876 1412.72 448.824 1411.6 448.824C1410.49 448.824 1409.58 447.876 1409.58 446.706C1409.58 445.536 1410.49 444.588 1411.6 444.588C1412.72 444.588 1413.63 445.536 1413.63 446.706ZM1400.81 448.824C1401.94 448.824 1402.84 447.876 1402.84 446.706C1402.84 445.536 1401.94 444.588 1400.81 444.588C1399.7 444.588 1398.79 445.536 1398.79 446.706C1398.79 447.876 1399.7 448.824 1400.81 448.824ZM1392.05 446.706C1392.05 447.876 1391.14 448.824 1390.03 448.824C1388.91 448.824 1388 447.876 1388 446.706C1388 445.536 1388.91 444.588 1390.03 444.588C1391.14 444.588 1392.05 445.536 1392.05 446.706ZM1435.21 435.412C1435.21 436.581 1434.3 437.53 1433.19 437.53C1432.07 437.53 1431.17 436.581 1431.17 435.412C1431.17 434.242 1432.07 433.294 1433.19 433.294C1434.3 433.294 1435.21 434.242 1435.21 435.412ZM1422.4 437.53C1423.51 437.53 1424.42 436.581 1424.42 435.412C1424.42 434.242 1423.51 433.294 1422.4 433.294C1421.28 433.294 1420.37 434.242 1420.37 435.412C1420.37 436.581 1421.28 437.53 1422.4 437.53ZM1413.63 435.412C1413.63 436.581 1412.72 437.53 1411.6 437.53C1410.49 437.53 1409.58 436.581 1409.58 435.412C1409.58 434.242 1410.49 433.294 1411.6 433.294C1412.72 433.294 1413.63 434.242 1413.63 435.412ZM1400.81 437.53C1401.94 437.53 1402.84 436.581 1402.84 435.412C1402.84 434.242 1401.94 433.294 1400.81 433.294C1399.7 433.294 1398.79 434.242 1398.79 435.412C1398.79 436.581 1399.7 437.53 1400.81 437.53ZM1392.05 435.412C1392.05 436.581 1391.14 437.53 1390.03 437.53C1388.91 437.53 1388 436.581 1388 435.412C1388 434.242 1388.91 433.294 1390.03 433.294C1391.14 433.294 1392.05 434.242 1392.05 435.412ZM1435.21 424.118C1435.21 425.287 1434.3 426.235 1433.19 426.235C1432.07 426.235 1431.17 425.287 1431.17 424.118C1431.17 422.948 1432.07 422 1433.19 422C1434.3 422 1435.21 422.948 1435.21 424.118ZM1422.4 426.235C1423.51 426.235 1424.42 425.287 1424.42 424.118C1424.42 422.948 1423.51 422 1422.4 422C1421.28 422 1420.37 422.948 1420.37 424.118C1420.37 425.287 1421.28 426.235 1422.4 426.235ZM1413.63 424.118C1413.63 425.287 1412.72 426.235 1411.6 426.235C1410.49 426.235 1409.58 425.287 1409.58 424.118C1409.58 422.948 1410.49 422 1411.6 422C1412.72 422 1413.63 422.948 1413.63 424.118ZM1400.81 426.235C1401.94 426.235 1402.84 425.287 1402.84 424.118C1402.84 422.948 1401.94 422 1400.81 422C1399.7 422 1398.79 422.948 1398.79 424.118C1398.79 425.287 1399.7 426.235 1400.81 426.235ZM1392.05 424.118C1392.05 425.287 1391.14 426.235 1390.03 426.235C1388.91 426.235 1388 425.287 1388 424.118C1388 422.948 1388.91 422 1390.03 422C1391.14 422 1392.05 422.948 1392.05 424.118Z" fill="white"/>
<circle opacity="0.2" cx="1277.88" cy="741.877" r="78.8773" fill="white"/>
</g>
</svg>
