<svg width="600" height="800" viewBox="0 0 600 800" fill="none" xmlns="http://www.w3.org/2000/svg">
<rect width="600" height="800" fill="url(#paint0_linear)"/>
<mask id="mask0" mask-type="alpha" maskUnits="userSpaceOnUse" x="0" y="0" width="600" height="800">
<rect width="600" height="800" fill="white"/>
</mask>
<g mask="url(#mask0)">
<mask id="mask1" mask-type="alpha" maskUnits="userSpaceOnUse" x="64" y="237" width="89" height="97">
<path fill-rule="evenodd" clip-rule="evenodd" d="M82.2141 247.977C87.3306 240.431 95.8821 236.432 104.173 237.71L125.782 241.043C133.121 242.174 139.16 247.283 141.785 254.582L151.34 281.144C153.965 288.443 152.81 296.915 148.28 303.596L134.945 323.267C129.83 330.813 121.277 334.812 112.988 333.534L91.3791 330.201C84.0381 329.07 77.9991 323.961 75.3741 316.662L65.8206 290.1C63.1956 282.801 64.3491 274.329 68.8791 267.648L82.2141 247.977Z" fill="white"/>
</mask>
<g mask="url(#mask1)">
<path fill-rule="evenodd" clip-rule="evenodd" d="M2.19629 233.185L158.16 397.289L158.802 396.508L2.83979 232.403L2.19629 233.185ZM6.23279 231.296L162.197 395.401L162.839 394.619L6.87629 230.516L6.23279 231.296ZM166.236 393.512L10.2738 229.408L10.9158 228.628L166.88 392.732L166.236 393.512ZM14.3133 227.521L170.277 391.624L170.919 390.844L14.9568 226.739L14.3133 227.521ZM174.314 389.737L18.3498 225.632L18.9933 224.851L174.956 388.955L174.314 389.737ZM22.3908 223.744L178.353 387.848L178.997 387.067L23.0328 222.962L22.3908 223.744ZM182.391 385.96L26.4273 221.855L27.0693 221.074L183.033 385.178L182.391 385.96ZM30.4668 219.967L186.431 384.071L187.073 383.29L31.1103 219.187L30.4668 219.967ZM190.467 382.183L34.5048 218.078L35.1468 217.298L191.109 381.401L190.467 382.183ZM38.5443 216.19L194.507 380.294L195.15 379.514L39.1863 215.41L38.5443 216.19ZM198.545 378.406L42.5808 214.303L43.2228 213.521L199.187 377.626L198.545 378.406ZM46.6218 212.414L202.584 376.519L203.226 375.737L47.2638 211.633L46.6218 212.414ZM206.621 374.63L50.6583 210.526L51.3003 209.744L207.263 373.849L206.621 374.63ZM54.6978 208.637L210.662 372.742L211.304 371.96L55.3398 207.856L54.6978 208.637ZM214.698 370.853L58.7343 206.749L59.3778 205.967L215.34 370.072L214.698 370.853ZM62.7753 204.86L218.738 368.965L219.38 368.183L63.4173 204.08L62.7753 204.86ZM222.774 367.076L66.8118 202.973L67.4538 202.192L223.418 366.296L222.774 367.076ZM70.8513 201.085L226.815 365.188L227.457 364.408L71.4933 200.303L70.8513 201.085ZM230.852 363.301L74.8878 199.196L75.5313 198.415L231.494 362.519L230.852 363.301ZM78.9288 197.308L234.891 361.412L235.533 360.631L79.5708 196.526L78.9288 197.308ZM238.928 359.524L82.9653 195.419L83.6073 194.638L239.571 358.742L238.928 359.524ZM87.0048 193.531L242.969 357.635L243.611 356.854L87.6483 192.749L87.0048 193.531ZM247.008 355.747L91.0458 191.642L91.6878 190.862L247.65 354.965L247.008 355.747ZM95.0823 189.754L251.045 353.858L251.688 353.078L95.7243 188.974L95.0823 189.754ZM255.086 351.97L99.1218 187.867L99.7638 187.085L255.728 351.19L255.086 351.97ZM103.158 185.978L259.122 350.083L259.764 349.301L103.802 185.197L103.158 185.978Z" fill="white"/>
</g>
<circle opacity="0.3" cx="451.88" cy="143.123" r="78.8773" fill="white"/>
<path fill-rule="evenodd" clip-rule="evenodd" d="M48.5328 831.453C49.3195 832.24 49.2914 833.543 48.47 834.365C47.6486 835.186 46.3451 835.215 45.5584 834.428C44.7717 833.641 44.7998 832.338 45.6212 831.516C46.4426 830.695 47.7462 830.667 48.5328 831.453ZM56.1821 823.805C56.9688 824.591 56.9407 825.895 56.1193 826.716C55.2979 827.537 53.9943 827.565 53.2076 826.779C52.421 825.992 52.4491 824.689 53.2705 823.867C54.0919 823.046 55.3955 823.018 56.1821 823.805ZM63.8313 816.155C64.6179 816.942 64.5897 818.246 63.7682 819.067C62.9472 819.888 61.6435 819.916 60.8568 819.13C60.0701 818.343 60.0983 817.039 60.9196 816.218C61.741 815.396 63.0446 815.369 63.8313 816.155ZM71.4804 808.506C72.2671 809.293 72.2389 810.596 71.4173 811.418C70.5964 812.239 69.2923 812.267 68.5056 811.481C67.719 810.694 67.7472 809.39 68.5687 808.569C69.3903 807.748 70.6938 807.72 71.4804 808.506ZM79.1296 800.857C79.9163 801.644 79.8881 802.947 79.0665 803.769C78.2456 804.59 76.9415 804.618 76.1548 803.831C75.3681 803.045 75.3964 801.741 76.2179 800.92C77.0394 800.099 78.343 800.07 79.1296 800.857ZM86.7788 793.208C87.5655 793.995 87.5372 795.298 86.7157 796.12C85.8942 796.941 84.5907 796.969 83.804 796.182C83.0173 795.396 83.0456 794.092 83.8671 793.27C84.6886 792.45 85.9921 792.421 86.7788 793.208ZM94.3649 788.471C95.1864 787.649 95.2147 786.345 94.428 785.559C93.6413 784.772 92.3378 784.8 91.5163 785.622C90.6947 786.443 90.6665 787.746 91.4532 788.533C92.2399 789.32 93.5434 789.292 94.3649 788.471ZM86.7674 780.873C87.5889 780.052 87.6172 778.748 86.8299 777.961C86.0432 777.175 84.7397 777.202 83.9188 778.024C83.0973 778.845 83.069 780.149 83.8557 780.936C84.6424 781.722 85.9459 781.694 86.7674 780.873ZM79.2336 770.364C80.0203 771.151 79.992 772.455 79.1705 773.276C78.349 774.097 77.0455 774.125 76.2588 773.339C75.4721 772.552 75.5004 771.248 76.3219 770.427C77.1428 769.606 78.4469 769.578 79.2336 770.364ZM71.573 765.678C72.3939 764.857 72.4222 763.553 71.6355 762.766C70.8488 761.98 69.5453 762.008 68.7238 762.829C67.9029 763.651 67.8746 764.955 68.6613 765.741C69.448 766.528 70.7515 766.5 71.573 765.678ZM64.038 755.169C64.8247 755.956 64.7964 757.259 63.9749 758.081C63.154 758.902 61.8502 758.93 61.0635 758.144C60.2768 757.357 60.3049 756.053 61.1263 755.232C61.9477 754.41 63.2513 754.382 64.038 755.169ZM56.3782 750.484C57.1997 749.662 57.2278 748.359 56.4411 747.572C55.6544 746.785 54.3509 746.814 53.5295 747.635C52.7081 748.457 52.68 749.76 53.4667 750.547C54.2533 751.333 55.5569 751.305 56.3782 750.484ZM79.1182 788.522C79.9397 787.701 79.968 786.397 79.1813 785.61C78.3946 784.824 77.0905 784.851 76.2696 785.673C75.4481 786.495 75.4198 787.798 76.2065 788.585C76.9932 789.371 78.2967 789.343 79.1182 788.522ZM71.5844 778.014C72.3711 778.8 72.3428 780.104 71.5213 780.925C70.6998 781.746 69.3963 781.774 68.6096 780.988C67.8229 780.201 67.8512 778.898 68.6727 778.076C69.4936 777.255 70.7977 777.227 71.5844 778.014ZM63.9238 773.327C64.7447 772.506 64.773 771.202 63.9863 770.416C63.1996 769.629 61.8963 769.657 61.0748 770.479C60.2535 771.3 60.2253 772.604 61.012 773.39C61.7987 774.177 63.1023 774.149 63.9238 773.327ZM56.3888 762.818C57.1755 763.605 57.1474 764.908 56.326 765.73C55.5046 766.551 54.201 766.579 53.4143 765.792C52.6276 765.006 52.6558 763.702 53.4772 762.881C54.2986 762.06 55.6021 762.031 56.3888 762.818ZM48.7291 758.133C49.5505 757.311 49.5787 756.008 48.792 755.221C48.0053 754.435 46.7017 754.463 45.8803 755.284C45.0589 756.105 45.0308 757.409 45.8175 758.195C46.6041 758.982 47.9078 758.954 48.7291 758.133ZM71.469 796.171C72.2906 795.35 72.3188 794.046 71.5321 793.26C70.7455 792.472 69.4413 792.501 68.6204 793.322C67.7989 794.144 67.7706 795.447 68.5573 796.234C69.344 797.021 70.6475 796.992 71.469 796.171ZM63.9352 785.663C64.7219 786.449 64.6937 787.753 63.8721 788.574C63.0506 789.395 61.7472 789.424 60.9605 788.637C60.1739 787.85 60.202 786.547 61.0234 785.725C61.8448 784.904 63.1486 784.876 63.9352 785.663ZM56.2745 780.976C57.0959 780.155 57.124 778.851 56.3373 778.065C55.5506 777.278 54.2471 777.306 53.4257 778.128C52.6043 778.949 52.5762 780.253 53.3629 781.04C54.1495 781.826 55.4531 781.798 56.2745 780.976ZM48.7397 770.467C49.5264 771.254 49.4982 772.557 48.6768 773.379C47.8554 774.2 46.5519 774.228 45.7652 773.441C44.9785 772.655 45.0066 771.351 45.828 770.53C46.6494 769.709 47.953 769.681 48.7397 770.467ZM41.08 765.782C41.9014 764.961 41.9295 763.657 41.1429 762.87C40.3562 762.084 39.0526 762.112 38.2312 762.933C37.4098 763.754 37.3817 765.058 38.1684 765.845C38.955 766.632 40.2586 766.604 41.08 765.782ZM63.8198 803.82C64.6414 802.999 64.6696 801.695 63.8829 800.908C63.0963 800.122 61.7925 800.15 60.9711 800.971C60.1497 801.793 60.1216 803.096 60.9083 803.883C61.695 804.67 62.9983 804.641 63.8198 803.82ZM56.2859 793.312C57.0726 794.099 57.0444 795.402 56.2231 796.223C55.4017 797.045 54.0981 797.073 53.3114 796.286C52.5247 795.499 52.5529 794.196 53.3742 793.374C54.1956 792.553 55.4992 792.525 56.2859 793.312ZM48.6254 788.626C49.4467 787.804 49.4749 786.501 48.6882 785.714C47.9015 784.927 46.598 784.955 45.7766 785.777C44.9552 786.598 44.9271 787.902 45.7137 788.689C46.5004 789.475 47.804 789.447 48.6254 788.626ZM41.0905 778.116C41.8772 778.903 41.8491 780.207 41.0277 781.028C40.2063 781.85 38.9027 781.877 38.1161 781.091C37.3294 780.304 37.3575 779 38.1789 778.179C39.0003 777.358 40.3038 777.33 41.0905 778.116ZM33.4309 773.431C34.2522 772.61 34.2804 771.306 33.4937 770.52C32.707 769.733 31.4034 769.761 30.5821 770.583C29.7607 771.404 29.7326 772.707 30.5192 773.494C31.3059 774.28 32.6095 774.253 33.4309 773.431ZM56.1708 811.469C56.9922 810.648 57.0203 809.344 56.2337 808.557C55.447 807.771 54.1433 807.799 53.3219 808.62C52.5006 809.442 52.4725 810.746 53.2591 811.532C54.0458 812.319 55.3494 812.291 56.1708 811.469ZM48.6368 800.96C49.4234 801.747 49.3953 803.051 48.574 803.872C47.7525 804.694 46.449 804.722 45.6623 803.935C44.8756 803.149 44.9038 801.845 45.7251 801.024C46.5465 800.202 47.8501 800.174 48.6368 800.96ZM40.9762 796.275C41.7976 795.453 41.8258 794.15 41.0391 793.363C40.2524 792.576 38.9488 792.605 38.1274 793.426C37.3061 794.247 37.278 795.551 38.0646 796.338C38.8513 797.124 40.1549 797.096 40.9762 796.275ZM33.4414 785.766C34.2281 786.552 34.2 787.856 33.3786 788.677C32.5572 789.498 31.2536 789.526 30.4669 788.74C29.6803 787.953 29.7084 786.65 30.5298 785.828C31.3512 785.007 32.6547 784.979 33.4414 785.766ZM25.7817 781.08C26.6031 780.259 26.6312 778.955 25.8446 778.169C25.0579 777.382 23.7543 777.41 22.9329 778.231C22.1116 779.053 22.0834 780.356 22.8701 781.143C23.6568 781.93 24.9604 781.902 25.7817 781.08ZM48.5217 819.118C49.3431 818.297 49.3712 816.993 48.5845 816.207C47.7978 815.42 46.4942 815.448 45.6728 816.27C44.8514 817.091 44.8233 818.395 45.61 819.181C46.3967 819.968 47.7003 819.94 48.5217 819.118ZM40.9876 808.61C41.7743 809.396 41.7462 810.7 40.9248 811.521C40.1034 812.343 38.7998 812.371 38.0131 811.584C37.2264 810.798 37.2546 809.494 38.076 808.673C38.8973 807.851 40.201 807.823 40.9876 808.61ZM33.3271 803.924C34.1485 803.102 34.1766 801.799 33.39 801.012C32.6033 800.226 31.2997 800.254 30.4783 801.075C29.6569 801.896 29.6288 803.2 30.4154 803.986C31.2021 804.773 32.5057 804.745 33.3271 803.924ZM25.7923 793.415C26.579 794.201 26.5508 795.505 25.7294 796.326C24.9081 797.147 23.6044 797.176 22.8178 796.389C22.0311 795.602 22.0592 794.299 22.8806 793.477C23.702 792.656 25.0056 792.628 25.7923 793.415ZM18.1326 788.73C18.954 787.908 18.9821 786.604 18.1954 785.818C17.4088 785.031 16.1052 785.059 15.2838 785.88C14.4624 786.702 14.4343 788.005 15.2209 788.792C16.0076 789.579 17.3112 789.55 18.1326 788.73ZM40.873 826.768C41.6943 825.946 41.7224 824.643 40.9358 823.856C40.1491 823.07 38.8455 823.098 38.0241 823.919C37.2027 824.74 37.1746 826.044 37.9613 826.831C38.748 827.617 40.0516 827.59 40.873 826.768ZM33.3382 816.259C34.1248 817.045 34.0967 818.349 33.2754 819.171C32.4539 819.991 31.1504 820.02 30.3637 819.233C29.577 818.446 29.6052 817.143 30.4266 816.321C31.2479 815.5 32.5515 815.472 33.3382 816.259ZM25.6782 811.573C26.4996 810.752 26.5277 809.448 25.741 808.661C24.9543 807.875 23.6508 807.903 22.8294 808.724C22.008 809.546 21.9799 810.849 22.7666 811.636C23.5532 812.423 24.8568 812.395 25.6782 811.573ZM18.1435 801.064C18.9302 801.851 18.9021 803.154 18.0807 803.976C17.2593 804.797 15.9557 804.825 15.169 804.039C14.3823 803.252 14.4105 801.948 15.2319 801.127C16.0532 800.305 17.3568 800.277 18.1435 801.064ZM10.4837 796.379C11.3051 795.557 11.3332 794.254 10.5466 793.467C9.75989 792.68 8.45632 792.709 7.63492 793.53C6.81354 794.351 6.78541 795.655 7.57208 796.442C8.35879 797.228 9.66236 797.2 10.4837 796.379Z" fill="white"/>
</g>
<defs>
<linearGradient id="paint0_linear" x1="-300" y1="400" x2="468" y2="976" gradientUnits="userSpaceOnUse">
<stop stop-color="#FF8D1A"/>
<stop offset="1" stop-color="#E17407"/>
</linearGradient>
</defs>
</svg>
