<svg width="330" height="200" viewBox="0 0 330 200" fill="none" xmlns="http://www.w3.org/2000/svg">
<rect width="330" height="200" rx="12" fill="url(#paint0_linear)"/>
<mask id="mask0" mask-type="alpha" maskUnits="userSpaceOnUse" x="0" y="0" width="330" height="200">
<rect width="330" height="200" rx="12" fill="white"/>
</mask>
<g mask="url(#mask0)">
<g opacity="0.2">
<path d="M244.033 14.0671C234.629 14.0671 227 6.44047 227 -2.9669C227 -12.3743 234.629 -20 244.033 -20C253.44 -20 261.066 -12.3733 261.066 -2.9669C261.066 6.43949 268.694 14.0671 278.1 14.0671C287.507 14.0671 295.133 6.44047 295.133 -2.96592C295.133 -12.3723 302.761 -20 312.168 -20C321.574 -20 329.201 -12.3733 329.201 -2.9669C329.201 6.43949 321.574 14.0661 312.168 14.0661C283.942 14.0661 261.067 36.951 261.067 65.1655C261.067 74.5672 253.44 82.1986 244.034 82.1986C234.628 82.1986 227 74.5735 227 65.1676C227 55.7609 234.627 48.1332 244.033 48.1332C253.44 48.1332 261.064 40.5066 261.064 31.1002C261.064 21.6938 253.44 14.0671 244.033 14.0671Z" fill="#F6F7F9"/>
<path d="M273.842 54.5201C273.842 39.2248 286.232 26.8408 301.522 26.8408C316.813 26.8418 329.201 39.2248 329.201 54.5201C329.201 69.8084 316.813 82.2005 301.52 82.2005C286.23 82.2005 273.842 69.8084 273.842 54.5201Z" fill="#F6F7F9"/>
</g>
</g>
<defs>
<linearGradient id="paint0_linear" x1="0" y1="200" x2="330" y2="200" gradientUnits="userSpaceOnUse">
<stop stop-color="#C593F9"/>
<stop offset="1" stop-color="#AB63F4"/>
</linearGradient>
</defs>
</svg>
