<svg width="330" height="200" viewBox="0 0 330 200" fill="none" xmlns="http://www.w3.org/2000/svg">
<rect width="330" height="200" rx="12" fill="url(#paint0_linear)"/>
<mask id="mask0" mask-type="alpha" maskUnits="userSpaceOnUse" x="0" y="0" width="330" height="200">
<rect width="330" height="200" rx="12" fill="white"/>
</mask>
<g mask="url(#mask0)">
<g opacity="0.2">
<path d="M339.4 68.5843C339.4 79.4721 330.412 88.3005 319.331 88.3005C308.25 88.3005 299.269 79.4721 299.269 68.5843C299.269 57.6944 308.25 48.8677 319.331 48.8677C330.412 48.8677 339.4 57.6944 339.4 68.5843Z" fill="#F6F7F9"/>
<path d="M314.319 21.7558C314.319 31.2846 306.458 39.0082 296.756 39.0082C287.061 39.0082 279.2 31.2846 279.2 21.7558C279.2 12.2282 287.061 4.50342 296.756 4.50342C306.458 4.50342 314.319 12.2282 314.319 21.7558Z" fill="#F6F7F9"/>
<path d="M279.2 58.7241C279.2 75.0586 265.725 88.2998 249.1 88.2998C232.475 88.2998 219 75.0586 219 58.7241C219 42.3904 232.475 29.1499 249.1 29.1499C265.725 29.1499 279.2 42.3904 279.2 58.7241Z" fill="#F6F7F9"/>
<path d="M269.169 -5.35342C269.169 8.25829 257.934 19.2932 244.081 19.2932C230.228 19.2932 219 8.25829 219 -5.35342C219 -18.9651 230.228 -30 244.081 -30C257.934 -30 269.169 -18.9651 269.169 -5.35342Z" fill="#F6F7F9"/>
<path d="M334.381 34.0779C334.381 36.8002 332.134 39.007 329.369 39.007C326.597 39.007 324.35 36.8002 324.35 34.0779C324.35 31.3567 326.597 29.1499 329.369 29.1499C332.134 29.1499 334.381 31.3567 334.381 34.0779Z" fill="#F6F7F9"/>
</g>
</g>
<defs>
<linearGradient id="paint0_linear" x1="0" y1="200" x2="330" y2="200" gradientUnits="userSpaceOnUse">
<stop stop-color="#F4B582"/>
<stop offset="1" stop-color="#EE8892"/>
</linearGradient>
</defs>
</svg>
