<svg width="1440" height="170" viewBox="0 0 1440 170" fill="none" xmlns="http://www.w3.org/2000/svg">
<rect width="1441" height="170" fill="#8950FC"/>
<mask id="mask0" mask-type="alpha" maskUnits="userSpaceOnUse" x="0" y="0" width="1441" height="170">
<rect width="1441" height="170" fill="white"/>
</mask>
<g mask="url(#mask0)">
<path opacity="0.3" fill-rule="evenodd" clip-rule="evenodd" d="M63.9781 14.2354C65.0947 14.2354 66 13.2874 66 12.118C66 10.948 65.0947 10 63.9781 10C62.8556 10 61.9503 10.948 61.9503 12.118C61.9503 13.2874 62.8556 14.2354 63.9781 14.2354ZM63.9781 25.5298C65.0947 25.5298 66 24.5812 66 23.4118C66 22.2424 65.0947 21.2944 63.9781 21.2944C62.8616 21.2944 61.9503 22.2424 61.9503 23.4118C61.9503 24.5812 62.8616 25.5298 63.9781 25.5298ZM63.9781 36.8236C65.0947 36.8236 66 35.8756 66 34.7062C66 33.5362 65.0947 32.5882 63.9781 32.5882C62.8616 32.5882 61.9503 33.5362 61.9503 34.7062C61.9503 35.8756 62.8616 36.8236 63.9781 36.8236ZM63.9781 48.118C65.0947 48.118 66 47.1694 66 46C66 44.8306 65.0947 43.8826 63.9781 43.8826C62.8616 43.8826 61.9503 44.8306 61.9503 46C61.9503 47.1694 62.8616 48.118 63.9781 48.118ZM63.9781 59.4118C65.0947 59.4118 66 58.4638 66 57.2944C66 56.1244 65.0947 55.1764 63.9781 55.1764C62.8616 55.1764 61.9503 56.1244 61.9503 57.2944C61.9503 58.4638 62.8616 59.4118 63.9781 59.4118ZM63.9781 70.7062C65.0947 70.7062 66 69.7576 66 68.5882C66 67.4188 65.0947 66.4708 63.9781 66.4708C62.8616 66.4708 61.9503 67.4188 61.9503 68.5882C61.9503 69.7576 62.8616 70.7062 63.9781 70.7062ZM42.6189 81.9874C43.7355 81.9874 44.6408 81.0394 44.6408 79.87C44.6408 78.7006 43.7355 77.752 42.6189 77.752C41.4964 77.752 40.591 78.7006 40.591 79.87C40.591 81.0394 41.4964 81.9874 42.6189 81.9874ZM55.2087 79.8826C55.2087 81.052 54.3034 82 53.1869 82C52.0703 82 51.165 81.052 51.165 79.8826C51.165 78.7132 52.0703 77.7646 53.1869 77.7646C54.3034 77.7646 55.2087 78.7132 55.2087 79.8826ZM66 79.8826C66 81.052 65.0947 82 63.9781 82C62.8616 82 61.9503 81.052 61.9503 79.8826C61.9503 78.7132 62.8616 77.7646 63.9781 77.7646C65.0947 77.7646 66 78.7132 66 79.8826ZM33.6323 79.8826C33.6323 81.052 32.7209 82 31.6044 82C30.4878 82 29.5825 81.052 29.5825 79.8826C29.5825 78.7132 30.4878 77.7646 31.6044 77.7646C32.7209 77.7646 33.6323 78.7132 33.6323 79.8826ZM20.8131 82C21.9357 82 22.841 81.052 22.841 79.8826C22.841 78.7132 21.9357 77.7646 20.8131 77.7646C19.6966 77.7646 18.7913 78.7132 18.7913 79.8826C18.7913 81.052 19.6966 82 20.8131 82ZM12.0497 79.8826C12.0497 81.052 11.1444 82 10.0279 82C8.90531 82 8 81.052 8 79.8826C8 78.7132 8.90531 77.7646 10.0279 77.7646C11.1444 77.7646 12.0497 78.7132 12.0497 79.8826ZM55.2087 68.5882C55.2087 69.7576 54.3034 70.7062 53.1869 70.7062C52.0703 70.7062 51.165 69.7576 51.165 68.5882C51.165 67.4188 52.0703 66.4708 53.1869 66.4708C54.3034 66.4708 55.2087 67.4188 55.2087 68.5882ZM42.3956 70.7062C43.5122 70.7062 44.4175 69.7576 44.4175 68.5882C44.4175 67.4188 43.5122 66.4708 42.3956 66.4708C41.2791 66.4708 40.3738 67.4188 40.3738 68.5882C40.3738 69.7576 41.2791 70.7062 42.3956 70.7062ZM33.6323 68.5882C33.6323 69.7576 32.7209 70.7062 31.6044 70.7062C30.4878 70.7062 29.5825 69.7576 29.5825 68.5882C29.5825 67.4188 30.4878 66.4708 31.6044 66.4708C32.7209 66.4708 33.6323 67.4188 33.6323 68.5882ZM20.8131 70.7062C21.9357 70.7062 22.841 69.7576 22.841 68.5882C22.841 67.4188 21.9357 66.4708 20.8131 66.4708C19.6966 66.4708 18.7913 67.4188 18.7913 68.5882C18.7913 69.7576 19.6966 70.7062 20.8131 70.7062ZM12.0497 68.5882C12.0497 69.7576 11.1444 70.7062 10.0279 70.7062C8.90531 70.7062 8 69.7576 8 68.5882C8 67.4188 8.90531 66.4708 10.0279 66.4708C11.1444 66.4708 12.0497 67.4188 12.0497 68.5882ZM55.2087 57.2944C55.2087 58.4638 54.3034 59.4118 53.1869 59.4118C52.0703 59.4118 51.165 58.4638 51.165 57.2944C51.165 56.1244 52.0703 55.1764 53.1869 55.1764C54.3034 55.1764 55.2087 56.1244 55.2087 57.2944ZM42.3956 59.4118C43.5122 59.4118 44.4175 58.4638 44.4175 57.2944C44.4175 56.1244 43.5122 55.1764 42.3956 55.1764C41.2791 55.1764 40.3738 56.1244 40.3738 57.2944C40.3738 58.4638 41.2791 59.4118 42.3956 59.4118ZM33.6323 57.2944C33.6323 58.4638 32.7209 59.4118 31.6044 59.4118C30.4878 59.4118 29.5825 58.4638 29.5825 57.2944C29.5825 56.1244 30.4878 55.1764 31.6044 55.1764C32.7209 55.1764 33.6323 56.1244 33.6323 57.2944ZM20.8131 59.4118C21.9357 59.4118 22.841 58.4638 22.841 57.2944C22.841 56.1244 21.9357 55.1764 20.8131 55.1764C19.6966 55.1764 18.7913 56.1244 18.7913 57.2944C18.7913 58.4638 19.6966 59.4118 20.8131 59.4118ZM12.0497 57.2944C12.0497 58.4638 11.1444 59.4118 10.0279 59.4118C8.90531 59.4118 8 58.4638 8 57.2944C8 56.1244 8.90531 55.1764 10.0279 55.1764C11.1444 55.1764 12.0497 56.1244 12.0497 57.2944ZM55.2087 46C55.2087 47.1694 54.3034 48.118 53.1869 48.118C52.0703 48.118 51.165 47.1694 51.165 46C51.165 44.8306 52.0703 43.8826 53.1869 43.8826C54.3034 43.8826 55.2087 44.8306 55.2087 46ZM42.3956 48.118C43.5122 48.118 44.4175 47.1694 44.4175 46C44.4175 44.8306 43.5122 43.8826 42.3956 43.8826C41.2791 43.8826 40.3738 44.8306 40.3738 46C40.3738 47.1694 41.2791 48.118 42.3956 48.118ZM33.6323 46C33.6323 47.1694 32.7209 48.118 31.6044 48.118C30.4878 48.118 29.5825 47.1694 29.5825 46C29.5825 44.8306 30.4878 43.8826 31.6044 43.8826C32.7209 43.8826 33.6323 44.8306 33.6323 46ZM20.8131 48.118C21.9357 48.118 22.841 47.1694 22.841 46C22.841 44.8306 21.9357 43.8826 20.8131 43.8826C19.6966 43.8826 18.7913 44.8306 18.7913 46C18.7913 47.1694 19.6966 48.118 20.8131 48.118ZM12.0497 46C12.0497 47.1694 11.1444 48.118 10.0279 48.118C8.90531 48.118 8 47.1694 8 46C8 44.8306 8.90531 43.8826 10.0279 43.8826C11.1444 43.8826 12.0497 44.8306 12.0497 46ZM55.2087 34.7062C55.2087 35.8756 54.3034 36.8236 53.1869 36.8236C52.0703 36.8236 51.165 35.8756 51.165 34.7062C51.165 33.5362 52.0703 32.5882 53.1869 32.5882C54.3034 32.5882 55.2087 33.5362 55.2087 34.7062ZM42.3956 36.8236C43.5122 36.8236 44.4175 35.8756 44.4175 34.7062C44.4175 33.5362 43.5122 32.5882 42.3956 32.5882C41.2791 32.5882 40.3738 33.5362 40.3738 34.7062C40.3738 35.8756 41.2791 36.8236 42.3956 36.8236ZM33.6323 34.7062C33.6323 35.8756 32.7209 36.8236 31.6044 36.8236C30.4878 36.8236 29.5825 35.8756 29.5825 34.7062C29.5825 33.5362 30.4878 32.5882 31.6044 32.5882C32.7209 32.5882 33.6323 33.5362 33.6323 34.7062ZM20.8131 36.8236C21.9357 36.8236 22.841 35.8756 22.841 34.7062C22.841 33.5362 21.9357 32.5882 20.8131 32.5882C19.6966 32.5882 18.7913 33.5362 18.7913 34.7062C18.7913 35.8756 19.6966 36.8236 20.8131 36.8236ZM12.0497 34.7062C12.0497 35.8756 11.1444 36.8236 10.0279 36.8236C8.90531 36.8236 8 35.8756 8 34.7062C8 33.5362 8.90531 32.5882 10.0279 32.5882C11.1444 32.5882 12.0497 33.5362 12.0497 34.7062ZM55.2087 23.4118C55.2087 24.5812 54.3034 25.5298 53.1869 25.5298C52.0703 25.5298 51.165 24.5812 51.165 23.4118C51.165 22.2424 52.0703 21.2944 53.1869 21.2944C54.3034 21.2944 55.2087 22.2424 55.2087 23.4118ZM42.3956 25.5298C43.5122 25.5298 44.4175 24.5812 44.4175 23.4118C44.4175 22.2424 43.5122 21.2944 42.3956 21.2944C41.2791 21.2944 40.3738 22.2424 40.3738 23.4118C40.3738 24.5812 41.2791 25.5298 42.3956 25.5298ZM33.6323 23.4118C33.6323 24.5812 32.7209 25.5298 31.6044 25.5298C30.4878 25.5298 29.5825 24.5812 29.5825 23.4118C29.5825 22.2424 30.4878 21.2944 31.6044 21.2944C32.7209 21.2944 33.6323 22.2424 33.6323 23.4118ZM20.8131 25.5298C21.9357 25.5298 22.841 24.5812 22.841 23.4118C22.841 22.2424 21.9357 21.2944 20.8131 21.2944C19.6966 21.2944 18.7913 22.2424 18.7913 23.4118C18.7913 24.5812 19.6966 25.5298 20.8131 25.5298ZM12.0497 23.4118C12.0497 24.5812 11.1444 25.5298 10.0279 25.5298C8.90531 25.5298 8 24.5812 8 23.4118C8 22.2424 8.90531 21.2944 10.0279 21.2944C11.1444 21.2944 12.0497 22.2424 12.0497 23.4118ZM55.2087 12.118C55.2087 13.2874 54.3034 14.2354 53.1869 14.2354C52.0703 14.2354 51.165 13.2874 51.165 12.118C51.165 10.948 52.0703 10 53.1869 10C54.3034 10 55.2087 10.948 55.2087 12.118ZM42.3956 14.2354C43.5122 14.2354 44.4175 13.2874 44.4175 12.118C44.4175 10.948 43.5122 10 42.3956 10C41.2791 10 40.3738 10.948 40.3738 12.118C40.3738 13.2874 41.2791 14.2354 42.3956 14.2354ZM33.6323 12.118C33.6323 13.2874 32.7209 14.2354 31.6044 14.2354C30.4878 14.2354 29.5825 13.2874 29.5825 12.118C29.5825 10.948 30.4878 10 31.6044 10C32.7209 10 33.6323 10.948 33.6323 12.118ZM20.8131 14.2354C21.9357 14.2354 22.841 13.2874 22.841 12.118C22.841 10.948 21.9357 10 20.8131 10C19.6966 10 18.7913 10.948 18.7913 12.118C18.7913 13.2874 19.6966 14.2354 20.8131 14.2354ZM12.0497 12.118C12.0497 13.2874 11.1444 14.2354 10.0279 14.2354C8.90531 14.2354 8 13.2874 8 12.118C8 10.948 8.90531 10 10.0279 10C11.1444 10 12.0497 10.948 12.0497 12.118Z" fill="white"/>
<path opacity="0.3" fill-rule="evenodd" clip-rule="evenodd" d="M63.9781 92.2354C65.0947 92.2354 66 91.2874 66 90.118C66 88.948 65.0947 88 63.9781 88C62.8556 88 61.9503 88.948 61.9503 90.118C61.9503 91.2874 62.8556 92.2354 63.9781 92.2354ZM63.9781 103.53C65.0947 103.53 66 102.581 66 101.412C66 100.242 65.0947 99.2944 63.9781 99.2944C62.8616 99.2944 61.9503 100.242 61.9503 101.412C61.9503 102.581 62.8616 103.53 63.9781 103.53ZM63.9781 114.824C65.0947 114.824 66 113.876 66 112.706C66 111.536 65.0947 110.588 63.9781 110.588C62.8616 110.588 61.9503 111.536 61.9503 112.706C61.9503 113.876 62.8616 114.824 63.9781 114.824ZM63.9781 126.118C65.0947 126.118 66 125.169 66 124C66 122.831 65.0947 121.883 63.9781 121.883C62.8616 121.883 61.9503 122.831 61.9503 124C61.9503 125.169 62.8616 126.118 63.9781 126.118ZM63.9781 137.412C65.0947 137.412 66 136.464 66 135.294C66 134.124 65.0947 133.176 63.9781 133.176C62.8616 133.176 61.9503 134.124 61.9503 135.294C61.9503 136.464 62.8616 137.412 63.9781 137.412ZM63.9781 148.706C65.0947 148.706 66 147.758 66 146.588C66 145.419 65.0947 144.471 63.9781 144.471C62.8616 144.471 61.9503 145.419 61.9503 146.588C61.9503 147.758 62.8616 148.706 63.9781 148.706ZM42.6189 159.987C43.7355 159.987 44.6408 159.039 44.6408 157.87C44.6408 156.701 43.7355 155.752 42.6189 155.752C41.4964 155.752 40.591 156.701 40.591 157.87C40.591 159.039 41.4964 159.987 42.6189 159.987ZM55.2087 157.883C55.2087 159.052 54.3034 160 53.1869 160C52.0703 160 51.165 159.052 51.165 157.883C51.165 156.713 52.0703 155.765 53.1869 155.765C54.3034 155.765 55.2087 156.713 55.2087 157.883ZM66 157.883C66 159.052 65.0947 160 63.9781 160C62.8616 160 61.9503 159.052 61.9503 157.883C61.9503 156.713 62.8616 155.765 63.9781 155.765C65.0947 155.765 66 156.713 66 157.883ZM33.6323 157.883C33.6323 159.052 32.7209 160 31.6044 160C30.4878 160 29.5825 159.052 29.5825 157.883C29.5825 156.713 30.4878 155.765 31.6044 155.765C32.7209 155.765 33.6323 156.713 33.6323 157.883ZM20.8131 160C21.9357 160 22.841 159.052 22.841 157.883C22.841 156.713 21.9357 155.765 20.8131 155.765C19.6966 155.765 18.7913 156.713 18.7913 157.883C18.7913 159.052 19.6966 160 20.8131 160ZM12.0497 157.883C12.0497 159.052 11.1444 160 10.0279 160C8.90531 160 8 159.052 8 157.883C8 156.713 8.90531 155.765 10.0279 155.765C11.1444 155.765 12.0497 156.713 12.0497 157.883ZM55.2087 146.588C55.2087 147.758 54.3034 148.706 53.1869 148.706C52.0703 148.706 51.165 147.758 51.165 146.588C51.165 145.419 52.0703 144.471 53.1869 144.471C54.3034 144.471 55.2087 145.419 55.2087 146.588ZM42.3956 148.706C43.5122 148.706 44.4175 147.758 44.4175 146.588C44.4175 145.419 43.5122 144.471 42.3956 144.471C41.2791 144.471 40.3738 145.419 40.3738 146.588C40.3738 147.758 41.2791 148.706 42.3956 148.706ZM33.6323 146.588C33.6323 147.758 32.7209 148.706 31.6044 148.706C30.4878 148.706 29.5825 147.758 29.5825 146.588C29.5825 145.419 30.4878 144.471 31.6044 144.471C32.7209 144.471 33.6323 145.419 33.6323 146.588ZM20.8131 148.706C21.9357 148.706 22.841 147.758 22.841 146.588C22.841 145.419 21.9357 144.471 20.8131 144.471C19.6966 144.471 18.7913 145.419 18.7913 146.588C18.7913 147.758 19.6966 148.706 20.8131 148.706ZM12.0497 146.588C12.0497 147.758 11.1444 148.706 10.0279 148.706C8.90531 148.706 8 147.758 8 146.588C8 145.419 8.90531 144.471 10.0279 144.471C11.1444 144.471 12.0497 145.419 12.0497 146.588ZM55.2087 135.294C55.2087 136.464 54.3034 137.412 53.1869 137.412C52.0703 137.412 51.165 136.464 51.165 135.294C51.165 134.124 52.0703 133.176 53.1869 133.176C54.3034 133.176 55.2087 134.124 55.2087 135.294ZM42.3956 137.412C43.5122 137.412 44.4175 136.464 44.4175 135.294C44.4175 134.124 43.5122 133.176 42.3956 133.176C41.2791 133.176 40.3738 134.124 40.3738 135.294C40.3738 136.464 41.2791 137.412 42.3956 137.412ZM33.6323 135.294C33.6323 136.464 32.7209 137.412 31.6044 137.412C30.4878 137.412 29.5825 136.464 29.5825 135.294C29.5825 134.124 30.4878 133.176 31.6044 133.176C32.7209 133.176 33.6323 134.124 33.6323 135.294ZM20.8131 137.412C21.9357 137.412 22.841 136.464 22.841 135.294C22.841 134.124 21.9357 133.176 20.8131 133.176C19.6966 133.176 18.7913 134.124 18.7913 135.294C18.7913 136.464 19.6966 137.412 20.8131 137.412ZM12.0497 135.294C12.0497 136.464 11.1444 137.412 10.0279 137.412C8.90531 137.412 8 136.464 8 135.294C8 134.124 8.90531 133.176 10.0279 133.176C11.1444 133.176 12.0497 134.124 12.0497 135.294ZM55.2087 124C55.2087 125.169 54.3034 126.118 53.1869 126.118C52.0703 126.118 51.165 125.169 51.165 124C51.165 122.831 52.0703 121.883 53.1869 121.883C54.3034 121.883 55.2087 122.831 55.2087 124ZM42.3956 126.118C43.5122 126.118 44.4175 125.169 44.4175 124C44.4175 122.831 43.5122 121.883 42.3956 121.883C41.2791 121.883 40.3738 122.831 40.3738 124C40.3738 125.169 41.2791 126.118 42.3956 126.118ZM33.6323 124C33.6323 125.169 32.7209 126.118 31.6044 126.118C30.4878 126.118 29.5825 125.169 29.5825 124C29.5825 122.831 30.4878 121.883 31.6044 121.883C32.7209 121.883 33.6323 122.831 33.6323 124ZM20.8131 126.118C21.9357 126.118 22.841 125.169 22.841 124C22.841 122.831 21.9357 121.883 20.8131 121.883C19.6966 121.883 18.7913 122.831 18.7913 124C18.7913 125.169 19.6966 126.118 20.8131 126.118ZM12.0497 124C12.0497 125.169 11.1444 126.118 10.0279 126.118C8.90531 126.118 8 125.169 8 124C8 122.831 8.90531 121.883 10.0279 121.883C11.1444 121.883 12.0497 122.831 12.0497 124ZM55.2087 112.706C55.2087 113.876 54.3034 114.824 53.1869 114.824C52.0703 114.824 51.165 113.876 51.165 112.706C51.165 111.536 52.0703 110.588 53.1869 110.588C54.3034 110.588 55.2087 111.536 55.2087 112.706ZM42.3956 114.824C43.5122 114.824 44.4175 113.876 44.4175 112.706C44.4175 111.536 43.5122 110.588 42.3956 110.588C41.2791 110.588 40.3738 111.536 40.3738 112.706C40.3738 113.876 41.2791 114.824 42.3956 114.824ZM33.6323 112.706C33.6323 113.876 32.7209 114.824 31.6044 114.824C30.4878 114.824 29.5825 113.876 29.5825 112.706C29.5825 111.536 30.4878 110.588 31.6044 110.588C32.7209 110.588 33.6323 111.536 33.6323 112.706ZM20.8131 114.824C21.9357 114.824 22.841 113.876 22.841 112.706C22.841 111.536 21.9357 110.588 20.8131 110.588C19.6966 110.588 18.7913 111.536 18.7913 112.706C18.7913 113.876 19.6966 114.824 20.8131 114.824ZM12.0497 112.706C12.0497 113.876 11.1444 114.824 10.0279 114.824C8.90531 114.824 8 113.876 8 112.706C8 111.536 8.90531 110.588 10.0279 110.588C11.1444 110.588 12.0497 111.536 12.0497 112.706ZM55.2087 101.412C55.2087 102.581 54.3034 103.53 53.1869 103.53C52.0703 103.53 51.165 102.581 51.165 101.412C51.165 100.242 52.0703 99.2944 53.1869 99.2944C54.3034 99.2944 55.2087 100.242 55.2087 101.412ZM42.3956 103.53C43.5122 103.53 44.4175 102.581 44.4175 101.412C44.4175 100.242 43.5122 99.2944 42.3956 99.2944C41.2791 99.2944 40.3738 100.242 40.3738 101.412C40.3738 102.581 41.2791 103.53 42.3956 103.53ZM33.6323 101.412C33.6323 102.581 32.7209 103.53 31.6044 103.53C30.4878 103.53 29.5825 102.581 29.5825 101.412C29.5825 100.242 30.4878 99.2944 31.6044 99.2944C32.7209 99.2944 33.6323 100.242 33.6323 101.412ZM20.8131 103.53C21.9357 103.53 22.841 102.581 22.841 101.412C22.841 100.242 21.9357 99.2944 20.8131 99.2944C19.6966 99.2944 18.7913 100.242 18.7913 101.412C18.7913 102.581 19.6966 103.53 20.8131 103.53ZM12.0497 101.412C12.0497 102.581 11.1444 103.53 10.0279 103.53C8.90531 103.53 8 102.581 8 101.412C8 100.242 8.90531 99.2944 10.0279 99.2944C11.1444 99.2944 12.0497 100.242 12.0497 101.412ZM55.2087 90.118C55.2087 91.2874 54.3034 92.2354 53.1869 92.2354C52.0703 92.2354 51.165 91.2874 51.165 90.118C51.165 88.948 52.0703 88 53.1869 88C54.3034 88 55.2087 88.948 55.2087 90.118ZM42.3956 92.2354C43.5122 92.2354 44.4175 91.2874 44.4175 90.118C44.4175 88.948 43.5122 88 42.3956 88C41.2791 88 40.3738 88.948 40.3738 90.118C40.3738 91.2874 41.2791 92.2354 42.3956 92.2354ZM33.6323 90.118C33.6323 91.2874 32.7209 92.2354 31.6044 92.2354C30.4878 92.2354 29.5825 91.2874 29.5825 90.118C29.5825 88.948 30.4878 88 31.6044 88C32.7209 88 33.6323 88.948 33.6323 90.118ZM20.8131 92.2354C21.9357 92.2354 22.841 91.2874 22.841 90.118C22.841 88.948 21.9357 88 20.8131 88C19.6966 88 18.7913 88.948 18.7913 90.118C18.7913 91.2874 19.6966 92.2354 20.8131 92.2354ZM12.0497 90.118C12.0497 91.2874 11.1444 92.2354 10.0279 92.2354C8.90531 92.2354 8 91.2874 8 90.118C8 88.948 8.90531 88 10.0279 88C11.1444 88 12.0497 88.948 12.0497 90.118Z" fill="white"/>
<path opacity="0.3" fill-rule="evenodd" clip-rule="evenodd" d="M128.978 14.2354C130.095 14.2354 131 13.2874 131 12.118C131 10.948 130.095 10 128.978 10C127.856 10 126.95 10.948 126.95 12.118C126.95 13.2874 127.856 14.2354 128.978 14.2354ZM128.978 25.5298C130.095 25.5298 131 24.5812 131 23.4118C131 22.2424 130.095 21.2944 128.978 21.2944C127.862 21.2944 126.95 22.2424 126.95 23.4118C126.95 24.5812 127.862 25.5298 128.978 25.5298ZM128.978 36.8236C130.095 36.8236 131 35.8756 131 34.7062C131 33.5362 130.095 32.5882 128.978 32.5882C127.862 32.5882 126.95 33.5362 126.95 34.7062C126.95 35.8756 127.862 36.8236 128.978 36.8236ZM128.978 48.118C130.095 48.118 131 47.1694 131 46C131 44.8306 130.095 43.8826 128.978 43.8826C127.862 43.8826 126.95 44.8306 126.95 46C126.95 47.1694 127.862 48.118 128.978 48.118ZM128.978 59.4118C130.095 59.4118 131 58.4638 131 57.2944C131 56.1244 130.095 55.1764 128.978 55.1764C127.862 55.1764 126.95 56.1244 126.95 57.2944C126.95 58.4638 127.862 59.4118 128.978 59.4118ZM128.978 70.7062C130.095 70.7062 131 69.7576 131 68.5882C131 67.4188 130.095 66.4708 128.978 66.4708C127.862 66.4708 126.95 67.4188 126.95 68.5882C126.95 69.7576 127.862 70.7062 128.978 70.7062ZM107.619 81.9874C108.735 81.9874 109.641 81.0394 109.641 79.87C109.641 78.7006 108.735 77.752 107.619 77.752C106.496 77.752 105.591 78.7006 105.591 79.87C105.591 81.0394 106.496 81.9874 107.619 81.9874ZM120.209 79.8826C120.209 81.052 119.303 82 118.187 82C117.07 82 116.165 81.052 116.165 79.8826C116.165 78.7132 117.07 77.7646 118.187 77.7646C119.303 77.7646 120.209 78.7132 120.209 79.8826ZM131 79.8826C131 81.052 130.095 82 128.978 82C127.862 82 126.95 81.052 126.95 79.8826C126.95 78.7132 127.862 77.7646 128.978 77.7646C130.095 77.7646 131 78.7132 131 79.8826ZM98.6323 79.8826C98.6323 81.052 97.7209 82 96.6044 82C95.4878 82 94.5825 81.052 94.5825 79.8826C94.5825 78.7132 95.4878 77.7646 96.6044 77.7646C97.7209 77.7646 98.6323 78.7132 98.6323 79.8826ZM85.8131 82C86.9357 82 87.841 81.052 87.841 79.8826C87.841 78.7132 86.9357 77.7646 85.8131 77.7646C84.6966 77.7646 83.7913 78.7132 83.7913 79.8826C83.7913 81.052 84.6966 82 85.8131 82ZM77.0497 79.8826C77.0497 81.052 76.1444 82 75.0279 82C73.9053 82 73 81.052 73 79.8826C73 78.7132 73.9053 77.7646 75.0279 77.7646C76.1444 77.7646 77.0497 78.7132 77.0497 79.8826ZM120.209 68.5882C120.209 69.7576 119.303 70.7062 118.187 70.7062C117.07 70.7062 116.165 69.7576 116.165 68.5882C116.165 67.4188 117.07 66.4708 118.187 66.4708C119.303 66.4708 120.209 67.4188 120.209 68.5882ZM107.396 70.7062C108.512 70.7062 109.417 69.7576 109.417 68.5882C109.417 67.4188 108.512 66.4708 107.396 66.4708C106.279 66.4708 105.374 67.4188 105.374 68.5882C105.374 69.7576 106.279 70.7062 107.396 70.7062ZM98.6323 68.5882C98.6323 69.7576 97.7209 70.7062 96.6044 70.7062C95.4878 70.7062 94.5825 69.7576 94.5825 68.5882C94.5825 67.4188 95.4878 66.4708 96.6044 66.4708C97.7209 66.4708 98.6323 67.4188 98.6323 68.5882ZM85.8131 70.7062C86.9357 70.7062 87.841 69.7576 87.841 68.5882C87.841 67.4188 86.9357 66.4708 85.8131 66.4708C84.6966 66.4708 83.7913 67.4188 83.7913 68.5882C83.7913 69.7576 84.6966 70.7062 85.8131 70.7062ZM77.0497 68.5882C77.0497 69.7576 76.1444 70.7062 75.0279 70.7062C73.9053 70.7062 73 69.7576 73 68.5882C73 67.4188 73.9053 66.4708 75.0279 66.4708C76.1444 66.4708 77.0497 67.4188 77.0497 68.5882ZM120.209 57.2944C120.209 58.4638 119.303 59.4118 118.187 59.4118C117.07 59.4118 116.165 58.4638 116.165 57.2944C116.165 56.1244 117.07 55.1764 118.187 55.1764C119.303 55.1764 120.209 56.1244 120.209 57.2944ZM107.396 59.4118C108.512 59.4118 109.417 58.4638 109.417 57.2944C109.417 56.1244 108.512 55.1764 107.396 55.1764C106.279 55.1764 105.374 56.1244 105.374 57.2944C105.374 58.4638 106.279 59.4118 107.396 59.4118ZM98.6323 57.2944C98.6323 58.4638 97.7209 59.4118 96.6044 59.4118C95.4878 59.4118 94.5825 58.4638 94.5825 57.2944C94.5825 56.1244 95.4878 55.1764 96.6044 55.1764C97.7209 55.1764 98.6323 56.1244 98.6323 57.2944ZM85.8131 59.4118C86.9357 59.4118 87.841 58.4638 87.841 57.2944C87.841 56.1244 86.9357 55.1764 85.8131 55.1764C84.6966 55.1764 83.7913 56.1244 83.7913 57.2944C83.7913 58.4638 84.6966 59.4118 85.8131 59.4118ZM77.0497 57.2944C77.0497 58.4638 76.1444 59.4118 75.0279 59.4118C73.9053 59.4118 73 58.4638 73 57.2944C73 56.1244 73.9053 55.1764 75.0279 55.1764C76.1444 55.1764 77.0497 56.1244 77.0497 57.2944ZM120.209 46C120.209 47.1694 119.303 48.118 118.187 48.118C117.07 48.118 116.165 47.1694 116.165 46C116.165 44.8306 117.07 43.8826 118.187 43.8826C119.303 43.8826 120.209 44.8306 120.209 46ZM107.396 48.118C108.512 48.118 109.417 47.1694 109.417 46C109.417 44.8306 108.512 43.8826 107.396 43.8826C106.279 43.8826 105.374 44.8306 105.374 46C105.374 47.1694 106.279 48.118 107.396 48.118ZM98.6323 46C98.6323 47.1694 97.7209 48.118 96.6044 48.118C95.4878 48.118 94.5825 47.1694 94.5825 46C94.5825 44.8306 95.4878 43.8826 96.6044 43.8826C97.7209 43.8826 98.6323 44.8306 98.6323 46ZM85.8131 48.118C86.9357 48.118 87.841 47.1694 87.841 46C87.841 44.8306 86.9357 43.8826 85.8131 43.8826C84.6966 43.8826 83.7913 44.8306 83.7913 46C83.7913 47.1694 84.6966 48.118 85.8131 48.118ZM77.0497 46C77.0497 47.1694 76.1444 48.118 75.0279 48.118C73.9053 48.118 73 47.1694 73 46C73 44.8306 73.9053 43.8826 75.0279 43.8826C76.1444 43.8826 77.0497 44.8306 77.0497 46ZM120.209 34.7062C120.209 35.8756 119.303 36.8236 118.187 36.8236C117.07 36.8236 116.165 35.8756 116.165 34.7062C116.165 33.5362 117.07 32.5882 118.187 32.5882C119.303 32.5882 120.209 33.5362 120.209 34.7062ZM107.396 36.8236C108.512 36.8236 109.417 35.8756 109.417 34.7062C109.417 33.5362 108.512 32.5882 107.396 32.5882C106.279 32.5882 105.374 33.5362 105.374 34.7062C105.374 35.8756 106.279 36.8236 107.396 36.8236ZM98.6323 34.7062C98.6323 35.8756 97.7209 36.8236 96.6044 36.8236C95.4878 36.8236 94.5825 35.8756 94.5825 34.7062C94.5825 33.5362 95.4878 32.5882 96.6044 32.5882C97.7209 32.5882 98.6323 33.5362 98.6323 34.7062ZM85.8131 36.8236C86.9357 36.8236 87.841 35.8756 87.841 34.7062C87.841 33.5362 86.9357 32.5882 85.8131 32.5882C84.6966 32.5882 83.7913 33.5362 83.7913 34.7062C83.7913 35.8756 84.6966 36.8236 85.8131 36.8236ZM77.0497 34.7062C77.0497 35.8756 76.1444 36.8236 75.0279 36.8236C73.9053 36.8236 73 35.8756 73 34.7062C73 33.5362 73.9053 32.5882 75.0279 32.5882C76.1444 32.5882 77.0497 33.5362 77.0497 34.7062ZM120.209 23.4118C120.209 24.5812 119.303 25.5298 118.187 25.5298C117.07 25.5298 116.165 24.5812 116.165 23.4118C116.165 22.2424 117.07 21.2944 118.187 21.2944C119.303 21.2944 120.209 22.2424 120.209 23.4118ZM107.396 25.5298C108.512 25.5298 109.417 24.5812 109.417 23.4118C109.417 22.2424 108.512 21.2944 107.396 21.2944C106.279 21.2944 105.374 22.2424 105.374 23.4118C105.374 24.5812 106.279 25.5298 107.396 25.5298ZM98.6323 23.4118C98.6323 24.5812 97.7209 25.5298 96.6044 25.5298C95.4878 25.5298 94.5825 24.5812 94.5825 23.4118C94.5825 22.2424 95.4878 21.2944 96.6044 21.2944C97.7209 21.2944 98.6323 22.2424 98.6323 23.4118ZM85.8131 25.5298C86.9357 25.5298 87.841 24.5812 87.841 23.4118C87.841 22.2424 86.9357 21.2944 85.8131 21.2944C84.6966 21.2944 83.7913 22.2424 83.7913 23.4118C83.7913 24.5812 84.6966 25.5298 85.8131 25.5298ZM77.0497 23.4118C77.0497 24.5812 76.1444 25.5298 75.0279 25.5298C73.9053 25.5298 73 24.5812 73 23.4118C73 22.2424 73.9053 21.2944 75.0279 21.2944C76.1444 21.2944 77.0497 22.2424 77.0497 23.4118ZM120.209 12.118C120.209 13.2874 119.303 14.2354 118.187 14.2354C117.07 14.2354 116.165 13.2874 116.165 12.118C116.165 10.948 117.07 10 118.187 10C119.303 10 120.209 10.948 120.209 12.118ZM107.396 14.2354C108.512 14.2354 109.417 13.2874 109.417 12.118C109.417 10.948 108.512 10 107.396 10C106.279 10 105.374 10.948 105.374 12.118C105.374 13.2874 106.279 14.2354 107.396 14.2354ZM98.6323 12.118C98.6323 13.2874 97.7209 14.2354 96.6044 14.2354C95.4878 14.2354 94.5825 13.2874 94.5825 12.118C94.5825 10.948 95.4878 10 96.6044 10C97.7209 10 98.6323 10.948 98.6323 12.118ZM85.8131 14.2354C86.9357 14.2354 87.841 13.2874 87.841 12.118C87.841 10.948 86.9357 10 85.8131 10C84.6966 10 83.7913 10.948 83.7913 12.118C83.7913 13.2874 84.6966 14.2354 85.8131 14.2354ZM77.0497 12.118C77.0497 13.2874 76.1444 14.2354 75.0279 14.2354C73.9053 14.2354 73 13.2874 73 12.118C73 10.948 73.9053 10 75.0279 10C76.1444 10 77.0497 10.948 77.0497 12.118Z" fill="white"/>
<path opacity="0.3" fill-rule="evenodd" clip-rule="evenodd" d="M128.978 92.2354C130.095 92.2354 131 91.2874 131 90.118C131 88.948 130.095 88 128.978 88C127.856 88 126.95 88.948 126.95 90.118C126.95 91.2874 127.856 92.2354 128.978 92.2354ZM128.978 103.53C130.095 103.53 131 102.581 131 101.412C131 100.242 130.095 99.2944 128.978 99.2944C127.862 99.2944 126.95 100.242 126.95 101.412C126.95 102.581 127.862 103.53 128.978 103.53ZM128.978 114.824C130.095 114.824 131 113.876 131 112.706C131 111.536 130.095 110.588 128.978 110.588C127.862 110.588 126.95 111.536 126.95 112.706C126.95 113.876 127.862 114.824 128.978 114.824ZM128.978 126.118C130.095 126.118 131 125.169 131 124C131 122.831 130.095 121.883 128.978 121.883C127.862 121.883 126.95 122.831 126.95 124C126.95 125.169 127.862 126.118 128.978 126.118ZM128.978 137.412C130.095 137.412 131 136.464 131 135.294C131 134.124 130.095 133.176 128.978 133.176C127.862 133.176 126.95 134.124 126.95 135.294C126.95 136.464 127.862 137.412 128.978 137.412ZM128.978 148.706C130.095 148.706 131 147.758 131 146.588C131 145.419 130.095 144.471 128.978 144.471C127.862 144.471 126.95 145.419 126.95 146.588C126.95 147.758 127.862 148.706 128.978 148.706ZM107.619 159.987C108.735 159.987 109.641 159.039 109.641 157.87C109.641 156.701 108.735 155.752 107.619 155.752C106.496 155.752 105.591 156.701 105.591 157.87C105.591 159.039 106.496 159.987 107.619 159.987ZM120.209 157.883C120.209 159.052 119.303 160 118.187 160C117.07 160 116.165 159.052 116.165 157.883C116.165 156.713 117.07 155.765 118.187 155.765C119.303 155.765 120.209 156.713 120.209 157.883ZM131 157.883C131 159.052 130.095 160 128.978 160C127.862 160 126.95 159.052 126.95 157.883C126.95 156.713 127.862 155.765 128.978 155.765C130.095 155.765 131 156.713 131 157.883ZM98.6323 157.883C98.6323 159.052 97.7209 160 96.6044 160C95.4878 160 94.5825 159.052 94.5825 157.883C94.5825 156.713 95.4878 155.765 96.6044 155.765C97.7209 155.765 98.6323 156.713 98.6323 157.883ZM85.8131 160C86.9357 160 87.841 159.052 87.841 157.883C87.841 156.713 86.9357 155.765 85.8131 155.765C84.6966 155.765 83.7913 156.713 83.7913 157.883C83.7913 159.052 84.6966 160 85.8131 160ZM77.0497 157.883C77.0497 159.052 76.1444 160 75.0279 160C73.9053 160 73 159.052 73 157.883C73 156.713 73.9053 155.765 75.0279 155.765C76.1444 155.765 77.0497 156.713 77.0497 157.883ZM120.209 146.588C120.209 147.758 119.303 148.706 118.187 148.706C117.07 148.706 116.165 147.758 116.165 146.588C116.165 145.419 117.07 144.471 118.187 144.471C119.303 144.471 120.209 145.419 120.209 146.588ZM107.396 148.706C108.512 148.706 109.417 147.758 109.417 146.588C109.417 145.419 108.512 144.471 107.396 144.471C106.279 144.471 105.374 145.419 105.374 146.588C105.374 147.758 106.279 148.706 107.396 148.706ZM98.6323 146.588C98.6323 147.758 97.7209 148.706 96.6044 148.706C95.4878 148.706 94.5825 147.758 94.5825 146.588C94.5825 145.419 95.4878 144.471 96.6044 144.471C97.7209 144.471 98.6323 145.419 98.6323 146.588ZM85.8131 148.706C86.9357 148.706 87.841 147.758 87.841 146.588C87.841 145.419 86.9357 144.471 85.8131 144.471C84.6966 144.471 83.7913 145.419 83.7913 146.588C83.7913 147.758 84.6966 148.706 85.8131 148.706ZM77.0497 146.588C77.0497 147.758 76.1444 148.706 75.0279 148.706C73.9053 148.706 73 147.758 73 146.588C73 145.419 73.9053 144.471 75.0279 144.471C76.1444 144.471 77.0497 145.419 77.0497 146.588ZM120.209 135.294C120.209 136.464 119.303 137.412 118.187 137.412C117.07 137.412 116.165 136.464 116.165 135.294C116.165 134.124 117.07 133.176 118.187 133.176C119.303 133.176 120.209 134.124 120.209 135.294ZM107.396 137.412C108.512 137.412 109.417 136.464 109.417 135.294C109.417 134.124 108.512 133.176 107.396 133.176C106.279 133.176 105.374 134.124 105.374 135.294C105.374 136.464 106.279 137.412 107.396 137.412ZM98.6323 135.294C98.6323 136.464 97.7209 137.412 96.6044 137.412C95.4878 137.412 94.5825 136.464 94.5825 135.294C94.5825 134.124 95.4878 133.176 96.6044 133.176C97.7209 133.176 98.6323 134.124 98.6323 135.294ZM85.8131 137.412C86.9357 137.412 87.841 136.464 87.841 135.294C87.841 134.124 86.9357 133.176 85.8131 133.176C84.6966 133.176 83.7913 134.124 83.7913 135.294C83.7913 136.464 84.6966 137.412 85.8131 137.412ZM77.0497 135.294C77.0497 136.464 76.1444 137.412 75.0279 137.412C73.9053 137.412 73 136.464 73 135.294C73 134.124 73.9053 133.176 75.0279 133.176C76.1444 133.176 77.0497 134.124 77.0497 135.294ZM120.209 124C120.209 125.169 119.303 126.118 118.187 126.118C117.07 126.118 116.165 125.169 116.165 124C116.165 122.831 117.07 121.883 118.187 121.883C119.303 121.883 120.209 122.831 120.209 124ZM107.396 126.118C108.512 126.118 109.417 125.169 109.417 124C109.417 122.831 108.512 121.883 107.396 121.883C106.279 121.883 105.374 122.831 105.374 124C105.374 125.169 106.279 126.118 107.396 126.118ZM98.6323 124C98.6323 125.169 97.7209 126.118 96.6044 126.118C95.4878 126.118 94.5825 125.169 94.5825 124C94.5825 122.831 95.4878 121.883 96.6044 121.883C97.7209 121.883 98.6323 122.831 98.6323 124ZM85.8131 126.118C86.9357 126.118 87.841 125.169 87.841 124C87.841 122.831 86.9357 121.883 85.8131 121.883C84.6966 121.883 83.7913 122.831 83.7913 124C83.7913 125.169 84.6966 126.118 85.8131 126.118ZM77.0497 124C77.0497 125.169 76.1444 126.118 75.0279 126.118C73.9053 126.118 73 125.169 73 124C73 122.831 73.9053 121.883 75.0279 121.883C76.1444 121.883 77.0497 122.831 77.0497 124ZM120.209 112.706C120.209 113.876 119.303 114.824 118.187 114.824C117.07 114.824 116.165 113.876 116.165 112.706C116.165 111.536 117.07 110.588 118.187 110.588C119.303 110.588 120.209 111.536 120.209 112.706ZM107.396 114.824C108.512 114.824 109.417 113.876 109.417 112.706C109.417 111.536 108.512 110.588 107.396 110.588C106.279 110.588 105.374 111.536 105.374 112.706C105.374 113.876 106.279 114.824 107.396 114.824ZM98.6323 112.706C98.6323 113.876 97.7209 114.824 96.6044 114.824C95.4878 114.824 94.5825 113.876 94.5825 112.706C94.5825 111.536 95.4878 110.588 96.6044 110.588C97.7209 110.588 98.6323 111.536 98.6323 112.706ZM85.8131 114.824C86.9357 114.824 87.841 113.876 87.841 112.706C87.841 111.536 86.9357 110.588 85.8131 110.588C84.6966 110.588 83.7913 111.536 83.7913 112.706C83.7913 113.876 84.6966 114.824 85.8131 114.824ZM77.0497 112.706C77.0497 113.876 76.1444 114.824 75.0279 114.824C73.9053 114.824 73 113.876 73 112.706C73 111.536 73.9053 110.588 75.0279 110.588C76.1444 110.588 77.0497 111.536 77.0497 112.706ZM120.209 101.412C120.209 102.581 119.303 103.53 118.187 103.53C117.07 103.53 116.165 102.581 116.165 101.412C116.165 100.242 117.07 99.2944 118.187 99.2944C119.303 99.2944 120.209 100.242 120.209 101.412ZM107.396 103.53C108.512 103.53 109.417 102.581 109.417 101.412C109.417 100.242 108.512 99.2944 107.396 99.2944C106.279 99.2944 105.374 100.242 105.374 101.412C105.374 102.581 106.279 103.53 107.396 103.53ZM98.6323 101.412C98.6323 102.581 97.7209 103.53 96.6044 103.53C95.4878 103.53 94.5825 102.581 94.5825 101.412C94.5825 100.242 95.4878 99.2944 96.6044 99.2944C97.7209 99.2944 98.6323 100.242 98.6323 101.412ZM85.8131 103.53C86.9357 103.53 87.841 102.581 87.841 101.412C87.841 100.242 86.9357 99.2944 85.8131 99.2944C84.6966 99.2944 83.7913 100.242 83.7913 101.412C83.7913 102.581 84.6966 103.53 85.8131 103.53ZM77.0497 101.412C77.0497 102.581 76.1444 103.53 75.0279 103.53C73.9053 103.53 73 102.581 73 101.412C73 100.242 73.9053 99.2944 75.0279 99.2944C76.1444 99.2944 77.0497 100.242 77.0497 101.412ZM120.209 90.118C120.209 91.2874 119.303 92.2354 118.187 92.2354C117.07 92.2354 116.165 91.2874 116.165 90.118C116.165 88.948 117.07 88 118.187 88C119.303 88 120.209 88.948 120.209 90.118ZM107.396 92.2354C108.512 92.2354 109.417 91.2874 109.417 90.118C109.417 88.948 108.512 88 107.396 88C106.279 88 105.374 88.948 105.374 90.118C105.374 91.2874 106.279 92.2354 107.396 92.2354ZM98.6323 90.118C98.6323 91.2874 97.7209 92.2354 96.6044 92.2354C95.4878 92.2354 94.5825 91.2874 94.5825 90.118C94.5825 88.948 95.4878 88 96.6044 88C97.7209 88 98.6323 88.948 98.6323 90.118ZM85.8131 92.2354C86.9357 92.2354 87.841 91.2874 87.841 90.118C87.841 88.948 86.9357 88 85.8131 88C84.6966 88 83.7913 88.948 83.7913 90.118C83.7913 91.2874 84.6966 92.2354 85.8131 92.2354ZM77.0497 90.118C77.0497 91.2874 76.1444 92.2354 75.0279 92.2354C73.9053 92.2354 73 91.2874 73 90.118C73 88.948 73.9053 88 75.0279 88C76.1444 88 77.0497 88.948 77.0497 90.118Z" fill="white"/>
<path opacity="0.3" fill-rule="evenodd" clip-rule="evenodd" d="M1367.98 14.2354C1369.09 14.2354 1370 13.2874 1370 12.118C1370 10.948 1369.09 10 1367.98 10C1366.86 10 1365.95 10.948 1365.95 12.118C1365.95 13.2874 1366.86 14.2354 1367.98 14.2354ZM1367.98 25.5298C1369.09 25.5298 1370 24.5812 1370 23.4118C1370 22.2424 1369.09 21.2944 1367.98 21.2944C1366.86 21.2944 1365.95 22.2424 1365.95 23.4118C1365.95 24.5812 1366.86 25.5298 1367.98 25.5298ZM1367.98 36.8236C1369.09 36.8236 1370 35.8756 1370 34.7062C1370 33.5362 1369.09 32.5882 1367.98 32.5882C1366.86 32.5882 1365.95 33.5362 1365.95 34.7062C1365.95 35.8756 1366.86 36.8236 1367.98 36.8236ZM1367.98 48.118C1369.09 48.118 1370 47.1694 1370 46C1370 44.8306 1369.09 43.8826 1367.98 43.8826C1366.86 43.8826 1365.95 44.8306 1365.95 46C1365.95 47.1694 1366.86 48.118 1367.98 48.118ZM1367.98 59.4118C1369.09 59.4118 1370 58.4638 1370 57.2944C1370 56.1244 1369.09 55.1764 1367.98 55.1764C1366.86 55.1764 1365.95 56.1244 1365.95 57.2944C1365.95 58.4638 1366.86 59.4118 1367.98 59.4118ZM1367.98 70.7062C1369.09 70.7062 1370 69.7576 1370 68.5882C1370 67.4188 1369.09 66.4708 1367.98 66.4708C1366.86 66.4708 1365.95 67.4188 1365.95 68.5882C1365.95 69.7576 1366.86 70.7062 1367.98 70.7062ZM1346.62 81.9874C1347.74 81.9874 1348.64 81.0394 1348.64 79.87C1348.64 78.7006 1347.74 77.752 1346.62 77.752C1345.5 77.752 1344.59 78.7006 1344.59 79.87C1344.59 81.0394 1345.5 81.9874 1346.62 81.9874ZM1359.21 79.8826C1359.21 81.052 1358.3 82 1357.19 82C1356.07 82 1355.17 81.052 1355.17 79.8826C1355.17 78.7132 1356.07 77.7646 1357.19 77.7646C1358.3 77.7646 1359.21 78.7132 1359.21 79.8826ZM1370 79.8826C1370 81.052 1369.09 82 1367.98 82C1366.86 82 1365.95 81.052 1365.95 79.8826C1365.95 78.7132 1366.86 77.7646 1367.98 77.7646C1369.09 77.7646 1370 78.7132 1370 79.8826ZM1337.63 79.8826C1337.63 81.052 1336.72 82 1335.6 82C1334.49 82 1333.58 81.052 1333.58 79.8826C1333.58 78.7132 1334.49 77.7646 1335.6 77.7646C1336.72 77.7646 1337.63 78.7132 1337.63 79.8826ZM1324.81 82C1325.94 82 1326.84 81.052 1326.84 79.8826C1326.84 78.7132 1325.94 77.7646 1324.81 77.7646C1323.7 77.7646 1322.79 78.7132 1322.79 79.8826C1322.79 81.052 1323.7 82 1324.81 82ZM1316.05 79.8826C1316.05 81.052 1315.14 82 1314.03 82C1312.91 82 1312 81.052 1312 79.8826C1312 78.7132 1312.91 77.7646 1314.03 77.7646C1315.14 77.7646 1316.05 78.7132 1316.05 79.8826ZM1359.21 68.5882C1359.21 69.7576 1358.3 70.7062 1357.19 70.7062C1356.07 70.7062 1355.17 69.7576 1355.17 68.5882C1355.17 67.4188 1356.07 66.4708 1357.19 66.4708C1358.3 66.4708 1359.21 67.4188 1359.21 68.5882ZM1346.4 70.7062C1347.51 70.7062 1348.42 69.7576 1348.42 68.5882C1348.42 67.4188 1347.51 66.4708 1346.4 66.4708C1345.28 66.4708 1344.37 67.4188 1344.37 68.5882C1344.37 69.7576 1345.28 70.7062 1346.4 70.7062ZM1337.63 68.5882C1337.63 69.7576 1336.72 70.7062 1335.6 70.7062C1334.49 70.7062 1333.58 69.7576 1333.58 68.5882C1333.58 67.4188 1334.49 66.4708 1335.6 66.4708C1336.72 66.4708 1337.63 67.4188 1337.63 68.5882ZM1324.81 70.7062C1325.94 70.7062 1326.84 69.7576 1326.84 68.5882C1326.84 67.4188 1325.94 66.4708 1324.81 66.4708C1323.7 66.4708 1322.79 67.4188 1322.79 68.5882C1322.79 69.7576 1323.7 70.7062 1324.81 70.7062ZM1316.05 68.5882C1316.05 69.7576 1315.14 70.7062 1314.03 70.7062C1312.91 70.7062 1312 69.7576 1312 68.5882C1312 67.4188 1312.91 66.4708 1314.03 66.4708C1315.14 66.4708 1316.05 67.4188 1316.05 68.5882ZM1359.21 57.2944C1359.21 58.4638 1358.3 59.4118 1357.19 59.4118C1356.07 59.4118 1355.17 58.4638 1355.17 57.2944C1355.17 56.1244 1356.07 55.1764 1357.19 55.1764C1358.3 55.1764 1359.21 56.1244 1359.21 57.2944ZM1346.4 59.4118C1347.51 59.4118 1348.42 58.4638 1348.42 57.2944C1348.42 56.1244 1347.51 55.1764 1346.4 55.1764C1345.28 55.1764 1344.37 56.1244 1344.37 57.2944C1344.37 58.4638 1345.28 59.4118 1346.4 59.4118ZM1337.63 57.2944C1337.63 58.4638 1336.72 59.4118 1335.6 59.4118C1334.49 59.4118 1333.58 58.4638 1333.58 57.2944C1333.58 56.1244 1334.49 55.1764 1335.6 55.1764C1336.72 55.1764 1337.63 56.1244 1337.63 57.2944ZM1324.81 59.4118C1325.94 59.4118 1326.84 58.4638 1326.84 57.2944C1326.84 56.1244 1325.94 55.1764 1324.81 55.1764C1323.7 55.1764 1322.79 56.1244 1322.79 57.2944C1322.79 58.4638 1323.7 59.4118 1324.81 59.4118ZM1316.05 57.2944C1316.05 58.4638 1315.14 59.4118 1314.03 59.4118C1312.91 59.4118 1312 58.4638 1312 57.2944C1312 56.1244 1312.91 55.1764 1314.03 55.1764C1315.14 55.1764 1316.05 56.1244 1316.05 57.2944ZM1359.21 46C1359.21 47.1694 1358.3 48.118 1357.19 48.118C1356.07 48.118 1355.17 47.1694 1355.17 46C1355.17 44.8306 1356.07 43.8826 1357.19 43.8826C1358.3 43.8826 1359.21 44.8306 1359.21 46ZM1346.4 48.118C1347.51 48.118 1348.42 47.1694 1348.42 46C1348.42 44.8306 1347.51 43.8826 1346.4 43.8826C1345.28 43.8826 1344.37 44.8306 1344.37 46C1344.37 47.1694 1345.28 48.118 1346.4 48.118ZM1337.63 46C1337.63 47.1694 1336.72 48.118 1335.6 48.118C1334.49 48.118 1333.58 47.1694 1333.58 46C1333.58 44.8306 1334.49 43.8826 1335.6 43.8826C1336.72 43.8826 1337.63 44.8306 1337.63 46ZM1324.81 48.118C1325.94 48.118 1326.84 47.1694 1326.84 46C1326.84 44.8306 1325.94 43.8826 1324.81 43.8826C1323.7 43.8826 1322.79 44.8306 1322.79 46C1322.79 47.1694 1323.7 48.118 1324.81 48.118ZM1316.05 46C1316.05 47.1694 1315.14 48.118 1314.03 48.118C1312.91 48.118 1312 47.1694 1312 46C1312 44.8306 1312.91 43.8826 1314.03 43.8826C1315.14 43.8826 1316.05 44.8306 1316.05 46ZM1359.21 34.7062C1359.21 35.8756 1358.3 36.8236 1357.19 36.8236C1356.07 36.8236 1355.17 35.8756 1355.17 34.7062C1355.17 33.5362 1356.07 32.5882 1357.19 32.5882C1358.3 32.5882 1359.21 33.5362 1359.21 34.7062ZM1346.4 36.8236C1347.51 36.8236 1348.42 35.8756 1348.42 34.7062C1348.42 33.5362 1347.51 32.5882 1346.4 32.5882C1345.28 32.5882 1344.37 33.5362 1344.37 34.7062C1344.37 35.8756 1345.28 36.8236 1346.4 36.8236ZM1337.63 34.7062C1337.63 35.8756 1336.72 36.8236 1335.6 36.8236C1334.49 36.8236 1333.58 35.8756 1333.58 34.7062C1333.58 33.5362 1334.49 32.5882 1335.6 32.5882C1336.72 32.5882 1337.63 33.5362 1337.63 34.7062ZM1324.81 36.8236C1325.94 36.8236 1326.84 35.8756 1326.84 34.7062C1326.84 33.5362 1325.94 32.5882 1324.81 32.5882C1323.7 32.5882 1322.79 33.5362 1322.79 34.7062C1322.79 35.8756 1323.7 36.8236 1324.81 36.8236ZM1316.05 34.7062C1316.05 35.8756 1315.14 36.8236 1314.03 36.8236C1312.91 36.8236 1312 35.8756 1312 34.7062C1312 33.5362 1312.91 32.5882 1314.03 32.5882C1315.14 32.5882 1316.05 33.5362 1316.05 34.7062ZM1359.21 23.4118C1359.21 24.5812 1358.3 25.5298 1357.19 25.5298C1356.07 25.5298 1355.17 24.5812 1355.17 23.4118C1355.17 22.2424 1356.07 21.2944 1357.19 21.2944C1358.3 21.2944 1359.21 22.2424 1359.21 23.4118ZM1346.4 25.5298C1347.51 25.5298 1348.42 24.5812 1348.42 23.4118C1348.42 22.2424 1347.51 21.2944 1346.4 21.2944C1345.28 21.2944 1344.37 22.2424 1344.37 23.4118C1344.37 24.5812 1345.28 25.5298 1346.4 25.5298ZM1337.63 23.4118C1337.63 24.5812 1336.72 25.5298 1335.6 25.5298C1334.49 25.5298 1333.58 24.5812 1333.58 23.4118C1333.58 22.2424 1334.49 21.2944 1335.6 21.2944C1336.72 21.2944 1337.63 22.2424 1337.63 23.4118ZM1324.81 25.5298C1325.94 25.5298 1326.84 24.5812 1326.84 23.4118C1326.84 22.2424 1325.94 21.2944 1324.81 21.2944C1323.7 21.2944 1322.79 22.2424 1322.79 23.4118C1322.79 24.5812 1323.7 25.5298 1324.81 25.5298ZM1316.05 23.4118C1316.05 24.5812 1315.14 25.5298 1314.03 25.5298C1312.91 25.5298 1312 24.5812 1312 23.4118C1312 22.2424 1312.91 21.2944 1314.03 21.2944C1315.14 21.2944 1316.05 22.2424 1316.05 23.4118ZM1359.21 12.118C1359.21 13.2874 1358.3 14.2354 1357.19 14.2354C1356.07 14.2354 1355.17 13.2874 1355.17 12.118C1355.17 10.948 1356.07 10 1357.19 10C1358.3 10 1359.21 10.948 1359.21 12.118ZM1346.4 14.2354C1347.51 14.2354 1348.42 13.2874 1348.42 12.118C1348.42 10.948 1347.51 10 1346.4 10C1345.28 10 1344.37 10.948 1344.37 12.118C1344.37 13.2874 1345.28 14.2354 1346.4 14.2354ZM1337.63 12.118C1337.63 13.2874 1336.72 14.2354 1335.6 14.2354C1334.49 14.2354 1333.58 13.2874 1333.58 12.118C1333.58 10.948 1334.49 10 1335.6 10C1336.72 10 1337.63 10.948 1337.63 12.118ZM1324.81 14.2354C1325.94 14.2354 1326.84 13.2874 1326.84 12.118C1326.84 10.948 1325.94 10 1324.81 10C1323.7 10 1322.79 10.948 1322.79 12.118C1322.79 13.2874 1323.7 14.2354 1324.81 14.2354ZM1316.05 12.118C1316.05 13.2874 1315.14 14.2354 1314.03 14.2354C1312.91 14.2354 1312 13.2874 1312 12.118C1312 10.948 1312.91 10 1314.03 10C1315.14 10 1316.05 10.948 1316.05 12.118Z" fill="white"/>
<path opacity="0.3" fill-rule="evenodd" clip-rule="evenodd" d="M1367.98 92.2354C1369.09 92.2354 1370 91.2874 1370 90.118C1370 88.948 1369.09 88 1367.98 88C1366.86 88 1365.95 88.948 1365.95 90.118C1365.95 91.2874 1366.86 92.2354 1367.98 92.2354ZM1367.98 103.53C1369.09 103.53 1370 102.581 1370 101.412C1370 100.242 1369.09 99.2944 1367.98 99.2944C1366.86 99.2944 1365.95 100.242 1365.95 101.412C1365.95 102.581 1366.86 103.53 1367.98 103.53ZM1367.98 114.824C1369.09 114.824 1370 113.876 1370 112.706C1370 111.536 1369.09 110.588 1367.98 110.588C1366.86 110.588 1365.95 111.536 1365.95 112.706C1365.95 113.876 1366.86 114.824 1367.98 114.824ZM1367.98 126.118C1369.09 126.118 1370 125.169 1370 124C1370 122.831 1369.09 121.883 1367.98 121.883C1366.86 121.883 1365.95 122.831 1365.95 124C1365.95 125.169 1366.86 126.118 1367.98 126.118ZM1367.98 137.412C1369.09 137.412 1370 136.464 1370 135.294C1370 134.124 1369.09 133.176 1367.98 133.176C1366.86 133.176 1365.95 134.124 1365.95 135.294C1365.95 136.464 1366.86 137.412 1367.98 137.412ZM1367.98 148.706C1369.09 148.706 1370 147.758 1370 146.588C1370 145.419 1369.09 144.471 1367.98 144.471C1366.86 144.471 1365.95 145.419 1365.95 146.588C1365.95 147.758 1366.86 148.706 1367.98 148.706ZM1346.62 159.987C1347.74 159.987 1348.64 159.039 1348.64 157.87C1348.64 156.701 1347.74 155.752 1346.62 155.752C1345.5 155.752 1344.59 156.701 1344.59 157.87C1344.59 159.039 1345.5 159.987 1346.62 159.987ZM1359.21 157.883C1359.21 159.052 1358.3 160 1357.19 160C1356.07 160 1355.17 159.052 1355.17 157.883C1355.17 156.713 1356.07 155.765 1357.19 155.765C1358.3 155.765 1359.21 156.713 1359.21 157.883ZM1370 157.883C1370 159.052 1369.09 160 1367.98 160C1366.86 160 1365.95 159.052 1365.95 157.883C1365.95 156.713 1366.86 155.765 1367.98 155.765C1369.09 155.765 1370 156.713 1370 157.883ZM1337.63 157.883C1337.63 159.052 1336.72 160 1335.6 160C1334.49 160 1333.58 159.052 1333.58 157.883C1333.58 156.713 1334.49 155.765 1335.6 155.765C1336.72 155.765 1337.63 156.713 1337.63 157.883ZM1324.81 160C1325.94 160 1326.84 159.052 1326.84 157.883C1326.84 156.713 1325.94 155.765 1324.81 155.765C1323.7 155.765 1322.79 156.713 1322.79 157.883C1322.79 159.052 1323.7 160 1324.81 160ZM1316.05 157.883C1316.05 159.052 1315.14 160 1314.03 160C1312.91 160 1312 159.052 1312 157.883C1312 156.713 1312.91 155.765 1314.03 155.765C1315.14 155.765 1316.05 156.713 1316.05 157.883ZM1359.21 146.588C1359.21 147.758 1358.3 148.706 1357.19 148.706C1356.07 148.706 1355.17 147.758 1355.17 146.588C1355.17 145.419 1356.07 144.471 1357.19 144.471C1358.3 144.471 1359.21 145.419 1359.21 146.588ZM1346.4 148.706C1347.51 148.706 1348.42 147.758 1348.42 146.588C1348.42 145.419 1347.51 144.471 1346.4 144.471C1345.28 144.471 1344.37 145.419 1344.37 146.588C1344.37 147.758 1345.28 148.706 1346.4 148.706ZM1337.63 146.588C1337.63 147.758 1336.72 148.706 1335.6 148.706C1334.49 148.706 1333.58 147.758 1333.58 146.588C1333.58 145.419 1334.49 144.471 1335.6 144.471C1336.72 144.471 1337.63 145.419 1337.63 146.588ZM1324.81 148.706C1325.94 148.706 1326.84 147.758 1326.84 146.588C1326.84 145.419 1325.94 144.471 1324.81 144.471C1323.7 144.471 1322.79 145.419 1322.79 146.588C1322.79 147.758 1323.7 148.706 1324.81 148.706ZM1316.05 146.588C1316.05 147.758 1315.14 148.706 1314.03 148.706C1312.91 148.706 1312 147.758 1312 146.588C1312 145.419 1312.91 144.471 1314.03 144.471C1315.14 144.471 1316.05 145.419 1316.05 146.588ZM1359.21 135.294C1359.21 136.464 1358.3 137.412 1357.19 137.412C1356.07 137.412 1355.17 136.464 1355.17 135.294C1355.17 134.124 1356.07 133.176 1357.19 133.176C1358.3 133.176 1359.21 134.124 1359.21 135.294ZM1346.4 137.412C1347.51 137.412 1348.42 136.464 1348.42 135.294C1348.42 134.124 1347.51 133.176 1346.4 133.176C1345.28 133.176 1344.37 134.124 1344.37 135.294C1344.37 136.464 1345.28 137.412 1346.4 137.412ZM1337.63 135.294C1337.63 136.464 1336.72 137.412 1335.6 137.412C1334.49 137.412 1333.58 136.464 1333.58 135.294C1333.58 134.124 1334.49 133.176 1335.6 133.176C1336.72 133.176 1337.63 134.124 1337.63 135.294ZM1324.81 137.412C1325.94 137.412 1326.84 136.464 1326.84 135.294C1326.84 134.124 1325.94 133.176 1324.81 133.176C1323.7 133.176 1322.79 134.124 1322.79 135.294C1322.79 136.464 1323.7 137.412 1324.81 137.412ZM1316.05 135.294C1316.05 136.464 1315.14 137.412 1314.03 137.412C1312.91 137.412 1312 136.464 1312 135.294C1312 134.124 1312.91 133.176 1314.03 133.176C1315.14 133.176 1316.05 134.124 1316.05 135.294ZM1359.21 124C1359.21 125.169 1358.3 126.118 1357.19 126.118C1356.07 126.118 1355.17 125.169 1355.17 124C1355.17 122.831 1356.07 121.883 1357.19 121.883C1358.3 121.883 1359.21 122.831 1359.21 124ZM1346.4 126.118C1347.51 126.118 1348.42 125.169 1348.42 124C1348.42 122.831 1347.51 121.883 1346.4 121.883C1345.28 121.883 1344.37 122.831 1344.37 124C1344.37 125.169 1345.28 126.118 1346.4 126.118ZM1337.63 124C1337.63 125.169 1336.72 126.118 1335.6 126.118C1334.49 126.118 1333.58 125.169 1333.58 124C1333.58 122.831 1334.49 121.883 1335.6 121.883C1336.72 121.883 1337.63 122.831 1337.63 124ZM1324.81 126.118C1325.94 126.118 1326.84 125.169 1326.84 124C1326.84 122.831 1325.94 121.883 1324.81 121.883C1323.7 121.883 1322.79 122.831 1322.79 124C1322.79 125.169 1323.7 126.118 1324.81 126.118ZM1316.05 124C1316.05 125.169 1315.14 126.118 1314.03 126.118C1312.91 126.118 1312 125.169 1312 124C1312 122.831 1312.91 121.883 1314.03 121.883C1315.14 121.883 1316.05 122.831 1316.05 124ZM1359.21 112.706C1359.21 113.876 1358.3 114.824 1357.19 114.824C1356.07 114.824 1355.17 113.876 1355.17 112.706C1355.17 111.536 1356.07 110.588 1357.19 110.588C1358.3 110.588 1359.21 111.536 1359.21 112.706ZM1346.4 114.824C1347.51 114.824 1348.42 113.876 1348.42 112.706C1348.42 111.536 1347.51 110.588 1346.4 110.588C1345.28 110.588 1344.37 111.536 1344.37 112.706C1344.37 113.876 1345.28 114.824 1346.4 114.824ZM1337.63 112.706C1337.63 113.876 1336.72 114.824 1335.6 114.824C1334.49 114.824 1333.58 113.876 1333.58 112.706C1333.58 111.536 1334.49 110.588 1335.6 110.588C1336.72 110.588 1337.63 111.536 1337.63 112.706ZM1324.81 114.824C1325.94 114.824 1326.84 113.876 1326.84 112.706C1326.84 111.536 1325.94 110.588 1324.81 110.588C1323.7 110.588 1322.79 111.536 1322.79 112.706C1322.79 113.876 1323.7 114.824 1324.81 114.824ZM1316.05 112.706C1316.05 113.876 1315.14 114.824 1314.03 114.824C1312.91 114.824 1312 113.876 1312 112.706C1312 111.536 1312.91 110.588 1314.03 110.588C1315.14 110.588 1316.05 111.536 1316.05 112.706ZM1359.21 101.412C1359.21 102.581 1358.3 103.53 1357.19 103.53C1356.07 103.53 1355.17 102.581 1355.17 101.412C1355.17 100.242 1356.07 99.2944 1357.19 99.2944C1358.3 99.2944 1359.21 100.242 1359.21 101.412ZM1346.4 103.53C1347.51 103.53 1348.42 102.581 1348.42 101.412C1348.42 100.242 1347.51 99.2944 1346.4 99.2944C1345.28 99.2944 1344.37 100.242 1344.37 101.412C1344.37 102.581 1345.28 103.53 1346.4 103.53ZM1337.63 101.412C1337.63 102.581 1336.72 103.53 1335.6 103.53C1334.49 103.53 1333.58 102.581 1333.58 101.412C1333.58 100.242 1334.49 99.2944 1335.6 99.2944C1336.72 99.2944 1337.63 100.242 1337.63 101.412ZM1324.81 103.53C1325.94 103.53 1326.84 102.581 1326.84 101.412C1326.84 100.242 1325.94 99.2944 1324.81 99.2944C1323.7 99.2944 1322.79 100.242 1322.79 101.412C1322.79 102.581 1323.7 103.53 1324.81 103.53ZM1316.05 101.412C1316.05 102.581 1315.14 103.53 1314.03 103.53C1312.91 103.53 1312 102.581 1312 101.412C1312 100.242 1312.91 99.2944 1314.03 99.2944C1315.14 99.2944 1316.05 100.242 1316.05 101.412ZM1359.21 90.118C1359.21 91.2874 1358.3 92.2354 1357.19 92.2354C1356.07 92.2354 1355.17 91.2874 1355.17 90.118C1355.17 88.948 1356.07 88 1357.19 88C1358.3 88 1359.21 88.948 1359.21 90.118ZM1346.4 92.2354C1347.51 92.2354 1348.42 91.2874 1348.42 90.118C1348.42 88.948 1347.51 88 1346.4 88C1345.28 88 1344.37 88.948 1344.37 90.118C1344.37 91.2874 1345.28 92.2354 1346.4 92.2354ZM1337.63 90.118C1337.63 91.2874 1336.72 92.2354 1335.6 92.2354C1334.49 92.2354 1333.58 91.2874 1333.58 90.118C1333.58 88.948 1334.49 88 1335.6 88C1336.72 88 1337.63 88.948 1337.63 90.118ZM1324.81 92.2354C1325.94 92.2354 1326.84 91.2874 1326.84 90.118C1326.84 88.948 1325.94 88 1324.81 88C1323.7 88 1322.79 88.948 1322.79 90.118C1322.79 91.2874 1323.7 92.2354 1324.81 92.2354ZM1316.05 90.118C1316.05 91.2874 1315.14 92.2354 1314.03 92.2354C1312.91 92.2354 1312 91.2874 1312 90.118C1312 88.948 1312.91 88 1314.03 88C1315.14 88 1316.05 88.948 1316.05 90.118Z" fill="white"/>
<path opacity="0.3" fill-rule="evenodd" clip-rule="evenodd" d="M1432.98 14.2354C1434.09 14.2354 1435 13.2874 1435 12.118C1435 10.948 1434.09 10 1432.98 10C1431.86 10 1430.95 10.948 1430.95 12.118C1430.95 13.2874 1431.86 14.2354 1432.98 14.2354ZM1432.98 25.5298C1434.09 25.5298 1435 24.5812 1435 23.4118C1435 22.2424 1434.09 21.2944 1432.98 21.2944C1431.86 21.2944 1430.95 22.2424 1430.95 23.4118C1430.95 24.5812 1431.86 25.5298 1432.98 25.5298ZM1432.98 36.8236C1434.09 36.8236 1435 35.8756 1435 34.7062C1435 33.5362 1434.09 32.5882 1432.98 32.5882C1431.86 32.5882 1430.95 33.5362 1430.95 34.7062C1430.95 35.8756 1431.86 36.8236 1432.98 36.8236ZM1432.98 48.118C1434.09 48.118 1435 47.1694 1435 46C1435 44.8306 1434.09 43.8826 1432.98 43.8826C1431.86 43.8826 1430.95 44.8306 1430.95 46C1430.95 47.1694 1431.86 48.118 1432.98 48.118ZM1432.98 59.4118C1434.09 59.4118 1435 58.4638 1435 57.2944C1435 56.1244 1434.09 55.1764 1432.98 55.1764C1431.86 55.1764 1430.95 56.1244 1430.95 57.2944C1430.95 58.4638 1431.86 59.4118 1432.98 59.4118ZM1432.98 70.7062C1434.09 70.7062 1435 69.7576 1435 68.5882C1435 67.4188 1434.09 66.4708 1432.98 66.4708C1431.86 66.4708 1430.95 67.4188 1430.95 68.5882C1430.95 69.7576 1431.86 70.7062 1432.98 70.7062ZM1411.62 81.9874C1412.74 81.9874 1413.64 81.0394 1413.64 79.87C1413.64 78.7006 1412.74 77.752 1411.62 77.752C1410.5 77.752 1409.59 78.7006 1409.59 79.87C1409.59 81.0394 1410.5 81.9874 1411.62 81.9874ZM1424.21 79.8826C1424.21 81.052 1423.3 82 1422.19 82C1421.07 82 1420.17 81.052 1420.17 79.8826C1420.17 78.7132 1421.07 77.7646 1422.19 77.7646C1423.3 77.7646 1424.21 78.7132 1424.21 79.8826ZM1435 79.8826C1435 81.052 1434.09 82 1432.98 82C1431.86 82 1430.95 81.052 1430.95 79.8826C1430.95 78.7132 1431.86 77.7646 1432.98 77.7646C1434.09 77.7646 1435 78.7132 1435 79.8826ZM1402.63 79.8826C1402.63 81.052 1401.72 82 1400.6 82C1399.49 82 1398.58 81.052 1398.58 79.8826C1398.58 78.7132 1399.49 77.7646 1400.6 77.7646C1401.72 77.7646 1402.63 78.7132 1402.63 79.8826ZM1389.81 82C1390.94 82 1391.84 81.052 1391.84 79.8826C1391.84 78.7132 1390.94 77.7646 1389.81 77.7646C1388.7 77.7646 1387.79 78.7132 1387.79 79.8826C1387.79 81.052 1388.7 82 1389.81 82ZM1381.05 79.8826C1381.05 81.052 1380.14 82 1379.03 82C1377.91 82 1377 81.052 1377 79.8826C1377 78.7132 1377.91 77.7646 1379.03 77.7646C1380.14 77.7646 1381.05 78.7132 1381.05 79.8826ZM1424.21 68.5882C1424.21 69.7576 1423.3 70.7062 1422.19 70.7062C1421.07 70.7062 1420.17 69.7576 1420.17 68.5882C1420.17 67.4188 1421.07 66.4708 1422.19 66.4708C1423.3 66.4708 1424.21 67.4188 1424.21 68.5882ZM1411.4 70.7062C1412.51 70.7062 1413.42 69.7576 1413.42 68.5882C1413.42 67.4188 1412.51 66.4708 1411.4 66.4708C1410.28 66.4708 1409.37 67.4188 1409.37 68.5882C1409.37 69.7576 1410.28 70.7062 1411.4 70.7062ZM1402.63 68.5882C1402.63 69.7576 1401.72 70.7062 1400.6 70.7062C1399.49 70.7062 1398.58 69.7576 1398.58 68.5882C1398.58 67.4188 1399.49 66.4708 1400.6 66.4708C1401.72 66.4708 1402.63 67.4188 1402.63 68.5882ZM1389.81 70.7062C1390.94 70.7062 1391.84 69.7576 1391.84 68.5882C1391.84 67.4188 1390.94 66.4708 1389.81 66.4708C1388.7 66.4708 1387.79 67.4188 1387.79 68.5882C1387.79 69.7576 1388.7 70.7062 1389.81 70.7062ZM1381.05 68.5882C1381.05 69.7576 1380.14 70.7062 1379.03 70.7062C1377.91 70.7062 1377 69.7576 1377 68.5882C1377 67.4188 1377.91 66.4708 1379.03 66.4708C1380.14 66.4708 1381.05 67.4188 1381.05 68.5882ZM1424.21 57.2944C1424.21 58.4638 1423.3 59.4118 1422.19 59.4118C1421.07 59.4118 1420.17 58.4638 1420.17 57.2944C1420.17 56.1244 1421.07 55.1764 1422.19 55.1764C1423.3 55.1764 1424.21 56.1244 1424.21 57.2944ZM1411.4 59.4118C1412.51 59.4118 1413.42 58.4638 1413.42 57.2944C1413.42 56.1244 1412.51 55.1764 1411.4 55.1764C1410.28 55.1764 1409.37 56.1244 1409.37 57.2944C1409.37 58.4638 1410.28 59.4118 1411.4 59.4118ZM1402.63 57.2944C1402.63 58.4638 1401.72 59.4118 1400.6 59.4118C1399.49 59.4118 1398.58 58.4638 1398.58 57.2944C1398.58 56.1244 1399.49 55.1764 1400.6 55.1764C1401.72 55.1764 1402.63 56.1244 1402.63 57.2944ZM1389.81 59.4118C1390.94 59.4118 1391.84 58.4638 1391.84 57.2944C1391.84 56.1244 1390.94 55.1764 1389.81 55.1764C1388.7 55.1764 1387.79 56.1244 1387.79 57.2944C1387.79 58.4638 1388.7 59.4118 1389.81 59.4118ZM1381.05 57.2944C1381.05 58.4638 1380.14 59.4118 1379.03 59.4118C1377.91 59.4118 1377 58.4638 1377 57.2944C1377 56.1244 1377.91 55.1764 1379.03 55.1764C1380.14 55.1764 1381.05 56.1244 1381.05 57.2944ZM1424.21 46C1424.21 47.1694 1423.3 48.118 1422.19 48.118C1421.07 48.118 1420.17 47.1694 1420.17 46C1420.17 44.8306 1421.07 43.8826 1422.19 43.8826C1423.3 43.8826 1424.21 44.8306 1424.21 46ZM1411.4 48.118C1412.51 48.118 1413.42 47.1694 1413.42 46C1413.42 44.8306 1412.51 43.8826 1411.4 43.8826C1410.28 43.8826 1409.37 44.8306 1409.37 46C1409.37 47.1694 1410.28 48.118 1411.4 48.118ZM1402.63 46C1402.63 47.1694 1401.72 48.118 1400.6 48.118C1399.49 48.118 1398.58 47.1694 1398.58 46C1398.58 44.8306 1399.49 43.8826 1400.6 43.8826C1401.72 43.8826 1402.63 44.8306 1402.63 46ZM1389.81 48.118C1390.94 48.118 1391.84 47.1694 1391.84 46C1391.84 44.8306 1390.94 43.8826 1389.81 43.8826C1388.7 43.8826 1387.79 44.8306 1387.79 46C1387.79 47.1694 1388.7 48.118 1389.81 48.118ZM1381.05 46C1381.05 47.1694 1380.14 48.118 1379.03 48.118C1377.91 48.118 1377 47.1694 1377 46C1377 44.8306 1377.91 43.8826 1379.03 43.8826C1380.14 43.8826 1381.05 44.8306 1381.05 46ZM1424.21 34.7062C1424.21 35.8756 1423.3 36.8236 1422.19 36.8236C1421.07 36.8236 1420.17 35.8756 1420.17 34.7062C1420.17 33.5362 1421.07 32.5882 1422.19 32.5882C1423.3 32.5882 1424.21 33.5362 1424.21 34.7062ZM1411.4 36.8236C1412.51 36.8236 1413.42 35.8756 1413.42 34.7062C1413.42 33.5362 1412.51 32.5882 1411.4 32.5882C1410.28 32.5882 1409.37 33.5362 1409.37 34.7062C1409.37 35.8756 1410.28 36.8236 1411.4 36.8236ZM1402.63 34.7062C1402.63 35.8756 1401.72 36.8236 1400.6 36.8236C1399.49 36.8236 1398.58 35.8756 1398.58 34.7062C1398.58 33.5362 1399.49 32.5882 1400.6 32.5882C1401.72 32.5882 1402.63 33.5362 1402.63 34.7062ZM1389.81 36.8236C1390.94 36.8236 1391.84 35.8756 1391.84 34.7062C1391.84 33.5362 1390.94 32.5882 1389.81 32.5882C1388.7 32.5882 1387.79 33.5362 1387.79 34.7062C1387.79 35.8756 1388.7 36.8236 1389.81 36.8236ZM1381.05 34.7062C1381.05 35.8756 1380.14 36.8236 1379.03 36.8236C1377.91 36.8236 1377 35.8756 1377 34.7062C1377 33.5362 1377.91 32.5882 1379.03 32.5882C1380.14 32.5882 1381.05 33.5362 1381.05 34.7062ZM1424.21 23.4118C1424.21 24.5812 1423.3 25.5298 1422.19 25.5298C1421.07 25.5298 1420.17 24.5812 1420.17 23.4118C1420.17 22.2424 1421.07 21.2944 1422.19 21.2944C1423.3 21.2944 1424.21 22.2424 1424.21 23.4118ZM1411.4 25.5298C1412.51 25.5298 1413.42 24.5812 1413.42 23.4118C1413.42 22.2424 1412.51 21.2944 1411.4 21.2944C1410.28 21.2944 1409.37 22.2424 1409.37 23.4118C1409.37 24.5812 1410.28 25.5298 1411.4 25.5298ZM1402.63 23.4118C1402.63 24.5812 1401.72 25.5298 1400.6 25.5298C1399.49 25.5298 1398.58 24.5812 1398.58 23.4118C1398.58 22.2424 1399.49 21.2944 1400.6 21.2944C1401.72 21.2944 1402.63 22.2424 1402.63 23.4118ZM1389.81 25.5298C1390.94 25.5298 1391.84 24.5812 1391.84 23.4118C1391.84 22.2424 1390.94 21.2944 1389.81 21.2944C1388.7 21.2944 1387.79 22.2424 1387.79 23.4118C1387.79 24.5812 1388.7 25.5298 1389.81 25.5298ZM1381.05 23.4118C1381.05 24.5812 1380.14 25.5298 1379.03 25.5298C1377.91 25.5298 1377 24.5812 1377 23.4118C1377 22.2424 1377.91 21.2944 1379.03 21.2944C1380.14 21.2944 1381.05 22.2424 1381.05 23.4118ZM1424.21 12.118C1424.21 13.2874 1423.3 14.2354 1422.19 14.2354C1421.07 14.2354 1420.17 13.2874 1420.17 12.118C1420.17 10.948 1421.07 10 1422.19 10C1423.3 10 1424.21 10.948 1424.21 12.118ZM1411.4 14.2354C1412.51 14.2354 1413.42 13.2874 1413.42 12.118C1413.42 10.948 1412.51 10 1411.4 10C1410.28 10 1409.37 10.948 1409.37 12.118C1409.37 13.2874 1410.28 14.2354 1411.4 14.2354ZM1402.63 12.118C1402.63 13.2874 1401.72 14.2354 1400.6 14.2354C1399.49 14.2354 1398.58 13.2874 1398.58 12.118C1398.58 10.948 1399.49 10 1400.6 10C1401.72 10 1402.63 10.948 1402.63 12.118ZM1389.81 14.2354C1390.94 14.2354 1391.84 13.2874 1391.84 12.118C1391.84 10.948 1390.94 10 1389.81 10C1388.7 10 1387.79 10.948 1387.79 12.118C1387.79 13.2874 1388.7 14.2354 1389.81 14.2354ZM1381.05 12.118C1381.05 13.2874 1380.14 14.2354 1379.03 14.2354C1377.91 14.2354 1377 13.2874 1377 12.118C1377 10.948 1377.91 10 1379.03 10C1380.14 10 1381.05 10.948 1381.05 12.118Z" fill="white"/>
<path opacity="0.3" fill-rule="evenodd" clip-rule="evenodd" d="M1432.98 92.2354C1434.09 92.2354 1435 91.2874 1435 90.118C1435 88.948 1434.09 88 1432.98 88C1431.86 88 1430.95 88.948 1430.95 90.118C1430.95 91.2874 1431.86 92.2354 1432.98 92.2354ZM1432.98 103.53C1434.09 103.53 1435 102.581 1435 101.412C1435 100.242 1434.09 99.2944 1432.98 99.2944C1431.86 99.2944 1430.95 100.242 1430.95 101.412C1430.95 102.581 1431.86 103.53 1432.98 103.53ZM1432.98 114.824C1434.09 114.824 1435 113.876 1435 112.706C1435 111.536 1434.09 110.588 1432.98 110.588C1431.86 110.588 1430.95 111.536 1430.95 112.706C1430.95 113.876 1431.86 114.824 1432.98 114.824ZM1432.98 126.118C1434.09 126.118 1435 125.169 1435 124C1435 122.831 1434.09 121.883 1432.98 121.883C1431.86 121.883 1430.95 122.831 1430.95 124C1430.95 125.169 1431.86 126.118 1432.98 126.118ZM1432.98 137.412C1434.09 137.412 1435 136.464 1435 135.294C1435 134.124 1434.09 133.176 1432.98 133.176C1431.86 133.176 1430.95 134.124 1430.95 135.294C1430.95 136.464 1431.86 137.412 1432.98 137.412ZM1432.98 148.706C1434.09 148.706 1435 147.758 1435 146.588C1435 145.419 1434.09 144.471 1432.98 144.471C1431.86 144.471 1430.95 145.419 1430.95 146.588C1430.95 147.758 1431.86 148.706 1432.98 148.706ZM1411.62 159.987C1412.74 159.987 1413.64 159.039 1413.64 157.87C1413.64 156.701 1412.74 155.752 1411.62 155.752C1410.5 155.752 1409.59 156.701 1409.59 157.87C1409.59 159.039 1410.5 159.987 1411.62 159.987ZM1424.21 157.883C1424.21 159.052 1423.3 160 1422.19 160C1421.07 160 1420.17 159.052 1420.17 157.883C1420.17 156.713 1421.07 155.765 1422.19 155.765C1423.3 155.765 1424.21 156.713 1424.21 157.883ZM1435 157.883C1435 159.052 1434.09 160 1432.98 160C1431.86 160 1430.95 159.052 1430.95 157.883C1430.95 156.713 1431.86 155.765 1432.98 155.765C1434.09 155.765 1435 156.713 1435 157.883ZM1402.63 157.883C1402.63 159.052 1401.72 160 1400.6 160C1399.49 160 1398.58 159.052 1398.58 157.883C1398.58 156.713 1399.49 155.765 1400.6 155.765C1401.72 155.765 1402.63 156.713 1402.63 157.883ZM1389.81 160C1390.94 160 1391.84 159.052 1391.84 157.883C1391.84 156.713 1390.94 155.765 1389.81 155.765C1388.7 155.765 1387.79 156.713 1387.79 157.883C1387.79 159.052 1388.7 160 1389.81 160ZM1381.05 157.883C1381.05 159.052 1380.14 160 1379.03 160C1377.91 160 1377 159.052 1377 157.883C1377 156.713 1377.91 155.765 1379.03 155.765C1380.14 155.765 1381.05 156.713 1381.05 157.883ZM1424.21 146.588C1424.21 147.758 1423.3 148.706 1422.19 148.706C1421.07 148.706 1420.17 147.758 1420.17 146.588C1420.17 145.419 1421.07 144.471 1422.19 144.471C1423.3 144.471 1424.21 145.419 1424.21 146.588ZM1411.4 148.706C1412.51 148.706 1413.42 147.758 1413.42 146.588C1413.42 145.419 1412.51 144.471 1411.4 144.471C1410.28 144.471 1409.37 145.419 1409.37 146.588C1409.37 147.758 1410.28 148.706 1411.4 148.706ZM1402.63 146.588C1402.63 147.758 1401.72 148.706 1400.6 148.706C1399.49 148.706 1398.58 147.758 1398.58 146.588C1398.58 145.419 1399.49 144.471 1400.6 144.471C1401.72 144.471 1402.63 145.419 1402.63 146.588ZM1389.81 148.706C1390.94 148.706 1391.84 147.758 1391.84 146.588C1391.84 145.419 1390.94 144.471 1389.81 144.471C1388.7 144.471 1387.79 145.419 1387.79 146.588C1387.79 147.758 1388.7 148.706 1389.81 148.706ZM1381.05 146.588C1381.05 147.758 1380.14 148.706 1379.03 148.706C1377.91 148.706 1377 147.758 1377 146.588C1377 145.419 1377.91 144.471 1379.03 144.471C1380.14 144.471 1381.05 145.419 1381.05 146.588ZM1424.21 135.294C1424.21 136.464 1423.3 137.412 1422.19 137.412C1421.07 137.412 1420.17 136.464 1420.17 135.294C1420.17 134.124 1421.07 133.176 1422.19 133.176C1423.3 133.176 1424.21 134.124 1424.21 135.294ZM1411.4 137.412C1412.51 137.412 1413.42 136.464 1413.42 135.294C1413.42 134.124 1412.51 133.176 1411.4 133.176C1410.28 133.176 1409.37 134.124 1409.37 135.294C1409.37 136.464 1410.28 137.412 1411.4 137.412ZM1402.63 135.294C1402.63 136.464 1401.72 137.412 1400.6 137.412C1399.49 137.412 1398.58 136.464 1398.58 135.294C1398.58 134.124 1399.49 133.176 1400.6 133.176C1401.72 133.176 1402.63 134.124 1402.63 135.294ZM1389.81 137.412C1390.94 137.412 1391.84 136.464 1391.84 135.294C1391.84 134.124 1390.94 133.176 1389.81 133.176C1388.7 133.176 1387.79 134.124 1387.79 135.294C1387.79 136.464 1388.7 137.412 1389.81 137.412ZM1381.05 135.294C1381.05 136.464 1380.14 137.412 1379.03 137.412C1377.91 137.412 1377 136.464 1377 135.294C1377 134.124 1377.91 133.176 1379.03 133.176C1380.14 133.176 1381.05 134.124 1381.05 135.294ZM1424.21 124C1424.21 125.169 1423.3 126.118 1422.19 126.118C1421.07 126.118 1420.17 125.169 1420.17 124C1420.17 122.831 1421.07 121.883 1422.19 121.883C1423.3 121.883 1424.21 122.831 1424.21 124ZM1411.4 126.118C1412.51 126.118 1413.42 125.169 1413.42 124C1413.42 122.831 1412.51 121.883 1411.4 121.883C1410.28 121.883 1409.37 122.831 1409.37 124C1409.37 125.169 1410.28 126.118 1411.4 126.118ZM1402.63 124C1402.63 125.169 1401.72 126.118 1400.6 126.118C1399.49 126.118 1398.58 125.169 1398.58 124C1398.58 122.831 1399.49 121.883 1400.6 121.883C1401.72 121.883 1402.63 122.831 1402.63 124ZM1389.81 126.118C1390.94 126.118 1391.84 125.169 1391.84 124C1391.84 122.831 1390.94 121.883 1389.81 121.883C1388.7 121.883 1387.79 122.831 1387.79 124C1387.79 125.169 1388.7 126.118 1389.81 126.118ZM1381.05 124C1381.05 125.169 1380.14 126.118 1379.03 126.118C1377.91 126.118 1377 125.169 1377 124C1377 122.831 1377.91 121.883 1379.03 121.883C1380.14 121.883 1381.05 122.831 1381.05 124ZM1424.21 112.706C1424.21 113.876 1423.3 114.824 1422.19 114.824C1421.07 114.824 1420.17 113.876 1420.17 112.706C1420.17 111.536 1421.07 110.588 1422.19 110.588C1423.3 110.588 1424.21 111.536 1424.21 112.706ZM1411.4 114.824C1412.51 114.824 1413.42 113.876 1413.42 112.706C1413.42 111.536 1412.51 110.588 1411.4 110.588C1410.28 110.588 1409.37 111.536 1409.37 112.706C1409.37 113.876 1410.28 114.824 1411.4 114.824ZM1402.63 112.706C1402.63 113.876 1401.72 114.824 1400.6 114.824C1399.49 114.824 1398.58 113.876 1398.58 112.706C1398.58 111.536 1399.49 110.588 1400.6 110.588C1401.72 110.588 1402.63 111.536 1402.63 112.706ZM1389.81 114.824C1390.94 114.824 1391.84 113.876 1391.84 112.706C1391.84 111.536 1390.94 110.588 1389.81 110.588C1388.7 110.588 1387.79 111.536 1387.79 112.706C1387.79 113.876 1388.7 114.824 1389.81 114.824ZM1381.05 112.706C1381.05 113.876 1380.14 114.824 1379.03 114.824C1377.91 114.824 1377 113.876 1377 112.706C1377 111.536 1377.91 110.588 1379.03 110.588C1380.14 110.588 1381.05 111.536 1381.05 112.706ZM1424.21 101.412C1424.21 102.581 1423.3 103.53 1422.19 103.53C1421.07 103.53 1420.17 102.581 1420.17 101.412C1420.17 100.242 1421.07 99.2944 1422.19 99.2944C1423.3 99.2944 1424.21 100.242 1424.21 101.412ZM1411.4 103.53C1412.51 103.53 1413.42 102.581 1413.42 101.412C1413.42 100.242 1412.51 99.2944 1411.4 99.2944C1410.28 99.2944 1409.37 100.242 1409.37 101.412C1409.37 102.581 1410.28 103.53 1411.4 103.53ZM1402.63 101.412C1402.63 102.581 1401.72 103.53 1400.6 103.53C1399.49 103.53 1398.58 102.581 1398.58 101.412C1398.58 100.242 1399.49 99.2944 1400.6 99.2944C1401.72 99.2944 1402.63 100.242 1402.63 101.412ZM1389.81 103.53C1390.94 103.53 1391.84 102.581 1391.84 101.412C1391.84 100.242 1390.94 99.2944 1389.81 99.2944C1388.7 99.2944 1387.79 100.242 1387.79 101.412C1387.79 102.581 1388.7 103.53 1389.81 103.53ZM1381.05 101.412C1381.05 102.581 1380.14 103.53 1379.03 103.53C1377.91 103.53 1377 102.581 1377 101.412C1377 100.242 1377.91 99.2944 1379.03 99.2944C1380.14 99.2944 1381.05 100.242 1381.05 101.412ZM1424.21 90.118C1424.21 91.2874 1423.3 92.2354 1422.19 92.2354C1421.07 92.2354 1420.17 91.2874 1420.17 90.118C1420.17 88.948 1421.07 88 1422.19 88C1423.3 88 1424.21 88.948 1424.21 90.118ZM1411.4 92.2354C1412.51 92.2354 1413.42 91.2874 1413.42 90.118C1413.42 88.948 1412.51 88 1411.4 88C1410.28 88 1409.37 88.948 1409.37 90.118C1409.37 91.2874 1410.28 92.2354 1411.4 92.2354ZM1402.63 90.118C1402.63 91.2874 1401.72 92.2354 1400.6 92.2354C1399.49 92.2354 1398.58 91.2874 1398.58 90.118C1398.58 88.948 1399.49 88 1400.6 88C1401.72 88 1402.63 88.948 1402.63 90.118ZM1389.81 92.2354C1390.94 92.2354 1391.84 91.2874 1391.84 90.118C1391.84 88.948 1390.94 88 1389.81 88C1388.7 88 1387.79 88.948 1387.79 90.118C1387.79 91.2874 1388.7 92.2354 1389.81 92.2354ZM1381.05 90.118C1381.05 91.2874 1380.14 92.2354 1379.03 92.2354C1377.91 92.2354 1377 91.2874 1377 90.118C1377 88.948 1377.91 88 1379.03 88C1380.14 88 1381.05 88.948 1381.05 90.118Z" fill="white"/>
</g>
<path d="M774.278 74.132V78.79H767.954V98H762.14V78.79H755.816V74.132H774.278ZM785.832 98.272C783.973 98.272 782.296 97.8753 780.8 97.082C779.327 96.2887 778.159 95.1553 777.298 93.682C776.459 92.2087 776.04 90.486 776.04 88.514C776.04 86.5647 776.471 84.8533 777.332 83.38C778.193 81.884 779.372 80.7393 780.868 79.946C782.364 79.1527 784.041 78.756 785.9 78.756C787.759 78.756 789.436 79.1527 790.932 79.946C792.428 80.7393 793.607 81.884 794.468 83.38C795.329 84.8533 795.76 86.5647 795.76 88.514C795.76 90.4633 795.318 92.186 794.434 93.682C793.573 95.1553 792.383 96.2887 790.864 97.082C789.368 97.8753 787.691 98.272 785.832 98.272ZM785.832 93.24C786.943 93.24 787.883 92.832 788.654 92.016C789.447 91.2 789.844 90.0327 789.844 88.514C789.844 86.9953 789.459 85.828 788.688 85.012C787.94 84.196 787.011 83.788 785.9 83.788C784.767 83.788 783.826 84.196 783.078 85.012C782.33 85.8053 781.956 86.9727 781.956 88.514C781.956 90.0327 782.319 91.2 783.044 92.016C783.792 92.832 784.721 93.24 785.832 93.24ZM814.991 74.132C817.507 74.132 819.706 74.6307 821.587 75.628C823.469 76.6253 824.919 78.0307 825.939 79.844C826.982 81.6347 827.503 83.7087 827.503 86.066C827.503 88.4007 826.982 90.4747 825.939 92.288C824.919 94.1013 823.457 95.5067 821.553 96.504C819.672 97.5013 817.485 98 814.991 98H806.049V74.132H814.991ZM814.617 92.968C816.816 92.968 818.527 92.3673 819.751 91.166C820.975 89.9647 821.587 88.2647 821.587 86.066C821.587 83.8673 820.975 82.156 819.751 80.932C818.527 79.708 816.816 79.096 814.617 79.096H811.863V92.968H814.617ZM845.373 83.652V88.48H830.413V83.652H845.373ZM859.417 74.132C861.933 74.132 864.132 74.6307 866.013 75.628C867.895 76.6253 869.345 78.0307 870.365 79.844C871.408 81.6347 871.929 83.7087 871.929 86.066C871.929 88.4007 871.408 90.4747 870.365 92.288C869.345 94.1013 867.883 95.5067 865.979 96.504C864.098 97.5013 861.911 98 859.417 98H850.475V74.132H859.417ZM859.043 92.968C861.242 92.968 862.953 92.3673 864.177 91.166C865.401 89.9647 866.013 88.2647 866.013 86.066C866.013 83.8673 865.401 82.156 864.177 80.932C862.953 79.708 861.242 79.096 859.043 79.096H856.289V92.968H859.043ZM874.022 88.48C874.022 86.5307 874.385 84.8193 875.11 83.346C875.858 81.8727 876.867 80.7393 878.136 79.946C879.406 79.1527 880.822 78.756 882.386 78.756C883.724 78.756 884.891 79.028 885.888 79.572C886.908 80.116 887.69 80.83 888.234 81.714V79.028H894.048V98H888.234V95.314C887.668 96.198 886.874 96.912 885.854 97.456C884.857 98 883.69 98.272 882.352 98.272C880.811 98.272 879.406 97.8753 878.136 97.082C876.867 96.266 875.858 95.1213 875.11 93.648C874.385 92.152 874.022 90.4293 874.022 88.48ZM888.234 88.514C888.234 87.0633 887.826 85.9187 887.01 85.08C886.217 84.2413 885.242 83.822 884.086 83.822C882.93 83.822 881.944 84.2413 881.128 85.08C880.335 85.896 879.938 87.0293 879.938 88.48C879.938 89.9307 880.335 91.0867 881.128 91.948C881.944 92.7867 882.93 93.206 884.086 93.206C885.242 93.206 886.217 92.7867 887.01 91.948C887.826 91.1093 888.234 89.9647 888.234 88.514ZM917.634 79.028L905.734 107.01H899.478L903.83 97.354L896.112 79.028H902.606L906.992 90.894L911.344 79.028H917.634ZM925.993 92.628L922.219 102.386H918.513L920.485 92.628H925.993ZM935.548 88.48C935.548 86.5307 935.91 84.8193 936.636 83.346C937.384 81.8727 938.392 80.7393 939.662 79.946C940.931 79.1527 942.348 78.756 943.912 78.756C945.249 78.756 946.416 79.028 947.414 79.572C948.434 80.116 949.216 80.83 949.76 81.714V79.028H955.574V98H949.76V95.314C949.193 96.198 948.4 96.912 947.38 97.456C946.382 98 945.215 98.272 943.878 98.272C942.336 98.272 940.931 97.8753 939.662 97.082C938.392 96.266 937.384 95.1213 936.636 93.648C935.91 92.152 935.548 90.4293 935.548 88.48ZM949.76 88.514C949.76 87.0633 949.352 85.9187 948.536 85.08C947.742 84.2413 946.768 83.822 945.612 83.822C944.456 83.822 943.47 84.2413 942.654 85.08C941.86 85.896 941.464 87.0293 941.464 88.48C941.464 89.9307 941.86 91.0867 942.654 91.948C943.47 92.7867 944.456 93.206 945.612 93.206C946.768 93.206 947.742 92.7867 948.536 91.948C949.352 91.1093 949.76 89.9647 949.76 88.514ZM965.594 82.19C966.274 81.1473 967.124 80.3313 968.144 79.742C969.164 79.13 970.297 78.824 971.544 78.824V84.978H969.946C968.495 84.978 967.407 85.2953 966.682 85.93C965.957 86.542 965.594 87.63 965.594 89.194V98H959.78V79.028H965.594V82.19ZM992.207 88.208C992.207 88.752 992.173 89.3187 992.105 89.908H978.947C979.038 91.0867 979.412 91.9933 980.069 92.628C980.749 93.24 981.576 93.546 982.551 93.546C984.002 93.546 985.01 92.934 985.577 91.71H991.765C991.448 92.9567 990.87 94.0787 990.031 95.076C989.215 96.0733 988.184 96.8553 986.937 97.422C985.69 97.9887 984.296 98.272 982.755 98.272C980.896 98.272 979.242 97.8753 977.791 97.082C976.34 96.2887 975.207 95.1553 974.391 93.682C973.575 92.2087 973.167 90.486 973.167 88.514C973.167 86.542 973.564 84.8193 974.357 83.346C975.173 81.8727 976.306 80.7393 977.757 79.946C979.208 79.1527 980.874 78.756 982.755 78.756C984.591 78.756 986.223 79.1413 987.651 79.912C989.079 80.6827 990.19 81.782 990.983 83.21C991.799 84.638 992.207 86.304 992.207 88.208ZM986.257 86.678C986.257 85.6807 985.917 84.8873 985.237 84.298C984.557 83.7087 983.707 83.414 982.687 83.414C981.712 83.414 980.885 83.6973 980.205 84.264C979.548 84.8307 979.14 85.6353 978.981 86.678H986.257ZM1021.86 79.028L1009.96 107.01H1003.7L1008.06 97.354L1000.34 79.028H1006.83L1011.22 90.894L1015.57 79.028H1021.86ZM1032.6 98.272C1030.74 98.272 1029.06 97.8753 1027.57 97.082C1026.09 96.2887 1024.92 95.1553 1024.06 93.682C1023.22 92.2087 1022.81 90.486 1022.81 88.514C1022.81 86.5647 1023.24 84.8533 1024.1 83.38C1024.96 81.884 1026.14 80.7393 1027.63 79.946C1029.13 79.1527 1030.81 78.756 1032.67 78.756C1034.52 78.756 1036.2 79.1527 1037.7 79.946C1039.19 80.7393 1040.37 81.884 1041.23 83.38C1042.09 84.8533 1042.53 86.5647 1042.53 88.514C1042.53 90.4633 1042.08 92.186 1041.2 93.682C1040.34 95.1553 1039.15 96.2887 1037.63 97.082C1036.13 97.8753 1034.46 98.272 1032.6 98.272ZM1032.6 93.24C1033.71 93.24 1034.65 92.832 1035.42 92.016C1036.21 91.2 1036.61 90.0327 1036.61 88.514C1036.61 86.9953 1036.22 85.828 1035.45 85.012C1034.71 84.196 1033.78 83.788 1032.67 83.788C1031.53 83.788 1030.59 84.196 1029.84 85.012C1029.1 85.8053 1028.72 86.9727 1028.72 88.514C1028.72 90.0327 1029.08 91.2 1029.81 92.016C1030.56 92.832 1031.49 93.24 1032.6 93.24ZM1064.34 79.028V98H1058.53V95.416C1057.94 96.2547 1057.14 96.9347 1056.12 97.456C1055.12 97.9547 1054.01 98.204 1052.78 98.204C1051.33 98.204 1050.05 97.8867 1048.94 97.252C1047.83 96.5947 1046.97 95.654 1046.36 94.43C1045.75 93.206 1045.44 91.7667 1045.44 90.112V79.028H1051.22V89.33C1051.22 90.5993 1051.55 91.5853 1052.21 92.288C1052.86 92.9907 1053.75 93.342 1054.86 93.342C1055.99 93.342 1056.89 92.9907 1057.54 92.288C1058.2 91.5853 1058.53 90.5993 1058.53 89.33V79.028H1064.34ZM1081.54 82.19C1082.22 81.1473 1083.07 80.3313 1084.09 79.742C1085.11 79.13 1086.24 78.824 1087.49 78.824V84.978H1085.89C1084.44 84.978 1083.35 85.2953 1082.63 85.93C1081.9 86.542 1081.54 87.63 1081.54 89.194V98H1075.73V79.028H1081.54V82.19ZM1108.15 88.208C1108.15 88.752 1108.12 89.3187 1108.05 89.908H1094.89C1094.98 91.0867 1095.36 91.9933 1096.01 92.628C1096.69 93.24 1097.52 93.546 1098.5 93.546C1099.95 93.546 1100.96 92.934 1101.52 91.71H1107.71C1107.39 92.9567 1106.81 94.0787 1105.98 95.076C1105.16 96.0733 1104.13 96.8553 1102.88 97.422C1101.64 97.9887 1100.24 98.272 1098.7 98.272C1096.84 98.272 1095.19 97.8753 1093.74 97.082C1092.29 96.2887 1091.15 95.1553 1090.34 93.682C1089.52 92.2087 1089.11 90.486 1089.11 88.514C1089.11 86.542 1089.51 84.8193 1090.3 83.346C1091.12 81.8727 1092.25 80.7393 1093.7 79.946C1095.15 79.1527 1096.82 78.756 1098.7 78.756C1100.54 78.756 1102.17 79.1413 1103.6 79.912C1105.02 80.6827 1106.13 81.782 1106.93 83.21C1107.74 84.638 1108.15 86.304 1108.15 88.208ZM1102.2 86.678C1102.2 85.6807 1101.86 84.8873 1101.18 84.298C1100.5 83.7087 1099.65 83.414 1098.63 83.414C1097.66 83.414 1096.83 83.6973 1096.15 84.264C1095.49 84.8307 1095.08 85.6353 1094.93 86.678H1102.2ZM1110.06 88.48C1110.06 86.5307 1110.43 84.8193 1111.15 83.346C1111.9 81.8727 1112.91 80.7393 1114.18 79.946C1115.45 79.1527 1116.86 78.756 1118.43 78.756C1119.76 78.756 1120.93 79.028 1121.93 79.572C1122.95 80.116 1123.73 80.83 1124.28 81.714V79.028H1130.09V98H1124.28V95.314C1123.71 96.198 1122.92 96.912 1121.9 97.456C1120.9 98 1119.73 98.272 1118.39 98.272C1116.85 98.272 1115.45 97.8753 1114.18 97.082C1112.91 96.266 1111.9 95.1213 1111.15 93.648C1110.43 92.152 1110.06 90.4293 1110.06 88.48ZM1124.28 88.514C1124.28 87.0633 1123.87 85.9187 1123.05 85.08C1122.26 84.2413 1121.28 83.822 1120.13 83.822C1118.97 83.822 1117.99 84.2413 1117.17 85.08C1116.38 85.896 1115.98 87.0293 1115.98 88.48C1115.98 89.9307 1116.38 91.0867 1117.17 91.948C1117.99 92.7867 1118.97 93.206 1120.13 93.206C1121.28 93.206 1122.26 92.7867 1123.05 91.948C1123.87 91.1093 1124.28 89.9647 1124.28 88.514ZM1133.14 88.48C1133.14 86.5307 1133.5 84.8193 1134.23 83.346C1134.98 81.8727 1135.98 80.7393 1137.25 79.946C1138.52 79.1527 1139.94 78.756 1141.5 78.756C1142.75 78.756 1143.88 79.0167 1144.9 79.538C1145.95 80.0593 1146.76 80.762 1147.35 81.646V72.84H1153.17V98H1147.35V95.28C1146.81 96.1867 1146.03 96.912 1145.01 97.456C1144.01 98 1142.84 98.272 1141.5 98.272C1139.94 98.272 1138.52 97.8753 1137.25 97.082C1135.98 96.266 1134.98 95.1213 1134.23 93.648C1133.5 92.152 1133.14 90.4293 1133.14 88.48ZM1147.35 88.514C1147.35 87.0633 1146.94 85.9187 1146.13 85.08C1145.33 84.2413 1144.36 83.822 1143.2 83.822C1142.05 83.822 1141.06 84.2413 1140.25 85.08C1139.45 85.896 1139.06 87.0293 1139.06 88.48C1139.06 89.9307 1139.45 91.0867 1140.25 91.948C1141.06 92.7867 1142.05 93.206 1143.2 93.206C1144.36 93.206 1145.33 92.7867 1146.13 91.948C1146.94 91.1093 1147.35 89.9647 1147.35 88.514ZM1176.75 79.028L1164.85 107.01H1158.6L1162.95 97.354L1155.23 79.028H1161.72L1166.11 90.894L1170.46 79.028H1176.75ZM1185.82 72.806C1188.25 72.806 1190.19 73.4407 1191.64 74.71C1193.11 75.9793 1193.85 77.77 1193.85 80.082C1193.85 82.2127 1193.15 83.8787 1191.74 85.08C1190.36 86.2587 1188.52 86.8593 1186.23 86.882L1186.06 89.432H1180.96L1180.79 83.108H1182.83C1184.58 83.108 1185.9 82.8927 1186.81 82.462C1187.74 82.0313 1188.2 81.2493 1188.2 80.116C1188.2 79.3227 1187.99 78.6993 1187.56 78.246C1187.13 77.7927 1186.53 77.566 1185.76 77.566C1184.94 77.566 1184.31 77.804 1183.85 78.28C1183.4 78.7333 1183.17 79.3567 1183.17 80.15H1177.7C1177.65 78.7673 1177.94 77.5207 1178.55 76.41C1179.18 75.2993 1180.11 74.4267 1181.34 73.792C1182.58 73.1347 1184.08 72.806 1185.82 72.806ZM1183.58 98.272C1182.56 98.272 1181.72 97.9773 1181.06 97.388C1180.43 96.776 1180.11 96.028 1180.11 95.144C1180.11 94.2373 1180.43 93.478 1181.06 92.866C1181.72 92.254 1182.56 91.948 1183.58 91.948C1184.58 91.948 1185.39 92.254 1186.03 92.866C1186.69 93.478 1187.01 94.2373 1187.01 95.144C1187.01 96.028 1186.69 96.776 1186.03 97.388C1185.39 97.9773 1184.58 98.272 1183.58 98.272Z" fill="white"/>
<rect opacity="0.1" x="245" y="40" width="90" height="90" rx="5" fill="white"/>
<g clip-path="url(#clip0)">
<path d="M270.8 76C270.8 71.4133 271.68 67.8 273.44 65.16C275.227 62.52 278.093 61.2 282.04 61.2C285.987 61.2 288.84 62.52 290.6 65.16C292.387 67.8 293.28 71.4133 293.28 76C293.28 80.64 292.387 84.28 290.6 86.92C288.84 89.56 285.987 90.88 282.04 90.88C278.093 90.88 275.227 89.56 273.44 86.92C271.68 84.28 270.8 80.64 270.8 76ZM286.56 76C286.56 73.3067 286.267 71.24 285.68 69.8C285.093 68.3333 283.88 67.6 282.04 67.6C280.2 67.6 278.987 68.3333 278.4 69.8C277.813 71.24 277.52 73.3067 277.52 76C277.52 77.8133 277.627 79.32 277.84 80.52C278.053 81.6933 278.48 82.6533 279.12 83.4C279.787 84.12 280.76 84.48 282.04 84.48C283.32 84.48 284.28 84.12 284.92 83.4C285.587 82.6533 286.027 81.6933 286.24 80.52C286.453 79.32 286.56 77.8133 286.56 76ZM296.174 68.16V61.8H307.254V91H300.134V68.16H296.174Z" fill="white"/>
<path opacity="0.8" d="M277.756 108.624C278.636 108.624 279.408 108.796 280.072 109.14C280.744 109.484 281.26 109.976 281.62 110.616C281.988 111.248 282.172 111.984 282.172 112.824C282.172 113.664 281.988 114.4 281.62 115.032C281.26 115.656 280.744 116.14 280.072 116.484C279.408 116.828 278.636 117 277.756 117H274.828V108.624H277.756ZM277.696 115.572C278.576 115.572 279.256 115.332 279.736 114.852C280.216 114.372 280.456 113.696 280.456 112.824C280.456 111.952 280.216 111.272 279.736 110.784C279.256 110.288 278.576 110.04 277.696 110.04H276.508V115.572H277.696ZM288.566 115.404H285.23L284.678 117H282.914L285.926 108.612H287.882L290.894 117H289.118L288.566 115.404ZM288.11 114.06L286.898 110.556L285.686 114.06H288.11ZM298.679 108.624L295.847 114.084V117H294.167V114.084L291.323 108.624H293.219L295.019 112.452L296.807 108.624H298.679ZM302.54 117.084C301.956 117.084 301.428 116.984 300.956 116.784C300.492 116.584 300.124 116.296 299.852 115.92C299.58 115.544 299.44 115.1 299.432 114.588H301.232C301.256 114.932 301.376 115.204 301.592 115.404C301.816 115.604 302.12 115.704 302.504 115.704C302.896 115.704 303.204 115.612 303.428 115.428C303.652 115.236 303.764 114.988 303.764 114.684C303.764 114.436 303.688 114.232 303.536 114.072C303.384 113.912 303.192 113.788 302.96 113.7C302.736 113.604 302.424 113.5 302.024 113.388C301.48 113.228 301.036 113.072 300.692 112.92C300.356 112.76 300.064 112.524 299.816 112.212C299.576 111.892 299.456 111.468 299.456 110.94C299.456 110.444 299.58 110.012 299.828 109.644C300.076 109.276 300.424 108.996 300.872 108.804C301.32 108.604 301.832 108.504 302.408 108.504C303.272 108.504 303.972 108.716 304.508 109.14C305.052 109.556 305.352 110.14 305.408 110.892H303.56C303.544 110.604 303.42 110.368 303.188 110.184C302.964 109.992 302.664 109.896 302.288 109.896C301.96 109.896 301.696 109.98 301.496 110.148C301.304 110.316 301.208 110.56 301.208 110.88C301.208 111.104 301.28 111.292 301.424 111.444C301.576 111.588 301.76 111.708 301.976 111.804C302.2 111.892 302.512 111.996 302.912 112.116C303.456 112.276 303.9 112.436 304.244 112.596C304.588 112.756 304.884 112.996 305.132 113.316C305.38 113.636 305.504 114.056 305.504 114.576C305.504 115.024 305.388 115.44 305.156 115.824C304.924 116.208 304.584 116.516 304.136 116.748C303.688 116.972 303.156 117.084 302.54 117.084Z" fill="white"/>
</g>
<path opacity="0.5" d="M349.84 101.28C349.013 101.28 348.32 101 347.76 100.44C347.2 99.88 346.92 99.1867 346.92 98.36C346.92 97.5333 347.2 96.84 347.76 96.28C348.32 95.72 349.013 95.44 349.84 95.44C350.64 95.44 351.32 95.72 351.88 96.28C352.44 96.84 352.72 97.5333 352.72 98.36C352.72 99.1867 352.44 99.88 351.88 100.44C351.32 101 350.64 101.28 349.84 101.28ZM349.84 84.48C349.013 84.48 348.32 84.2 347.76 83.64C347.2 83.08 346.92 82.3867 346.92 81.56C346.92 80.7333 347.2 80.04 347.76 79.48C348.32 78.92 349.013 78.64 349.84 78.64C350.64 78.64 351.32 78.92 351.88 79.48C352.44 80.04 352.72 80.7333 352.72 81.56C352.72 82.3867 352.44 83.08 351.88 83.64C351.32 84.2 350.64 84.48 349.84 84.48Z" fill="white"/>
<path opacity="0.5" d="M469.84 101.28C469.013 101.28 468.32 101 467.76 100.44C467.2 99.88 466.92 99.1867 466.92 98.36C466.92 97.5333 467.2 96.84 467.76 96.28C468.32 95.72 469.013 95.44 469.84 95.44C470.64 95.44 471.32 95.72 471.88 96.28C472.44 96.84 472.72 97.5333 472.72 98.36C472.72 99.1867 472.44 99.88 471.88 100.44C471.32 101 470.64 101.28 469.84 101.28ZM469.84 84.48C469.013 84.48 468.32 84.2 467.76 83.64C467.2 83.08 466.92 82.3867 466.92 81.56C466.92 80.7333 467.2 80.04 467.76 79.48C468.32 78.92 469.013 78.64 469.84 78.64C470.64 78.64 471.32 78.92 471.88 79.48C472.44 80.04 472.72 80.7333 472.72 81.56C472.72 82.3867 472.44 83.08 471.88 83.64C471.32 84.2 470.64 84.48 469.84 84.48Z" fill="white"/>
<path opacity="0.5" d="M589.84 101.28C589.013 101.28 588.32 101 587.76 100.44C587.2 99.88 586.92 99.1867 586.92 98.36C586.92 97.5333 587.2 96.84 587.76 96.28C588.32 95.72 589.013 95.44 589.84 95.44C590.64 95.44 591.32 95.72 591.88 96.28C592.44 96.84 592.72 97.5333 592.72 98.36C592.72 99.1867 592.44 99.88 591.88 100.44C591.32 101 590.64 101.28 589.84 101.28ZM589.84 84.48C589.013 84.48 588.32 84.2 587.76 83.64C587.2 83.08 586.92 82.3867 586.92 81.56C586.92 80.7333 587.2 80.04 587.76 79.48C588.32 78.92 589.013 78.64 589.84 78.64C590.64 78.64 591.32 78.92 591.88 79.48C592.44 80.04 592.72 80.7333 592.72 81.56C592.72 82.3867 592.44 83.08 591.88 83.64C591.32 84.2 590.64 84.48 589.84 84.48Z" fill="white"/>
<rect opacity="0.1" x="365" y="40" width="90" height="90" rx="5" fill="white"/>
<g clip-path="url(#clip1)">
<path d="M387.8 76C387.8 71.4133 388.68 67.8 390.44 65.16C392.227 62.52 395.093 61.2 399.04 61.2C402.987 61.2 405.84 62.52 407.6 65.16C409.387 67.8 410.28 71.4133 410.28 76C410.28 80.64 409.387 84.28 407.6 86.92C405.84 89.56 402.987 90.88 399.04 90.88C395.093 90.88 392.227 89.56 390.44 86.92C388.68 84.28 387.8 80.64 387.8 76ZM403.56 76C403.56 73.3067 403.267 71.24 402.68 69.8C402.093 68.3333 400.88 67.6 399.04 67.6C397.2 67.6 395.987 68.3333 395.4 69.8C394.813 71.24 394.52 73.3067 394.52 76C394.52 77.8133 394.627 79.32 394.84 80.52C395.053 81.6933 395.48 82.6533 396.12 83.4C396.787 84.12 397.76 84.48 399.04 84.48C400.32 84.48 401.28 84.12 401.92 83.4C402.587 82.6533 403.027 81.6933 403.24 80.52C403.453 79.32 403.56 77.8133 403.56 76ZM432.534 66.92L422.494 91H415.494L425.654 67.68H413.214V61.84H432.534V66.92Z" fill="white"/>
<path opacity="0.8" d="M396.776 108.624V117H395.096V113.436H391.508V117H389.828V108.624H391.508V112.068H395.096V108.624H396.776ZM402.318 117.084C401.534 117.084 400.814 116.9 400.158 116.532C399.502 116.164 398.982 115.656 398.598 115.008C398.214 114.352 398.022 113.612 398.022 112.788C398.022 111.972 398.214 111.24 398.598 110.592C398.982 109.936 399.502 109.424 400.158 109.056C400.814 108.688 401.534 108.504 402.318 108.504C403.11 108.504 403.83 108.688 404.478 109.056C405.134 109.424 405.65 109.936 406.026 110.592C406.41 111.24 406.602 111.972 406.602 112.788C406.602 113.612 406.41 114.352 406.026 115.008C405.65 115.656 405.134 116.164 404.478 116.532C403.822 116.9 403.102 117.084 402.318 117.084ZM402.318 115.584C402.822 115.584 403.266 115.472 403.65 115.248C404.034 115.016 404.334 114.688 404.55 114.264C404.766 113.84 404.874 113.348 404.874 112.788C404.874 112.228 404.766 111.74 404.55 111.324C404.334 110.9 404.034 110.576 403.65 110.352C403.266 110.128 402.822 110.016 402.318 110.016C401.814 110.016 401.366 110.128 400.974 110.352C400.59 110.576 400.29 110.9 400.074 111.324C399.858 111.74 399.75 112.228 399.75 112.788C399.75 113.348 399.858 113.84 400.074 114.264C400.29 114.688 400.59 115.016 400.974 115.248C401.366 115.472 401.814 115.584 402.318 115.584ZM409.507 108.624V113.808C409.507 114.376 409.655 114.812 409.951 115.116C410.247 115.412 410.663 115.56 411.199 115.56C411.743 115.56 412.163 115.412 412.459 115.116C412.755 114.812 412.903 114.376 412.903 113.808V108.624H414.595V113.796C414.595 114.508 414.439 115.112 414.127 115.608C413.823 116.096 413.411 116.464 412.891 116.712C412.379 116.96 411.807 117.084 411.175 117.084C410.551 117.084 409.983 116.96 409.471 116.712C408.967 116.464 408.567 116.096 408.271 115.608C407.975 115.112 407.827 114.508 407.827 113.796V108.624H409.507ZM420.539 117L418.691 113.736H417.899V117H416.219V108.624H419.363C420.011 108.624 420.563 108.74 421.019 108.972C421.475 109.196 421.815 109.504 422.039 109.896C422.271 110.28 422.387 110.712 422.387 111.192C422.387 111.744 422.227 112.244 421.907 112.692C421.587 113.132 421.111 113.436 420.479 113.604L422.483 117H420.539ZM417.899 112.476H419.303C419.759 112.476 420.099 112.368 420.323 112.152C420.547 111.928 420.659 111.62 420.659 111.228C420.659 110.844 420.547 110.548 420.323 110.34C420.099 110.124 419.759 110.016 419.303 110.016H417.899V112.476ZM426.798 117.084C426.214 117.084 425.686 116.984 425.214 116.784C424.75 116.584 424.382 116.296 424.11 115.92C423.838 115.544 423.698 115.1 423.69 114.588H425.49C425.514 114.932 425.634 115.204 425.85 115.404C426.074 115.604 426.378 115.704 426.762 115.704C427.154 115.704 427.462 115.612 427.686 115.428C427.91 115.236 428.022 114.988 428.022 114.684C428.022 114.436 427.946 114.232 427.794 114.072C427.642 113.912 427.45 113.788 427.218 113.7C426.994 113.604 426.682 113.5 426.282 113.388C425.738 113.228 425.294 113.072 424.95 112.92C424.614 112.76 424.322 112.524 424.074 112.212C423.834 111.892 423.714 111.468 423.714 110.94C423.714 110.444 423.838 110.012 424.086 109.644C424.334 109.276 424.682 108.996 425.13 108.804C425.578 108.604 426.09 108.504 426.666 108.504C427.53 108.504 428.23 108.716 428.766 109.14C429.31 109.556 429.61 110.14 429.666 110.892H427.818C427.802 110.604 427.678 110.368 427.446 110.184C427.222 109.992 426.922 109.896 426.546 109.896C426.218 109.896 425.954 109.98 425.754 110.148C425.562 110.316 425.466 110.56 425.466 110.88C425.466 111.104 425.538 111.292 425.682 111.444C425.834 111.588 426.018 111.708 426.234 111.804C426.458 111.892 426.77 111.996 427.17 112.116C427.714 112.276 428.158 112.436 428.502 112.596C428.846 112.756 429.142 112.996 429.39 113.316C429.638 113.636 429.762 114.056 429.762 114.576C429.762 115.024 429.646 115.44 429.414 115.824C429.182 116.208 428.842 116.516 428.394 116.748C427.946 116.972 427.414 117.084 426.798 117.084Z" fill="white"/>
</g>
<rect opacity="0.1" x="485" y="40" width="90" height="90" rx="5" fill="white"/>
<g clip-path="url(#clip2)">
<path d="M504.96 85.8V80.28L517.6 62.2H525.24V79.88H528.52V85.8H525.24V91H518.4V85.8H504.96ZM518.88 69.72L512.16 79.88H518.88V69.72ZM532.03 85.8V80.28L544.67 62.2H552.31V79.88H555.59V85.8H552.31V91H545.47V85.8H532.03ZM545.95 69.72L539.23 79.88H545.95V69.72Z" fill="white"/>
<path opacity="0.8" d="M513.96 108.624V117H512.28V111.552L510.036 117H508.764L506.508 111.552V117H504.828V108.624H506.736L509.4 114.852L512.064 108.624H513.96ZM517.301 108.624V117H515.621V108.624H517.301ZM526.125 117H524.445L520.641 111.252V117H518.961V108.612H520.641L524.445 114.372V108.612H526.125V117ZM529.441 108.624V113.808C529.441 114.376 529.589 114.812 529.885 115.116C530.181 115.412 530.597 115.56 531.133 115.56C531.677 115.56 532.097 115.412 532.393 115.116C532.689 114.812 532.837 114.376 532.837 113.808V108.624H534.529V113.796C534.529 114.508 534.373 115.112 534.061 115.608C533.757 116.096 533.345 116.464 532.825 116.712C532.313 116.96 531.741 117.084 531.109 117.084C530.485 117.084 529.917 116.96 529.405 116.712C528.901 116.464 528.501 116.096 528.205 115.608C527.909 115.112 527.761 114.508 527.761 113.796V108.624H529.441ZM541.852 108.624V109.98H539.62V117H537.94V109.98H535.708V108.624H541.852ZM544.758 109.98V112.08H547.578V113.412H544.758V115.632H547.938V117H543.078V108.612H547.938V109.98H544.758ZM552.357 117.084C551.773 117.084 551.245 116.984 550.773 116.784C550.309 116.584 549.941 116.296 549.669 115.92C549.397 115.544 549.257 115.1 549.249 114.588H551.049C551.073 114.932 551.193 115.204 551.409 115.404C551.633 115.604 551.937 115.704 552.321 115.704C552.713 115.704 553.021 115.612 553.245 115.428C553.469 115.236 553.581 114.988 553.581 114.684C553.581 114.436 553.505 114.232 553.353 114.072C553.201 113.912 553.009 113.788 552.777 113.7C552.553 113.604 552.241 113.5 551.841 113.388C551.297 113.228 550.853 113.072 550.509 112.92C550.173 112.76 549.881 112.524 549.633 112.212C549.393 111.892 549.273 111.468 549.273 110.94C549.273 110.444 549.397 110.012 549.645 109.644C549.893 109.276 550.241 108.996 550.689 108.804C551.137 108.604 551.649 108.504 552.225 108.504C553.089 108.504 553.789 108.716 554.325 109.14C554.869 109.556 555.169 110.14 555.225 110.892H553.377C553.361 110.604 553.237 110.368 553.005 110.184C552.781 109.992 552.481 109.896 552.105 109.896C551.777 109.896 551.513 109.98 551.313 110.148C551.121 110.316 551.025 110.56 551.025 110.88C551.025 111.104 551.097 111.292 551.241 111.444C551.393 111.588 551.577 111.708 551.793 111.804C552.017 111.892 552.329 111.996 552.729 112.116C553.273 112.276 553.717 112.436 554.061 112.596C554.405 112.756 554.701 112.996 554.949 113.316C555.197 113.636 555.321 114.056 555.321 114.576C555.321 115.024 555.205 115.44 554.973 115.824C554.741 116.208 554.401 116.516 553.953 116.748C553.505 116.972 552.973 117.084 552.357 117.084Z" fill="white"/>
</g>
<rect opacity="0.1" x="605" y="40" width="90" height="90" rx="5" fill="white"/>
<g clip-path="url(#clip3)">
<path d="M626.04 70.04C626.147 67.1867 627.08 64.9867 628.84 63.44C630.6 61.8933 632.987 61.12 636 61.12C638 61.12 639.707 61.4667 641.12 62.16C642.56 62.8533 643.64 63.8 644.36 65C645.107 66.2 645.48 67.5467 645.48 69.04C645.48 70.8 645.04 72.24 644.16 73.36C643.28 74.4533 642.253 75.2 641.08 75.6V75.76C642.6 76.2667 643.8 77.1067 644.68 78.28C645.56 79.4533 646 80.96 646 82.8C646 84.4533 645.613 85.92 644.84 87.2C644.093 88.4533 642.987 89.44 641.52 90.16C640.08 90.88 638.36 91.24 636.36 91.24C633.16 91.24 630.6 90.4533 628.68 88.88C626.787 87.3067 625.787 84.9333 625.68 81.76H632.32C632.347 82.9333 632.68 83.8667 633.32 84.56C633.96 85.2267 634.893 85.56 636.12 85.56C637.16 85.56 637.96 85.2667 638.52 84.68C639.107 84.0667 639.4 83.2667 639.4 82.28C639.4 81 638.987 80.08 638.16 79.52C637.36 78.9333 636.067 78.64 634.28 78.64H633V73.08H634.28C635.64 73.08 636.733 72.8533 637.56 72.4C638.413 71.92 638.84 71.08 638.84 69.88C638.84 68.92 638.573 68.1733 638.04 67.64C637.507 67.1067 636.773 66.84 635.84 66.84C634.827 66.84 634.067 67.1467 633.56 67.76C633.08 68.3733 632.8 69.1333 632.72 70.04H626.04ZM650.179 85.8V80.28L662.819 62.2H670.459V79.88H673.739V85.8H670.459V91H663.619V85.8H650.179ZM664.099 69.72L657.379 79.88H664.099V69.72Z" fill="white"/>
<path opacity="0.8" d="M624.72 117.084C624.136 117.084 623.608 116.984 623.136 116.784C622.672 116.584 622.304 116.296 622.032 115.92C621.76 115.544 621.62 115.1 621.612 114.588H623.412C623.436 114.932 623.556 115.204 623.772 115.404C623.996 115.604 624.3 115.704 624.684 115.704C625.076 115.704 625.384 115.612 625.608 115.428C625.832 115.236 625.944 114.988 625.944 114.684C625.944 114.436 625.868 114.232 625.716 114.072C625.564 113.912 625.372 113.788 625.14 113.7C624.916 113.604 624.604 113.5 624.204 113.388C623.66 113.228 623.216 113.072 622.872 112.92C622.536 112.76 622.244 112.524 621.996 112.212C621.756 111.892 621.636 111.468 621.636 110.94C621.636 110.444 621.76 110.012 622.008 109.644C622.256 109.276 622.604 108.996 623.052 108.804C623.5 108.604 624.012 108.504 624.588 108.504C625.452 108.504 626.152 108.716 626.688 109.14C627.232 109.556 627.532 110.14 627.588 110.892H625.74C625.724 110.604 625.6 110.368 625.368 110.184C625.144 109.992 624.844 109.896 624.468 109.896C624.14 109.896 623.876 109.98 623.676 110.148C623.484 110.316 623.388 110.56 623.388 110.88C623.388 111.104 623.46 111.292 623.604 111.444C623.756 111.588 623.94 111.708 624.156 111.804C624.38 111.892 624.692 111.996 625.092 112.116C625.636 112.276 626.08 112.436 626.424 112.596C626.768 112.756 627.064 112.996 627.312 113.316C627.56 113.636 627.684 114.056 627.684 114.576C627.684 115.024 627.568 115.44 627.336 115.824C627.104 116.208 626.764 116.516 626.316 116.748C625.868 116.972 625.336 117.084 624.72 117.084ZM630.821 109.98V112.08H633.641V113.412H630.821V115.632H634.001V117H629.141V108.612H634.001V109.98H630.821ZM635.119 112.8C635.119 111.976 635.303 111.24 635.671 110.592C636.047 109.936 636.555 109.428 637.195 109.068C637.843 108.7 638.567 108.516 639.367 108.516C640.303 108.516 641.123 108.756 641.827 109.236C642.531 109.716 643.023 110.38 643.303 111.228H641.371C641.179 110.828 640.907 110.528 640.555 110.328C640.211 110.128 639.811 110.028 639.355 110.028C638.867 110.028 638.431 110.144 638.047 110.376C637.671 110.6 637.375 110.92 637.159 111.336C636.951 111.752 636.847 112.24 636.847 112.8C636.847 113.352 636.951 113.84 637.159 114.264C637.375 114.68 637.671 115.004 638.047 115.236C638.431 115.46 638.867 115.572 639.355 115.572C639.811 115.572 640.211 115.472 640.555 115.272C640.907 115.064 641.179 114.76 641.371 114.36H643.303C643.023 115.216 642.531 115.884 641.827 116.364C641.131 116.836 640.311 117.072 639.367 117.072C638.567 117.072 637.843 116.892 637.195 116.532C636.555 116.164 636.047 115.656 635.671 115.008C635.303 114.36 635.119 113.624 635.119 112.8ZM648.626 117.084C647.842 117.084 647.122 116.9 646.466 116.532C645.81 116.164 645.29 115.656 644.906 115.008C644.522 114.352 644.33 113.612 644.33 112.788C644.33 111.972 644.522 111.24 644.906 110.592C645.29 109.936 645.81 109.424 646.466 109.056C647.122 108.688 647.842 108.504 648.626 108.504C649.418 108.504 650.138 108.688 650.786 109.056C651.442 109.424 651.958 109.936 652.334 110.592C652.718 111.24 652.91 111.972 652.91 112.788C652.91 113.612 652.718 114.352 652.334 115.008C651.958 115.656 651.442 116.164 650.786 116.532C650.13 116.9 649.41 117.084 648.626 117.084ZM648.626 115.584C649.13 115.584 649.574 115.472 649.958 115.248C650.342 115.016 650.642 114.688 650.858 114.264C651.074 113.84 651.182 113.348 651.182 112.788C651.182 112.228 651.074 111.74 650.858 111.324C650.642 110.9 650.342 110.576 649.958 110.352C649.574 110.128 649.13 110.016 648.626 110.016C648.122 110.016 647.674 110.128 647.282 110.352C646.898 110.576 646.598 110.9 646.382 111.324C646.166 111.74 646.058 112.228 646.058 112.788C646.058 113.348 646.166 113.84 646.382 114.264C646.598 114.688 646.898 115.016 647.282 115.248C647.674 115.472 648.122 115.584 648.626 115.584ZM661.324 117H659.644L655.84 111.252V117H654.16V108.612H655.84L659.644 114.372V108.612H661.324V117ZM665.912 108.624C666.792 108.624 667.564 108.796 668.228 109.14C668.9 109.484 669.416 109.976 669.776 110.616C670.144 111.248 670.328 111.984 670.328 112.824C670.328 113.664 670.144 114.4 669.776 115.032C669.416 115.656 668.9 116.14 668.228 116.484C667.564 116.828 666.792 117 665.912 117H662.984V108.624H665.912ZM665.852 115.572C666.732 115.572 667.412 115.332 667.892 114.852C668.372 114.372 668.612 113.696 668.612 112.824C668.612 111.952 668.372 111.272 667.892 110.784C667.412 110.288 666.732 110.04 665.852 110.04H664.664V115.572H665.852ZM674.478 117.084C673.894 117.084 673.366 116.984 672.894 116.784C672.43 116.584 672.062 116.296 671.79 115.92C671.518 115.544 671.378 115.1 671.37 114.588H673.17C673.194 114.932 673.314 115.204 673.53 115.404C673.754 115.604 674.058 115.704 674.442 115.704C674.834 115.704 675.142 115.612 675.366 115.428C675.59 115.236 675.702 114.988 675.702 114.684C675.702 114.436 675.626 114.232 675.474 114.072C675.322 113.912 675.13 113.788 674.898 113.7C674.674 113.604 674.362 113.5 673.962 113.388C673.418 113.228 672.974 113.072 672.63 112.92C672.294 112.76 672.002 112.524 671.754 112.212C671.514 111.892 671.394 111.468 671.394 110.94C671.394 110.444 671.518 110.012 671.766 109.644C672.014 109.276 672.362 108.996 672.81 108.804C673.258 108.604 673.77 108.504 674.346 108.504C675.21 108.504 675.91 108.716 676.446 109.14C676.99 109.556 677.29 110.14 677.346 110.892H675.498C675.482 110.604 675.358 110.368 675.126 110.184C674.902 109.992 674.602 109.896 674.226 109.896C673.898 109.896 673.634 109.98 673.434 110.148C673.242 110.316 673.146 110.56 673.146 110.88C673.146 111.104 673.218 111.292 673.362 111.444C673.514 111.588 673.698 111.708 673.914 111.804C674.138 111.892 674.45 111.996 674.85 112.116C675.394 112.276 675.838 112.436 676.182 112.596C676.526 112.756 676.822 112.996 677.07 113.316C677.318 113.636 677.442 114.056 677.442 114.576C677.442 115.024 677.326 115.44 677.094 115.824C676.862 116.208 676.522 116.516 676.074 116.748C675.626 116.972 675.094 117.084 674.478 117.084Z" fill="white"/>
</g>
<defs>
<clipPath id="clip0">
<rect width="42" height="74" fill="white" transform="translate(269 47)"/>
</clipPath>
<clipPath id="clip1">
<rect width="48" height="74" fill="white" transform="translate(386 47)"/>
</clipPath>
<clipPath id="clip2">
<rect width="55" height="74" fill="white" transform="translate(503 47)"/>
</clipPath>
<clipPath id="clip3">
<rect width="58" height="74" fill="white" transform="translate(621 47)"/>
</clipPath>
</defs>
</svg>
