<svg width="1440" height="199" viewBox="0 0 1440 199" fill="none" xmlns="http://www.w3.org/2000/svg">
<rect x="-1" width="1441" height="199" fill="#8950FC"/>
<mask id="mask0" mask-type="alpha" maskUnits="userSpaceOnUse" x="-1" y="0" width="1441" height="199">
<rect x="-1" width="1441" height="199" fill="white"/>
</mask>
<g mask="url(#mask0)">
<path opacity="0.3" fill-rule="evenodd" clip-rule="evenodd" d="M62.9781 15.9695C64.0947 15.9695 65 14.8572 65 13.4851C65 12.1123 64.0947 11 62.9781 11C61.8556 11 60.9503 12.1123 60.9503 13.4851C60.9503 14.8572 61.8556 15.9695 62.9781 15.9695ZM62.9781 29.2216C64.0947 29.2216 65 28.1086 65 26.7365C65 25.3644 64.0947 24.2521 62.9781 24.2521C61.8616 24.2521 60.9503 25.3644 60.9503 26.7365C60.9503 28.1086 61.8616 29.2216 62.9781 29.2216ZM62.9781 42.473C64.0947 42.473 65 41.3607 65 39.9886C65 38.6158 64.0947 37.5035 62.9781 37.5035C61.8616 37.5035 60.9503 38.6158 60.9503 39.9886C60.9503 41.3607 61.8616 42.473 62.9781 42.473ZM62.9781 55.7251C64.0947 55.7251 65 54.6121 65 53.24C65 51.8679 64.0947 50.7556 62.9781 50.7556C61.8616 50.7556 60.9503 51.8679 60.9503 53.24C60.9503 54.6121 61.8616 55.7251 62.9781 55.7251ZM62.9781 68.9765C64.0947 68.9765 65 67.8642 65 66.4921C65 65.1193 64.0947 64.007 62.9781 64.007C61.8616 64.007 60.9503 65.1193 60.9503 66.4921C60.9503 67.8642 61.8616 68.9765 62.9781 68.9765ZM62.9781 82.2286C64.0947 82.2286 65 81.1156 65 79.7435C65 78.3714 64.0947 77.2591 62.9781 77.2591C61.8616 77.2591 60.9503 78.3714 60.9503 79.7435C60.9503 81.1156 61.8616 82.2286 62.9781 82.2286ZM41.6189 95.4652C42.7355 95.4652 43.6408 94.3529 43.6408 92.9808C43.6408 91.6087 42.7355 90.4957 41.6189 90.4957C40.4964 90.4957 39.591 91.6087 39.591 92.9808C39.591 94.3529 40.4964 95.4652 41.6189 95.4652ZM54.2087 92.9956C54.2087 94.3677 53.3034 95.48 52.1869 95.48C51.0703 95.48 50.165 94.3677 50.165 92.9956C50.165 91.6235 51.0703 90.5105 52.1869 90.5105C53.3034 90.5105 54.2087 91.6235 54.2087 92.9956ZM65 92.9956C65 94.3677 64.0947 95.48 62.9781 95.48C61.8616 95.48 60.9503 94.3677 60.9503 92.9956C60.9503 91.6235 61.8616 90.5105 62.9781 90.5105C64.0947 90.5105 65 91.6235 65 92.9956ZM32.6323 92.9956C32.6323 94.3677 31.7209 95.48 30.6044 95.48C29.4878 95.48 28.5825 94.3677 28.5825 92.9956C28.5825 91.6235 29.4878 90.5105 30.6044 90.5105C31.7209 90.5105 32.6323 91.6235 32.6323 92.9956ZM19.8131 95.48C20.9357 95.48 21.841 94.3677 21.841 92.9956C21.841 91.6235 20.9357 90.5105 19.8131 90.5105C18.6966 90.5105 17.7913 91.6235 17.7913 92.9956C17.7913 94.3677 18.6966 95.48 19.8131 95.48ZM11.0497 92.9956C11.0497 94.3677 10.1444 95.48 9.02789 95.48C7.90531 95.48 7 94.3677 7 92.9956C7 91.6235 7.90531 90.5105 9.02789 90.5105C10.1444 90.5105 11.0497 91.6235 11.0497 92.9956ZM54.2087 79.7435C54.2087 81.1156 53.3034 82.2286 52.1869 82.2286C51.0703 82.2286 50.165 81.1156 50.165 79.7435C50.165 78.3714 51.0703 77.2591 52.1869 77.2591C53.3034 77.2591 54.2087 78.3714 54.2087 79.7435ZM41.3956 82.2286C42.5122 82.2286 43.4175 81.1156 43.4175 79.7435C43.4175 78.3714 42.5122 77.2591 41.3956 77.2591C40.2791 77.2591 39.3738 78.3714 39.3738 79.7435C39.3738 81.1156 40.2791 82.2286 41.3956 82.2286ZM32.6323 79.7435C32.6323 81.1156 31.7209 82.2286 30.6044 82.2286C29.4878 82.2286 28.5825 81.1156 28.5825 79.7435C28.5825 78.3714 29.4878 77.2591 30.6044 77.2591C31.7209 77.2591 32.6323 78.3714 32.6323 79.7435ZM19.8131 82.2286C20.9357 82.2286 21.841 81.1156 21.841 79.7435C21.841 78.3714 20.9357 77.2591 19.8131 77.2591C18.6966 77.2591 17.7913 78.3714 17.7913 79.7435C17.7913 81.1156 18.6966 82.2286 19.8131 82.2286ZM11.0497 79.7435C11.0497 81.1156 10.1444 82.2286 9.02789 82.2286C7.90531 82.2286 7 81.1156 7 79.7435C7 78.3714 7.90531 77.2591 9.02789 77.2591C10.1444 77.2591 11.0497 78.3714 11.0497 79.7435ZM54.2087 66.4921C54.2087 67.8642 53.3034 68.9765 52.1869 68.9765C51.0703 68.9765 50.165 67.8642 50.165 66.4921C50.165 65.1193 51.0703 64.007 52.1869 64.007C53.3034 64.007 54.2087 65.1193 54.2087 66.4921ZM41.3956 68.9765C42.5122 68.9765 43.4175 67.8642 43.4175 66.4921C43.4175 65.1193 42.5122 64.007 41.3956 64.007C40.2791 64.007 39.3738 65.1193 39.3738 66.4921C39.3738 67.8642 40.2791 68.9765 41.3956 68.9765ZM32.6323 66.4921C32.6323 67.8642 31.7209 68.9765 30.6044 68.9765C29.4878 68.9765 28.5825 67.8642 28.5825 66.4921C28.5825 65.1193 29.4878 64.007 30.6044 64.007C31.7209 64.007 32.6323 65.1193 32.6323 66.4921ZM19.8131 68.9765C20.9357 68.9765 21.841 67.8642 21.841 66.4921C21.841 65.1193 20.9357 64.007 19.8131 64.007C18.6966 64.007 17.7913 65.1193 17.7913 66.4921C17.7913 67.8642 18.6966 68.9765 19.8131 68.9765ZM11.0497 66.4921C11.0497 67.8642 10.1444 68.9765 9.02789 68.9765C7.90531 68.9765 7 67.8642 7 66.4921C7 65.1193 7.90531 64.007 9.02789 64.007C10.1444 64.007 11.0497 65.1193 11.0497 66.4921ZM54.2087 53.24C54.2087 54.6121 53.3034 55.7251 52.1869 55.7251C51.0703 55.7251 50.165 54.6121 50.165 53.24C50.165 51.8679 51.0703 50.7556 52.1869 50.7556C53.3034 50.7556 54.2087 51.8679 54.2087 53.24ZM41.3956 55.7251C42.5122 55.7251 43.4175 54.6121 43.4175 53.24C43.4175 51.8679 42.5122 50.7556 41.3956 50.7556C40.2791 50.7556 39.3738 51.8679 39.3738 53.24C39.3738 54.6121 40.2791 55.7251 41.3956 55.7251ZM32.6323 53.24C32.6323 54.6121 31.7209 55.7251 30.6044 55.7251C29.4878 55.7251 28.5825 54.6121 28.5825 53.24C28.5825 51.8679 29.4878 50.7556 30.6044 50.7556C31.7209 50.7556 32.6323 51.8679 32.6323 53.24ZM19.8131 55.7251C20.9357 55.7251 21.841 54.6121 21.841 53.24C21.841 51.8679 20.9357 50.7556 19.8131 50.7556C18.6966 50.7556 17.7913 51.8679 17.7913 53.24C17.7913 54.6121 18.6966 55.7251 19.8131 55.7251ZM11.0497 53.24C11.0497 54.6121 10.1444 55.7251 9.02789 55.7251C7.90531 55.7251 7 54.6121 7 53.24C7 51.8679 7.90531 50.7556 9.02789 50.7556C10.1444 50.7556 11.0497 51.8679 11.0497 53.24ZM54.2087 39.9886C54.2087 41.3607 53.3034 42.473 52.1869 42.473C51.0703 42.473 50.165 41.3607 50.165 39.9886C50.165 38.6158 51.0703 37.5035 52.1869 37.5035C53.3034 37.5035 54.2087 38.6158 54.2087 39.9886ZM41.3956 42.473C42.5122 42.473 43.4175 41.3607 43.4175 39.9886C43.4175 38.6158 42.5122 37.5035 41.3956 37.5035C40.2791 37.5035 39.3738 38.6158 39.3738 39.9886C39.3738 41.3607 40.2791 42.473 41.3956 42.473ZM32.6323 39.9886C32.6323 41.3607 31.7209 42.473 30.6044 42.473C29.4878 42.473 28.5825 41.3607 28.5825 39.9886C28.5825 38.6158 29.4878 37.5035 30.6044 37.5035C31.7209 37.5035 32.6323 38.6158 32.6323 39.9886ZM19.8131 42.473C20.9357 42.473 21.841 41.3607 21.841 39.9886C21.841 38.6158 20.9357 37.5035 19.8131 37.5035C18.6966 37.5035 17.7913 38.6158 17.7913 39.9886C17.7913 41.3607 18.6966 42.473 19.8131 42.473ZM11.0497 39.9886C11.0497 41.3607 10.1444 42.473 9.02789 42.473C7.90531 42.473 7 41.3607 7 39.9886C7 38.6158 7.90531 37.5035 9.02789 37.5035C10.1444 37.5035 11.0497 38.6158 11.0497 39.9886ZM54.2087 26.7365C54.2087 28.1086 53.3034 29.2216 52.1869 29.2216C51.0703 29.2216 50.165 28.1086 50.165 26.7365C50.165 25.3644 51.0703 24.2521 52.1869 24.2521C53.3034 24.2521 54.2087 25.3644 54.2087 26.7365ZM41.3956 29.2216C42.5122 29.2216 43.4175 28.1086 43.4175 26.7365C43.4175 25.3644 42.5122 24.2521 41.3956 24.2521C40.2791 24.2521 39.3738 25.3644 39.3738 26.7365C39.3738 28.1086 40.2791 29.2216 41.3956 29.2216ZM32.6323 26.7365C32.6323 28.1086 31.7209 29.2216 30.6044 29.2216C29.4878 29.2216 28.5825 28.1086 28.5825 26.7365C28.5825 25.3644 29.4878 24.2521 30.6044 24.2521C31.7209 24.2521 32.6323 25.3644 32.6323 26.7365ZM19.8131 29.2216C20.9357 29.2216 21.841 28.1086 21.841 26.7365C21.841 25.3644 20.9357 24.2521 19.8131 24.2521C18.6966 24.2521 17.7913 25.3644 17.7913 26.7365C17.7913 28.1086 18.6966 29.2216 19.8131 29.2216ZM11.0497 26.7365C11.0497 28.1086 10.1444 29.2216 9.02789 29.2216C7.90531 29.2216 7 28.1086 7 26.7365C7 25.3644 7.90531 24.2521 9.02789 24.2521C10.1444 24.2521 11.0497 25.3644 11.0497 26.7365ZM54.2087 13.4851C54.2087 14.8572 53.3034 15.9695 52.1869 15.9695C51.0703 15.9695 50.165 14.8572 50.165 13.4851C50.165 12.1123 51.0703 11 52.1869 11C53.3034 11 54.2087 12.1123 54.2087 13.4851ZM41.3956 15.9695C42.5122 15.9695 43.4175 14.8572 43.4175 13.4851C43.4175 12.1123 42.5122 11 41.3956 11C40.2791 11 39.3738 12.1123 39.3738 13.4851C39.3738 14.8572 40.2791 15.9695 41.3956 15.9695ZM32.6323 13.4851C32.6323 14.8572 31.7209 15.9695 30.6044 15.9695C29.4878 15.9695 28.5825 14.8572 28.5825 13.4851C28.5825 12.1123 29.4878 11 30.6044 11C31.7209 11 32.6323 12.1123 32.6323 13.4851ZM19.8131 15.9695C20.9357 15.9695 21.841 14.8572 21.841 13.4851C21.841 12.1123 20.9357 11 19.8131 11C18.6966 11 17.7913 12.1123 17.7913 13.4851C17.7913 14.8572 18.6966 15.9695 19.8131 15.9695ZM11.0497 13.4851C11.0497 14.8572 10.1444 15.9695 9.02789 15.9695C7.90531 15.9695 7 14.8572 7 13.4851C7 12.1123 7.90531 11 9.02789 11C10.1444 11 11.0497 12.1123 11.0497 13.4851Z" fill="white"/>
<path opacity="0.3" fill-rule="evenodd" clip-rule="evenodd" d="M62.9781 107.49C64.0947 107.49 65 106.377 65 105.005C65 103.632 64.0947 102.52 62.9781 102.52C61.8556 102.52 60.9503 103.632 60.9503 105.005C60.9503 106.377 61.8556 107.49 62.9781 107.49ZM62.9781 120.742C64.0947 120.742 65 119.629 65 118.257C65 116.884 64.0947 115.772 62.9781 115.772C61.8616 115.772 60.9503 116.884 60.9503 118.257C60.9503 119.629 61.8616 120.742 62.9781 120.742ZM62.9781 133.993C64.0947 133.993 65 132.881 65 131.509C65 130.136 64.0947 129.024 62.9781 129.024C61.8616 129.024 60.9503 130.136 60.9503 131.509C60.9503 132.881 61.8616 133.993 62.9781 133.993ZM62.9781 147.245C64.0947 147.245 65 146.132 65 144.76C65 143.388 64.0947 142.276 62.9781 142.276C61.8616 142.276 60.9503 143.388 60.9503 144.76C60.9503 146.132 61.8616 147.245 62.9781 147.245ZM62.9781 160.497C64.0947 160.497 65 159.384 65 158.012C65 156.639 64.0947 155.527 62.9781 155.527C61.8616 155.527 60.9503 156.639 60.9503 158.012C60.9503 159.384 61.8616 160.497 62.9781 160.497ZM62.9781 173.749C64.0947 173.749 65 172.636 65 171.264C65 169.891 64.0947 168.779 62.9781 168.779C61.8616 168.779 60.9503 169.891 60.9503 171.264C60.9503 172.636 61.8616 173.749 62.9781 173.749ZM41.6189 186.985C42.7355 186.985 43.6408 185.873 43.6408 184.501C43.6408 183.129 42.7355 182.016 41.6189 182.016C40.4964 182.016 39.591 183.129 39.591 184.501C39.591 185.873 40.4964 186.985 41.6189 186.985ZM54.2087 184.516C54.2087 185.888 53.3034 187 52.1869 187C51.0703 187 50.165 185.888 50.165 184.516C50.165 183.144 51.0703 182.03 52.1869 182.03C53.3034 182.03 54.2087 183.144 54.2087 184.516ZM65 184.516C65 185.888 64.0947 187 62.9781 187C61.8616 187 60.9503 185.888 60.9503 184.516C60.9503 183.144 61.8616 182.03 62.9781 182.03C64.0947 182.03 65 183.144 65 184.516ZM32.6323 184.516C32.6323 185.888 31.7209 187 30.6044 187C29.4878 187 28.5825 185.888 28.5825 184.516C28.5825 183.144 29.4878 182.03 30.6044 182.03C31.7209 182.03 32.6323 183.144 32.6323 184.516ZM19.8131 187C20.9357 187 21.841 185.888 21.841 184.516C21.841 183.144 20.9357 182.03 19.8131 182.03C18.6966 182.03 17.7913 183.144 17.7913 184.516C17.7913 185.888 18.6966 187 19.8131 187ZM11.0497 184.516C11.0497 185.888 10.1444 187 9.02789 187C7.90531 187 7 185.888 7 184.516C7 183.144 7.90531 182.03 9.02789 182.03C10.1444 182.03 11.0497 183.144 11.0497 184.516ZM54.2087 171.264C54.2087 172.636 53.3034 173.749 52.1869 173.749C51.0703 173.749 50.165 172.636 50.165 171.264C50.165 169.891 51.0703 168.779 52.1869 168.779C53.3034 168.779 54.2087 169.891 54.2087 171.264ZM41.3956 173.749C42.5122 173.749 43.4175 172.636 43.4175 171.264C43.4175 169.891 42.5122 168.779 41.3956 168.779C40.2791 168.779 39.3738 169.891 39.3738 171.264C39.3738 172.636 40.2791 173.749 41.3956 173.749ZM32.6323 171.264C32.6323 172.636 31.7209 173.749 30.6044 173.749C29.4878 173.749 28.5825 172.636 28.5825 171.264C28.5825 169.891 29.4878 168.779 30.6044 168.779C31.7209 168.779 32.6323 169.891 32.6323 171.264ZM19.8131 173.749C20.9357 173.749 21.841 172.636 21.841 171.264C21.841 169.891 20.9357 168.779 19.8131 168.779C18.6966 168.779 17.7913 169.891 17.7913 171.264C17.7913 172.636 18.6966 173.749 19.8131 173.749ZM11.0497 171.264C11.0497 172.636 10.1444 173.749 9.02789 173.749C7.90531 173.749 7 172.636 7 171.264C7 169.891 7.90531 168.779 9.02789 168.779C10.1444 168.779 11.0497 169.891 11.0497 171.264ZM54.2087 158.012C54.2087 159.384 53.3034 160.497 52.1869 160.497C51.0703 160.497 50.165 159.384 50.165 158.012C50.165 156.639 51.0703 155.527 52.1869 155.527C53.3034 155.527 54.2087 156.639 54.2087 158.012ZM41.3956 160.497C42.5122 160.497 43.4175 159.384 43.4175 158.012C43.4175 156.639 42.5122 155.527 41.3956 155.527C40.2791 155.527 39.3738 156.639 39.3738 158.012C39.3738 159.384 40.2791 160.497 41.3956 160.497ZM32.6323 158.012C32.6323 159.384 31.7209 160.497 30.6044 160.497C29.4878 160.497 28.5825 159.384 28.5825 158.012C28.5825 156.639 29.4878 155.527 30.6044 155.527C31.7209 155.527 32.6323 156.639 32.6323 158.012ZM19.8131 160.497C20.9357 160.497 21.841 159.384 21.841 158.012C21.841 156.639 20.9357 155.527 19.8131 155.527C18.6966 155.527 17.7913 156.639 17.7913 158.012C17.7913 159.384 18.6966 160.497 19.8131 160.497ZM11.0497 158.012C11.0497 159.384 10.1444 160.497 9.02789 160.497C7.90531 160.497 7 159.384 7 158.012C7 156.639 7.90531 155.527 9.02789 155.527C10.1444 155.527 11.0497 156.639 11.0497 158.012ZM54.2087 144.76C54.2087 146.132 53.3034 147.245 52.1869 147.245C51.0703 147.245 50.165 146.132 50.165 144.76C50.165 143.388 51.0703 142.276 52.1869 142.276C53.3034 142.276 54.2087 143.388 54.2087 144.76ZM41.3956 147.245C42.5122 147.245 43.4175 146.132 43.4175 144.76C43.4175 143.388 42.5122 142.276 41.3956 142.276C40.2791 142.276 39.3738 143.388 39.3738 144.76C39.3738 146.132 40.2791 147.245 41.3956 147.245ZM32.6323 144.76C32.6323 146.132 31.7209 147.245 30.6044 147.245C29.4878 147.245 28.5825 146.132 28.5825 144.76C28.5825 143.388 29.4878 142.276 30.6044 142.276C31.7209 142.276 32.6323 143.388 32.6323 144.76ZM19.8131 147.245C20.9357 147.245 21.841 146.132 21.841 144.76C21.841 143.388 20.9357 142.276 19.8131 142.276C18.6966 142.276 17.7913 143.388 17.7913 144.76C17.7913 146.132 18.6966 147.245 19.8131 147.245ZM11.0497 144.76C11.0497 146.132 10.1444 147.245 9.02789 147.245C7.90531 147.245 7 146.132 7 144.76C7 143.388 7.90531 142.276 9.02789 142.276C10.1444 142.276 11.0497 143.388 11.0497 144.76ZM54.2087 131.509C54.2087 132.881 53.3034 133.993 52.1869 133.993C51.0703 133.993 50.165 132.881 50.165 131.509C50.165 130.136 51.0703 129.024 52.1869 129.024C53.3034 129.024 54.2087 130.136 54.2087 131.509ZM41.3956 133.993C42.5122 133.993 43.4175 132.881 43.4175 131.509C43.4175 130.136 42.5122 129.024 41.3956 129.024C40.2791 129.024 39.3738 130.136 39.3738 131.509C39.3738 132.881 40.2791 133.993 41.3956 133.993ZM32.6323 131.509C32.6323 132.881 31.7209 133.993 30.6044 133.993C29.4878 133.993 28.5825 132.881 28.5825 131.509C28.5825 130.136 29.4878 129.024 30.6044 129.024C31.7209 129.024 32.6323 130.136 32.6323 131.509ZM19.8131 133.993C20.9357 133.993 21.841 132.881 21.841 131.509C21.841 130.136 20.9357 129.024 19.8131 129.024C18.6966 129.024 17.7913 130.136 17.7913 131.509C17.7913 132.881 18.6966 133.993 19.8131 133.993ZM11.0497 131.509C11.0497 132.881 10.1444 133.993 9.02789 133.993C7.90531 133.993 7 132.881 7 131.509C7 130.136 7.90531 129.024 9.02789 129.024C10.1444 129.024 11.0497 130.136 11.0497 131.509ZM54.2087 118.257C54.2087 119.629 53.3034 120.742 52.1869 120.742C51.0703 120.742 50.165 119.629 50.165 118.257C50.165 116.884 51.0703 115.772 52.1869 115.772C53.3034 115.772 54.2087 116.884 54.2087 118.257ZM41.3956 120.742C42.5122 120.742 43.4175 119.629 43.4175 118.257C43.4175 116.884 42.5122 115.772 41.3956 115.772C40.2791 115.772 39.3738 116.884 39.3738 118.257C39.3738 119.629 40.2791 120.742 41.3956 120.742ZM32.6323 118.257C32.6323 119.629 31.7209 120.742 30.6044 120.742C29.4878 120.742 28.5825 119.629 28.5825 118.257C28.5825 116.884 29.4878 115.772 30.6044 115.772C31.7209 115.772 32.6323 116.884 32.6323 118.257ZM19.8131 120.742C20.9357 120.742 21.841 119.629 21.841 118.257C21.841 116.884 20.9357 115.772 19.8131 115.772C18.6966 115.772 17.7913 116.884 17.7913 118.257C17.7913 119.629 18.6966 120.742 19.8131 120.742ZM11.0497 118.257C11.0497 119.629 10.1444 120.742 9.02789 120.742C7.90531 120.742 7 119.629 7 118.257C7 116.884 7.90531 115.772 9.02789 115.772C10.1444 115.772 11.0497 116.884 11.0497 118.257ZM54.2087 105.005C54.2087 106.377 53.3034 107.49 52.1869 107.49C51.0703 107.49 50.165 106.377 50.165 105.005C50.165 103.632 51.0703 102.52 52.1869 102.52C53.3034 102.52 54.2087 103.632 54.2087 105.005ZM41.3956 107.49C42.5122 107.49 43.4175 106.377 43.4175 105.005C43.4175 103.632 42.5122 102.52 41.3956 102.52C40.2791 102.52 39.3738 103.632 39.3738 105.005C39.3738 106.377 40.2791 107.49 41.3956 107.49ZM32.6323 105.005C32.6323 106.377 31.7209 107.49 30.6044 107.49C29.4878 107.49 28.5825 106.377 28.5825 105.005C28.5825 103.632 29.4878 102.52 30.6044 102.52C31.7209 102.52 32.6323 103.632 32.6323 105.005ZM19.8131 107.49C20.9357 107.49 21.841 106.377 21.841 105.005C21.841 103.632 20.9357 102.52 19.8131 102.52C18.6966 102.52 17.7913 103.632 17.7913 105.005C17.7913 106.377 18.6966 107.49 19.8131 107.49ZM11.0497 105.005C11.0497 106.377 10.1444 107.49 9.02789 107.49C7.90531 107.49 7 106.377 7 105.005C7 103.632 7.90531 102.52 9.02789 102.52C10.1444 102.52 11.0497 103.632 11.0497 105.005Z" fill="white"/>
<path opacity="0.3" fill-rule="evenodd" clip-rule="evenodd" d="M127.978 15.9695C129.095 15.9695 130 14.8572 130 13.4851C130 12.1123 129.095 11 127.978 11C126.856 11 125.95 12.1123 125.95 13.4851C125.95 14.8572 126.856 15.9695 127.978 15.9695ZM127.978 29.2216C129.095 29.2216 130 28.1086 130 26.7365C130 25.3644 129.095 24.2521 127.978 24.2521C126.862 24.2521 125.95 25.3644 125.95 26.7365C125.95 28.1086 126.862 29.2216 127.978 29.2216ZM127.978 42.473C129.095 42.473 130 41.3607 130 39.9886C130 38.6158 129.095 37.5035 127.978 37.5035C126.862 37.5035 125.95 38.6158 125.95 39.9886C125.95 41.3607 126.862 42.473 127.978 42.473ZM127.978 55.7251C129.095 55.7251 130 54.6121 130 53.24C130 51.8679 129.095 50.7556 127.978 50.7556C126.862 50.7556 125.95 51.8679 125.95 53.24C125.95 54.6121 126.862 55.7251 127.978 55.7251ZM127.978 68.9765C129.095 68.9765 130 67.8642 130 66.4921C130 65.1193 129.095 64.007 127.978 64.007C126.862 64.007 125.95 65.1193 125.95 66.4921C125.95 67.8642 126.862 68.9765 127.978 68.9765ZM127.978 82.2286C129.095 82.2286 130 81.1156 130 79.7435C130 78.3714 129.095 77.2591 127.978 77.2591C126.862 77.2591 125.95 78.3714 125.95 79.7435C125.95 81.1156 126.862 82.2286 127.978 82.2286ZM106.619 95.4652C107.735 95.4652 108.641 94.3529 108.641 92.9808C108.641 91.6087 107.735 90.4957 106.619 90.4957C105.496 90.4957 104.591 91.6087 104.591 92.9808C104.591 94.3529 105.496 95.4652 106.619 95.4652ZM119.209 92.9956C119.209 94.3677 118.303 95.48 117.187 95.48C116.07 95.48 115.165 94.3677 115.165 92.9956C115.165 91.6235 116.07 90.5105 117.187 90.5105C118.303 90.5105 119.209 91.6235 119.209 92.9956ZM130 92.9956C130 94.3677 129.095 95.48 127.978 95.48C126.862 95.48 125.95 94.3677 125.95 92.9956C125.95 91.6235 126.862 90.5105 127.978 90.5105C129.095 90.5105 130 91.6235 130 92.9956ZM97.6323 92.9956C97.6323 94.3677 96.7209 95.48 95.6044 95.48C94.4878 95.48 93.5825 94.3677 93.5825 92.9956C93.5825 91.6235 94.4878 90.5105 95.6044 90.5105C96.7209 90.5105 97.6323 91.6235 97.6323 92.9956ZM84.8131 95.48C85.9357 95.48 86.841 94.3677 86.841 92.9956C86.841 91.6235 85.9357 90.5105 84.8131 90.5105C83.6966 90.5105 82.7913 91.6235 82.7913 92.9956C82.7913 94.3677 83.6966 95.48 84.8131 95.48ZM76.0497 92.9956C76.0497 94.3677 75.1444 95.48 74.0279 95.48C72.9053 95.48 72 94.3677 72 92.9956C72 91.6235 72.9053 90.5105 74.0279 90.5105C75.1444 90.5105 76.0497 91.6235 76.0497 92.9956ZM119.209 79.7435C119.209 81.1156 118.303 82.2286 117.187 82.2286C116.07 82.2286 115.165 81.1156 115.165 79.7435C115.165 78.3714 116.07 77.2591 117.187 77.2591C118.303 77.2591 119.209 78.3714 119.209 79.7435ZM106.396 82.2286C107.512 82.2286 108.417 81.1156 108.417 79.7435C108.417 78.3714 107.512 77.2591 106.396 77.2591C105.279 77.2591 104.374 78.3714 104.374 79.7435C104.374 81.1156 105.279 82.2286 106.396 82.2286ZM97.6323 79.7435C97.6323 81.1156 96.7209 82.2286 95.6044 82.2286C94.4878 82.2286 93.5825 81.1156 93.5825 79.7435C93.5825 78.3714 94.4878 77.2591 95.6044 77.2591C96.7209 77.2591 97.6323 78.3714 97.6323 79.7435ZM84.8131 82.2286C85.9357 82.2286 86.841 81.1156 86.841 79.7435C86.841 78.3714 85.9357 77.2591 84.8131 77.2591C83.6966 77.2591 82.7913 78.3714 82.7913 79.7435C82.7913 81.1156 83.6966 82.2286 84.8131 82.2286ZM76.0497 79.7435C76.0497 81.1156 75.1444 82.2286 74.0279 82.2286C72.9053 82.2286 72 81.1156 72 79.7435C72 78.3714 72.9053 77.2591 74.0279 77.2591C75.1444 77.2591 76.0497 78.3714 76.0497 79.7435ZM119.209 66.4921C119.209 67.8642 118.303 68.9765 117.187 68.9765C116.07 68.9765 115.165 67.8642 115.165 66.4921C115.165 65.1193 116.07 64.007 117.187 64.007C118.303 64.007 119.209 65.1193 119.209 66.4921ZM106.396 68.9765C107.512 68.9765 108.417 67.8642 108.417 66.4921C108.417 65.1193 107.512 64.007 106.396 64.007C105.279 64.007 104.374 65.1193 104.374 66.4921C104.374 67.8642 105.279 68.9765 106.396 68.9765ZM97.6323 66.4921C97.6323 67.8642 96.7209 68.9765 95.6044 68.9765C94.4878 68.9765 93.5825 67.8642 93.5825 66.4921C93.5825 65.1193 94.4878 64.007 95.6044 64.007C96.7209 64.007 97.6323 65.1193 97.6323 66.4921ZM84.8131 68.9765C85.9357 68.9765 86.841 67.8642 86.841 66.4921C86.841 65.1193 85.9357 64.007 84.8131 64.007C83.6966 64.007 82.7913 65.1193 82.7913 66.4921C82.7913 67.8642 83.6966 68.9765 84.8131 68.9765ZM76.0497 66.4921C76.0497 67.8642 75.1444 68.9765 74.0279 68.9765C72.9053 68.9765 72 67.8642 72 66.4921C72 65.1193 72.9053 64.007 74.0279 64.007C75.1444 64.007 76.0497 65.1193 76.0497 66.4921ZM119.209 53.24C119.209 54.6121 118.303 55.7251 117.187 55.7251C116.07 55.7251 115.165 54.6121 115.165 53.24C115.165 51.8679 116.07 50.7556 117.187 50.7556C118.303 50.7556 119.209 51.8679 119.209 53.24ZM106.396 55.7251C107.512 55.7251 108.417 54.6121 108.417 53.24C108.417 51.8679 107.512 50.7556 106.396 50.7556C105.279 50.7556 104.374 51.8679 104.374 53.24C104.374 54.6121 105.279 55.7251 106.396 55.7251ZM97.6323 53.24C97.6323 54.6121 96.7209 55.7251 95.6044 55.7251C94.4878 55.7251 93.5825 54.6121 93.5825 53.24C93.5825 51.8679 94.4878 50.7556 95.6044 50.7556C96.7209 50.7556 97.6323 51.8679 97.6323 53.24ZM84.8131 55.7251C85.9357 55.7251 86.841 54.6121 86.841 53.24C86.841 51.8679 85.9357 50.7556 84.8131 50.7556C83.6966 50.7556 82.7913 51.8679 82.7913 53.24C82.7913 54.6121 83.6966 55.7251 84.8131 55.7251ZM76.0497 53.24C76.0497 54.6121 75.1444 55.7251 74.0279 55.7251C72.9053 55.7251 72 54.6121 72 53.24C72 51.8679 72.9053 50.7556 74.0279 50.7556C75.1444 50.7556 76.0497 51.8679 76.0497 53.24ZM119.209 39.9886C119.209 41.3607 118.303 42.473 117.187 42.473C116.07 42.473 115.165 41.3607 115.165 39.9886C115.165 38.6158 116.07 37.5035 117.187 37.5035C118.303 37.5035 119.209 38.6158 119.209 39.9886ZM106.396 42.473C107.512 42.473 108.417 41.3607 108.417 39.9886C108.417 38.6158 107.512 37.5035 106.396 37.5035C105.279 37.5035 104.374 38.6158 104.374 39.9886C104.374 41.3607 105.279 42.473 106.396 42.473ZM97.6323 39.9886C97.6323 41.3607 96.7209 42.473 95.6044 42.473C94.4878 42.473 93.5825 41.3607 93.5825 39.9886C93.5825 38.6158 94.4878 37.5035 95.6044 37.5035C96.7209 37.5035 97.6323 38.6158 97.6323 39.9886ZM84.8131 42.473C85.9357 42.473 86.841 41.3607 86.841 39.9886C86.841 38.6158 85.9357 37.5035 84.8131 37.5035C83.6966 37.5035 82.7913 38.6158 82.7913 39.9886C82.7913 41.3607 83.6966 42.473 84.8131 42.473ZM76.0497 39.9886C76.0497 41.3607 75.1444 42.473 74.0279 42.473C72.9053 42.473 72 41.3607 72 39.9886C72 38.6158 72.9053 37.5035 74.0279 37.5035C75.1444 37.5035 76.0497 38.6158 76.0497 39.9886ZM119.209 26.7365C119.209 28.1086 118.303 29.2216 117.187 29.2216C116.07 29.2216 115.165 28.1086 115.165 26.7365C115.165 25.3644 116.07 24.2521 117.187 24.2521C118.303 24.2521 119.209 25.3644 119.209 26.7365ZM106.396 29.2216C107.512 29.2216 108.417 28.1086 108.417 26.7365C108.417 25.3644 107.512 24.2521 106.396 24.2521C105.279 24.2521 104.374 25.3644 104.374 26.7365C104.374 28.1086 105.279 29.2216 106.396 29.2216ZM97.6323 26.7365C97.6323 28.1086 96.7209 29.2216 95.6044 29.2216C94.4878 29.2216 93.5825 28.1086 93.5825 26.7365C93.5825 25.3644 94.4878 24.2521 95.6044 24.2521C96.7209 24.2521 97.6323 25.3644 97.6323 26.7365ZM84.8131 29.2216C85.9357 29.2216 86.841 28.1086 86.841 26.7365C86.841 25.3644 85.9357 24.2521 84.8131 24.2521C83.6966 24.2521 82.7913 25.3644 82.7913 26.7365C82.7913 28.1086 83.6966 29.2216 84.8131 29.2216ZM76.0497 26.7365C76.0497 28.1086 75.1444 29.2216 74.0279 29.2216C72.9053 29.2216 72 28.1086 72 26.7365C72 25.3644 72.9053 24.2521 74.0279 24.2521C75.1444 24.2521 76.0497 25.3644 76.0497 26.7365ZM119.209 13.4851C119.209 14.8572 118.303 15.9695 117.187 15.9695C116.07 15.9695 115.165 14.8572 115.165 13.4851C115.165 12.1123 116.07 11 117.187 11C118.303 11 119.209 12.1123 119.209 13.4851ZM106.396 15.9695C107.512 15.9695 108.417 14.8572 108.417 13.4851C108.417 12.1123 107.512 11 106.396 11C105.279 11 104.374 12.1123 104.374 13.4851C104.374 14.8572 105.279 15.9695 106.396 15.9695ZM97.6323 13.4851C97.6323 14.8572 96.7209 15.9695 95.6044 15.9695C94.4878 15.9695 93.5825 14.8572 93.5825 13.4851C93.5825 12.1123 94.4878 11 95.6044 11C96.7209 11 97.6323 12.1123 97.6323 13.4851ZM84.8131 15.9695C85.9357 15.9695 86.841 14.8572 86.841 13.4851C86.841 12.1123 85.9357 11 84.8131 11C83.6966 11 82.7913 12.1123 82.7913 13.4851C82.7913 14.8572 83.6966 15.9695 84.8131 15.9695ZM76.0497 13.4851C76.0497 14.8572 75.1444 15.9695 74.0279 15.9695C72.9053 15.9695 72 14.8572 72 13.4851C72 12.1123 72.9053 11 74.0279 11C75.1444 11 76.0497 12.1123 76.0497 13.4851Z" fill="white"/>
<path opacity="0.3" fill-rule="evenodd" clip-rule="evenodd" d="M127.978 107.49C129.095 107.49 130 106.377 130 105.005C130 103.632 129.095 102.52 127.978 102.52C126.856 102.52 125.95 103.632 125.95 105.005C125.95 106.377 126.856 107.49 127.978 107.49ZM127.978 120.742C129.095 120.742 130 119.629 130 118.257C130 116.884 129.095 115.772 127.978 115.772C126.862 115.772 125.95 116.884 125.95 118.257C125.95 119.629 126.862 120.742 127.978 120.742ZM127.978 133.993C129.095 133.993 130 132.881 130 131.509C130 130.136 129.095 129.024 127.978 129.024C126.862 129.024 125.95 130.136 125.95 131.509C125.95 132.881 126.862 133.993 127.978 133.993ZM127.978 147.245C129.095 147.245 130 146.132 130 144.76C130 143.388 129.095 142.276 127.978 142.276C126.862 142.276 125.95 143.388 125.95 144.76C125.95 146.132 126.862 147.245 127.978 147.245ZM127.978 160.497C129.095 160.497 130 159.384 130 158.012C130 156.639 129.095 155.527 127.978 155.527C126.862 155.527 125.95 156.639 125.95 158.012C125.95 159.384 126.862 160.497 127.978 160.497ZM127.978 173.749C129.095 173.749 130 172.636 130 171.264C130 169.891 129.095 168.779 127.978 168.779C126.862 168.779 125.95 169.891 125.95 171.264C125.95 172.636 126.862 173.749 127.978 173.749ZM106.619 186.985C107.735 186.985 108.641 185.873 108.641 184.501C108.641 183.129 107.735 182.016 106.619 182.016C105.496 182.016 104.591 183.129 104.591 184.501C104.591 185.873 105.496 186.985 106.619 186.985ZM119.209 184.516C119.209 185.888 118.303 187 117.187 187C116.07 187 115.165 185.888 115.165 184.516C115.165 183.144 116.07 182.03 117.187 182.03C118.303 182.03 119.209 183.144 119.209 184.516ZM130 184.516C130 185.888 129.095 187 127.978 187C126.862 187 125.95 185.888 125.95 184.516C125.95 183.144 126.862 182.03 127.978 182.03C129.095 182.03 130 183.144 130 184.516ZM97.6323 184.516C97.6323 185.888 96.7209 187 95.6044 187C94.4878 187 93.5825 185.888 93.5825 184.516C93.5825 183.144 94.4878 182.03 95.6044 182.03C96.7209 182.03 97.6323 183.144 97.6323 184.516ZM84.8131 187C85.9357 187 86.841 185.888 86.841 184.516C86.841 183.144 85.9357 182.03 84.8131 182.03C83.6966 182.03 82.7913 183.144 82.7913 184.516C82.7913 185.888 83.6966 187 84.8131 187ZM76.0497 184.516C76.0497 185.888 75.1444 187 74.0279 187C72.9053 187 72 185.888 72 184.516C72 183.144 72.9053 182.03 74.0279 182.03C75.1444 182.03 76.0497 183.144 76.0497 184.516ZM119.209 171.264C119.209 172.636 118.303 173.749 117.187 173.749C116.07 173.749 115.165 172.636 115.165 171.264C115.165 169.891 116.07 168.779 117.187 168.779C118.303 168.779 119.209 169.891 119.209 171.264ZM106.396 173.749C107.512 173.749 108.417 172.636 108.417 171.264C108.417 169.891 107.512 168.779 106.396 168.779C105.279 168.779 104.374 169.891 104.374 171.264C104.374 172.636 105.279 173.749 106.396 173.749ZM97.6323 171.264C97.6323 172.636 96.7209 173.749 95.6044 173.749C94.4878 173.749 93.5825 172.636 93.5825 171.264C93.5825 169.891 94.4878 168.779 95.6044 168.779C96.7209 168.779 97.6323 169.891 97.6323 171.264ZM84.8131 173.749C85.9357 173.749 86.841 172.636 86.841 171.264C86.841 169.891 85.9357 168.779 84.8131 168.779C83.6966 168.779 82.7913 169.891 82.7913 171.264C82.7913 172.636 83.6966 173.749 84.8131 173.749ZM76.0497 171.264C76.0497 172.636 75.1444 173.749 74.0279 173.749C72.9053 173.749 72 172.636 72 171.264C72 169.891 72.9053 168.779 74.0279 168.779C75.1444 168.779 76.0497 169.891 76.0497 171.264ZM119.209 158.012C119.209 159.384 118.303 160.497 117.187 160.497C116.07 160.497 115.165 159.384 115.165 158.012C115.165 156.639 116.07 155.527 117.187 155.527C118.303 155.527 119.209 156.639 119.209 158.012ZM106.396 160.497C107.512 160.497 108.417 159.384 108.417 158.012C108.417 156.639 107.512 155.527 106.396 155.527C105.279 155.527 104.374 156.639 104.374 158.012C104.374 159.384 105.279 160.497 106.396 160.497ZM97.6323 158.012C97.6323 159.384 96.7209 160.497 95.6044 160.497C94.4878 160.497 93.5825 159.384 93.5825 158.012C93.5825 156.639 94.4878 155.527 95.6044 155.527C96.7209 155.527 97.6323 156.639 97.6323 158.012ZM84.8131 160.497C85.9357 160.497 86.841 159.384 86.841 158.012C86.841 156.639 85.9357 155.527 84.8131 155.527C83.6966 155.527 82.7913 156.639 82.7913 158.012C82.7913 159.384 83.6966 160.497 84.8131 160.497ZM76.0497 158.012C76.0497 159.384 75.1444 160.497 74.0279 160.497C72.9053 160.497 72 159.384 72 158.012C72 156.639 72.9053 155.527 74.0279 155.527C75.1444 155.527 76.0497 156.639 76.0497 158.012ZM119.209 144.76C119.209 146.132 118.303 147.245 117.187 147.245C116.07 147.245 115.165 146.132 115.165 144.76C115.165 143.388 116.07 142.276 117.187 142.276C118.303 142.276 119.209 143.388 119.209 144.76ZM106.396 147.245C107.512 147.245 108.417 146.132 108.417 144.76C108.417 143.388 107.512 142.276 106.396 142.276C105.279 142.276 104.374 143.388 104.374 144.76C104.374 146.132 105.279 147.245 106.396 147.245ZM97.6323 144.76C97.6323 146.132 96.7209 147.245 95.6044 147.245C94.4878 147.245 93.5825 146.132 93.5825 144.76C93.5825 143.388 94.4878 142.276 95.6044 142.276C96.7209 142.276 97.6323 143.388 97.6323 144.76ZM84.8131 147.245C85.9357 147.245 86.841 146.132 86.841 144.76C86.841 143.388 85.9357 142.276 84.8131 142.276C83.6966 142.276 82.7913 143.388 82.7913 144.76C82.7913 146.132 83.6966 147.245 84.8131 147.245ZM76.0497 144.76C76.0497 146.132 75.1444 147.245 74.0279 147.245C72.9053 147.245 72 146.132 72 144.76C72 143.388 72.9053 142.276 74.0279 142.276C75.1444 142.276 76.0497 143.388 76.0497 144.76ZM119.209 131.509C119.209 132.881 118.303 133.993 117.187 133.993C116.07 133.993 115.165 132.881 115.165 131.509C115.165 130.136 116.07 129.024 117.187 129.024C118.303 129.024 119.209 130.136 119.209 131.509ZM106.396 133.993C107.512 133.993 108.417 132.881 108.417 131.509C108.417 130.136 107.512 129.024 106.396 129.024C105.279 129.024 104.374 130.136 104.374 131.509C104.374 132.881 105.279 133.993 106.396 133.993ZM97.6323 131.509C97.6323 132.881 96.7209 133.993 95.6044 133.993C94.4878 133.993 93.5825 132.881 93.5825 131.509C93.5825 130.136 94.4878 129.024 95.6044 129.024C96.7209 129.024 97.6323 130.136 97.6323 131.509ZM84.8131 133.993C85.9357 133.993 86.841 132.881 86.841 131.509C86.841 130.136 85.9357 129.024 84.8131 129.024C83.6966 129.024 82.7913 130.136 82.7913 131.509C82.7913 132.881 83.6966 133.993 84.8131 133.993ZM76.0497 131.509C76.0497 132.881 75.1444 133.993 74.0279 133.993C72.9053 133.993 72 132.881 72 131.509C72 130.136 72.9053 129.024 74.0279 129.024C75.1444 129.024 76.0497 130.136 76.0497 131.509ZM119.209 118.257C119.209 119.629 118.303 120.742 117.187 120.742C116.07 120.742 115.165 119.629 115.165 118.257C115.165 116.884 116.07 115.772 117.187 115.772C118.303 115.772 119.209 116.884 119.209 118.257ZM106.396 120.742C107.512 120.742 108.417 119.629 108.417 118.257C108.417 116.884 107.512 115.772 106.396 115.772C105.279 115.772 104.374 116.884 104.374 118.257C104.374 119.629 105.279 120.742 106.396 120.742ZM97.6323 118.257C97.6323 119.629 96.7209 120.742 95.6044 120.742C94.4878 120.742 93.5825 119.629 93.5825 118.257C93.5825 116.884 94.4878 115.772 95.6044 115.772C96.7209 115.772 97.6323 116.884 97.6323 118.257ZM84.8131 120.742C85.9357 120.742 86.841 119.629 86.841 118.257C86.841 116.884 85.9357 115.772 84.8131 115.772C83.6966 115.772 82.7913 116.884 82.7913 118.257C82.7913 119.629 83.6966 120.742 84.8131 120.742ZM76.0497 118.257C76.0497 119.629 75.1444 120.742 74.0279 120.742C72.9053 120.742 72 119.629 72 118.257C72 116.884 72.9053 115.772 74.0279 115.772C75.1444 115.772 76.0497 116.884 76.0497 118.257ZM119.209 105.005C119.209 106.377 118.303 107.49 117.187 107.49C116.07 107.49 115.165 106.377 115.165 105.005C115.165 103.632 116.07 102.52 117.187 102.52C118.303 102.52 119.209 103.632 119.209 105.005ZM106.396 107.49C107.512 107.49 108.417 106.377 108.417 105.005C108.417 103.632 107.512 102.52 106.396 102.52C105.279 102.52 104.374 103.632 104.374 105.005C104.374 106.377 105.279 107.49 106.396 107.49ZM97.6323 105.005C97.6323 106.377 96.7209 107.49 95.6044 107.49C94.4878 107.49 93.5825 106.377 93.5825 105.005C93.5825 103.632 94.4878 102.52 95.6044 102.52C96.7209 102.52 97.6323 103.632 97.6323 105.005ZM84.8131 107.49C85.9357 107.49 86.841 106.377 86.841 105.005C86.841 103.632 85.9357 102.52 84.8131 102.52C83.6966 102.52 82.7913 103.632 82.7913 105.005C82.7913 106.377 83.6966 107.49 84.8131 107.49ZM76.0497 105.005C76.0497 106.377 75.1444 107.49 74.0279 107.49C72.9053 107.49 72 106.377 72 105.005C72 103.632 72.9053 102.52 74.0279 102.52C75.1444 102.52 76.0497 103.632 76.0497 105.005Z" fill="white"/>
<path opacity="0.3" fill-rule="evenodd" clip-rule="evenodd" d="M1366.98 15.9695C1368.09 15.9695 1369 14.8572 1369 13.4851C1369 12.1123 1368.09 11 1366.98 11C1365.86 11 1364.95 12.1123 1364.95 13.4851C1364.95 14.8572 1365.86 15.9695 1366.98 15.9695ZM1366.98 29.2216C1368.09 29.2216 1369 28.1086 1369 26.7365C1369 25.3644 1368.09 24.2521 1366.98 24.2521C1365.86 24.2521 1364.95 25.3644 1364.95 26.7365C1364.95 28.1086 1365.86 29.2216 1366.98 29.2216ZM1366.98 42.473C1368.09 42.473 1369 41.3607 1369 39.9886C1369 38.6158 1368.09 37.5035 1366.98 37.5035C1365.86 37.5035 1364.95 38.6158 1364.95 39.9886C1364.95 41.3607 1365.86 42.473 1366.98 42.473ZM1366.98 55.7251C1368.09 55.7251 1369 54.6121 1369 53.24C1369 51.8679 1368.09 50.7556 1366.98 50.7556C1365.86 50.7556 1364.95 51.8679 1364.95 53.24C1364.95 54.6121 1365.86 55.7251 1366.98 55.7251ZM1366.98 68.9765C1368.09 68.9765 1369 67.8642 1369 66.4921C1369 65.1193 1368.09 64.007 1366.98 64.007C1365.86 64.007 1364.95 65.1193 1364.95 66.4921C1364.95 67.8642 1365.86 68.9765 1366.98 68.9765ZM1366.98 82.2286C1368.09 82.2286 1369 81.1156 1369 79.7435C1369 78.3714 1368.09 77.2591 1366.98 77.2591C1365.86 77.2591 1364.95 78.3714 1364.95 79.7435C1364.95 81.1156 1365.86 82.2286 1366.98 82.2286ZM1345.62 95.4652C1346.74 95.4652 1347.64 94.3529 1347.64 92.9808C1347.64 91.6087 1346.74 90.4957 1345.62 90.4957C1344.5 90.4957 1343.59 91.6087 1343.59 92.9808C1343.59 94.3529 1344.5 95.4652 1345.62 95.4652ZM1358.21 92.9956C1358.21 94.3677 1357.3 95.48 1356.19 95.48C1355.07 95.48 1354.17 94.3677 1354.17 92.9956C1354.17 91.6235 1355.07 90.5105 1356.19 90.5105C1357.3 90.5105 1358.21 91.6235 1358.21 92.9956ZM1369 92.9956C1369 94.3677 1368.09 95.48 1366.98 95.48C1365.86 95.48 1364.95 94.3677 1364.95 92.9956C1364.95 91.6235 1365.86 90.5105 1366.98 90.5105C1368.09 90.5105 1369 91.6235 1369 92.9956ZM1336.63 92.9956C1336.63 94.3677 1335.72 95.48 1334.6 95.48C1333.49 95.48 1332.58 94.3677 1332.58 92.9956C1332.58 91.6235 1333.49 90.5105 1334.6 90.5105C1335.72 90.5105 1336.63 91.6235 1336.63 92.9956ZM1323.81 95.48C1324.94 95.48 1325.84 94.3677 1325.84 92.9956C1325.84 91.6235 1324.94 90.5105 1323.81 90.5105C1322.7 90.5105 1321.79 91.6235 1321.79 92.9956C1321.79 94.3677 1322.7 95.48 1323.81 95.48ZM1315.05 92.9956C1315.05 94.3677 1314.14 95.48 1313.03 95.48C1311.91 95.48 1311 94.3677 1311 92.9956C1311 91.6235 1311.91 90.5105 1313.03 90.5105C1314.14 90.5105 1315.05 91.6235 1315.05 92.9956ZM1358.21 79.7435C1358.21 81.1156 1357.3 82.2286 1356.19 82.2286C1355.07 82.2286 1354.17 81.1156 1354.17 79.7435C1354.17 78.3714 1355.07 77.2591 1356.19 77.2591C1357.3 77.2591 1358.21 78.3714 1358.21 79.7435ZM1345.4 82.2286C1346.51 82.2286 1347.42 81.1156 1347.42 79.7435C1347.42 78.3714 1346.51 77.2591 1345.4 77.2591C1344.28 77.2591 1343.37 78.3714 1343.37 79.7435C1343.37 81.1156 1344.28 82.2286 1345.4 82.2286ZM1336.63 79.7435C1336.63 81.1156 1335.72 82.2286 1334.6 82.2286C1333.49 82.2286 1332.58 81.1156 1332.58 79.7435C1332.58 78.3714 1333.49 77.2591 1334.6 77.2591C1335.72 77.2591 1336.63 78.3714 1336.63 79.7435ZM1323.81 82.2286C1324.94 82.2286 1325.84 81.1156 1325.84 79.7435C1325.84 78.3714 1324.94 77.2591 1323.81 77.2591C1322.7 77.2591 1321.79 78.3714 1321.79 79.7435C1321.79 81.1156 1322.7 82.2286 1323.81 82.2286ZM1315.05 79.7435C1315.05 81.1156 1314.14 82.2286 1313.03 82.2286C1311.91 82.2286 1311 81.1156 1311 79.7435C1311 78.3714 1311.91 77.2591 1313.03 77.2591C1314.14 77.2591 1315.05 78.3714 1315.05 79.7435ZM1358.21 66.4921C1358.21 67.8642 1357.3 68.9765 1356.19 68.9765C1355.07 68.9765 1354.17 67.8642 1354.17 66.4921C1354.17 65.1193 1355.07 64.007 1356.19 64.007C1357.3 64.007 1358.21 65.1193 1358.21 66.4921ZM1345.4 68.9765C1346.51 68.9765 1347.42 67.8642 1347.42 66.4921C1347.42 65.1193 1346.51 64.007 1345.4 64.007C1344.28 64.007 1343.37 65.1193 1343.37 66.4921C1343.37 67.8642 1344.28 68.9765 1345.4 68.9765ZM1336.63 66.4921C1336.63 67.8642 1335.72 68.9765 1334.6 68.9765C1333.49 68.9765 1332.58 67.8642 1332.58 66.4921C1332.58 65.1193 1333.49 64.007 1334.6 64.007C1335.72 64.007 1336.63 65.1193 1336.63 66.4921ZM1323.81 68.9765C1324.94 68.9765 1325.84 67.8642 1325.84 66.4921C1325.84 65.1193 1324.94 64.007 1323.81 64.007C1322.7 64.007 1321.79 65.1193 1321.79 66.4921C1321.79 67.8642 1322.7 68.9765 1323.81 68.9765ZM1315.05 66.4921C1315.05 67.8642 1314.14 68.9765 1313.03 68.9765C1311.91 68.9765 1311 67.8642 1311 66.4921C1311 65.1193 1311.91 64.007 1313.03 64.007C1314.14 64.007 1315.05 65.1193 1315.05 66.4921ZM1358.21 53.24C1358.21 54.6121 1357.3 55.7251 1356.19 55.7251C1355.07 55.7251 1354.17 54.6121 1354.17 53.24C1354.17 51.8679 1355.07 50.7556 1356.19 50.7556C1357.3 50.7556 1358.21 51.8679 1358.21 53.24ZM1345.4 55.7251C1346.51 55.7251 1347.42 54.6121 1347.42 53.24C1347.42 51.8679 1346.51 50.7556 1345.4 50.7556C1344.28 50.7556 1343.37 51.8679 1343.37 53.24C1343.37 54.6121 1344.28 55.7251 1345.4 55.7251ZM1336.63 53.24C1336.63 54.6121 1335.72 55.7251 1334.6 55.7251C1333.49 55.7251 1332.58 54.6121 1332.58 53.24C1332.58 51.8679 1333.49 50.7556 1334.6 50.7556C1335.72 50.7556 1336.63 51.8679 1336.63 53.24ZM1323.81 55.7251C1324.94 55.7251 1325.84 54.6121 1325.84 53.24C1325.84 51.8679 1324.94 50.7556 1323.81 50.7556C1322.7 50.7556 1321.79 51.8679 1321.79 53.24C1321.79 54.6121 1322.7 55.7251 1323.81 55.7251ZM1315.05 53.24C1315.05 54.6121 1314.14 55.7251 1313.03 55.7251C1311.91 55.7251 1311 54.6121 1311 53.24C1311 51.8679 1311.91 50.7556 1313.03 50.7556C1314.14 50.7556 1315.05 51.8679 1315.05 53.24ZM1358.21 39.9886C1358.21 41.3607 1357.3 42.473 1356.19 42.473C1355.07 42.473 1354.17 41.3607 1354.17 39.9886C1354.17 38.6158 1355.07 37.5035 1356.19 37.5035C1357.3 37.5035 1358.21 38.6158 1358.21 39.9886ZM1345.4 42.473C1346.51 42.473 1347.42 41.3607 1347.42 39.9886C1347.42 38.6158 1346.51 37.5035 1345.4 37.5035C1344.28 37.5035 1343.37 38.6158 1343.37 39.9886C1343.37 41.3607 1344.28 42.473 1345.4 42.473ZM1336.63 39.9886C1336.63 41.3607 1335.72 42.473 1334.6 42.473C1333.49 42.473 1332.58 41.3607 1332.58 39.9886C1332.58 38.6158 1333.49 37.5035 1334.6 37.5035C1335.72 37.5035 1336.63 38.6158 1336.63 39.9886ZM1323.81 42.473C1324.94 42.473 1325.84 41.3607 1325.84 39.9886C1325.84 38.6158 1324.94 37.5035 1323.81 37.5035C1322.7 37.5035 1321.79 38.6158 1321.79 39.9886C1321.79 41.3607 1322.7 42.473 1323.81 42.473ZM1315.05 39.9886C1315.05 41.3607 1314.14 42.473 1313.03 42.473C1311.91 42.473 1311 41.3607 1311 39.9886C1311 38.6158 1311.91 37.5035 1313.03 37.5035C1314.14 37.5035 1315.05 38.6158 1315.05 39.9886ZM1358.21 26.7365C1358.21 28.1086 1357.3 29.2216 1356.19 29.2216C1355.07 29.2216 1354.17 28.1086 1354.17 26.7365C1354.17 25.3644 1355.07 24.2521 1356.19 24.2521C1357.3 24.2521 1358.21 25.3644 1358.21 26.7365ZM1345.4 29.2216C1346.51 29.2216 1347.42 28.1086 1347.42 26.7365C1347.42 25.3644 1346.51 24.2521 1345.4 24.2521C1344.28 24.2521 1343.37 25.3644 1343.37 26.7365C1343.37 28.1086 1344.28 29.2216 1345.4 29.2216ZM1336.63 26.7365C1336.63 28.1086 1335.72 29.2216 1334.6 29.2216C1333.49 29.2216 1332.58 28.1086 1332.58 26.7365C1332.58 25.3644 1333.49 24.2521 1334.6 24.2521C1335.72 24.2521 1336.63 25.3644 1336.63 26.7365ZM1323.81 29.2216C1324.94 29.2216 1325.84 28.1086 1325.84 26.7365C1325.84 25.3644 1324.94 24.2521 1323.81 24.2521C1322.7 24.2521 1321.79 25.3644 1321.79 26.7365C1321.79 28.1086 1322.7 29.2216 1323.81 29.2216ZM1315.05 26.7365C1315.05 28.1086 1314.14 29.2216 1313.03 29.2216C1311.91 29.2216 1311 28.1086 1311 26.7365C1311 25.3644 1311.91 24.2521 1313.03 24.2521C1314.14 24.2521 1315.05 25.3644 1315.05 26.7365ZM1358.21 13.4851C1358.21 14.8572 1357.3 15.9695 1356.19 15.9695C1355.07 15.9695 1354.17 14.8572 1354.17 13.4851C1354.17 12.1123 1355.07 11 1356.19 11C1357.3 11 1358.21 12.1123 1358.21 13.4851ZM1345.4 15.9695C1346.51 15.9695 1347.42 14.8572 1347.42 13.4851C1347.42 12.1123 1346.51 11 1345.4 11C1344.28 11 1343.37 12.1123 1343.37 13.4851C1343.37 14.8572 1344.28 15.9695 1345.4 15.9695ZM1336.63 13.4851C1336.63 14.8572 1335.72 15.9695 1334.6 15.9695C1333.49 15.9695 1332.58 14.8572 1332.58 13.4851C1332.58 12.1123 1333.49 11 1334.6 11C1335.72 11 1336.63 12.1123 1336.63 13.4851ZM1323.81 15.9695C1324.94 15.9695 1325.84 14.8572 1325.84 13.4851C1325.84 12.1123 1324.94 11 1323.81 11C1322.7 11 1321.79 12.1123 1321.79 13.4851C1321.79 14.8572 1322.7 15.9695 1323.81 15.9695ZM1315.05 13.4851C1315.05 14.8572 1314.14 15.9695 1313.03 15.9695C1311.91 15.9695 1311 14.8572 1311 13.4851C1311 12.1123 1311.91 11 1313.03 11C1314.14 11 1315.05 12.1123 1315.05 13.4851Z" fill="white"/>
<path opacity="0.3" fill-rule="evenodd" clip-rule="evenodd" d="M1366.98 107.49C1368.09 107.49 1369 106.377 1369 105.005C1369 103.632 1368.09 102.52 1366.98 102.52C1365.86 102.52 1364.95 103.632 1364.95 105.005C1364.95 106.377 1365.86 107.49 1366.98 107.49ZM1366.98 120.742C1368.09 120.742 1369 119.629 1369 118.257C1369 116.884 1368.09 115.772 1366.98 115.772C1365.86 115.772 1364.95 116.884 1364.95 118.257C1364.95 119.629 1365.86 120.742 1366.98 120.742ZM1366.98 133.993C1368.09 133.993 1369 132.881 1369 131.509C1369 130.136 1368.09 129.024 1366.98 129.024C1365.86 129.024 1364.95 130.136 1364.95 131.509C1364.95 132.881 1365.86 133.993 1366.98 133.993ZM1366.98 147.245C1368.09 147.245 1369 146.132 1369 144.76C1369 143.388 1368.09 142.276 1366.98 142.276C1365.86 142.276 1364.95 143.388 1364.95 144.76C1364.95 146.132 1365.86 147.245 1366.98 147.245ZM1366.98 160.497C1368.09 160.497 1369 159.384 1369 158.012C1369 156.639 1368.09 155.527 1366.98 155.527C1365.86 155.527 1364.95 156.639 1364.95 158.012C1364.95 159.384 1365.86 160.497 1366.98 160.497ZM1366.98 173.749C1368.09 173.749 1369 172.636 1369 171.264C1369 169.891 1368.09 168.779 1366.98 168.779C1365.86 168.779 1364.95 169.891 1364.95 171.264C1364.95 172.636 1365.86 173.749 1366.98 173.749ZM1345.62 186.985C1346.74 186.985 1347.64 185.873 1347.64 184.501C1347.64 183.129 1346.74 182.016 1345.62 182.016C1344.5 182.016 1343.59 183.129 1343.59 184.501C1343.59 185.873 1344.5 186.985 1345.62 186.985ZM1358.21 184.516C1358.21 185.888 1357.3 187 1356.19 187C1355.07 187 1354.17 185.888 1354.17 184.516C1354.17 183.144 1355.07 182.03 1356.19 182.03C1357.3 182.03 1358.21 183.144 1358.21 184.516ZM1369 184.516C1369 185.888 1368.09 187 1366.98 187C1365.86 187 1364.95 185.888 1364.95 184.516C1364.95 183.144 1365.86 182.03 1366.98 182.03C1368.09 182.03 1369 183.144 1369 184.516ZM1336.63 184.516C1336.63 185.888 1335.72 187 1334.6 187C1333.49 187 1332.58 185.888 1332.58 184.516C1332.58 183.144 1333.49 182.03 1334.6 182.03C1335.72 182.03 1336.63 183.144 1336.63 184.516ZM1323.81 187C1324.94 187 1325.84 185.888 1325.84 184.516C1325.84 183.144 1324.94 182.03 1323.81 182.03C1322.7 182.03 1321.79 183.144 1321.79 184.516C1321.79 185.888 1322.7 187 1323.81 187ZM1315.05 184.516C1315.05 185.888 1314.14 187 1313.03 187C1311.91 187 1311 185.888 1311 184.516C1311 183.144 1311.91 182.03 1313.03 182.03C1314.14 182.03 1315.05 183.144 1315.05 184.516ZM1358.21 171.264C1358.21 172.636 1357.3 173.749 1356.19 173.749C1355.07 173.749 1354.17 172.636 1354.17 171.264C1354.17 169.891 1355.07 168.779 1356.19 168.779C1357.3 168.779 1358.21 169.891 1358.21 171.264ZM1345.4 173.749C1346.51 173.749 1347.42 172.636 1347.42 171.264C1347.42 169.891 1346.51 168.779 1345.4 168.779C1344.28 168.779 1343.37 169.891 1343.37 171.264C1343.37 172.636 1344.28 173.749 1345.4 173.749ZM1336.63 171.264C1336.63 172.636 1335.72 173.749 1334.6 173.749C1333.49 173.749 1332.58 172.636 1332.58 171.264C1332.58 169.891 1333.49 168.779 1334.6 168.779C1335.72 168.779 1336.63 169.891 1336.63 171.264ZM1323.81 173.749C1324.94 173.749 1325.84 172.636 1325.84 171.264C1325.84 169.891 1324.94 168.779 1323.81 168.779C1322.7 168.779 1321.79 169.891 1321.79 171.264C1321.79 172.636 1322.7 173.749 1323.81 173.749ZM1315.05 171.264C1315.05 172.636 1314.14 173.749 1313.03 173.749C1311.91 173.749 1311 172.636 1311 171.264C1311 169.891 1311.91 168.779 1313.03 168.779C1314.14 168.779 1315.05 169.891 1315.05 171.264ZM1358.21 158.012C1358.21 159.384 1357.3 160.497 1356.19 160.497C1355.07 160.497 1354.17 159.384 1354.17 158.012C1354.17 156.639 1355.07 155.527 1356.19 155.527C1357.3 155.527 1358.21 156.639 1358.21 158.012ZM1345.4 160.497C1346.51 160.497 1347.42 159.384 1347.42 158.012C1347.42 156.639 1346.51 155.527 1345.4 155.527C1344.28 155.527 1343.37 156.639 1343.37 158.012C1343.37 159.384 1344.28 160.497 1345.4 160.497ZM1336.63 158.012C1336.63 159.384 1335.72 160.497 1334.6 160.497C1333.49 160.497 1332.58 159.384 1332.58 158.012C1332.58 156.639 1333.49 155.527 1334.6 155.527C1335.72 155.527 1336.63 156.639 1336.63 158.012ZM1323.81 160.497C1324.94 160.497 1325.84 159.384 1325.84 158.012C1325.84 156.639 1324.94 155.527 1323.81 155.527C1322.7 155.527 1321.79 156.639 1321.79 158.012C1321.79 159.384 1322.7 160.497 1323.81 160.497ZM1315.05 158.012C1315.05 159.384 1314.14 160.497 1313.03 160.497C1311.91 160.497 1311 159.384 1311 158.012C1311 156.639 1311.91 155.527 1313.03 155.527C1314.14 155.527 1315.05 156.639 1315.05 158.012ZM1358.21 144.76C1358.21 146.132 1357.3 147.245 1356.19 147.245C1355.07 147.245 1354.17 146.132 1354.17 144.76C1354.17 143.388 1355.07 142.276 1356.19 142.276C1357.3 142.276 1358.21 143.388 1358.21 144.76ZM1345.4 147.245C1346.51 147.245 1347.42 146.132 1347.42 144.76C1347.42 143.388 1346.51 142.276 1345.4 142.276C1344.28 142.276 1343.37 143.388 1343.37 144.76C1343.37 146.132 1344.28 147.245 1345.4 147.245ZM1336.63 144.76C1336.63 146.132 1335.72 147.245 1334.6 147.245C1333.49 147.245 1332.58 146.132 1332.58 144.76C1332.58 143.388 1333.49 142.276 1334.6 142.276C1335.72 142.276 1336.63 143.388 1336.63 144.76ZM1323.81 147.245C1324.94 147.245 1325.84 146.132 1325.84 144.76C1325.84 143.388 1324.94 142.276 1323.81 142.276C1322.7 142.276 1321.79 143.388 1321.79 144.76C1321.79 146.132 1322.7 147.245 1323.81 147.245ZM1315.05 144.76C1315.05 146.132 1314.14 147.245 1313.03 147.245C1311.91 147.245 1311 146.132 1311 144.76C1311 143.388 1311.91 142.276 1313.03 142.276C1314.14 142.276 1315.05 143.388 1315.05 144.76ZM1358.21 131.509C1358.21 132.881 1357.3 133.993 1356.19 133.993C1355.07 133.993 1354.17 132.881 1354.17 131.509C1354.17 130.136 1355.07 129.024 1356.19 129.024C1357.3 129.024 1358.21 130.136 1358.21 131.509ZM1345.4 133.993C1346.51 133.993 1347.42 132.881 1347.42 131.509C1347.42 130.136 1346.51 129.024 1345.4 129.024C1344.28 129.024 1343.37 130.136 1343.37 131.509C1343.37 132.881 1344.28 133.993 1345.4 133.993ZM1336.63 131.509C1336.63 132.881 1335.72 133.993 1334.6 133.993C1333.49 133.993 1332.58 132.881 1332.58 131.509C1332.58 130.136 1333.49 129.024 1334.6 129.024C1335.72 129.024 1336.63 130.136 1336.63 131.509ZM1323.81 133.993C1324.94 133.993 1325.84 132.881 1325.84 131.509C1325.84 130.136 1324.94 129.024 1323.81 129.024C1322.7 129.024 1321.79 130.136 1321.79 131.509C1321.79 132.881 1322.7 133.993 1323.81 133.993ZM1315.05 131.509C1315.05 132.881 1314.14 133.993 1313.03 133.993C1311.91 133.993 1311 132.881 1311 131.509C1311 130.136 1311.91 129.024 1313.03 129.024C1314.14 129.024 1315.05 130.136 1315.05 131.509ZM1358.21 118.257C1358.21 119.629 1357.3 120.742 1356.19 120.742C1355.07 120.742 1354.17 119.629 1354.17 118.257C1354.17 116.884 1355.07 115.772 1356.19 115.772C1357.3 115.772 1358.21 116.884 1358.21 118.257ZM1345.4 120.742C1346.51 120.742 1347.42 119.629 1347.42 118.257C1347.42 116.884 1346.51 115.772 1345.4 115.772C1344.28 115.772 1343.37 116.884 1343.37 118.257C1343.37 119.629 1344.28 120.742 1345.4 120.742ZM1336.63 118.257C1336.63 119.629 1335.72 120.742 1334.6 120.742C1333.49 120.742 1332.58 119.629 1332.58 118.257C1332.58 116.884 1333.49 115.772 1334.6 115.772C1335.72 115.772 1336.63 116.884 1336.63 118.257ZM1323.81 120.742C1324.94 120.742 1325.84 119.629 1325.84 118.257C1325.84 116.884 1324.94 115.772 1323.81 115.772C1322.7 115.772 1321.79 116.884 1321.79 118.257C1321.79 119.629 1322.7 120.742 1323.81 120.742ZM1315.05 118.257C1315.05 119.629 1314.14 120.742 1313.03 120.742C1311.91 120.742 1311 119.629 1311 118.257C1311 116.884 1311.91 115.772 1313.03 115.772C1314.14 115.772 1315.05 116.884 1315.05 118.257ZM1358.21 105.005C1358.21 106.377 1357.3 107.49 1356.19 107.49C1355.07 107.49 1354.17 106.377 1354.17 105.005C1354.17 103.632 1355.07 102.52 1356.19 102.52C1357.3 102.52 1358.21 103.632 1358.21 105.005ZM1345.4 107.49C1346.51 107.49 1347.42 106.377 1347.42 105.005C1347.42 103.632 1346.51 102.52 1345.4 102.52C1344.28 102.52 1343.37 103.632 1343.37 105.005C1343.37 106.377 1344.28 107.49 1345.4 107.49ZM1336.63 105.005C1336.63 106.377 1335.72 107.49 1334.6 107.49C1333.49 107.49 1332.58 106.377 1332.58 105.005C1332.58 103.632 1333.49 102.52 1334.6 102.52C1335.72 102.52 1336.63 103.632 1336.63 105.005ZM1323.81 107.49C1324.94 107.49 1325.84 106.377 1325.84 105.005C1325.84 103.632 1324.94 102.52 1323.81 102.52C1322.7 102.52 1321.79 103.632 1321.79 105.005C1321.79 106.377 1322.7 107.49 1323.81 107.49ZM1315.05 105.005C1315.05 106.377 1314.14 107.49 1313.03 107.49C1311.91 107.49 1311 106.377 1311 105.005C1311 103.632 1311.91 102.52 1313.03 102.52C1314.14 102.52 1315.05 103.632 1315.05 105.005Z" fill="white"/>
<path opacity="0.3" fill-rule="evenodd" clip-rule="evenodd" d="M1431.98 15.9695C1433.09 15.9695 1434 14.8572 1434 13.4851C1434 12.1123 1433.09 11 1431.98 11C1430.86 11 1429.95 12.1123 1429.95 13.4851C1429.95 14.8572 1430.86 15.9695 1431.98 15.9695ZM1431.98 29.2216C1433.09 29.2216 1434 28.1086 1434 26.7365C1434 25.3644 1433.09 24.2521 1431.98 24.2521C1430.86 24.2521 1429.95 25.3644 1429.95 26.7365C1429.95 28.1086 1430.86 29.2216 1431.98 29.2216ZM1431.98 42.473C1433.09 42.473 1434 41.3607 1434 39.9886C1434 38.6158 1433.09 37.5035 1431.98 37.5035C1430.86 37.5035 1429.95 38.6158 1429.95 39.9886C1429.95 41.3607 1430.86 42.473 1431.98 42.473ZM1431.98 55.7251C1433.09 55.7251 1434 54.6121 1434 53.24C1434 51.8679 1433.09 50.7556 1431.98 50.7556C1430.86 50.7556 1429.95 51.8679 1429.95 53.24C1429.95 54.6121 1430.86 55.7251 1431.98 55.7251ZM1431.98 68.9765C1433.09 68.9765 1434 67.8642 1434 66.4921C1434 65.1193 1433.09 64.007 1431.98 64.007C1430.86 64.007 1429.95 65.1193 1429.95 66.4921C1429.95 67.8642 1430.86 68.9765 1431.98 68.9765ZM1431.98 82.2286C1433.09 82.2286 1434 81.1156 1434 79.7435C1434 78.3714 1433.09 77.2591 1431.98 77.2591C1430.86 77.2591 1429.95 78.3714 1429.95 79.7435C1429.95 81.1156 1430.86 82.2286 1431.98 82.2286ZM1410.62 95.4652C1411.74 95.4652 1412.64 94.3529 1412.64 92.9808C1412.64 91.6087 1411.74 90.4957 1410.62 90.4957C1409.5 90.4957 1408.59 91.6087 1408.59 92.9808C1408.59 94.3529 1409.5 95.4652 1410.62 95.4652ZM1423.21 92.9956C1423.21 94.3677 1422.3 95.48 1421.19 95.48C1420.07 95.48 1419.17 94.3677 1419.17 92.9956C1419.17 91.6235 1420.07 90.5105 1421.19 90.5105C1422.3 90.5105 1423.21 91.6235 1423.21 92.9956ZM1434 92.9956C1434 94.3677 1433.09 95.48 1431.98 95.48C1430.86 95.48 1429.95 94.3677 1429.95 92.9956C1429.95 91.6235 1430.86 90.5105 1431.98 90.5105C1433.09 90.5105 1434 91.6235 1434 92.9956ZM1401.63 92.9956C1401.63 94.3677 1400.72 95.48 1399.6 95.48C1398.49 95.48 1397.58 94.3677 1397.58 92.9956C1397.58 91.6235 1398.49 90.5105 1399.6 90.5105C1400.72 90.5105 1401.63 91.6235 1401.63 92.9956ZM1388.81 95.48C1389.94 95.48 1390.84 94.3677 1390.84 92.9956C1390.84 91.6235 1389.94 90.5105 1388.81 90.5105C1387.7 90.5105 1386.79 91.6235 1386.79 92.9956C1386.79 94.3677 1387.7 95.48 1388.81 95.48ZM1380.05 92.9956C1380.05 94.3677 1379.14 95.48 1378.03 95.48C1376.91 95.48 1376 94.3677 1376 92.9956C1376 91.6235 1376.91 90.5105 1378.03 90.5105C1379.14 90.5105 1380.05 91.6235 1380.05 92.9956ZM1423.21 79.7435C1423.21 81.1156 1422.3 82.2286 1421.19 82.2286C1420.07 82.2286 1419.17 81.1156 1419.17 79.7435C1419.17 78.3714 1420.07 77.2591 1421.19 77.2591C1422.3 77.2591 1423.21 78.3714 1423.21 79.7435ZM1410.4 82.2286C1411.51 82.2286 1412.42 81.1156 1412.42 79.7435C1412.42 78.3714 1411.51 77.2591 1410.4 77.2591C1409.28 77.2591 1408.37 78.3714 1408.37 79.7435C1408.37 81.1156 1409.28 82.2286 1410.4 82.2286ZM1401.63 79.7435C1401.63 81.1156 1400.72 82.2286 1399.6 82.2286C1398.49 82.2286 1397.58 81.1156 1397.58 79.7435C1397.58 78.3714 1398.49 77.2591 1399.6 77.2591C1400.72 77.2591 1401.63 78.3714 1401.63 79.7435ZM1388.81 82.2286C1389.94 82.2286 1390.84 81.1156 1390.84 79.7435C1390.84 78.3714 1389.94 77.2591 1388.81 77.2591C1387.7 77.2591 1386.79 78.3714 1386.79 79.7435C1386.79 81.1156 1387.7 82.2286 1388.81 82.2286ZM1380.05 79.7435C1380.05 81.1156 1379.14 82.2286 1378.03 82.2286C1376.91 82.2286 1376 81.1156 1376 79.7435C1376 78.3714 1376.91 77.2591 1378.03 77.2591C1379.14 77.2591 1380.05 78.3714 1380.05 79.7435ZM1423.21 66.4921C1423.21 67.8642 1422.3 68.9765 1421.19 68.9765C1420.07 68.9765 1419.17 67.8642 1419.17 66.4921C1419.17 65.1193 1420.07 64.007 1421.19 64.007C1422.3 64.007 1423.21 65.1193 1423.21 66.4921ZM1410.4 68.9765C1411.51 68.9765 1412.42 67.8642 1412.42 66.4921C1412.42 65.1193 1411.51 64.007 1410.4 64.007C1409.28 64.007 1408.37 65.1193 1408.37 66.4921C1408.37 67.8642 1409.28 68.9765 1410.4 68.9765ZM1401.63 66.4921C1401.63 67.8642 1400.72 68.9765 1399.6 68.9765C1398.49 68.9765 1397.58 67.8642 1397.58 66.4921C1397.58 65.1193 1398.49 64.007 1399.6 64.007C1400.72 64.007 1401.63 65.1193 1401.63 66.4921ZM1388.81 68.9765C1389.94 68.9765 1390.84 67.8642 1390.84 66.4921C1390.84 65.1193 1389.94 64.007 1388.81 64.007C1387.7 64.007 1386.79 65.1193 1386.79 66.4921C1386.79 67.8642 1387.7 68.9765 1388.81 68.9765ZM1380.05 66.4921C1380.05 67.8642 1379.14 68.9765 1378.03 68.9765C1376.91 68.9765 1376 67.8642 1376 66.4921C1376 65.1193 1376.91 64.007 1378.03 64.007C1379.14 64.007 1380.05 65.1193 1380.05 66.4921ZM1423.21 53.24C1423.21 54.6121 1422.3 55.7251 1421.19 55.7251C1420.07 55.7251 1419.17 54.6121 1419.17 53.24C1419.17 51.8679 1420.07 50.7556 1421.19 50.7556C1422.3 50.7556 1423.21 51.8679 1423.21 53.24ZM1410.4 55.7251C1411.51 55.7251 1412.42 54.6121 1412.42 53.24C1412.42 51.8679 1411.51 50.7556 1410.4 50.7556C1409.28 50.7556 1408.37 51.8679 1408.37 53.24C1408.37 54.6121 1409.28 55.7251 1410.4 55.7251ZM1401.63 53.24C1401.63 54.6121 1400.72 55.7251 1399.6 55.7251C1398.49 55.7251 1397.58 54.6121 1397.58 53.24C1397.58 51.8679 1398.49 50.7556 1399.6 50.7556C1400.72 50.7556 1401.63 51.8679 1401.63 53.24ZM1388.81 55.7251C1389.94 55.7251 1390.84 54.6121 1390.84 53.24C1390.84 51.8679 1389.94 50.7556 1388.81 50.7556C1387.7 50.7556 1386.79 51.8679 1386.79 53.24C1386.79 54.6121 1387.7 55.7251 1388.81 55.7251ZM1380.05 53.24C1380.05 54.6121 1379.14 55.7251 1378.03 55.7251C1376.91 55.7251 1376 54.6121 1376 53.24C1376 51.8679 1376.91 50.7556 1378.03 50.7556C1379.14 50.7556 1380.05 51.8679 1380.05 53.24ZM1423.21 39.9886C1423.21 41.3607 1422.3 42.473 1421.19 42.473C1420.07 42.473 1419.17 41.3607 1419.17 39.9886C1419.17 38.6158 1420.07 37.5035 1421.19 37.5035C1422.3 37.5035 1423.21 38.6158 1423.21 39.9886ZM1410.4 42.473C1411.51 42.473 1412.42 41.3607 1412.42 39.9886C1412.42 38.6158 1411.51 37.5035 1410.4 37.5035C1409.28 37.5035 1408.37 38.6158 1408.37 39.9886C1408.37 41.3607 1409.28 42.473 1410.4 42.473ZM1401.63 39.9886C1401.63 41.3607 1400.72 42.473 1399.6 42.473C1398.49 42.473 1397.58 41.3607 1397.58 39.9886C1397.58 38.6158 1398.49 37.5035 1399.6 37.5035C1400.72 37.5035 1401.63 38.6158 1401.63 39.9886ZM1388.81 42.473C1389.94 42.473 1390.84 41.3607 1390.84 39.9886C1390.84 38.6158 1389.94 37.5035 1388.81 37.5035C1387.7 37.5035 1386.79 38.6158 1386.79 39.9886C1386.79 41.3607 1387.7 42.473 1388.81 42.473ZM1380.05 39.9886C1380.05 41.3607 1379.14 42.473 1378.03 42.473C1376.91 42.473 1376 41.3607 1376 39.9886C1376 38.6158 1376.91 37.5035 1378.03 37.5035C1379.14 37.5035 1380.05 38.6158 1380.05 39.9886ZM1423.21 26.7365C1423.21 28.1086 1422.3 29.2216 1421.19 29.2216C1420.07 29.2216 1419.17 28.1086 1419.17 26.7365C1419.17 25.3644 1420.07 24.2521 1421.19 24.2521C1422.3 24.2521 1423.21 25.3644 1423.21 26.7365ZM1410.4 29.2216C1411.51 29.2216 1412.42 28.1086 1412.42 26.7365C1412.42 25.3644 1411.51 24.2521 1410.4 24.2521C1409.28 24.2521 1408.37 25.3644 1408.37 26.7365C1408.37 28.1086 1409.28 29.2216 1410.4 29.2216ZM1401.63 26.7365C1401.63 28.1086 1400.72 29.2216 1399.6 29.2216C1398.49 29.2216 1397.58 28.1086 1397.58 26.7365C1397.58 25.3644 1398.49 24.2521 1399.6 24.2521C1400.72 24.2521 1401.63 25.3644 1401.63 26.7365ZM1388.81 29.2216C1389.94 29.2216 1390.84 28.1086 1390.84 26.7365C1390.84 25.3644 1389.94 24.2521 1388.81 24.2521C1387.7 24.2521 1386.79 25.3644 1386.79 26.7365C1386.79 28.1086 1387.7 29.2216 1388.81 29.2216ZM1380.05 26.7365C1380.05 28.1086 1379.14 29.2216 1378.03 29.2216C1376.91 29.2216 1376 28.1086 1376 26.7365C1376 25.3644 1376.91 24.2521 1378.03 24.2521C1379.14 24.2521 1380.05 25.3644 1380.05 26.7365ZM1423.21 13.4851C1423.21 14.8572 1422.3 15.9695 1421.19 15.9695C1420.07 15.9695 1419.17 14.8572 1419.17 13.4851C1419.17 12.1123 1420.07 11 1421.19 11C1422.3 11 1423.21 12.1123 1423.21 13.4851ZM1410.4 15.9695C1411.51 15.9695 1412.42 14.8572 1412.42 13.4851C1412.42 12.1123 1411.51 11 1410.4 11C1409.28 11 1408.37 12.1123 1408.37 13.4851C1408.37 14.8572 1409.28 15.9695 1410.4 15.9695ZM1401.63 13.4851C1401.63 14.8572 1400.72 15.9695 1399.6 15.9695C1398.49 15.9695 1397.58 14.8572 1397.58 13.4851C1397.58 12.1123 1398.49 11 1399.6 11C1400.72 11 1401.63 12.1123 1401.63 13.4851ZM1388.81 15.9695C1389.94 15.9695 1390.84 14.8572 1390.84 13.4851C1390.84 12.1123 1389.94 11 1388.81 11C1387.7 11 1386.79 12.1123 1386.79 13.4851C1386.79 14.8572 1387.7 15.9695 1388.81 15.9695ZM1380.05 13.4851C1380.05 14.8572 1379.14 15.9695 1378.03 15.9695C1376.91 15.9695 1376 14.8572 1376 13.4851C1376 12.1123 1376.91 11 1378.03 11C1379.14 11 1380.05 12.1123 1380.05 13.4851Z" fill="white"/>
<path opacity="0.3" fill-rule="evenodd" clip-rule="evenodd" d="M1431.98 107.49C1433.09 107.49 1434 106.377 1434 105.005C1434 103.632 1433.09 102.52 1431.98 102.52C1430.86 102.52 1429.95 103.632 1429.95 105.005C1429.95 106.377 1430.86 107.49 1431.98 107.49ZM1431.98 120.742C1433.09 120.742 1434 119.629 1434 118.257C1434 116.884 1433.09 115.772 1431.98 115.772C1430.86 115.772 1429.95 116.884 1429.95 118.257C1429.95 119.629 1430.86 120.742 1431.98 120.742ZM1431.98 133.993C1433.09 133.993 1434 132.881 1434 131.509C1434 130.136 1433.09 129.024 1431.98 129.024C1430.86 129.024 1429.95 130.136 1429.95 131.509C1429.95 132.881 1430.86 133.993 1431.98 133.993ZM1431.98 147.245C1433.09 147.245 1434 146.132 1434 144.76C1434 143.388 1433.09 142.276 1431.98 142.276C1430.86 142.276 1429.95 143.388 1429.95 144.76C1429.95 146.132 1430.86 147.245 1431.98 147.245ZM1431.98 160.497C1433.09 160.497 1434 159.384 1434 158.012C1434 156.639 1433.09 155.527 1431.98 155.527C1430.86 155.527 1429.95 156.639 1429.95 158.012C1429.95 159.384 1430.86 160.497 1431.98 160.497ZM1431.98 173.749C1433.09 173.749 1434 172.636 1434 171.264C1434 169.891 1433.09 168.779 1431.98 168.779C1430.86 168.779 1429.95 169.891 1429.95 171.264C1429.95 172.636 1430.86 173.749 1431.98 173.749ZM1410.62 186.985C1411.74 186.985 1412.64 185.873 1412.64 184.501C1412.64 183.129 1411.74 182.016 1410.62 182.016C1409.5 182.016 1408.59 183.129 1408.59 184.501C1408.59 185.873 1409.5 186.985 1410.62 186.985ZM1423.21 184.516C1423.21 185.888 1422.3 187 1421.19 187C1420.07 187 1419.17 185.888 1419.17 184.516C1419.17 183.144 1420.07 182.03 1421.19 182.03C1422.3 182.03 1423.21 183.144 1423.21 184.516ZM1434 184.516C1434 185.888 1433.09 187 1431.98 187C1430.86 187 1429.95 185.888 1429.95 184.516C1429.95 183.144 1430.86 182.03 1431.98 182.03C1433.09 182.03 1434 183.144 1434 184.516ZM1401.63 184.516C1401.63 185.888 1400.72 187 1399.6 187C1398.49 187 1397.58 185.888 1397.58 184.516C1397.58 183.144 1398.49 182.03 1399.6 182.03C1400.72 182.03 1401.63 183.144 1401.63 184.516ZM1388.81 187C1389.94 187 1390.84 185.888 1390.84 184.516C1390.84 183.144 1389.94 182.03 1388.81 182.03C1387.7 182.03 1386.79 183.144 1386.79 184.516C1386.79 185.888 1387.7 187 1388.81 187ZM1380.05 184.516C1380.05 185.888 1379.14 187 1378.03 187C1376.91 187 1376 185.888 1376 184.516C1376 183.144 1376.91 182.03 1378.03 182.03C1379.14 182.03 1380.05 183.144 1380.05 184.516ZM1423.21 171.264C1423.21 172.636 1422.3 173.749 1421.19 173.749C1420.07 173.749 1419.17 172.636 1419.17 171.264C1419.17 169.891 1420.07 168.779 1421.19 168.779C1422.3 168.779 1423.21 169.891 1423.21 171.264ZM1410.4 173.749C1411.51 173.749 1412.42 172.636 1412.42 171.264C1412.42 169.891 1411.51 168.779 1410.4 168.779C1409.28 168.779 1408.37 169.891 1408.37 171.264C1408.37 172.636 1409.28 173.749 1410.4 173.749ZM1401.63 171.264C1401.63 172.636 1400.72 173.749 1399.6 173.749C1398.49 173.749 1397.58 172.636 1397.58 171.264C1397.58 169.891 1398.49 168.779 1399.6 168.779C1400.72 168.779 1401.63 169.891 1401.63 171.264ZM1388.81 173.749C1389.94 173.749 1390.84 172.636 1390.84 171.264C1390.84 169.891 1389.94 168.779 1388.81 168.779C1387.7 168.779 1386.79 169.891 1386.79 171.264C1386.79 172.636 1387.7 173.749 1388.81 173.749ZM1380.05 171.264C1380.05 172.636 1379.14 173.749 1378.03 173.749C1376.91 173.749 1376 172.636 1376 171.264C1376 169.891 1376.91 168.779 1378.03 168.779C1379.14 168.779 1380.05 169.891 1380.05 171.264ZM1423.21 158.012C1423.21 159.384 1422.3 160.497 1421.19 160.497C1420.07 160.497 1419.17 159.384 1419.17 158.012C1419.17 156.639 1420.07 155.527 1421.19 155.527C1422.3 155.527 1423.21 156.639 1423.21 158.012ZM1410.4 160.497C1411.51 160.497 1412.42 159.384 1412.42 158.012C1412.42 156.639 1411.51 155.527 1410.4 155.527C1409.28 155.527 1408.37 156.639 1408.37 158.012C1408.37 159.384 1409.28 160.497 1410.4 160.497ZM1401.63 158.012C1401.63 159.384 1400.72 160.497 1399.6 160.497C1398.49 160.497 1397.58 159.384 1397.58 158.012C1397.58 156.639 1398.49 155.527 1399.6 155.527C1400.72 155.527 1401.63 156.639 1401.63 158.012ZM1388.81 160.497C1389.94 160.497 1390.84 159.384 1390.84 158.012C1390.84 156.639 1389.94 155.527 1388.81 155.527C1387.7 155.527 1386.79 156.639 1386.79 158.012C1386.79 159.384 1387.7 160.497 1388.81 160.497ZM1380.05 158.012C1380.05 159.384 1379.14 160.497 1378.03 160.497C1376.91 160.497 1376 159.384 1376 158.012C1376 156.639 1376.91 155.527 1378.03 155.527C1379.14 155.527 1380.05 156.639 1380.05 158.012ZM1423.21 144.76C1423.21 146.132 1422.3 147.245 1421.19 147.245C1420.07 147.245 1419.17 146.132 1419.17 144.76C1419.17 143.388 1420.07 142.276 1421.19 142.276C1422.3 142.276 1423.21 143.388 1423.21 144.76ZM1410.4 147.245C1411.51 147.245 1412.42 146.132 1412.42 144.76C1412.42 143.388 1411.51 142.276 1410.4 142.276C1409.28 142.276 1408.37 143.388 1408.37 144.76C1408.37 146.132 1409.28 147.245 1410.4 147.245ZM1401.63 144.76C1401.63 146.132 1400.72 147.245 1399.6 147.245C1398.49 147.245 1397.58 146.132 1397.58 144.76C1397.58 143.388 1398.49 142.276 1399.6 142.276C1400.72 142.276 1401.63 143.388 1401.63 144.76ZM1388.81 147.245C1389.94 147.245 1390.84 146.132 1390.84 144.76C1390.84 143.388 1389.94 142.276 1388.81 142.276C1387.7 142.276 1386.79 143.388 1386.79 144.76C1386.79 146.132 1387.7 147.245 1388.81 147.245ZM1380.05 144.76C1380.05 146.132 1379.14 147.245 1378.03 147.245C1376.91 147.245 1376 146.132 1376 144.76C1376 143.388 1376.91 142.276 1378.03 142.276C1379.14 142.276 1380.05 143.388 1380.05 144.76ZM1423.21 131.509C1423.21 132.881 1422.3 133.993 1421.19 133.993C1420.07 133.993 1419.17 132.881 1419.17 131.509C1419.17 130.136 1420.07 129.024 1421.19 129.024C1422.3 129.024 1423.21 130.136 1423.21 131.509ZM1410.4 133.993C1411.51 133.993 1412.42 132.881 1412.42 131.509C1412.42 130.136 1411.51 129.024 1410.4 129.024C1409.28 129.024 1408.37 130.136 1408.37 131.509C1408.37 132.881 1409.28 133.993 1410.4 133.993ZM1401.63 131.509C1401.63 132.881 1400.72 133.993 1399.6 133.993C1398.49 133.993 1397.58 132.881 1397.58 131.509C1397.58 130.136 1398.49 129.024 1399.6 129.024C1400.72 129.024 1401.63 130.136 1401.63 131.509ZM1388.81 133.993C1389.94 133.993 1390.84 132.881 1390.84 131.509C1390.84 130.136 1389.94 129.024 1388.81 129.024C1387.7 129.024 1386.79 130.136 1386.79 131.509C1386.79 132.881 1387.7 133.993 1388.81 133.993ZM1380.05 131.509C1380.05 132.881 1379.14 133.993 1378.03 133.993C1376.91 133.993 1376 132.881 1376 131.509C1376 130.136 1376.91 129.024 1378.03 129.024C1379.14 129.024 1380.05 130.136 1380.05 131.509ZM1423.21 118.257C1423.21 119.629 1422.3 120.742 1421.19 120.742C1420.07 120.742 1419.17 119.629 1419.17 118.257C1419.17 116.884 1420.07 115.772 1421.19 115.772C1422.3 115.772 1423.21 116.884 1423.21 118.257ZM1410.4 120.742C1411.51 120.742 1412.42 119.629 1412.42 118.257C1412.42 116.884 1411.51 115.772 1410.4 115.772C1409.28 115.772 1408.37 116.884 1408.37 118.257C1408.37 119.629 1409.28 120.742 1410.4 120.742ZM1401.63 118.257C1401.63 119.629 1400.72 120.742 1399.6 120.742C1398.49 120.742 1397.58 119.629 1397.58 118.257C1397.58 116.884 1398.49 115.772 1399.6 115.772C1400.72 115.772 1401.63 116.884 1401.63 118.257ZM1388.81 120.742C1389.94 120.742 1390.84 119.629 1390.84 118.257C1390.84 116.884 1389.94 115.772 1388.81 115.772C1387.7 115.772 1386.79 116.884 1386.79 118.257C1386.79 119.629 1387.7 120.742 1388.81 120.742ZM1380.05 118.257C1380.05 119.629 1379.14 120.742 1378.03 120.742C1376.91 120.742 1376 119.629 1376 118.257C1376 116.884 1376.91 115.772 1378.03 115.772C1379.14 115.772 1380.05 116.884 1380.05 118.257ZM1423.21 105.005C1423.21 106.377 1422.3 107.49 1421.19 107.49C1420.07 107.49 1419.17 106.377 1419.17 105.005C1419.17 103.632 1420.07 102.52 1421.19 102.52C1422.3 102.52 1423.21 103.632 1423.21 105.005ZM1410.4 107.49C1411.51 107.49 1412.42 106.377 1412.42 105.005C1412.42 103.632 1411.51 102.52 1410.4 102.52C1409.28 102.52 1408.37 103.632 1408.37 105.005C1408.37 106.377 1409.28 107.49 1410.4 107.49ZM1401.63 105.005C1401.63 106.377 1400.72 107.49 1399.6 107.49C1398.49 107.49 1397.58 106.377 1397.58 105.005C1397.58 103.632 1398.49 102.52 1399.6 102.52C1400.72 102.52 1401.63 103.632 1401.63 105.005ZM1388.81 107.49C1389.94 107.49 1390.84 106.377 1390.84 105.005C1390.84 103.632 1389.94 102.52 1388.81 102.52C1387.7 102.52 1386.79 103.632 1386.79 105.005C1386.79 106.377 1387.7 107.49 1388.81 107.49ZM1380.05 105.005C1380.05 106.377 1379.14 107.49 1378.03 107.49C1376.91 107.49 1376 106.377 1376 105.005C1376 103.632 1376.91 102.52 1378.03 102.52C1379.14 102.52 1380.05 103.632 1380.05 105.005Z" fill="white"/>
</g>
</svg>
