<svg width="163" height="445" viewBox="0 0 163 445" fill="none" xmlns="http://www.w3.org/2000/svg">
<path fill-rule="evenodd" clip-rule="evenodd" d="M78.1642 324.559C76.5392 329.512 74.1472 335.115 69.7012 336.493C66.6202 337.455 56.6622 331.358 54.4912 328.914C52.3202 326.47 40.6982 208.43 43.7142 201.241C47.7442 191.595 92.6592 204.92 93.6212 221.638C94.8562 243.023 92.0872 265.76 87.9532 286.963C85.4702 299.677 82.2072 312.261 78.1642 324.559Z" fill="#561C07"/>
<path d="M156.243 421.266C152.031 423.476 147.325 424.724 142.567 424.867C141.033 419.537 139.499 414.207 137.965 408.864C137.77 408.188 137.575 407.486 137.731 406.797C137.965 405.796 138.888 405.12 139.785 404.613C143.191 402.702 148.625 400.57 150.341 405.068C152.382 410.437 154.28 415.871 156.243 421.266Z" fill="#F4A086"/>
<path d="M69.5584 434.123C64.8654 434.825 60.0034 434.422 55.4404 432.992C55.6614 427.454 55.8694 421.916 56.0904 416.378C56.1164 415.676 56.1554 414.948 56.5194 414.35C57.0524 413.479 58.1444 413.141 59.1454 412.959C62.9804 412.283 68.8174 412.075 69.0254 416.872C69.2984 422.631 69.3764 428.377 69.5584 434.123Z" fill="#F4A086"/>
<path fill-rule="evenodd" clip-rule="evenodd" d="M53.1395 310.961C57.8455 301.159 71.6385 294.425 80.3485 311.442C93.6085 337.39 70.6505 385.932 70.7545 417.262H54.6605C53.7635 414.233 50.5265 316.408 53.1395 310.961Z" fill="#561C07"/>
<path fill-rule="evenodd" clip-rule="evenodd" d="M114.5 229.971C110.587 233.052 105.4 233.533 100.538 233.533C60.5369 233.533 42.9219 224.017 42.9219 202.151C42.9219 182.443 84.4049 186.317 103.099 192.401C107.129 193.714 113.005 194.988 115.761 198.745C119.765 204.205 124.029 222.483 114.5 229.971Z" fill="#732706"/>
<path d="M59.7952 100.569C58.4952 118.951 54.8942 137.788 44.5462 153.05C42.3232 156.339 39.0732 159.745 35.1212 159.329C32.8072 159.082 30.8052 157.496 29.5572 155.533C28.3092 153.57 27.7242 151.269 27.2952 148.994C23.9412 131.028 29.4272 112.724 34.8872 95.278C37.1362 88.089 40.1262 75.375 47.4452 71.501C55.0632 67.471 58.8982 79.925 59.6002 85.008C60.3022 90.169 60.1592 95.408 59.7952 100.569Z" fill="#F4A086"/>
<path fill-rule="evenodd" clip-rule="evenodd" d="M60.6666 74.452C60.3156 71.41 59.5096 67.822 56.6756 66.496C53.6986 65.092 50.5006 67.146 48.1866 69.213C34.1466 81.81 28.8166 99.594 26.2686 118.678L59.9516 120.758C62.2006 105.574 62.4476 89.961 60.6666 74.452Z" fill="#00A0DB"/>
<path fill-rule="evenodd" clip-rule="evenodd" d="M111.107 324.559C109.755 329.512 107.675 335.115 103.307 336.493C100.278 337.455 93.765 324.936 91.464 322.492C89.163 320.048 66.829 227.436 69.429 220.247C72.926 210.601 81.701 204.361 90.736 202.931C103.853 200.838 118.946 204.92 120.844 221.638C123.262 243.023 121.767 265.76 118.803 286.963C117.035 299.677 114.461 312.261 111.107 324.559Z" fill="#732706"/>
<path d="M13.8145 150.255C12.8655 152.374 13.8535 154.961 15.5565 156.534C17.2595 158.107 29.1025 163.684 40.7245 158.549C46.5745 155.962 47.4585 150.333 45.4045 144.977C42.5445 137.528 14.9325 147.746 13.8145 150.255Z" fill="#F7B690"/>
<path fill-rule="evenodd" clip-rule="evenodd" d="M88.526 314.51C88.864 304.019 100.486 291.734 114.396 305.943C136.782 328.823 143.334 372.451 152.057 404.873L136.873 410.203C134.767 407.72 88.331 320.334 88.526 314.51Z" fill="#732706"/>
<path fill-rule="evenodd" clip-rule="evenodd" d="M122.612 141.298C128.072 123.787 134.767 102.155 131.751 83.851C124.341 74.803 109.183 53.795 79.1266 53.795C58.0406 53.795 42.2586 75.089 38.6056 80.497C34.5366 86.529 36.0056 95.122 37.0196 102.09C39.1906 116.949 45.6126 175.345 40.0356 215.866H125.16C124.991 196.535 117.113 158.952 122.612 141.298Z" fill="#00A0DB"/>
<path d="M142.203 120.017C137.991 103.936 128.982 89.142 116.645 78.001C114.422 75.999 111.406 73.984 108.663 75.154C107.155 75.791 106.154 77.286 105.712 78.859C105.27 80.432 105.309 82.096 105.374 83.721C106.128 102.753 109.586 121.551 113.044 140.284C114.097 146.043 115.189 151.867 117.672 157.158C120.155 162.449 124.25 167.246 129.71 169.326C132.57 170.405 137.263 171.055 139.902 168.988C142.021 167.324 142.371 163.112 142.917 160.707C144.828 152.179 145.427 143.365 144.712 134.668C144.283 129.715 143.451 124.814 142.203 120.017Z" fill="#F4A086"/>
<path fill-rule="evenodd" clip-rule="evenodd" d="M146.973 126.062C146.999 126.179 147.012 126.296 147.012 126.413C147.012 126.296 146.986 126.179 146.973 126.062Z" fill="#18898D"/>
<path fill-rule="evenodd" clip-rule="evenodd" d="M104.828 74.452C104.984 71.41 105.569 67.822 108.312 66.496C111.198 65.092 116.58 67.731 119.024 69.811C133.857 82.408 142.112 99.594 145.869 118.678L108.468 120.758C105.257 105.574 104.022 89.961 104.828 74.452Z" fill="#00A0DB"/>
<path d="M70.6766 32.722C72.7306 23.635 79.6076 21.503 83.6116 23.687C86.1726 40.691 88.7856 48.257 95.4546 57.526C87.1606 62.843 73.0166 61.855 69.9616 57.526C69.8316 56.174 69.6106 37.415 70.6766 32.722Z" fill="#F4A086"/>
<path d="M71.132 11.389C62.903 5.695 51.06 10.635 49.344 21.165C47.784 30.798 57.469 47.334 62.058 50.012C70.092 54.705 80.895 43.447 81.272 38.039C81.831 30.135 78.048 16.173 71.132 11.389Z" fill="#F7B690"/>
<path fill-rule="evenodd" clip-rule="evenodd" d="M76.982 13.417C77.619 12.988 78.49 13.027 79.192 13.339C79.894 13.651 80.479 14.184 81.051 14.704C82.975 16.485 84.912 18.279 86.433 20.411C87.954 22.543 89.046 25.065 89.046 27.691C89.046 29.394 88.604 31.149 89.189 32.748C89.709 34.178 91.035 35.491 90.645 36.96C90.346 38.052 89.111 38.689 87.98 38.572C86.862 38.455 85.874 37.714 85.172 36.843C84.457 35.959 83.963 34.932 83.391 33.97C81.48 30.746 78.685 28.107 76.696 24.922C74.707 21.737 73.602 17.564 75.396 14.262L76.982 13.417Z" fill="#222B56"/>
<path fill-rule="evenodd" clip-rule="evenodd" d="M38.8008 17.668C40.5818 16.953 42.3498 16.225 44.1308 15.51C43.3118 16.524 42.4798 17.577 42.1548 18.838C41.8298 20.099 42.1808 21.62 43.3118 22.283C44.1828 22.79 45.3138 22.66 46.2108 22.192C47.1078 21.724 47.8228 20.983 48.5248 20.255C48.1608 20.931 47.7838 21.646 47.7838 22.413C47.7838 23.18 48.2778 24.012 49.0448 24.103C49.6558 24.168 50.2018 23.765 50.6828 23.388C53.1008 21.49 55.5058 19.592 57.9238 17.681C57.7808 18.435 57.6378 19.215 57.7678 19.969C57.8848 20.723 58.3268 21.477 59.0418 21.763C60.3028 22.257 61.5898 21.139 62.3568 20.021C63.1238 18.903 63.9168 17.564 65.2558 17.369C66.7638 17.148 67.9858 18.487 68.9088 19.696C69.0778 19.917 69.2338 20.125 69.4028 20.346C71.0928 22.569 72.7828 24.792 74.4728 27.028C74.9928 27.704 75.5258 28.406 76.2278 28.887C76.9298 29.368 77.8658 29.615 78.6588 29.303C80.0238 28.783 94.7528 7.047 75.9028 0.404003C73.1728 -0.557997 69.3248 0.508003 66.5558 1.379C63.7998 2.25 61.1868 3.628 58.3398 4.135C56.0778 4.538 53.7638 4.382 51.4888 4.616C45.0928 5.253 38.9698 11.103 38.8008 17.668Z" fill="#222B56"/>
<path d="M85.7173 22.27C86.5753 24.402 86.5493 26.859 85.6653 28.978C83.1303 35.023 77.2023 29.602 76.9163 25.221C76.5653 20.008 83.4033 16.485 85.7173 22.27Z" fill="#F7B690"/>
<path fill-rule="evenodd" clip-rule="evenodd" d="M25.463 442.274C25.255 439.973 27.439 438.062 29.688 437.529C31.937 436.996 34.29 437.399 36.604 437.373C43.195 437.295 49.604 433.343 52.62 427.48C53.036 426.674 53.439 425.79 54.232 425.335C55.285 424.737 56.65 425.179 57.586 425.946C58.522 426.713 59.172 427.753 60.03 428.611C61.564 430.145 63.735 430.99 65.893 430.964C67.7 430.938 69.728 429.56 71.47 430.47C73.004 431.276 73.42 433.395 73.81 434.916C74.486 437.529 75.084 440.155 75.721 442.768C75.864 443.353 76.007 443.951 76.046 444.549H63.488C62.903 443.73 62.422 441.325 62.175 440.337C62.136 441.351 61.733 443.756 61.083 444.549H26.555C25.957 443.912 25.541 443.132 25.463 442.274Z" fill="#00A0DB"/>
<path fill-rule="evenodd" clip-rule="evenodd" d="M139.732 435.696C138.887 433.551 139.16 431.432 139.914 430.6C140.668 429.768 140.85 425.608 140.902 419.602C140.928 416.859 145.608 414.441 149.547 417.782C150.821 418.861 151.874 419.485 152.758 419.147C153.499 418.861 153.876 417.262 154.903 417.873C155.8 418.406 156.684 420.356 157.347 421.721C158.491 424.087 159.609 426.479 160.74 428.845C160.987 429.365 161.247 429.924 161.468 430.483L140.941 437.685C140.473 437.165 140.044 436.489 139.732 435.696Z" fill="#00A0DB"/>
<path d="M81.2331 175.176H30.1561C27.1401 175.176 23.9941 172.732 23.1491 169.703L0.672052 89.454C-0.172948 86.438 1.59505 83.981 4.61105 83.981H55.6881C58.7041 83.981 61.8501 86.425 62.6951 89.454L85.1721 169.703C86.0171 172.719 84.2621 175.176 81.2331 175.176Z" fill="#D4EDF9"/>
<path d="M85.1712 169.703L62.6942 89.454C61.8492 86.438 58.7162 83.981 55.6872 83.981H50.2402C53.2562 83.981 56.4022 86.425 57.2472 89.454L79.7242 169.703C80.5692 172.719 78.8012 175.176 75.7852 175.176H81.2322C84.2612 175.176 86.0162 172.719 85.1712 169.703Z" fill="#3C79A6"/>
<path d="M77.8783 151.36C75.3823 152.985 74.9663 156.69 76.2533 159.381C77.5403 162.072 120.973 172.602 131.438 172.433C134.623 172.381 138.276 172.082 140.148 169.508C141.825 167.207 141.344 164.009 140.447 161.305C138.939 156.768 136.313 151.659 132.595 148.526C130.047 146.342 79.4773 150.32 77.8783 151.36Z" fill="#F7B690"/>
<path d="M62.2004 143.677C61.1474 142.221 60.0944 140.219 61.1604 138.776C61.8624 137.827 63.2664 137.632 64.4104 137.983C65.5414 138.347 66.4774 139.14 67.4004 139.894C68.6484 140.908 70.0004 141.909 71.5994 142.143C73.1854 142.364 75.0444 141.545 75.4214 139.972C75.8374 138.269 74.4984 136.111 75.7594 134.889C76.4224 134.239 77.5274 134.291 78.3334 134.733C79.1394 135.175 79.7114 135.942 80.2574 136.683C83.1694 140.622 86.1594 144.691 87.3294 149.449C88.4994 154.207 87.4074 159.875 83.4424 162.735C79.8934 165.296 74.6414 164.919 71.2224 162.176C68.2974 159.849 67.1794 156.508 66.8024 152.92C66.3734 148.994 64.5924 146.992 62.2004 143.677Z" fill="#F7B690"/>
<path d="M11.0719 139.595C11.2539 139.049 11.5659 130.274 12.0209 129.91C12.8399 129.247 15.9209 139.556 15.2839 140.401C17.5069 140.167 18.1829 140.089 20.4059 139.855C22.0309 139.686 24.1499 139.816 24.6439 141.363C25.0339 142.611 24.0459 143.794 23.3569 144.899C22.1349 146.862 23.9289 158.315 22.9799 159.29C19.4309 162.891 11.6699 156.651 10.3829 153.141C8.5759 148.292 9.4729 144.275 11.0719 139.595Z" fill="#F7B690"/>
</svg>
