<svg width="197" height="450" viewBox="0 0 197 450" fill="none" xmlns="http://www.w3.org/2000/svg">
<path d="M92.348 425.887C92.348 425.887 87.5205 433.104 80.7572 434.669C73.9938 436.226 67.321 438.706 67.2716 442.981C67.2221 447.249 86.8368 449.802 94.5887 445.494C106.147 439.068 107.325 441.004 108.602 437.791C109.887 434.578 107.061 425.986 107.143 424.965C107.242 423.696 92.348 425.887 92.348 425.887Z" fill="#353A3D"/>
<path d="M93.0971 422.32C93.0971 422.32 92.2156 425.805 92.3474 425.879C92.4792 425.953 107.596 427.757 107.143 424.957C106.772 422.691 106.245 420.22 106.245 420.22L93.0971 422.32Z" fill="#81807E"/>
<path d="M143.234 425.41C143.234 425.41 139.79 432.313 133.908 434.669C127.623 437.182 122.581 440.073 122.696 444.233C122.812 448.394 138.06 452.611 149.157 444.629C156.167 439.587 158.391 439.554 159.512 436.383C160.64 433.203 157.559 424.948 157.601 423.952C157.658 422.708 143.234 425.41 143.234 425.41Z" fill="#353A3D"/>
<path d="M143.061 421.818C143.061 421.818 143.102 425.335 143.234 425.401C143.365 425.467 157.98 426.67 157.609 423.935C157.312 421.76 156.192 419.132 156.192 419.132L143.061 421.818Z" fill="#81807E"/>
<path d="M89.4727 210.876C89.4727 210.876 75.8965 270.766 72.7908 289.013C70.1464 304.542 68.0457 320.705 69.3144 331.917C70.8796 345.798 90.5272 417.715 89.7034 421.785C88.8796 425.854 110.257 422.436 110.257 422.436C110.257 422.436 95.3134 342.206 98.3038 327.279C100.512 316.223 119.879 242.757 122.853 246.522C125.819 250.295 129.501 315.853 131.701 326.735C133.9 337.617 140.647 423.614 140.647 423.614C140.647 423.614 155.731 425.838 159.767 422.427C159.767 422.427 161.605 348.994 160.204 328.589C159.669 320.812 169.315 235.351 156.95 200.941C150.409 182.768 89.4727 210.876 89.4727 210.876Z" fill="#2D3133"/>
<path d="M172.445 83.6321L143.53 71.687L118.791 73.7712C118.783 73.7712 118.783 73.7712 118.783 73.7712L113.667 76.1108L83.7305 91.6229L91.5401 148.679C94.1845 158.894 89.4971 178.748 88.9698 189.325C88.5415 197.703 91.3012 201.476 91.3836 201.584L155.805 192.522H155.821C155.821 192.522 158.671 172.273 158.894 161.325L172.445 83.6321Z" fill="#DECBC4"/>
<path d="M91.3927 201.584C91.3927 201.584 89.9098 203.355 89.4814 210.876C89.4814 210.876 150.5 203.758 156.951 200.949C156.951 200.949 157.198 192.662 155.83 192.522C154.323 192.365 91.3927 201.584 91.3927 201.584Z" fill="#495055"/>
<path d="M143.424 69.6193C143.234 79.1918 124.691 84.4312 124.691 84.4312C124.691 84.4312 116.939 74.7104 118.784 73.7795C119.509 73.417 119.805 71.9589 119.896 70.336C119.978 68.7872 119.88 67.0737 119.789 65.9946C119.731 65.3191 119.682 64.8824 119.682 64.8824C119.682 64.8824 122.326 62.0898 125.704 58.7616C131.594 52.9374 139.692 45.482 139.7 48.4477C139.7 48.6042 139.676 48.7937 139.634 49.0078C138.217 55.6806 143.424 69.6193 143.424 69.6193Z" fill="#F4A086"/>
<path d="M141.883 193.988C141.883 193.988 143.217 202.383 143.333 204.574L146.158 204.014C146.158 204.014 145.384 195.125 144.923 193.642L141.883 193.988Z" fill="#353A3D"/>
<path d="M96.4833 200.603C96.4833 200.603 95.4124 208.24 95.3877 211.123L98.3698 210.736C98.3698 210.736 98.9795 201.205 99.3255 200.208L96.4833 200.603Z" fill="#353A3D"/>
<path d="M136.281 55.59C136.24 55.6476 135.457 56.8257 134.114 58.5145C131.264 62.098 125.917 67.9799 119.904 70.336C119.986 68.7872 119.887 67.0737 119.796 65.9945C119.179 65.9781 118.569 65.9039 117.951 65.7721C119.599 62.8888 121.98 59.8655 121.98 59.8655L125.703 58.7534L136.281 55.59Z" fill="#A77860"/>
<path d="M139.84 48.5711C138.233 52.064 136.709 54.5931 136.281 55.5899C136.001 56.2407 135.235 57.3034 134.114 58.5144C131.058 61.8096 125.382 66.151 119.797 65.9945C119.179 65.978 118.569 65.9038 117.951 65.772C115.694 65.2777 113.033 64.2315 111.567 61.3647C100.001 38.7185 108.371 20.1995 108.371 20.1995C108.371 20.1995 139.996 11.253 144.947 20.7761C148.432 27.4489 143.613 40.3743 139.84 48.5711Z" fill="#F7B690"/>
<path d="M108.379 20.1995C108.379 20.1995 105.438 20.0348 104.713 14.4659C103.996 8.96293 105.446 7.43891 105.446 7.43891C105.446 7.43891 118.503 1.97712 123.19 1.26042C127.878 0.551951 139.411 -0.131802 142.113 2.95744C142.113 2.95744 148.679 1.43341 150.466 12.3323C153.309 29.6238 140.795 46.4211 140.795 46.4211C140.795 46.4211 140.902 35.1268 138.406 33.6275C135.918 32.1282 133.768 35.687 133.768 35.687L128.669 36.6014C128.669 36.6014 136.412 19.8865 127.12 19.2687C117.852 18.6508 113.7 21.1634 108.379 20.1995Z" fill="#222B56"/>
<path d="M133.917 31.1808C134.403 26.205 143.407 24.302 142.798 29.5167C142.196 34.7313 137.764 39.7483 135.713 39.567C133.67 39.4023 133.546 34.9785 133.917 31.1808Z" fill="#EEA886"/>
<path fill-rule="evenodd" clip-rule="evenodd" d="M196.393 158.136V158.136C196.393 158.977 194.803 162.346 192.283 167.19C188.361 174.67 182.183 185.676 176.07 196.344C176.869 197.843 177.66 199.335 178.41 200.801C180.247 204.393 181.878 207.869 183.031 211.115C184.424 215.011 186.36 225.004 182.652 226.858L163.137 237.633C163.137 237.633 162.997 237.254 162.741 236.545C162.099 234.791 160.698 231.043 158.754 226.182C158.732 226.129 158.694 226.04 158.642 225.919C158.543 225.685 158.392 225.331 158.202 224.88C157.815 223.966 157.255 222.656 156.612 221.165C156.47 220.835 156.325 220.495 156.177 220.147C156.026 219.793 155.872 219.431 155.714 219.064C155.599 218.796 155.481 218.523 155.363 218.249C155.119 217.682 154.871 217.107 154.627 216.535C154.34 215.862 154.05 215.189 153.767 214.532C153.531 213.983 153.299 213.445 153.078 212.927C151.744 209.83 150.706 207.416 150.706 207.416C150.673 207.346 150.64 207.274 150.607 207.202C150.574 207.13 150.541 207.058 150.508 206.988C149.874 205.612 149.223 204.236 148.555 202.86C147.526 200.735 146.471 198.618 145.392 196.542C145.319 196.396 145.243 196.251 145.168 196.108C145.132 196.041 145.097 195.974 145.063 195.908C144.968 195.726 144.871 195.545 144.774 195.364C144.677 195.183 144.581 195.001 144.486 194.82C144.453 194.761 144.42 194.703 144.388 194.645C144.298 194.484 144.208 194.325 144.123 194.161C144.111 194.136 144.097 194.112 144.082 194.087C144.068 194.062 144.053 194.037 144.041 194.013C144.016 193.967 143.992 193.924 143.967 193.881C143.942 193.838 143.917 193.794 143.893 193.749C142.749 191.664 141.576 189.648 140.416 187.654C135.85 179.806 131.479 172.294 129.863 162.231C129.666 161.011 129.476 159.8 129.303 158.598C129.007 156.588 128.735 154.61 128.488 152.675C128.397 151.941 128.306 151.216 128.216 150.5C127.408 143.785 126.856 137.651 126.42 132.793C126.309 131.561 126.205 130.41 126.107 129.353C124.583 113.066 134.559 95.437 142.212 84.5464C145.746 79.5295 149.626 74.8585 150.442 74.043C150.741 74.1574 150.967 74.2432 151.176 74.3224C151.898 74.5969 152.41 74.7913 155.006 75.8141C158.27 77.0979 163.484 78.8175 168.467 80.4606C174.803 82.55 180.764 84.5157 181.862 85.3043C182.458 85.7354 182.93 87.7706 183.675 90.9794C184.339 93.8414 185.22 97.6369 186.598 102.06C192.629 121.387 196.212 150.533 196.385 157.807C196.393 157.922 196.393 158.029 196.393 158.136ZM165.377 127.532C165.369 127.557 165.361 127.573 165.361 127.598C163.417 135.259 162.609 163.549 162.618 163.532C162.618 167.165 163.804 171.325 165.616 175.757C165.637 175.805 165.656 175.854 165.675 175.901C165.702 175.967 165.728 176.033 165.756 176.095C167.009 173.426 168.187 170.872 169.241 168.5C169.249 168.5 169.249 168.5 169.249 168.491C172.149 161.992 174.151 156.917 174.258 154.915C174.975 142.023 165.476 127.186 165.476 127.186C165.476 127.194 165.468 127.203 165.468 127.211C165.46 127.211 165.46 127.219 165.46 127.227C165.46 127.252 165.452 127.277 165.443 127.302C165.427 127.343 165.41 127.392 165.402 127.442C165.394 127.475 165.386 127.499 165.377 127.532Z" fill="#3C4145"/>
<path d="M17.4072 136.635L61.604 146.257L82.6768 91.1616C83.1464 90.7909 89.1848 87.5451 93.1802 85.6422C97.3404 83.6568 102.613 81.2101 107.284 79.0518C109.516 78.022 111.617 77.0582 113.396 76.2344L113.545 76.3497C113.545 76.3497 110.933 85.0325 107.564 106.723V106.731C107.448 107.456 107.333 108.198 107.218 108.956C107.21 109.046 107.193 109.129 107.177 109.219C107.102 109.722 107.02 110.233 106.946 110.743C106.938 110.801 106.929 110.867 106.921 110.925C106.872 111.271 106.814 111.617 106.765 111.971C106.633 112.828 106.509 113.701 106.386 114.59C104.878 125.143 102.769 143.102 100.734 161.242V161.25C99.1281 175.543 95.4786 190.207 94.3171 201.155C94.3171 201.163 94.3171 201.172 94.3171 201.18C94.0864 203.322 93.5345 206.18 92.8013 209.41C92.7189 209.772 92.6283 210.143 92.5459 210.514C89.2754 224.329 82.9322 243.886 82.9322 243.886L81.0786 242.18L75.6004 237.122C74.34 235.961 73.8622 234.173 74.3729 232.542C77.4127 222.747 87.7267 188.073 89.6214 163.697C89.6214 163.689 89.6214 163.681 89.6214 163.672C90.2146 156.011 87.9738 148.803 86.6722 141.957C86.6475 142.015 86.631 142.072 86.6063 142.138C85.5189 145.162 84.3162 148.449 83.0969 151.645C79.8429 160.237 76.5065 168.195 75.1226 168.706C72.0333 169.843 13.8402 153.927 13.4365 151.645L17.4072 136.635Z" fill="#3C4145"/>
<path d="M145.302 97.8178L136.281 102.901L140.137 106.83L129.872 162.231C127.78 149.248 126.824 136.915 126.116 129.345C123.752 104.178 148.877 75.7812 150.443 74.043C151.645 74.5043 152.955 75.0068 154.298 75.5423L145.302 97.8178Z" fill="#51565C"/>
<path d="M113.676 76.1107C113.676 76.1107 110.306 87.1167 106.377 114.59C104.869 125.143 102.76 143.11 100.726 161.242L98.625 109.359L102.917 104.705L99.0946 99.935L107.267 79.0599C109.499 78.0302 111.6 77.0663 113.379 76.2425L113.676 76.1107Z" fill="#51565C"/>
<path d="M150.904 74.1666L143.424 69.6274C143.424 69.6274 143.218 73.73 124.69 84.4393L129.955 99.2512L150.904 74.1666Z" fill="#F5E2D9"/>
<path d="M119.764 71.687C119.764 71.687 120.052 76.1108 124.69 84.4394L114.425 97.8179L113.676 76.1108L119.764 71.687Z" fill="#F5E2D9"/>
<path d="M124.723 84.4393C124.723 84.4393 126.709 92.3972 125.992 94.6215C125.992 94.6215 121.618 96.2114 118.471 94.2261C118.471 94.2261 120.703 88.6489 124.723 84.4393Z" fill="#323657"/>
<path d="M114.434 199.203C113.321 193.584 114.384 176.762 114.425 176.054L115.381 176.112C115.373 176.285 114.285 193.527 115.373 199.013L114.434 199.203Z" fill="#AD9F99"/>
<path d="M122.227 196.616C122.227 196.616 113.248 197.687 110.282 198.428L110.669 208.495L122.425 207.243L122.227 196.616Z" fill="#69737A"/>
<path d="M120.259 93.5093C120.259 93.5093 110.241 118.8 111.881 147.097C113.569 176.441 116.354 187.085 116.354 187.085L122.524 194.828L125.243 185.313C125.243 185.313 116.955 147.897 122.31 111.493C123.282 104.894 124.715 92.3972 124.715 92.3972L120.259 93.5093Z" fill="#323657"/>
<path d="M150.351 212.927C150.351 212.927 148.201 217.227 146.051 217.936C143.901 218.653 140.771 222.146 140.771 222.146L155.895 230.112C155.895 230.112 159.924 222.236 160.105 217.219C160.286 212.211 150.351 212.927 150.351 212.927Z" fill="#EEA886"/>
<path d="M148.91 213.331L147.905 215.349C147.905 215.349 157.511 222.376 160.106 222.821L160.995 220.135L148.91 213.331Z" fill="#DECBC4"/>
<path d="M147.913 213.422C147.913 213.422 155.113 219.378 161.184 222.121L181.59 185.412L171.012 164.966C171.012 164.966 148.391 209.838 147.913 213.422Z" fill="#3C4145"/>
<path d="M86.9523 129.13C86.6145 135.919 86.664 141.949 86.664 141.949C86.664 141.949 86.664 141.949 86.664 141.957C86.664 141.99 86.6557 142.171 86.6393 142.476C86.6228 142.361 86.6063 142.245 86.5981 142.138C85.5106 145.162 84.3079 148.449 83.0887 151.645C82.8086 147.938 82.7344 144.486 82.8168 141.281C83.3029 122.243 89.2919 112.259 89.2919 112.259C87.9244 115.571 87.2653 122.697 86.9523 129.13Z" fill="#2D3133"/>
<path d="M178.394 200.801L162.058 220.531L176.054 196.336C176.861 197.843 177.644 199.335 178.394 200.801Z" fill="#2D3133"/>
<path d="M59.7502 176.062H22.0285C19.4418 176.062 17.1928 174.291 16.5832 171.779L0.197826 104.128C-0.658925 100.602 2.01842 97.2083 5.64313 97.2083H43.3649C45.9516 97.2083 48.2006 98.9794 48.8102 101.492L65.1955 169.142C66.044 172.668 63.3749 176.062 59.7502 176.062Z" fill="#D9C9C2"/>
<path d="M13.6088 157.255C15.4541 155.55 19.0129 154.553 22.061 152.518C25.109 150.483 22.5635 148.383 22.5635 148.383C25.6939 147.303 25.3644 145.878 24.9608 144.906C24.4171 143.588 20.9983 143.967 20.9983 143.967C20.9983 143.967 24.0628 143.292 25.3232 142.731C26.5836 142.171 26.1553 139.972 24.2193 139.28C22.2752 138.588 14.3667 140.532 14.3667 140.532C14.3667 140.532 15.6601 139.897 19.5566 137.945C23.4614 135.984 24.3182 134.205 22.0116 133.348C20.4134 132.755 17.2747 133.999 11.2363 138.052C6.69715 141.1 7.06785 141.504 7.06785 141.504C7.06785 141.504 11.4093 159.298 13.6088 157.255Z" fill="#EEA886"/>
</svg>
