<svg width="111" height="67" viewBox="0 0 111 67" fill="none" xmlns="http://www.w3.org/2000/svg">
<rect x="97" y="11" width="2" height="11" fill="#8950FC"/>
<path d="M85.2915 17.3466L69.0004 21.674L52.1073 17.1986C52.0697 17.5315 51.9568 17.7164 51.9568 18.1233C51.8816 19.4918 52.0697 20.7123 51.9568 22.0808C51.8816 22.8945 52.2954 23.5603 53.1231 24.0781C54.44 24.9657 56.0578 25.4835 57.7885 25.8534C61.8895 26.7781 66.0657 26.963 70.3172 26.815C73.5152 26.6671 76.6756 26.2972 79.7231 25.5205C81.1905 25.1137 82.6202 24.6329 83.8241 23.8931C84.9152 23.2274 85.442 22.3767 85.2538 21.3041C85.3291 19.6027 85.4796 18.863 85.2915 17.3466Z" fill="url(#paint0_linear)"/>
<path d="M106.849 10.0603L68.9999 20.0836L31.1504 10.0603L68.9999 0.0369873L106.849 10.0603Z" fill="url(#paint1_linear)"/>
<path d="M16.2176 46.185C15.1264 46.7558 13.057 47.2885 10.3854 47.2885C5.15526 47.2885 0.188477 43.9018 0.188477 36.177C0.188477 29.708 4.32746 24.7991 11.138 24.7991C13.8847 24.7991 15.4651 25.408 16.1424 25.7505L15.6532 27.0443C14.562 26.5115 12.9817 26.0929 11.1756 26.0929C5.34339 26.0929 1.80644 29.9363 1.80644 36.177C1.80644 42.1133 5.15526 45.9186 10.9122 45.9186C12.7559 45.9186 14.562 45.5381 15.8037 44.8912L16.2176 46.185Z" fill="#1BC5BD"/>
<path fill-rule="evenodd" clip-rule="evenodd" d="M27.8443 44.7389L28.0701 46.946H29.4623C29.2742 45.7664 29.2365 44.4726 29.2365 43.2549V37.2044C29.2365 34.4266 28.4087 31.0779 23.9687 31.0779C22.5765 31.0779 20.8457 31.4584 19.4535 32.4097L19.9426 33.5133C21.0715 32.7522 22.4637 32.3717 23.8182 32.3717C27.4304 32.3336 27.7315 35.4159 27.7315 36.9381V37.3947C21.4854 37.3186 18.3623 39.4876 18.3623 43.0646C18.3623 45.1195 19.7921 47.3266 22.8776 47.3266C25.3233 47.3266 27.0165 45.9186 27.7691 44.7389H27.8443ZM19.9426 42.7982C19.9426 39.069 24.345 38.5363 27.6938 38.6504V41.9991C27.6938 42.2655 27.6562 42.5699 27.5433 42.9124C27.0165 44.4345 25.5491 46.0327 22.9904 46.0327C21.4101 46.0327 19.9426 45.0434 19.9426 42.7982Z" fill="#1BC5BD"/>
<path d="M34.2027 36.0628C34.2027 34.5026 34.1651 32.9044 34.0898 31.3823H35.482L35.5573 34.5407H35.6326C36.3098 32.5619 37.8902 31.0398 39.9973 31.0398C40.2231 31.0398 40.4112 31.0778 40.637 31.1159V32.6C40.4112 32.5619 40.1854 32.5619 39.922 32.5619C37.8149 32.5619 36.3098 34.4265 35.8959 36.9C35.8207 37.3566 35.7831 37.8513 35.7831 38.384V46.946H34.278L34.2027 36.0628Z" fill="#1BC5BD"/>
<path fill-rule="evenodd" clip-rule="evenodd" d="M49.3666 45.9566C46.2059 45.9566 43.5344 43.9778 43.5344 39.0309H54.8601C54.8978 38.7646 54.8978 38.4982 54.8978 38.0796C54.8978 35.8345 53.9571 31.0398 48.9151 31.0398C44.9642 31.0398 42.0293 34.3124 42.0293 39.4876C42.0293 44.0159 44.7761 47.2885 49.1784 47.2885C51.85 47.2885 53.4303 46.6035 54.0323 46.2991L53.6561 45.0814C52.753 45.5 51.6242 45.9566 49.3666 45.9566ZM48.7269 32.3336C52.452 32.3336 53.3551 35.6442 53.3174 37.8132H43.6096C43.873 35.4159 45.3405 32.3336 48.7269 32.3336Z" fill="#1BC5BD"/>
<path fill-rule="evenodd" clip-rule="evenodd" d="M64.9066 45.9566C61.7459 45.9566 59.0744 43.9778 59.0744 39.0309H70.4002C70.4378 38.7646 70.4378 38.4982 70.4378 38.0796C70.4378 35.8345 69.4971 31.0398 64.4551 31.0398C60.5043 31.0398 57.5693 34.3124 57.5693 39.4876C57.5693 44.0159 60.3161 47.2885 64.7185 47.2885C67.39 47.2885 68.9704 46.6035 69.5724 46.2991L69.1961 45.0814C68.2931 45.5 67.1643 45.9566 64.9066 45.9566ZM64.267 32.3336C67.992 32.3336 68.8951 35.6442 68.8575 37.8132H59.1497C59.4131 35.4159 60.8805 32.3336 64.267 32.3336Z" fill="#1BC5BD"/>
<path d="M74.3512 36.0628C74.3512 34.5026 74.3135 32.9044 74.2383 31.3823H75.6305L75.7057 34.5407H75.781C76.4583 32.5619 78.0386 31.0398 80.1457 31.0398C80.3715 31.0398 80.5596 31.0778 80.7854 31.1159V32.6C80.5596 32.5619 80.3339 32.5619 80.0705 32.5619C77.9634 32.5619 76.4583 34.4265 76.0444 36.9C75.9691 37.3566 75.9315 37.8513 75.9315 38.384V46.946H74.4264L74.3512 36.0628Z" fill="#1BC5BD"/>
<path d="M83.833 25.1416H94.4815V26.4354H85.3381V35.0735H93.7289V36.4053H85.3381V46.946H83.833V25.1416Z" fill="#93C01F"/>
<rect x="97.6426" y="29.2894" width="1.50508" height="17.6566" fill="#93C01F"/>
<path d="M106.41 26.892V31.3823H110.775V32.638H106.41V42.7221C106.41 44.7009 107.012 45.9186 108.668 45.9186C109.458 45.9186 110.022 45.8044 110.398 45.6903L110.587 46.8699C110.097 47.0602 109.382 47.2504 108.479 47.2504C107.351 47.2504 106.448 46.908 105.846 46.1469C105.168 45.3478 104.905 44.0159 104.905 42.4557V32.638H102.309V31.3823H104.905V27.4248L106.41 26.892Z" fill="#93C01F"/>
<path fill-rule="evenodd" clip-rule="evenodd" d="M51.5872 57.2965C49.3295 56.3832 48.5394 55.546 48.5394 54.0239C48.5394 53.0345 49.179 51.3982 51.6624 51.3982C52.8665 51.3982 53.8072 51.7788 54.2587 52.0832L54.4844 52.2354L55.0865 50.9035L54.936 50.7894C54.3716 50.4089 53.2427 50.0283 51.7377 50.0283C48.9909 50.0283 47.0343 51.7788 47.0343 54.2142C47.0343 56.3071 48.3512 57.715 51.1733 58.7425C53.318 59.5796 54.1834 60.531 54.1834 62.2053C54.1834 64.0319 52.7912 65.2496 50.6841 65.2496C49.5177 65.2496 48.3512 64.9071 47.4482 64.2602L47.2224 64.108L46.6204 65.4398L46.7709 65.554C47.5987 66.2009 49.2166 66.6575 50.6088 66.6575C54.1458 66.6575 55.7261 64.3743 55.7261 62.1292C55.6509 59.4655 54.0329 58.2858 51.5872 57.2965ZM26.1512 50.1425C24.8343 50.1425 23.5173 50.2566 22.1627 50.485L21.9746 50.523V66.315L22.1627 66.3531C23.3668 66.4673 24.5333 66.5053 25.6244 66.5053C28.597 66.5053 31.0051 65.6301 32.4726 64.0319C33.8272 62.5097 34.5421 60.4168 34.5421 57.9434C34.5421 55.5841 33.9024 53.7575 32.5478 52.3876C31.1933 50.9035 28.9733 50.1425 26.1512 50.1425ZM25.7749 65.0973C24.9472 65.0973 24.1194 65.0973 23.5173 65.0212V51.7407C24.3075 51.5885 25.1729 51.5124 26.1136 51.5124C28.4465 51.5124 30.2149 52.1212 31.3814 53.3009C32.4726 54.4044 32.9994 55.9646 32.9617 57.9434C32.9617 62.5478 30.4031 65.0973 25.7749 65.0973ZM44.5133 58.5522H38.3424V64.9832H45.2658V66.3531H36.7997V50.2566H44.8895V51.6266H38.3424V57.1823H44.5133V58.5522ZM59.677 50.2566H58.1343V66.3531H59.677V50.2566ZM69.4224 59.5035H72.997V64.6407C72.5831 64.831 71.68 65.0973 69.9868 65.0973C65.9607 65.0973 63.5526 62.5478 63.5526 58.2858C63.5526 54.1 66.1112 51.4743 70.2126 51.4743C71.4543 51.4743 72.5078 51.6646 73.4109 52.1212L73.6366 52.2354L74.1634 50.9035L73.9753 50.8274C73.298 50.485 71.9058 50.1044 70.2878 50.1044C64.5685 50.1044 62.0099 54.2522 62.0099 58.3619C62.0099 60.8354 62.8 63.0425 64.1922 64.4124C65.6597 65.8204 67.5034 66.5053 69.8363 66.5053C71.9811 66.5053 73.6366 65.9726 74.4268 65.6301L74.5773 65.554V58.1336H69.46L69.4224 59.5035ZM87.1448 58.2478V50.2566H88.6499V66.3531H87.2953L81.3126 57.1442C81.1442 56.8746 80.9745 56.605 80.805 56.3357C80.0653 55.1603 79.3285 53.9897 78.7163 52.8442C78.7916 54.4044 78.7916 55.9266 78.7916 58.2097V66.3531H77.2865V50.2566H78.6787L84.7743 59.5796C85.8655 61.254 86.618 62.4717 87.2577 63.6894C87.1448 61.9009 87.1448 60.2646 87.1448 58.2478Z" fill="url(#paint2_linear)"/>
<path d="M99.9752 25.8646C99.9752 26.7779 99.2227 27.5389 98.3197 27.5389C97.4166 27.5389 96.6641 26.7779 96.6641 25.8646C96.6641 24.9513 97.4166 24.1902 98.3197 24.1902C99.2603 24.1902 99.9752 24.9513 99.9752 25.8646Z" fill="#93C01F"/>
<defs>
<linearGradient id="paint0_linear" x1="51.9476" y1="26.8628" x2="85.376" y2="26.8628" gradientUnits="userSpaceOnUse">
<stop offset="0.1892" stop-color="#8950FC" stop-opacity="0.8"/>
<stop offset="1" stop-color="#8950FC"/>
</linearGradient>
<linearGradient id="paint1_linear" x1="-4.36885" y1="10.1056" x2="-4.03855" y2="10.1056" gradientUnits="userSpaceOnUse">
<stop offset="0.1892" stop-color="#8950FC" stop-opacity="0.8"/>
<stop offset="1" stop-color="#8950FC"/>
</linearGradient>
<linearGradient id="paint2_linear" x1="21.952" y1="66.6164" x2="88.6432" y2="66.6164" gradientUnits="userSpaceOnUse">
<stop offset="0.1892" stop-color="#8950FC" stop-opacity="0.8"/>
<stop offset="1" stop-color="#8950FC"/>
</linearGradient>
</defs>
</svg>
