<svg width="228" height="67" viewBox="0 0 228 67" fill="none" xmlns="http://www.w3.org/2000/svg">
<path fill-rule="evenodd" clip-rule="evenodd" d="M0.974243 0.992188H227.973V41.6579H0.974243L12.1677 21.325L0.974243 0.992188Z" fill="#1BC5BD"/>
<path fill-rule="evenodd" clip-rule="evenodd" d="M205 41.6578V66.5844L228 41.6578H205Z" fill="#118A84"/>
<path d="M38.0728 27.3638L35.4168 22.8038H33.6568V27.3638H32.2008V16.2118H35.8008C36.6434 16.2118 37.3528 16.3558 37.9288 16.6438C38.5154 16.9318 38.9528 17.3211 39.2408 17.8118C39.5288 18.3024 39.6728 18.8624 39.6728 19.4918C39.6728 20.2598 39.4488 20.9371 39.0008 21.5238C38.5634 22.1104 37.9021 22.4998 37.0168 22.6918L39.8168 27.3638H38.0728ZM33.6568 21.6358H35.8008C36.5901 21.6358 37.1821 21.4438 37.5768 21.0598C37.9714 20.6651 38.1688 20.1424 38.1688 19.4918C38.1688 18.8304 37.9714 18.3184 37.5768 17.9558C37.1928 17.5931 36.6008 17.4118 35.8008 17.4118H33.6568V21.6358ZM49.9351 22.6438C49.9351 22.9211 49.9191 23.2144 49.8871 23.5238H42.8791C42.9325 24.3878 43.2258 25.0651 43.7591 25.5558C44.3031 26.0358 44.9591 26.2758 45.7271 26.2758C46.3565 26.2758 46.8791 26.1318 47.2951 25.8438C47.7218 25.5451 48.0205 25.1504 48.1911 24.6598H49.7591C49.5245 25.5024 49.0551 26.1904 48.3511 26.7238C47.6471 27.2464 46.7725 27.5078 45.7271 27.5078C44.8951 27.5078 44.1485 27.3211 43.4871 26.9478C42.8365 26.5744 42.3245 26.0464 41.9511 25.3638C41.5778 24.6704 41.3911 23.8704 41.3911 22.9638C41.3911 22.0571 41.5725 21.2624 41.9351 20.5798C42.2978 19.8971 42.8045 19.3744 43.4551 19.0118C44.1165 18.6384 44.8738 18.4518 45.7271 18.4518C46.5591 18.4518 47.2951 18.6331 47.9351 18.9958C48.5751 19.3584 49.0658 19.8598 49.4071 20.4998C49.7591 21.1291 49.9351 21.8438 49.9351 22.6438ZM48.4311 22.3398C48.4311 21.7851 48.3085 21.3104 48.0631 20.9158C47.8178 20.5104 47.4818 20.2064 47.0551 20.0038C46.6391 19.7904 46.1751 19.6838 45.6631 19.6838C44.9271 19.6838 44.2978 19.9184 43.7751 20.3878C43.2631 20.8571 42.9698 21.5078 42.8951 22.3398H48.4311ZM51.313 22.9638C51.313 22.0571 51.4943 21.2678 51.857 20.5958C52.2197 19.9131 52.721 19.3851 53.361 19.0118C54.0117 18.6384 54.753 18.4518 55.585 18.4518C56.6623 18.4518 57.5477 18.7131 58.241 19.2358C58.945 19.7584 59.409 20.4838 59.633 21.4118H58.065C57.9157 20.8784 57.6223 20.4571 57.185 20.1478C56.7583 19.8384 56.225 19.6838 55.585 19.6838C54.753 19.6838 54.081 19.9718 53.569 20.5478C53.057 21.1131 52.801 21.9184 52.801 22.9638C52.801 24.0198 53.057 24.8358 53.569 25.4118C54.081 25.9878 54.753 26.2758 55.585 26.2758C56.225 26.2758 56.7583 26.1264 57.185 25.8278C57.6117 25.5291 57.905 25.1024 58.065 24.5478H59.633C59.3983 25.4438 58.929 26.1638 58.225 26.7078C57.521 27.2411 56.641 27.5078 55.585 27.5078C54.753 27.5078 54.0117 27.3211 53.361 26.9478C52.721 26.5744 52.2197 26.0464 51.857 25.3638C51.4943 24.6811 51.313 23.8811 51.313 22.9638ZM65.3998 27.5078C64.5784 27.5078 63.8318 27.3211 63.1598 26.9478C62.4984 26.5744 61.9758 26.0464 61.5918 25.3638C61.2184 24.6704 61.0318 23.8704 61.0318 22.9638C61.0318 22.0678 61.2238 21.2784 61.6078 20.5958C62.0024 19.9024 62.5358 19.3744 63.2078 19.0118C63.8798 18.6384 64.6318 18.4518 65.4638 18.4518C66.2958 18.4518 67.0478 18.6384 67.7198 19.0118C68.3918 19.3744 68.9198 19.8971 69.3038 20.5798C69.6984 21.2624 69.8958 22.0571 69.8958 22.9638C69.8958 23.8704 69.6931 24.6704 69.2878 25.3638C68.8931 26.0464 68.3544 26.5744 67.6718 26.9478C66.9891 27.3211 66.2318 27.5078 65.3998 27.5078ZM65.3998 26.2278C65.9224 26.2278 66.4131 26.1051 66.8718 25.8598C67.3304 25.6144 67.6984 25.2464 67.9758 24.7558C68.2638 24.2651 68.4078 23.6678 68.4078 22.9638C68.4078 22.2598 68.2691 21.6624 67.9918 21.1718C67.7144 20.6811 67.3518 20.3184 66.9038 20.0838C66.4558 19.8384 65.9704 19.7158 65.4478 19.7158C64.9144 19.7158 64.4238 19.8384 63.9758 20.0838C63.5384 20.3184 63.1864 20.6811 62.9198 21.1718C62.6531 21.6624 62.5198 22.2598 62.5198 22.9638C62.5198 23.6784 62.6478 24.2811 62.9038 24.7718C63.1704 25.2624 63.5224 25.6304 63.9598 25.8758C64.3971 26.1104 64.8771 26.2278 65.3998 26.2278ZM82.3541 18.4358C83.0368 18.4358 83.6448 18.5798 84.1781 18.8678C84.7115 19.1451 85.1328 19.5664 85.4421 20.1318C85.7515 20.6971 85.9061 21.3851 85.9061 22.1958V27.3638H84.4661V22.4038C84.4661 21.5291 84.2475 20.8624 83.8101 20.4038C83.3835 19.9344 82.8021 19.6998 82.0661 19.6998C81.3088 19.6998 80.7061 19.9451 80.2581 20.4358C79.8101 20.9158 79.5861 21.6144 79.5861 22.5318V27.3638H78.1461V22.4038C78.1461 21.5291 77.9275 20.8624 77.4901 20.4038C77.0635 19.9344 76.4821 19.6998 75.7461 19.6998C74.9888 19.6998 74.3861 19.9451 73.9381 20.4358C73.4901 20.9158 73.2661 21.6144 73.2661 22.5318V27.3638H71.8101V18.5958H73.2661V19.8598C73.5541 19.4011 73.9381 19.0491 74.4181 18.8038C74.9088 18.5584 75.4475 18.4358 76.0341 18.4358C76.7701 18.4358 77.4208 18.6011 77.9861 18.9318C78.5515 19.2624 78.9728 19.7478 79.2501 20.3878C79.4955 19.7691 79.9008 19.2891 80.4661 18.9478C81.0315 18.6064 81.6608 18.4358 82.3541 18.4358ZM98.8385 18.4358C99.5212 18.4358 100.129 18.5798 100.663 18.8678C101.196 19.1451 101.617 19.5664 101.927 20.1318C102.236 20.6971 102.391 21.3851 102.391 22.1958V27.3638H100.951V22.4038C100.951 21.5291 100.732 20.8624 100.295 20.4038C99.8678 19.9344 99.2865 19.6998 98.5505 19.6998C97.7932 19.6998 97.1905 19.9451 96.7425 20.4358C96.2945 20.9158 96.0705 21.6144 96.0705 22.5318V27.3638H94.6305V22.4038C94.6305 21.5291 94.4118 20.8624 93.9745 20.4038C93.5478 19.9344 92.9665 19.6998 92.2305 19.6998C91.4732 19.6998 90.8705 19.9451 90.4225 20.4358C89.9745 20.9158 89.7505 21.6144 89.7505 22.5318V27.3638H88.2945V18.5958H89.7505V19.8598C90.0385 19.4011 90.4225 19.0491 90.9025 18.8038C91.3932 18.5584 91.9318 18.4358 92.5185 18.4358C93.2545 18.4358 93.9052 18.6011 94.4705 18.9318C95.0358 19.2624 95.4572 19.7478 95.7345 20.3878C95.9798 19.7691 96.3852 19.2891 96.9505 18.9478C97.5158 18.6064 98.1452 18.4358 98.8385 18.4358ZM112.779 22.6438C112.779 22.9211 112.763 23.2144 112.731 23.5238H105.723C105.776 24.3878 106.07 25.0651 106.603 25.5558C107.147 26.0358 107.803 26.2758 108.571 26.2758C109.2 26.2758 109.723 26.1318 110.139 25.8438C110.566 25.5451 110.864 25.1504 111.035 24.6598H112.603C112.368 25.5024 111.899 26.1904 111.195 26.7238C110.491 27.2464 109.616 27.5078 108.571 27.5078C107.739 27.5078 106.992 27.3211 106.331 26.9478C105.68 26.5744 105.168 26.0464 104.795 25.3638C104.422 24.6704 104.235 23.8704 104.235 22.9638C104.235 22.0571 104.416 21.2624 104.779 20.5798C105.142 19.8971 105.648 19.3744 106.299 19.0118C106.96 18.6384 107.718 18.4518 108.571 18.4518C109.403 18.4518 110.139 18.6331 110.779 18.9958C111.419 19.3584 111.91 19.8598 112.251 20.4998C112.603 21.1291 112.779 21.8438 112.779 22.6438ZM111.275 22.3398C111.275 21.7851 111.152 21.3104 110.907 20.9158C110.662 20.5104 110.326 20.2064 109.899 20.0038C109.483 19.7904 109.019 19.6838 108.507 19.6838C107.771 19.6838 107.142 19.9184 106.619 20.3878C106.107 20.8571 105.814 21.5078 105.739 22.3398H111.275ZM114.157 22.9478C114.157 22.0518 114.338 21.2678 114.701 20.5958C115.063 19.9131 115.559 19.3851 116.189 19.0118C116.829 18.6384 117.543 18.4518 118.333 18.4518C119.015 18.4518 119.65 18.6118 120.237 18.9318C120.823 19.2411 121.271 19.6518 121.581 20.1638V15.5238H123.053V27.3638H121.581V25.7158C121.293 26.2384 120.866 26.6704 120.301 27.0118C119.735 27.3424 119.074 27.5078 118.317 27.5078C117.538 27.5078 116.829 27.3158 116.189 26.9318C115.559 26.5478 115.063 26.0091 114.701 25.3158C114.338 24.6224 114.157 23.8331 114.157 22.9478ZM121.581 22.9638C121.581 22.3024 121.447 21.7264 121.181 21.2358C120.914 20.7451 120.551 20.3718 120.093 20.1158C119.645 19.8491 119.149 19.7158 118.605 19.7158C118.061 19.7158 117.565 19.8438 117.117 20.0998C116.669 20.3558 116.311 20.7291 116.045 21.2198C115.778 21.7104 115.645 22.2864 115.645 22.9478C115.645 23.6198 115.778 24.2064 116.045 24.7078C116.311 25.1984 116.669 25.5771 117.117 25.8438C117.565 26.0998 118.061 26.2278 118.605 26.2278C119.149 26.2278 119.645 26.0998 120.093 25.8438C120.551 25.5771 120.914 25.1984 121.181 24.7078C121.447 24.2064 121.581 23.6251 121.581 22.9638ZM133.513 22.6438C133.513 22.9211 133.497 23.2144 133.465 23.5238H126.457C126.511 24.3878 126.804 25.0651 127.337 25.5558C127.881 26.0358 128.537 26.2758 129.305 26.2758C129.935 26.2758 130.457 26.1318 130.873 25.8438C131.3 25.5451 131.599 25.1504 131.769 24.6598H133.337C133.103 25.5024 132.633 26.1904 131.929 26.7238C131.225 27.2464 130.351 27.5078 129.305 27.5078C128.473 27.5078 127.727 27.3211 127.065 26.9478C126.415 26.5744 125.903 26.0464 125.529 25.3638C125.156 24.6704 124.969 23.8704 124.969 22.9638C124.969 22.0571 125.151 21.2624 125.513 20.5798C125.876 19.8971 126.383 19.3744 127.033 19.0118C127.695 18.6384 128.452 18.4518 129.305 18.4518C130.137 18.4518 130.873 18.6331 131.513 18.9958C132.153 19.3584 132.644 19.8598 132.985 20.4998C133.337 21.1291 133.513 21.8438 133.513 22.6438ZM132.009 22.3398C132.009 21.7851 131.887 21.3104 131.641 20.9158C131.396 20.5104 131.06 20.2064 130.633 20.0038C130.217 19.7904 129.753 19.6838 129.241 19.6838C128.505 19.6838 127.876 19.9184 127.353 20.3878C126.841 20.8571 126.548 21.5078 126.473 22.3398H132.009ZM134.891 22.9478C134.891 22.0518 135.072 21.2678 135.435 20.5958C135.798 19.9131 136.294 19.3851 136.923 19.0118C137.563 18.6384 138.278 18.4518 139.067 18.4518C139.75 18.4518 140.384 18.6118 140.971 18.9318C141.558 19.2411 142.006 19.6518 142.315 20.1638V15.5238H143.787V27.3638H142.315V25.7158C142.027 26.2384 141.6 26.6704 141.035 27.0118C140.47 27.3424 139.808 27.5078 139.051 27.5078C138.272 27.5078 137.563 27.3158 136.923 26.9318C136.294 26.5478 135.798 26.0091 135.435 25.3158C135.072 24.6224 134.891 23.8331 134.891 22.9478ZM142.315 22.9638C142.315 22.3024 142.182 21.7264 141.915 21.2358C141.648 20.7451 141.286 20.3718 140.827 20.1158C140.379 19.8491 139.883 19.7158 139.339 19.7158C138.795 19.7158 138.299 19.8438 137.851 20.0998C137.403 20.3558 137.046 20.7291 136.779 21.2198C136.512 21.7104 136.379 22.2864 136.379 22.9478C136.379 23.6198 136.512 24.2064 136.779 24.7078C137.046 25.1984 137.403 25.5771 137.851 25.8438C138.299 26.0998 138.795 26.2278 139.339 26.2278C139.883 26.2278 140.379 26.0998 140.827 25.8438C141.286 25.5771 141.648 25.1984 141.915 24.7078C142.182 24.2064 142.315 23.6251 142.315 22.9638ZM156.817 16.2118V17.3958H151.969V21.1558H155.905V22.3398H151.969V27.3638H150.513V16.2118H156.817ZM166.576 22.6438C166.576 22.9211 166.56 23.2144 166.528 23.5238H159.52C159.573 24.3878 159.866 25.0651 160.4 25.5558C160.944 26.0358 161.6 26.2758 162.368 26.2758C162.997 26.2758 163.52 26.1318 163.936 25.8438C164.362 25.5451 164.661 25.1504 164.832 24.6598H166.4C166.165 25.5024 165.696 26.1904 164.992 26.7238C164.288 27.2464 163.413 27.5078 162.368 27.5078C161.536 27.5078 160.789 27.3211 160.128 26.9478C159.477 26.5744 158.965 26.0464 158.592 25.3638C158.218 24.6704 158.032 23.8704 158.032 22.9638C158.032 22.0571 158.213 21.2624 158.576 20.5798C158.938 19.8971 159.445 19.3744 160.096 19.0118C160.757 18.6384 161.514 18.4518 162.368 18.4518C163.2 18.4518 163.936 18.6331 164.576 18.9958C165.216 19.3584 165.706 19.8598 166.048 20.4998C166.4 21.1291 166.576 21.8438 166.576 22.6438ZM165.072 22.3398C165.072 21.7851 164.949 21.3104 164.704 20.9158C164.458 20.5104 164.122 20.2064 163.696 20.0038C163.28 19.7904 162.816 19.6838 162.304 19.6838C161.568 19.6838 160.938 19.9184 160.416 20.3878C159.904 20.8571 159.61 21.5078 159.536 22.3398H165.072ZM167.954 22.9478C167.954 22.0518 168.135 21.2678 168.498 20.5958C168.86 19.9131 169.356 19.3851 169.986 19.0118C170.626 18.6384 171.335 18.4518 172.114 18.4518C172.882 18.4518 173.548 18.6171 174.114 18.9478C174.679 19.2784 175.1 19.6944 175.378 20.1958V18.5958H176.85V27.3638H175.378V25.7318C175.09 26.2438 174.658 26.6704 174.082 27.0118C173.516 27.3424 172.855 27.5078 172.098 27.5078C171.319 27.5078 170.615 27.3158 169.986 26.9318C169.356 26.5478 168.86 26.0091 168.498 25.3158C168.135 24.6224 167.954 23.8331 167.954 22.9478ZM175.378 22.9638C175.378 22.3024 175.244 21.7264 174.978 21.2358C174.711 20.7451 174.348 20.3718 173.89 20.1158C173.442 19.8491 172.946 19.7158 172.402 19.7158C171.858 19.7158 171.362 19.8438 170.914 20.0998C170.466 20.3558 170.108 20.7291 169.842 21.2198C169.575 21.7104 169.442 22.2864 169.442 22.9478C169.442 23.6198 169.575 24.2064 169.842 24.7078C170.108 25.1984 170.466 25.5771 170.914 25.8438C171.362 26.0998 171.858 26.2278 172.402 26.2278C172.946 26.2278 173.442 26.0998 173.89 25.8438C174.348 25.5771 174.711 25.1984 174.978 24.7078C175.244 24.2064 175.378 23.6251 175.378 22.9638ZM181.086 19.7958V24.9638C181.086 25.3904 181.177 25.6944 181.358 25.8758C181.539 26.0464 181.854 26.1318 182.302 26.1318H183.374V27.3638H182.062C181.251 27.3638 180.643 27.1771 180.238 26.8038C179.833 26.4304 179.63 25.8171 179.63 24.9638V19.7958H178.494V18.5958H179.63V16.3878H181.086V18.5958H183.374V19.7958H181.086ZM192.914 18.5958V27.3638H191.458V26.0678C191.181 26.5158 190.792 26.8678 190.29 27.1238C189.8 27.3691 189.256 27.4918 188.658 27.4918C187.976 27.4918 187.362 27.3531 186.818 27.0758C186.274 26.7878 185.842 26.3611 185.522 25.7958C185.213 25.2304 185.058 24.5424 185.058 23.7318V18.5958H186.498V23.5398C186.498 24.4038 186.717 25.0704 187.154 25.5398C187.592 25.9984 188.189 26.2278 188.946 26.2278C189.725 26.2278 190.338 25.9878 190.786 25.5078C191.234 25.0278 191.458 24.3291 191.458 23.4118V18.5958H192.914ZM196.829 20.0198C197.085 19.5184 197.447 19.1291 197.917 18.8518C198.397 18.5744 198.978 18.4358 199.661 18.4358V19.9398H199.277C197.645 19.9398 196.829 20.8251 196.829 22.5958V27.3638H195.373V18.5958H196.829V20.0198ZM209.341 22.6438C209.341 22.9211 209.325 23.2144 209.293 23.5238H202.285C202.339 24.3878 202.632 25.0651 203.165 25.5558C203.709 26.0358 204.365 26.2758 205.133 26.2758C205.763 26.2758 206.285 26.1318 206.701 25.8438C207.128 25.5451 207.427 25.1504 207.597 24.6598H209.165C208.931 25.5024 208.461 26.1904 207.757 26.7238C207.053 27.2464 206.179 27.5078 205.133 27.5078C204.301 27.5078 203.555 27.3211 202.893 26.9478C202.243 26.5744 201.731 26.0464 201.357 25.3638C200.984 24.6704 200.797 23.8704 200.797 22.9638C200.797 22.0571 200.979 21.2624 201.341 20.5798C201.704 19.8971 202.211 19.3744 202.861 19.0118C203.523 18.6384 204.28 18.4518 205.133 18.4518C205.965 18.4518 206.701 18.6331 207.341 18.9958C207.981 19.3584 208.472 19.8598 208.813 20.4998C209.165 21.1291 209.341 21.8438 209.341 22.6438ZM207.837 22.3398C207.837 21.7851 207.715 21.3104 207.469 20.9158C207.224 20.5104 206.888 20.2064 206.461 20.0038C206.045 19.7904 205.581 19.6838 205.069 19.6838C204.333 19.6838 203.704 19.9184 203.181 20.3878C202.669 20.8571 202.376 21.5078 202.301 22.3398H207.837Z" fill="white"/>
</svg>
