<svg width="221" height="214" viewBox="0 0 221 214" fill="none" xmlns="http://www.w3.org/2000/svg">
<rect width="221" height="214" rx="20" fill="#F3F6F9"/>
<mask id="mask0" mask-type="alpha" maskUnits="userSpaceOnUse" x="0" y="0" width="221" height="214">
<rect width="221" height="214" rx="20" fill="white"/>
</mask>
<g mask="url(#mask0)">
<path d="M170.592 204.056L166.728 174.204C166.148 169.694 162.935 165.915 158.478 164.478L143.575 159.682C141.531 159.019 139.287 159.442 137.711 160.738L133.32 159.327C130.829 158.523 129.147 156.27 129.147 153.731V144.223L142.296 138.931C149.121 136.186 153.565 129.744 153.565 122.605V119.655C158.624 119.655 162.722 115.696 162.722 110.81C162.722 108.608 161.886 106.595 160.505 105.043C163.098 95.9331 170.379 67.1196 162.722 54.7947L165.776 43C165.776 43 133.723 43.7353 116.936 48.8952L123.043 43C123.043 43 80.1159 43 71.1533 57.7402C71.1533 57.7402 55.8881 57.6205 55.8881 75.4301C55.8881 81.9495 59.6546 98.2287 61.2701 104.919C59.8228 106.484 58.942 108.549 58.942 110.81C58.942 115.696 63.0405 119.655 68.0993 119.655V122.605C68.0993 129.744 72.543 136.186 79.3679 138.931L92.5174 144.223V153.731C92.5174 156.27 90.8356 158.523 88.3437 159.327L83.9532 160.738C82.3775 159.442 80.1336 159.023 78.0888 159.682L63.1909 164.478C58.7296 165.915 55.5163 169.694 54.9365 174.204L51.0726 204.056C50.3866 209.336 54.6488 214 60.1591 214H60.2432H161.421H161.505C167.015 214 171.278 209.336 170.592 204.056Z" fill="#FFD7A3"/>
<path d="M129.147 144.223H92.5173V153.731C92.5173 155.856 91.3002 157.724 89.459 158.767C115.059 163.093 129.147 144.223 129.147 144.223Z" fill="#FDC88E"/>
<path d="M61.9955 107.86C61.9955 107.86 55.8877 83.7322 55.8877 75.4301C55.8877 57.6205 71.1529 57.7402 71.1529 57.7402C80.1199 43 123.043 43 123.043 43L116.935 48.8952C133.727 43.7353 165.776 43 165.776 43L162.722 54.7947C171.879 69.5349 159.672 107.86 159.672 107.86H61.9955Z" fill="#734A3E"/>
<path d="M123.043 43C123.043 43 80.1199 43 71.1529 57.7402C71.1529 57.7402 55.8877 57.6205 55.8877 75.4301C55.8877 83.7322 61.9955 107.86 61.9955 107.86C61.9955 107.86 125.46 80.4661 165.776 43C165.776 43 133.727 43.7353 116.94 48.8952L123.043 43Z" fill="#623F33"/>
<path d="M153.565 101.965V96.0698C153.565 87.9259 146.732 81.3296 138.305 81.3296H83.3605C74.9334 81.3296 68.0997 87.9259 68.0997 96.0698V101.965C63.0408 101.965 58.9424 105.924 58.9424 110.81C58.9424 115.696 63.0408 119.655 68.0997 119.655V122.605C68.0997 129.744 72.5434 136.186 79.3683 138.931L99.0904 146.87C102.813 148.366 106.8 149.14 110.833 149.14C114.86 149.14 118.852 148.366 122.57 146.87L142.297 138.931C149.122 136.186 153.565 129.744 153.565 122.605V119.655C158.624 119.655 162.723 115.696 162.723 110.81C162.723 105.924 158.624 101.965 153.565 101.965Z" fill="#FFE1B2"/>
<path d="M89.468 113.76C87.7861 113.76 86.4141 112.43 86.4141 110.81V107.86C86.4141 106.24 87.7861 104.915 89.468 104.915C91.1454 104.915 92.5175 106.24 92.5175 107.86V110.81C92.5175 112.43 91.1454 113.76 89.468 113.76Z" fill="#623F33"/>
<path d="M132.2 113.76C130.523 113.76 129.146 112.43 129.146 110.81V107.86C129.146 106.24 130.523 104.915 132.2 104.915C133.878 104.915 135.25 106.24 135.25 107.86V110.81C135.25 112.43 133.878 113.76 132.2 113.76Z" fill="#623F33"/>
<path d="M110.832 134.476C105.406 134.476 100.329 133.19 96.9078 130.937C95.5137 130.022 95.1507 128.188 96.0979 126.841C97.045 125.499 98.9482 125.148 100.338 126.063C102.741 127.641 106.663 128.581 110.832 128.581C115.001 128.581 118.927 127.641 121.326 126.063C122.72 125.144 124.619 125.495 125.566 126.841C126.513 128.188 126.155 130.022 124.76 130.937C121.335 133.19 116.258 134.476 110.832 134.476Z" fill="#E4B07B"/>
<path d="M170.592 204.056L166.728 174.204C166.148 169.694 162.935 165.915 158.478 164.478L143.575 159.682C140.982 158.844 138.065 159.737 136.6 161.969C131.187 170.203 121.676 175.67 110.832 175.67C99.9885 175.67 90.4771 170.203 85.0641 161.969C83.5991 159.737 80.6824 158.844 78.0888 159.682L63.1909 164.478C58.7296 165.915 55.5163 169.694 54.9365 174.204L51.0726 204.056C50.3866 209.336 54.6488 214 60.1591 214H161.505C167.015 214 171.278 209.336 170.592 204.056Z" fill="#00BEA4"/>
<path d="M57.4814 168.364C56.1227 170.019 55.2153 172.024 54.9365 174.204L51.0726 204.056C50.3866 209.336 54.6488 214 60.1591 214H77.2567V194.81C77.2567 191.975 76.1989 189.235 74.2736 187.089L57.4814 168.364Z" fill="#00AB9A"/>
<path d="M164.187 168.364C165.541 170.019 166.449 172.024 166.732 174.204L170.596 204.056C171.277 209.336 167.015 214 161.509 214H144.407V194.81C144.407 191.975 145.469 189.235 147.39 187.089L164.187 168.364Z" fill="#00AB9A"/>
<path d="M84.1217 132.822C81.6476 130.257 80.311 126.88 80.311 123.378V89.9651C90.026 89.2597 120.654 86.7033 138.305 81.3296H83.3605C82.3115 81.3296 81.2936 81.445 80.3066 81.6502V81.6246C73.3445 82.9926 68.0997 88.9391 68.0997 96.0698V101.965C63.0408 101.965 58.9424 105.924 58.9424 110.81C58.9424 115.696 63.0408 119.655 68.0997 119.655V122.605C68.0997 129.744 72.5434 136.186 79.3683 138.931L99.0904 146.87C100.055 147.259 101.042 147.592 102.038 147.883C93.3233 141.723 87.5209 136.34 84.1217 132.822Z" fill="#FFD7A3"/>
</g>
</svg>
